<?xml version="1.0" encoding="utf-8" standalone="no"?>
<!DOCTYPE svg PUBLIC "-//W3C//DTD SVG 1.1//EN"
  "http://www.w3.org/Graphics/SVG/1.1/DTD/svg11.dtd">
<svg xmlns:xlink="http://www.w3.org/1999/xlink" width="454.464pt" height="339.262782pt" viewBox="0 0 454.464 339.262782" xmlns="http://www.w3.org/2000/svg" version="1.1">
 <metadata>
  <rdf:RDF xmlns:dc="http://purl.org/dc/elements/1.1/" xmlns:cc="http://creativecommons.org/ns#" xmlns:rdf="http://www.w3.org/1999/02/22-rdf-syntax-ns#">
   <cc:Work>
    <dc:type rdf:resource="http://purl.org/dc/dcmitype/StillImage"/>
    <dc:date>2025-05-29T17:37:18.026415</dc:date>
    <dc:format>image/svg+xml</dc:format>
    <dc:creator>
     <cc:Agent>
      <dc:title>Matplotlib v3.9.2, https://matplotlib.org/</dc:title>
     </cc:Agent>
    </dc:creator>
   </cc:Work>
  </rdf:RDF>
 </metadata>
 <defs>
  <style type="text/css">*{stroke-linejoin: round; stroke-linecap: butt}</style>
 </defs>
 <g id="figure_1">
  <g id="patch_1">
   <path d="M 0 339.262782 
L 454.464 339.262782 
L 454.464 0 
L 0 0 
z
" style="fill: #ffffff"/>
  </g>
  <g id="axes_1">
   <g id="patch_2">
    <path d="M 45.937625 302.935407 
L 442.370375 302.935407 
L 442.370375 8.89182 
L 45.937625 8.89182 
z
" style="fill: #ffffff"/>
   </g>
   <g id="matplotlib.axis_1">
    <g id="xtick_1">
     <g id="line2d_1">
      <defs>
       <path id="mfc8bbf5984" d="M 0 0 
L 0 4.8 
" style="stroke: #262626"/>
      </defs>
      <g>
       <use xlink:href="#mfc8bbf5984" x="69.257199" y="302.935407" style="fill: #262626; stroke: #262626"/>
      </g>
     </g>
     <g id="text_1">
      <!-- −4 -->
      <g style="fill: #262626" transform="translate(64.240511 317.534282) scale(0.088 -0.088)">
       <defs>
        <path id="ArialMT-2212" d="M 3381 1997 
L 356 1997 
L 356 2522 
L 3381 2522 
L 3381 1997 
z
" transform="scale(0.015625)"/>
        <path id="ArialMT-34" d="M 2069 0 
L 2069 1097 
L 81 1097 
L 81 1613 
L 2172 4581 
L 2631 4581 
L 2631 1613 
L 3250 1613 
L 3250 1097 
L 2631 1097 
L 2631 0 
L 2069 0 
z
M 2069 1613 
L 2069 3678 
L 634 1613 
L 2069 1613 
z
" transform="scale(0.015625)"/>
       </defs>
       <use xlink:href="#ArialMT-2212"/>
       <use xlink:href="#ArialMT-34" x="58.398438"/>
      </g>
     </g>
    </g>
    <g id="xtick_2">
     <g id="line2d_2">
      <g>
       <use xlink:href="#mfc8bbf5984" x="115.896346" y="302.935407" style="fill: #262626; stroke: #262626"/>
      </g>
     </g>
     <g id="text_2">
      <!-- −2 -->
      <g style="fill: #262626" transform="translate(110.879658 317.534282) scale(0.088 -0.088)">
       <defs>
        <path id="ArialMT-32" d="M 3222 541 
L 3222 0 
L 194 0 
Q 188 203 259 391 
Q 375 700 629 1000 
Q 884 1300 1366 1694 
Q 2113 2306 2375 2664 
Q 2638 3022 2638 3341 
Q 2638 3675 2398 3904 
Q 2159 4134 1775 4134 
Q 1369 4134 1125 3890 
Q 881 3647 878 3216 
L 300 3275 
Q 359 3922 746 4261 
Q 1134 4600 1788 4600 
Q 2447 4600 2831 4234 
Q 3216 3869 3216 3328 
Q 3216 3053 3103 2787 
Q 2991 2522 2730 2228 
Q 2469 1934 1863 1422 
Q 1356 997 1212 845 
Q 1069 694 975 541 
L 3222 541 
z
" transform="scale(0.015625)"/>
       </defs>
       <use xlink:href="#ArialMT-2212"/>
       <use xlink:href="#ArialMT-32" x="58.398438"/>
      </g>
     </g>
    </g>
    <g id="xtick_3">
     <g id="line2d_3">
      <g>
       <use xlink:href="#mfc8bbf5984" x="162.535493" y="302.935407" style="fill: #262626; stroke: #262626"/>
      </g>
     </g>
     <g id="text_3">
      <!-- 0 -->
      <g style="fill: #262626" transform="translate(160.08868 317.534282) scale(0.088 -0.088)">
       <defs>
        <path id="ArialMT-30" d="M 266 2259 
Q 266 3072 433 3567 
Q 600 4063 929 4331 
Q 1259 4600 1759 4600 
Q 2128 4600 2406 4451 
Q 2684 4303 2865 4023 
Q 3047 3744 3150 3342 
Q 3253 2941 3253 2259 
Q 3253 1453 3087 958 
Q 2922 463 2592 192 
Q 2263 -78 1759 -78 
Q 1097 -78 719 397 
Q 266 969 266 2259 
z
M 844 2259 
Q 844 1131 1108 757 
Q 1372 384 1759 384 
Q 2147 384 2411 759 
Q 2675 1134 2675 2259 
Q 2675 3391 2411 3762 
Q 2147 4134 1753 4134 
Q 1366 4134 1134 3806 
Q 844 3388 844 2259 
z
" transform="scale(0.015625)"/>
       </defs>
       <use xlink:href="#ArialMT-30"/>
      </g>
     </g>
    </g>
    <g id="xtick_4">
     <g id="line2d_4">
      <g>
       <use xlink:href="#mfc8bbf5984" x="209.17464" y="302.935407" style="fill: #262626; stroke: #262626"/>
      </g>
     </g>
     <g id="text_4">
      <!-- 2 -->
      <g style="fill: #262626" transform="translate(206.727827 317.534282) scale(0.088 -0.088)">
       <use xlink:href="#ArialMT-32"/>
      </g>
     </g>
    </g>
    <g id="xtick_5">
     <g id="line2d_5">
      <g>
       <use xlink:href="#mfc8bbf5984" x="255.813787" y="302.935407" style="fill: #262626; stroke: #262626"/>
      </g>
     </g>
     <g id="text_5">
      <!-- 4 -->
      <g style="fill: #262626" transform="translate(253.366974 317.534282) scale(0.088 -0.088)">
       <use xlink:href="#ArialMT-34"/>
      </g>
     </g>
    </g>
    <g id="xtick_6">
     <g id="line2d_6">
      <g>
       <use xlink:href="#mfc8bbf5984" x="302.452934" y="302.935407" style="fill: #262626; stroke: #262626"/>
      </g>
     </g>
     <g id="text_6">
      <!-- 6 -->
      <g style="fill: #262626" transform="translate(300.006121 317.534282) scale(0.088 -0.088)">
       <defs>
        <path id="ArialMT-36" d="M 3184 3459 
L 2625 3416 
Q 2550 3747 2413 3897 
Q 2184 4138 1850 4138 
Q 1581 4138 1378 3988 
Q 1113 3794 959 3422 
Q 806 3050 800 2363 
Q 1003 2672 1297 2822 
Q 1591 2972 1913 2972 
Q 2475 2972 2870 2558 
Q 3266 2144 3266 1488 
Q 3266 1056 3080 686 
Q 2894 316 2569 119 
Q 2244 -78 1831 -78 
Q 1128 -78 684 439 
Q 241 956 241 2144 
Q 241 3472 731 4075 
Q 1159 4600 1884 4600 
Q 2425 4600 2770 4297 
Q 3116 3994 3184 3459 
z
M 888 1484 
Q 888 1194 1011 928 
Q 1134 663 1356 523 
Q 1578 384 1822 384 
Q 2178 384 2434 671 
Q 2691 959 2691 1453 
Q 2691 1928 2437 2201 
Q 2184 2475 1800 2475 
Q 1419 2475 1153 2201 
Q 888 1928 888 1484 
z
" transform="scale(0.015625)"/>
       </defs>
       <use xlink:href="#ArialMT-36"/>
      </g>
     </g>
    </g>
    <g id="xtick_7">
     <g id="line2d_7">
      <g>
       <use xlink:href="#mfc8bbf5984" x="349.092081" y="302.935407" style="fill: #262626; stroke: #262626"/>
      </g>
     </g>
     <g id="text_7">
      <!-- 8 -->
      <g style="fill: #262626" transform="translate(346.645268 317.534282) scale(0.088 -0.088)">
       <defs>
        <path id="ArialMT-38" d="M 1131 2484 
Q 781 2613 612 2850 
Q 444 3088 444 3419 
Q 444 3919 803 4259 
Q 1163 4600 1759 4600 
Q 2359 4600 2725 4251 
Q 3091 3903 3091 3403 
Q 3091 3084 2923 2848 
Q 2756 2613 2416 2484 
Q 2838 2347 3058 2040 
Q 3278 1734 3278 1309 
Q 3278 722 2862 322 
Q 2447 -78 1769 -78 
Q 1091 -78 675 323 
Q 259 725 259 1325 
Q 259 1772 486 2073 
Q 713 2375 1131 2484 
z
M 1019 3438 
Q 1019 3113 1228 2906 
Q 1438 2700 1772 2700 
Q 2097 2700 2305 2904 
Q 2513 3109 2513 3406 
Q 2513 3716 2298 3927 
Q 2084 4138 1766 4138 
Q 1444 4138 1231 3931 
Q 1019 3725 1019 3438 
z
M 838 1322 
Q 838 1081 952 856 
Q 1066 631 1291 507 
Q 1516 384 1775 384 
Q 2178 384 2440 643 
Q 2703 903 2703 1303 
Q 2703 1709 2433 1975 
Q 2163 2241 1756 2241 
Q 1359 2241 1098 1978 
Q 838 1716 838 1322 
z
" transform="scale(0.015625)"/>
       </defs>
       <use xlink:href="#ArialMT-38"/>
      </g>
     </g>
    </g>
    <g id="xtick_8">
     <g id="line2d_8">
      <g>
       <use xlink:href="#mfc8bbf5984" x="395.731228" y="302.935407" style="fill: #262626; stroke: #262626"/>
      </g>
     </g>
     <g id="text_8">
      <!-- 10 -->
      <g style="fill: #262626" transform="translate(390.837603 317.534282) scale(0.088 -0.088)">
       <defs>
        <path id="ArialMT-31" d="M 2384 0 
L 1822 0 
L 1822 3584 
Q 1619 3391 1289 3197 
Q 959 3003 697 2906 
L 697 3450 
Q 1169 3672 1522 3987 
Q 1875 4303 2022 4600 
L 2384 4600 
L 2384 0 
z
" transform="scale(0.015625)"/>
       </defs>
       <use xlink:href="#ArialMT-31"/>
       <use xlink:href="#ArialMT-30" x="55.615234"/>
      </g>
     </g>
    </g>
    <g id="xtick_9">
     <g id="line2d_9">
      <g>
       <use xlink:href="#mfc8bbf5984" x="442.370375" y="302.935407" style="fill: #262626; stroke: #262626"/>
      </g>
     </g>
     <g id="text_9">
      <!-- 12 -->
      <g style="fill: #262626" transform="translate(437.47675 317.534282) scale(0.088 -0.088)">
       <use xlink:href="#ArialMT-31"/>
       <use xlink:href="#ArialMT-32" x="55.615234"/>
      </g>
     </g>
    </g>
    <g id="text_10">
     <!-- $x$ -->
     <g style="fill: #262626" transform="translate(241.274 330.154782) scale(0.096 -0.096)">
      <defs>
       <path id="DejaVuSans-Oblique-78" d="M 3841 3500 
L 2234 1784 
L 3219 0 
L 2559 0 
L 1819 1388 
L 531 0 
L -166 0 
L 1556 1844 
L 641 3500 
L 1300 3500 
L 1972 2234 
L 3144 3500 
L 3841 3500 
z
" transform="scale(0.015625)"/>
      </defs>
      <use xlink:href="#DejaVuSans-Oblique-78" transform="translate(0 0.3125)"/>
     </g>
    </g>
   </g>
   <g id="matplotlib.axis_2">
    <g id="ytick_1">
     <g id="line2d_10">
      <defs>
       <path id="md0a9aadd6d" d="M 0 0 
L -4.8 0 
" style="stroke: #262626"/>
      </defs>
      <g>
       <use xlink:href="#md0a9aadd6d" x="45.937625" y="289.56979" style="fill: #262626; stroke: #262626"/>
      </g>
     </g>
     <g id="text_11">
      <!-- 0.00 -->
      <g style="fill: #262626" transform="translate(20.512 292.719227) scale(0.088 -0.088)">
       <defs>
        <path id="ArialMT-2e" d="M 581 0 
L 581 641 
L 1222 641 
L 1222 0 
L 581 0 
z
" transform="scale(0.015625)"/>
       </defs>
       <use xlink:href="#ArialMT-30"/>
       <use xlink:href="#ArialMT-2e" x="55.615234"/>
       <use xlink:href="#ArialMT-30" x="83.398438"/>
       <use xlink:href="#ArialMT-30" x="139.013672"/>
      </g>
     </g>
    </g>
    <g id="ytick_2">
     <g id="line2d_11">
      <g>
       <use xlink:href="#md0a9aadd6d" x="45.937625" y="233.725719" style="fill: #262626; stroke: #262626"/>
      </g>
     </g>
     <g id="text_12">
      <!-- 0.05 -->
      <g style="fill: #262626" transform="translate(20.512 236.875157) scale(0.088 -0.088)">
       <defs>
        <path id="ArialMT-35" d="M 266 1200 
L 856 1250 
Q 922 819 1161 601 
Q 1400 384 1738 384 
Q 2144 384 2425 690 
Q 2706 997 2706 1503 
Q 2706 1984 2436 2262 
Q 2166 2541 1728 2541 
Q 1456 2541 1237 2417 
Q 1019 2294 894 2097 
L 366 2166 
L 809 4519 
L 3088 4519 
L 3088 3981 
L 1259 3981 
L 1013 2750 
Q 1425 3038 1878 3038 
Q 2478 3038 2890 2622 
Q 3303 2206 3303 1553 
Q 3303 931 2941 478 
Q 2500 -78 1738 -78 
Q 1113 -78 717 272 
Q 322 622 266 1200 
z
" transform="scale(0.015625)"/>
       </defs>
       <use xlink:href="#ArialMT-30"/>
       <use xlink:href="#ArialMT-2e" x="55.615234"/>
       <use xlink:href="#ArialMT-30" x="83.398438"/>
       <use xlink:href="#ArialMT-35" x="139.013672"/>
      </g>
     </g>
    </g>
    <g id="ytick_3">
     <g id="line2d_12">
      <g>
       <use xlink:href="#md0a9aadd6d" x="45.937625" y="177.881649" style="fill: #262626; stroke: #262626"/>
      </g>
     </g>
     <g id="text_13">
      <!-- 0.10 -->
      <g style="fill: #262626" transform="translate(20.512 181.031086) scale(0.088 -0.088)">
       <use xlink:href="#ArialMT-30"/>
       <use xlink:href="#ArialMT-2e" x="55.615234"/>
       <use xlink:href="#ArialMT-31" x="83.398438"/>
       <use xlink:href="#ArialMT-30" x="139.013672"/>
      </g>
     </g>
    </g>
    <g id="ytick_4">
     <g id="line2d_13">
      <g>
       <use xlink:href="#md0a9aadd6d" x="45.937625" y="122.037578" style="fill: #262626; stroke: #262626"/>
      </g>
     </g>
     <g id="text_14">
      <!-- 0.15 -->
      <g style="fill: #262626" transform="translate(20.512 125.187016) scale(0.088 -0.088)">
       <use xlink:href="#ArialMT-30"/>
       <use xlink:href="#ArialMT-2e" x="55.615234"/>
       <use xlink:href="#ArialMT-31" x="83.398438"/>
       <use xlink:href="#ArialMT-35" x="139.013672"/>
      </g>
     </g>
    </g>
    <g id="ytick_5">
     <g id="line2d_14">
      <g>
       <use xlink:href="#md0a9aadd6d" x="45.937625" y="66.193508" style="fill: #262626; stroke: #262626"/>
      </g>
     </g>
     <g id="text_15">
      <!-- 0.20 -->
      <g style="fill: #262626" transform="translate(20.512 69.342945) scale(0.088 -0.088)">
       <use xlink:href="#ArialMT-30"/>
       <use xlink:href="#ArialMT-2e" x="55.615234"/>
       <use xlink:href="#ArialMT-32" x="83.398438"/>
       <use xlink:href="#ArialMT-30" x="139.013672"/>
      </g>
     </g>
    </g>
    <g id="ytick_6">
     <g id="line2d_15">
      <g>
       <use xlink:href="#md0a9aadd6d" x="45.937625" y="10.349438" style="fill: #262626; stroke: #262626"/>
      </g>
     </g>
     <g id="text_16">
      <!-- 0.25 -->
      <g style="fill: #262626" transform="translate(20.512 13.498875) scale(0.088 -0.088)">
       <use xlink:href="#ArialMT-30"/>
       <use xlink:href="#ArialMT-2e" x="55.615234"/>
       <use xlink:href="#ArialMT-32" x="83.398438"/>
       <use xlink:href="#ArialMT-35" x="139.013672"/>
      </g>
     </g>
    </g>
    <g id="text_17">
     <!-- $p(x)$ -->
     <g style="fill: #262626" transform="translate(14.496 165.561614) rotate(-90) scale(0.096 -0.096)">
      <defs>
       <path id="DejaVuSans-Oblique-70" d="M 3175 2156 
Q 3175 2616 2975 2859 
Q 2775 3103 2400 3103 
Q 2144 3103 1911 2972 
Q 1678 2841 1497 2591 
Q 1319 2344 1212 1994 
Q 1106 1644 1106 1300 
Q 1106 863 1306 627 
Q 1506 391 1875 391 
Q 2147 391 2380 519 
Q 2613 647 2778 891 
Q 2956 1147 3065 1494 
Q 3175 1841 3175 2156 
z
M 1394 2969 
Q 1625 3272 1939 3428 
Q 2253 3584 2638 3584 
Q 3175 3584 3472 3232 
Q 3769 2881 3769 2247 
Q 3769 1728 3584 1258 
Q 3400 788 3053 416 
Q 2822 169 2531 39 
Q 2241 -91 1919 -91 
Q 1547 -91 1294 64 
Q 1041 219 916 525 
L 556 -1331 
L -19 -1331 
L 922 3500 
L 1497 3500 
L 1394 2969 
z
" transform="scale(0.015625)"/>
       <path id="DejaVuSans-28" d="M 1984 4856 
Q 1566 4138 1362 3434 
Q 1159 2731 1159 2009 
Q 1159 1288 1364 580 
Q 1569 -128 1984 -844 
L 1484 -844 
Q 1016 -109 783 600 
Q 550 1309 550 2009 
Q 550 2706 781 3412 
Q 1013 4119 1484 4856 
L 1984 4856 
z
" transform="scale(0.015625)"/>
       <path id="DejaVuSans-29" d="M 513 4856 
L 1013 4856 
Q 1481 4119 1714 3412 
Q 1947 2706 1947 2009 
Q 1947 1309 1714 600 
Q 1481 -109 1013 -844 
L 513 -844 
Q 928 -128 1133 580 
Q 1338 1288 1338 2009 
Q 1338 2731 1133 3434 
Q 928 4138 513 4856 
z
" transform="scale(0.015625)"/>
      </defs>
      <use xlink:href="#DejaVuSans-Oblique-70" transform="translate(0 0.125)"/>
      <use xlink:href="#DejaVuSans-28" transform="translate(63.476562 0.125)"/>
      <use xlink:href="#DejaVuSans-Oblique-78" transform="translate(102.490234 0.125)"/>
      <use xlink:href="#DejaVuSans-29" transform="translate(161.669922 0.125)"/>
     </g>
    </g>
   </g>
   <g id="PolyCollection_1">
    <defs>
     <path id="m63d40aa2e0" d="M 45.937625 -49.693657 
L 45.937625 -49.692993 
L 47.929749 -49.692993 
L 49.921874 -49.692993 
L 51.913998 -49.692993 
L 53.906122 -49.692993 
L 55.898247 -49.692993 
L 57.890371 -49.692993 
L 59.882496 -49.692993 
L 61.87462 -49.692993 
L 63.866744 -49.692993 
L 65.858869 -49.692993 
L 67.850993 -49.692993 
L 69.843117 -49.692993 
L 71.835242 -49.692993 
L 73.827366 -49.692993 
L 75.819491 -49.692993 
L 77.811615 -49.692993 
L 79.803739 -49.692993 
L 81.795864 -49.692993 
L 83.787988 -49.692993 
L 85.780112 -49.692993 
L 87.772237 -49.692993 
L 89.764361 -49.692993 
L 91.756486 -49.692993 
L 93.74861 -49.692993 
L 95.740734 -49.692993 
L 97.732859 -49.692993 
L 99.724983 -49.692993 
L 101.717107 -49.692993 
L 103.709232 -49.692993 
L 105.701356 -49.692993 
L 107.693481 -49.692993 
L 109.685605 -49.692993 
L 111.677729 -49.692993 
L 113.669854 -49.692993 
L 115.661978 -49.692993 
L 117.654102 -49.692993 
L 119.646227 -49.692993 
L 121.638351 -49.692993 
L 123.630476 -49.692993 
L 125.6226 -49.692993 
L 127.614724 -49.692993 
L 129.606849 -49.692993 
L 131.598973 -49.692993 
L 133.591097 -49.692993 
L 135.583222 -49.692993 
L 137.575346 -49.692993 
L 139.56747 -49.692993 
L 141.559595 -49.692993 
L 143.551719 -49.692993 
L 145.543844 -49.692993 
L 147.535968 -49.692993 
L 149.528092 -49.692993 
L 151.520217 -49.692993 
L 153.512341 -49.692993 
L 155.504465 -49.692993 
L 157.49659 -49.692993 
L 159.488714 -49.692993 
L 161.480839 -49.692993 
L 163.472963 -49.692993 
L 165.465087 -49.692993 
L 167.457212 -49.692993 
L 169.449336 -49.692993 
L 171.44146 -49.692993 
L 173.433585 -49.692993 
L 175.425709 -49.692993 
L 177.417834 -49.692993 
L 179.409958 -49.692993 
L 181.402082 -49.692993 
L 183.394207 -49.692993 
L 185.386331 -49.692993 
L 187.378455 -49.692993 
L 189.37058 -49.692993 
L 191.362704 -49.692993 
L 193.354829 -49.692993 
L 195.346953 -49.692993 
L 197.339077 -49.692993 
L 199.331202 -49.692993 
L 201.323326 -49.692993 
L 203.31545 -49.692993 
L 205.307575 -49.692993 
L 207.299699 -49.692993 
L 209.291823 -49.692993 
L 211.283948 -49.692993 
L 213.276072 -49.692993 
L 215.268197 -49.692993 
L 217.260321 -49.692993 
L 219.252445 -49.692993 
L 221.24457 -49.692993 
L 223.236694 -49.692993 
L 225.228818 -49.692993 
L 227.220943 -49.692993 
L 229.213067 -49.692993 
L 231.205192 -49.692993 
L 233.197316 -49.692993 
L 235.18944 -49.692993 
L 237.181565 -49.692993 
L 239.173689 -49.692993 
L 241.165813 -49.692993 
L 243.157938 -49.692993 
L 245.150062 -49.692993 
L 247.142187 -49.692993 
L 249.134311 -49.692993 
L 251.126435 -49.692993 
L 253.11856 -49.692993 
L 255.110684 -49.692993 
L 257.102808 -49.692993 
L 259.094933 -49.692993 
L 261.087057 -49.692993 
L 263.079182 -49.692993 
L 265.071306 -49.692993 
L 267.06343 -49.692993 
L 269.055555 -49.692993 
L 271.047679 -49.692993 
L 273.039803 -49.692993 
L 275.031928 -49.692993 
L 277.024052 -49.692993 
L 279.016177 -49.692993 
L 281.008301 -49.692993 
L 283.000425 -49.692993 
L 284.99255 -49.692993 
L 286.984674 -49.692993 
L 288.976798 -49.692993 
L 290.968923 -49.692993 
L 292.961047 -49.692993 
L 294.953171 -49.692993 
L 296.945296 -49.692993 
L 298.93742 -49.692993 
L 300.929545 -49.692993 
L 302.921669 -49.692993 
L 304.913793 -49.692993 
L 306.905918 -49.692993 
L 308.898042 -49.692993 
L 310.890166 -49.692993 
L 312.882291 -49.692993 
L 314.874415 -49.692993 
L 316.86654 -49.692993 
L 318.858664 -49.692993 
L 320.850788 -49.692993 
L 322.842913 -49.692993 
L 324.835037 -49.692993 
L 326.827161 -49.692993 
L 328.819286 -49.692993 
L 330.81141 -49.692993 
L 332.803535 -49.692993 
L 334.795659 -49.692993 
L 336.787783 -49.692993 
L 338.779908 -49.692993 
L 340.772032 -49.692993 
L 342.764156 -49.692993 
L 344.756281 -49.692993 
L 346.748405 -49.692993 
L 348.74053 -49.692993 
L 350.732654 -49.692993 
L 352.724778 -49.692993 
L 354.716903 -49.692993 
L 356.709027 -49.692993 
L 358.701151 -49.692993 
L 360.693276 -49.692993 
L 362.6854 -49.692993 
L 364.677524 -49.692993 
L 366.669649 -49.692993 
L 368.661773 -49.692993 
L 370.653898 -49.692993 
L 372.646022 -49.692993 
L 374.638146 -49.692993 
L 376.630271 -49.692993 
L 378.622395 -49.692993 
L 380.614519 -49.692993 
L 382.606644 -49.692993 
L 384.598768 -49.692993 
L 386.590893 -49.692993 
L 388.583017 -49.692993 
L 390.575141 -49.692993 
L 392.567266 -49.692993 
L 394.55939 -49.692993 
L 396.551514 -49.692993 
L 398.543639 -49.692993 
L 400.535763 -49.692993 
L 402.527888 -49.692993 
L 404.520012 -49.692993 
L 406.512136 -49.692993 
L 408.504261 -49.692993 
L 410.496385 -49.692993 
L 412.488509 -49.692993 
L 414.480634 -49.692993 
L 416.472758 -49.692993 
L 418.464883 -49.692993 
L 420.457007 -49.692993 
L 422.449131 -49.692993 
L 424.441256 -49.692993 
L 426.43338 -49.692993 
L 428.425504 -49.692993 
L 430.417629 -49.692993 
L 432.409753 -49.692993 
L 434.401878 -49.692993 
L 436.394002 -49.692993 
L 438.386126 -49.692993 
L 440.378251 -49.692993 
L 442.370375 -49.692993 
L 442.370375 -49.782676 
L 442.370375 -49.782676 
L 440.378251 -49.818749 
L 438.386126 -49.868049 
L 436.394002 -49.934904 
L 434.401878 -50.024861 
L 432.409753 -50.144959 
L 430.417629 -50.304042 
L 428.425504 -50.513113 
L 426.43338 -50.785713 
L 424.441256 -51.138337 
L 422.449131 -51.590853 
L 420.457007 -52.166925 
L 418.464883 -52.894407 
L 416.472758 -53.805689 
L 414.480634 -54.93795 
L 412.488509 -56.333296 
L 410.496385 -58.038725 
L 408.504261 -60.105891 
L 406.512136 -62.590607 
L 404.520012 -65.552064 
L 402.527888 -69.051718 
L 400.535763 -73.151822 
L 398.543639 -77.913612 
L 396.551514 -83.395123 
L 394.55939 -89.648694 
L 392.567266 -96.718207 
L 390.575141 -104.636125 
L 388.583017 -113.420459 
L 386.590893 -123.071775 
L 384.598768 -133.570391 
L 382.606644 -144.873938 
L 380.614519 -156.915432 
L 378.622395 -169.602042 
L 376.630271 -182.814689 
L 374.638146 -196.408607 
L 372.646022 -210.214946 
L 370.653898 -224.043471 
L 368.661773 -237.68633 
L 366.669649 -250.922832 
L 364.677524 -263.525097 
L 362.6854 -275.264399 
L 360.693276 -285.917958 
L 358.701151 -295.275906 
L 356.709027 -303.148135 
L 354.716903 -309.370705 
L 352.724778 -313.811511 
L 350.732654 -316.374951 
L 348.74053 -317.005345 
L 346.748405 -315.688944 
L 344.756281 -312.454433 
L 342.764156 -307.371887 
L 340.772032 -300.550251 
L 338.779908 -292.133454 
L 336.787783 -282.295364 
L 334.795659 -271.233826 
L 332.803535 -259.164056 
L 330.81141 -246.311728 
L 328.819286 -232.906027 
L 326.827161 -219.172988 
L 324.835037 -205.329375 
L 322.842913 -191.577317 
L 320.850788 -178.09988 
L 318.858664 -165.057662 
L 316.86654 -152.586492 
L 314.874415 -140.796199 
L 312.882291 -129.770398 
L 310.890166 -119.567206 
L 308.898042 -110.220735 
L 306.905918 -101.74322 
L 304.913793 -94.127605 
L 302.921669 -87.350432 
L 300.929545 -81.374861 
L 298.93742 -76.153698 
L 296.945296 -71.63229 
L 294.953171 -67.751204 
L 292.961047 -64.448616 
L 290.968923 -61.662366 
L 288.976798 -59.331653 
L 286.984674 -57.398374 
L 284.99255 -55.808119 
L 283.000425 -54.510847 
L 281.008301 -53.461288 
L 279.016177 -52.61911 
L 277.024052 -51.948883 
L 275.031928 -51.419912 
L 273.039803 -51.005945 
L 271.047679 -50.684821 
L 269.055555 -50.438074 
L 267.06343 -50.250531 
L 265.071306 -50.109909 
L 263.079182 -50.006447 
L 261.087057 -49.932573 
L 259.094933 -49.882611 
L 257.102808 -49.852554 
L 255.110684 -49.839873 
L 253.11856 -49.843399 
L 251.126435 -49.863253 
L 249.134311 -49.900829 
L 247.142187 -49.958837 
L 245.150062 -50.041391 
L 243.157938 -50.15415 
L 241.165813 -50.304491 
L 239.173689 -50.501724 
L 237.181565 -50.757337 
L 235.18944 -51.085243 
L 233.197316 -51.502039 
L 231.205192 -52.027244 
L 229.213067 -52.683495 
L 227.220943 -53.496689 
L 225.228818 -54.496024 
L 223.236694 -55.713934 
L 221.24457 -57.185867 
L 219.252445 -58.949887 
L 217.260321 -61.046079 
L 215.268197 -63.515719 
L 213.276072 -66.400221 
L 211.283948 -69.739829 
L 209.291823 -73.572094 
L 207.299699 -77.930135 
L 205.307575 -82.840749 
L 203.31545 -88.32241 
L 201.323326 -94.383242 
L 199.331202 -101.019063 
L 197.339077 -108.211583 
L 195.346953 -115.926889 
L 193.354829 -124.114312 
L 191.362704 -132.705787 
L 189.37058 -141.615806 
L 187.378455 -150.742032 
L 185.386331 -159.966625 
L 183.394207 -169.158293 
L 181.402082 -178.175051 
L 179.409958 -186.867623 
L 177.417834 -195.083389 
L 175.425709 -202.670735 
L 173.433585 -209.483651 
L 171.44146 -215.386362 
L 169.449336 -220.257821 
L 167.457212 -223.995824 
L 165.465087 -226.520575 
L 163.472963 -227.777518 
L 161.480839 -227.739298 
L 159.488714 -226.406748 
L 157.49659 -223.808861 
L 155.504465 -220.001742 
L 153.512341 -215.06659 
L 151.520217 -209.106822 
L 149.528092 -202.244472 
L 147.535968 -194.61604 
L 145.543844 -186.367999 
L 143.551719 -177.652145 
L 141.559595 -168.62102 
L 139.56747 -159.423574 
L 137.575346 -150.201253 
L 135.583222 -141.084626 
L 133.591097 -132.190671 
L 131.598973 -123.620766 
L 129.606849 -115.459402 
L 127.614724 -107.773613 
L 125.6226 -100.613059 
L 123.630476 -94.010701 
L 121.638351 -87.98395 
L 119.646227 -82.536216 
L 117.654102 -77.658707 
L 115.661978 -73.332405 
L 113.669854 -69.530087 
L 111.677729 -66.218318 
L 109.685605 -63.359345 
L 107.693481 -60.91281 
L 105.701356 -58.837274 
L 103.709232 -57.091498 
L 101.717107 -55.63549 
L 99.724983 -54.431315 
L 97.732859 -53.44368 
L 95.740734 -52.640315 
L 93.74861 -51.992184 
L 91.756486 -51.473539 
L 89.764361 -51.061862 
L 87.772237 -50.737716 
L 85.780112 -50.484529 
L 83.787988 -50.288341 
L 81.795864 -50.137524 
L 79.803739 -50.022499 
L 77.811615 -49.935462 
L 75.819491 -49.870117 
L 73.827366 -49.821442 
L 71.835242 -49.785466 
L 69.843117 -49.759082 
L 67.850993 -49.739882 
L 65.858869 -49.726018 
L 63.866744 -49.716085 
L 61.87462 -49.709021 
L 59.882496 -49.704038 
L 57.890371 -49.700548 
L 55.898247 -49.698124 
L 53.906122 -49.696452 
L 51.913998 -49.695308 
L 49.921874 -49.694531 
L 47.929749 -49.694007 
L 45.937625 -49.693657 
z
" style="stroke: #0000ff; stroke-opacity: 0.5; stroke-width: 0.8"/>
    </defs>
    <g clip-path="url(#p0840576b28)">
     <use xlink:href="#m63d40aa2e0" x="0" y="339.262782" style="fill: #0000ff; fill-opacity: 0.5; stroke: #0000ff; stroke-opacity: 0.5; stroke-width: 0.8"/>
    </g>
   </g>
   <g id="line2d_16">
    <path d="M 45.937625 289.569126 
L 71.835242 289.477316 
L 79.803739 289.240283 
L 83.787988 288.974441 
L 87.772237 288.525067 
L 91.756486 287.789244 
L 93.74861 287.270598 
L 95.740734 286.622467 
L 97.732859 285.819102 
L 99.724983 284.831467 
L 101.717107 283.627292 
L 103.709232 282.171284 
L 105.701356 280.425508 
L 107.693481 278.349972 
L 109.685605 275.903438 
L 111.677729 273.044464 
L 113.669854 269.732696 
L 115.661978 265.930377 
L 117.654102 261.604075 
L 119.646227 256.726566 
L 121.638351 251.278832 
L 123.630476 245.252082 
L 125.6226 238.649723 
L 127.614724 231.48917 
L 129.606849 223.80338 
L 133.591097 207.072111 
L 137.575346 189.06153 
L 143.551719 161.610637 
L 147.535968 144.646742 
L 149.528092 137.018311 
L 151.520217 130.155961 
L 153.512341 124.196193 
L 155.504465 119.261041 
L 157.49659 115.453921 
L 159.488714 112.856035 
L 161.480839 111.523485 
L 163.472963 111.485264 
L 165.465087 112.742208 
L 167.457212 115.266959 
L 169.449336 119.004961 
L 171.44146 123.87642 
L 173.433585 129.779132 
L 175.425709 136.592047 
L 177.417834 144.179394 
L 179.409958 152.395159 
L 183.394207 170.104489 
L 191.362704 206.556995 
L 195.346953 223.335893 
L 197.339077 231.051199 
L 199.331202 238.24372 
L 201.323326 244.87954 
L 203.31545 250.940373 
L 205.307575 256.422033 
L 207.299699 261.332647 
L 209.291823 265.690688 
L 211.283948 269.522953 
L 213.276072 272.862561 
L 215.268197 275.747063 
L 217.260321 278.216704 
L 219.252445 280.312895 
L 221.24457 282.076916 
L 223.236694 283.548848 
L 225.228818 284.766759 
L 227.220943 285.766094 
L 229.213067 286.579287 
L 231.205192 287.235539 
L 235.18944 288.17754 
L 239.173689 288.761058 
L 243.157938 289.108632 
L 249.134311 289.361954 
L 257.102808 289.410229 
L 263.079182 289.256335 
L 267.06343 289.012251 
L 271.047679 288.577961 
L 275.031928 287.84287 
L 277.024052 287.313899 
L 279.016177 286.643673 
L 281.008301 285.801494 
L 283.000425 284.751936 
L 284.99255 283.454663 
L 286.984674 281.864408 
L 288.976798 279.93113 
L 290.968923 277.600417 
L 292.961047 274.814167 
L 294.953171 271.511578 
L 296.945296 267.630492 
L 298.93742 263.109084 
L 300.929545 257.887921 
L 302.921669 251.912351 
L 304.913793 245.135177 
L 306.905918 237.519562 
L 308.898042 229.042047 
L 310.890166 219.695577 
L 312.882291 209.492385 
L 314.874415 198.466584 
L 316.86654 186.67629 
L 320.850788 161.162903 
L 326.827161 120.089795 
L 330.81141 92.951055 
L 332.803535 80.098726 
L 334.795659 68.028957 
L 336.787783 56.967418 
L 338.779908 47.129329 
L 340.772032 38.712532 
L 342.764156 31.890895 
L 344.756281 26.808349 
L 346.748405 23.573838 
L 348.74053 22.257437 
L 350.732654 22.887831 
L 352.724778 25.451271 
L 354.716903 29.892078 
L 356.709027 36.114647 
L 358.701151 43.986877 
L 360.693276 53.344825 
L 362.6854 63.998383 
L 364.677524 75.737685 
L 368.661773 101.576453 
L 378.622395 169.66074 
L 382.606644 194.388844 
L 384.598768 205.692391 
L 386.590893 216.191008 
L 388.583017 225.842323 
L 390.575141 234.626657 
L 392.567266 242.544575 
L 394.55939 249.614088 
L 396.551514 255.86766 
L 398.543639 261.34917 
L 400.535763 266.11096 
L 402.527888 270.211065 
L 404.520012 273.710718 
L 406.512136 276.672175 
L 408.504261 279.156892 
L 410.496385 281.224057 
L 412.488509 282.929487 
L 414.480634 284.324832 
L 416.472758 285.457094 
L 418.464883 286.368375 
L 420.457007 287.095858 
L 422.449131 287.671929 
L 426.43338 288.477069 
L 430.417629 288.95874 
L 436.394002 289.327878 
L 442.370375 289.480106 
L 442.370375 289.480106 
" clip-path="url(#p0840576b28)" style="fill: none; stroke: #4c72b0; stroke-width: 1.2; stroke-linecap: round"/>
   </g>
   <g id="line2d_17">
    <defs>
     <path id="m2b6d749180" d="M 0 2.4 
C 0.636487 2.4 1.246992 2.147121 1.697056 1.697056 
C 2.147121 1.246992 2.4 0.636487 2.4 0 
C 2.4 -0.636487 2.147121 -1.246992 1.697056 -1.697056 
C 1.246992 -2.147121 0.636487 -2.4 0 -2.4 
C -0.636487 -2.4 -1.246992 -2.147121 -1.697056 -1.697056 
C -2.147121 -1.246992 -2.4 -0.636487 -2.4 0 
C -2.4 0.636487 -2.147121 1.246992 -1.697056 1.697056 
C -1.246992 2.147121 -0.636487 2.4 0 2.4 
z
" style="stroke: #ff0000"/>
    </defs>
    <g clip-path="url(#p0840576b28)">
     <use xlink:href="#m2b6d749180" x="274.469446" y="289.56979" style="fill: #ff0000; stroke: #ff0000"/>
    </g>
   </g>
   <g id="patch_3">
    <path d="M 45.937625 302.935407 
L 45.937625 8.89182 
" style="fill: none; stroke: #262626; stroke-linejoin: miter; stroke-linecap: square"/>
   </g>
   <g id="patch_4">
    <path d="M 442.370375 302.935407 
L 442.370375 8.89182 
" style="fill: none; stroke: #262626; stroke-linejoin: miter; stroke-linecap: square"/>
   </g>
   <g id="patch_5">
    <path d="M 45.937625 302.935407 
L 442.370375 302.935407 
" style="fill: none; stroke: #262626; stroke-linejoin: miter; stroke-linecap: square"/>
   </g>
   <g id="patch_6">
    <path d="M 45.937625 8.89182 
L 442.370375 8.89182 
" style="fill: none; stroke: #262626; stroke-linejoin: miter; stroke-linecap: square"/>
   </g>
   <g id="legend_1">
    <g id="line2d_18">
     <path d="M 372.938375 20.030695 
L 381.738375 20.030695 
L 390.538375 20.030695 
" style="fill: none; stroke: #4c72b0; stroke-width: 1.2; stroke-linecap: round"/>
    </g>
    <g id="text_18">
     <!-- PMF of $X$ -->
     <g style="fill: #262626" transform="translate(397.578375 23.110695) scale(0.088 -0.088)">
      <defs>
       <path id="ArialMT-50" d="M 494 0 
L 494 4581 
L 2222 4581 
Q 2678 4581 2919 4538 
Q 3256 4481 3484 4323 
Q 3713 4166 3852 3881 
Q 3991 3597 3991 3256 
Q 3991 2672 3619 2267 
Q 3247 1863 2275 1863 
L 1100 1863 
L 1100 0 
L 494 0 
z
M 1100 2403 
L 2284 2403 
Q 2872 2403 3119 2622 
Q 3366 2841 3366 3238 
Q 3366 3525 3220 3729 
Q 3075 3934 2838 4000 
Q 2684 4041 2272 4041 
L 1100 4041 
L 1100 2403 
z
" transform="scale(0.015625)"/>
       <path id="ArialMT-4d" d="M 475 0 
L 475 4581 
L 1388 4581 
L 2472 1338 
Q 2622 884 2691 659 
Q 2769 909 2934 1394 
L 4031 4581 
L 4847 4581 
L 4847 0 
L 4263 0 
L 4263 3834 
L 2931 0 
L 2384 0 
L 1059 3900 
L 1059 0 
L 475 0 
z
" transform="scale(0.015625)"/>
       <path id="ArialMT-46" d="M 525 0 
L 525 4581 
L 3616 4581 
L 3616 4041 
L 1131 4041 
L 1131 2622 
L 3281 2622 
L 3281 2081 
L 1131 2081 
L 1131 0 
L 525 0 
z
" transform="scale(0.015625)"/>
       <path id="ArialMT-20" transform="scale(0.015625)"/>
       <path id="ArialMT-6f" d="M 213 1659 
Q 213 2581 725 3025 
Q 1153 3394 1769 3394 
Q 2453 3394 2887 2945 
Q 3322 2497 3322 1706 
Q 3322 1066 3130 698 
Q 2938 331 2570 128 
Q 2203 -75 1769 -75 
Q 1072 -75 642 372 
Q 213 819 213 1659 
z
M 791 1659 
Q 791 1022 1069 705 
Q 1347 388 1769 388 
Q 2188 388 2466 706 
Q 2744 1025 2744 1678 
Q 2744 2294 2464 2611 
Q 2184 2928 1769 2928 
Q 1347 2928 1069 2612 
Q 791 2297 791 1659 
z
" transform="scale(0.015625)"/>
       <path id="ArialMT-66" d="M 556 0 
L 556 2881 
L 59 2881 
L 59 3319 
L 556 3319 
L 556 3672 
Q 556 4006 616 4169 
Q 697 4388 901 4523 
Q 1106 4659 1475 4659 
Q 1713 4659 2000 4603 
L 1916 4113 
Q 1741 4144 1584 4144 
Q 1328 4144 1222 4034 
Q 1116 3925 1116 3625 
L 1116 3319 
L 1763 3319 
L 1763 2881 
L 1116 2881 
L 1116 0 
L 556 0 
z
" transform="scale(0.015625)"/>
       <path id="DejaVuSans-Oblique-58" d="M 878 4666 
L 1516 4666 
L 2316 2981 
L 3763 4666 
L 4500 4666 
L 2578 2438 
L 3738 0 
L 3103 0 
L 2163 1966 
L 459 0 
L -275 0 
L 1906 2509 
L 878 4666 
z
" transform="scale(0.015625)"/>
      </defs>
      <use xlink:href="#ArialMT-50" transform="translate(0 0.09375)"/>
      <use xlink:href="#ArialMT-4d" transform="translate(66.699219 0.09375)"/>
      <use xlink:href="#ArialMT-46" transform="translate(150 0.09375)"/>
      <use xlink:href="#ArialMT-20" transform="translate(211.083984 0.09375)"/>
      <use xlink:href="#ArialMT-6f" transform="translate(238.867188 0.09375)"/>
      <use xlink:href="#ArialMT-66" transform="translate(294.482422 0.09375)"/>
      <use xlink:href="#ArialMT-20" transform="translate(322.265625 0.09375)"/>
      <use xlink:href="#DejaVuSans-Oblique-58" transform="translate(350.048828 0.09375)"/>
     </g>
    </g>
    <g id="line2d_19">
     <g>
      <use xlink:href="#m2b6d749180" x="381.738375" y="32.47857" style="fill: #ff0000; stroke: #ff0000"/>
     </g>
    </g>
    <g id="text_19">
     <!-- $\mathbb{E}[X]$ -->
     <g style="fill: #262626" transform="translate(397.578375 35.55857) scale(0.088 -0.088)">
      <defs>
       <path id="STIXNonUnicode-Italic-e156" d="M 4250 4179 
L 4192 3942 
L 2150 3942 
L 1709 2266 
L 3514 2266 
L 3443 2029 
L 1645 2029 
L 1165 237 
L 3443 237 
L 3392 0 
L 109 0 
L 1229 4179 
L 4250 4179 
z
M 1914 3942 
L 1414 3942 
L 416 237 
L 928 237 
L 1914 3942 
z
" transform="scale(0.015625)"/>
       <path id="DejaVuSans-5b" d="M 550 4863 
L 1875 4863 
L 1875 4416 
L 1125 4416 
L 1125 -397 
L 1875 -397 
L 1875 -844 
L 550 -844 
L 550 4863 
z
" transform="scale(0.015625)"/>
       <path id="DejaVuSans-5d" d="M 1947 4863 
L 1947 -844 
L 622 -844 
L 622 -397 
L 1369 -397 
L 1369 4416 
L 622 4416 
L 622 4863 
L 1947 4863 
z
" transform="scale(0.015625)"/>
      </defs>
      <use xlink:href="#STIXNonUnicode-Italic-e156" transform="translate(0 0.015625)"/>
      <use xlink:href="#DejaVuSans-5b" transform="translate(63.899994 0.015625)"/>
      <use xlink:href="#DejaVuSans-Oblique-58" transform="translate(102.913666 0.015625)"/>
      <use xlink:href="#DejaVuSans-5d" transform="translate(171.419525 0.015625)"/>
     </g>
    </g>
   </g>
  </g>
 </g>
 <defs>
  <clipPath id="p0840576b28">
   <rect x="45.937625" y="8.89182" width="396.43275" height="294.043588"/>
  </clipPath>
 </defs>
</svg>