<?xml version="1.0" encoding="utf-8" standalone="no"?>
<!DOCTYPE svg PUBLIC "-//W3C//DTD SVG 1.1//EN"
  "http://www.w3.org/Graphics/SVG/1.1/DTD/svg11.dtd">
<svg xmlns:xlink="http://www.w3.org/1999/xlink" width="346.79952pt" height="217.19952pt" viewBox="0 0 346.79952 217.19952" xmlns="http://www.w3.org/2000/svg" version="1.1">
 <metadata>
  <rdf:RDF xmlns:dc="http://purl.org/dc/elements/1.1/" xmlns:cc="http://creativecommons.org/ns#" xmlns:rdf="http://www.w3.org/1999/02/22-rdf-syntax-ns#">
   <cc:Work>
    <dc:type rdf:resource="http://purl.org/dc/dcmitype/StillImage"/>
    <dc:date>2025-06-09T14:45:02.187009</dc:date>
    <dc:format>image/svg+xml</dc:format>
    <dc:creator>
     <cc:Agent>
      <dc:title>Matplotlib v3.9.2, https://matplotlib.org/</dc:title>
     </cc:Agent>
    </dc:creator>
   </cc:Work>
  </rdf:RDF>
 </metadata>
 <defs>
  <style type="text/css">*{stroke-linejoin: round; stroke-linecap: butt}</style>
 </defs>
 <g id="figure_1">
  <g id="patch_1">
   <path d="M 0 217.19952 
L 346.79952 217.19952 
L 346.79952 -0 
L 0 -0 
z
" style="fill: #ffffff"/>
  </g>
  <g id="axes_1">
   <g id="patch_2">
    <path d="M 33.592188 187.982332 
L 339.59952 187.982332 
L 339.59952 7.2 
L 33.592188 7.2 
z
" style="fill: #ffffff"/>
   </g>
   <g id="matplotlib.axis_1">
    <g id="xtick_1">
     <g id="line2d_1"/>
     <g id="text_1">
      <!-- 0 -->
      <g style="fill: #262626" transform="translate(45.274737 196.801239) scale(0.07 -0.07)">
       <defs>
        <path id="DejaVuSerif-30" d="M 2034 219 
Q 2513 219 2750 744 
Q 2988 1269 2988 2328 
Q 2988 3391 2750 3916 
Q 2513 4441 2034 4441 
Q 1556 4441 1318 3916 
Q 1081 3391 1081 2328 
Q 1081 1269 1318 744 
Q 1556 219 2034 219 
z
M 2034 -91 
Q 1275 -91 848 546 
Q 422 1184 422 2328 
Q 422 3475 848 4112 
Q 1275 4750 2034 4750 
Q 2797 4750 3222 4112 
Q 3647 3475 3647 2328 
Q 3647 1184 3222 546 
Q 2797 -91 2034 -91 
z
" transform="scale(0.015625)"/>
       </defs>
       <use xlink:href="#DejaVuSerif-30"/>
      </g>
     </g>
    </g>
    <g id="xtick_2">
     <g id="line2d_2"/>
     <g id="text_2">
      <!-- 10 -->
      <g style="fill: #262626" transform="translate(89.412609 196.801239) scale(0.07 -0.07)">
       <defs>
        <path id="DejaVuSerif-31" d="M 909 0 
L 909 331 
L 1722 331 
L 1722 4213 
L 781 3603 
L 781 4013 
L 1919 4750 
L 2350 4750 
L 2350 331 
L 3163 331 
L 3163 0 
L 909 0 
z
" transform="scale(0.015625)"/>
       </defs>
       <use xlink:href="#DejaVuSerif-31"/>
       <use xlink:href="#DejaVuSerif-30" x="63.623047"/>
      </g>
     </g>
    </g>
    <g id="xtick_3">
     <g id="line2d_3"/>
     <g id="text_3">
      <!-- 20 -->
      <g style="fill: #262626" transform="translate(135.777356 196.801239) scale(0.07 -0.07)">
       <defs>
        <path id="DejaVuSerif-32" d="M 819 3553 
L 469 3553 
L 469 4384 
Q 803 4563 1142 4656 
Q 1481 4750 1806 4750 
Q 2534 4750 2956 4397 
Q 3378 4044 3378 3438 
Q 3378 2753 2422 1800 
Q 2347 1728 2309 1691 
L 1131 513 
L 3078 513 
L 3078 1088 
L 3444 1088 
L 3444 0 
L 434 0 
L 434 341 
L 1850 1753 
Q 2319 2222 2519 2614 
Q 2719 3006 2719 3438 
Q 2719 3909 2473 4175 
Q 2228 4441 1797 4441 
Q 1350 4441 1106 4219 
Q 863 3997 819 3553 
z
" transform="scale(0.015625)"/>
       </defs>
       <use xlink:href="#DejaVuSerif-32"/>
       <use xlink:href="#DejaVuSerif-30" x="63.623047"/>
      </g>
     </g>
    </g>
    <g id="xtick_4">
     <g id="line2d_4"/>
     <g id="text_4">
      <!-- 30 -->
      <g style="fill: #262626" transform="translate(182.142104 196.801239) scale(0.07 -0.07)">
       <defs>
        <path id="DejaVuSerif-33" d="M 622 4469 
Q 988 4606 1323 4678 
Q 1659 4750 1953 4750 
Q 2638 4750 3022 4454 
Q 3406 4159 3406 3634 
Q 3406 3213 3140 2930 
Q 2875 2647 2388 2547 
Q 2963 2466 3280 2130 
Q 3597 1794 3597 1259 
Q 3597 606 3158 257 
Q 2719 -91 1894 -91 
Q 1528 -91 1179 -12 
Q 831 66 488 225 
L 488 1131 
L 838 1131 
Q 869 681 1141 450 
Q 1413 219 1906 219 
Q 2384 219 2661 495 
Q 2938 772 2938 1253 
Q 2938 1803 2653 2086 
Q 2369 2369 1819 2369 
L 1522 2369 
L 1522 2688 
L 1678 2688 
Q 2225 2688 2498 2914 
Q 2772 3141 2772 3597 
Q 2772 4006 2547 4223 
Q 2322 4441 1900 4441 
Q 1478 4441 1245 4241 
Q 1013 4041 972 3647 
L 622 3647 
L 622 4469 
z
" transform="scale(0.015625)"/>
       </defs>
       <use xlink:href="#DejaVuSerif-33"/>
       <use xlink:href="#DejaVuSerif-30" x="63.623047"/>
      </g>
     </g>
    </g>
    <g id="xtick_5">
     <g id="line2d_5"/>
     <g id="text_5">
      <!-- 40 -->
      <g style="fill: #262626" transform="translate(228.506851 196.801239) scale(0.07 -0.07)">
       <defs>
        <path id="DejaVuSerif-34" d="M 2234 1581 
L 2234 4063 
L 641 1581 
L 2234 1581 
z
M 3609 0 
L 1484 0 
L 1484 331 
L 2234 331 
L 2234 1247 
L 197 1247 
L 197 1588 
L 2241 4750 
L 2859 4750 
L 2859 1581 
L 3750 1581 
L 3750 1247 
L 2859 1247 
L 2859 331 
L 3609 331 
L 3609 0 
z
" transform="scale(0.015625)"/>
       </defs>
       <use xlink:href="#DejaVuSerif-34"/>
       <use xlink:href="#DejaVuSerif-30" x="63.623047"/>
      </g>
     </g>
    </g>
    <g id="xtick_6">
     <g id="line2d_6"/>
     <g id="text_6">
      <!-- 50 -->
      <g style="fill: #262626" transform="translate(274.871598 196.801239) scale(0.07 -0.07)">
       <defs>
        <path id="DejaVuSerif-35" d="M 3219 4666 
L 3219 4153 
L 1081 4153 
L 1081 2816 
Q 1244 2928 1461 2984 
Q 1678 3041 1947 3041 
Q 2703 3041 3140 2622 
Q 3578 2203 3578 1478 
Q 3578 738 3136 323 
Q 2694 -91 1894 -91 
Q 1572 -91 1234 -12 
Q 897 66 544 225 
L 544 1131 
L 897 1131 
Q 925 688 1179 453 
Q 1434 219 1894 219 
Q 2388 219 2653 544 
Q 2919 869 2919 1478 
Q 2919 2084 2655 2407 
Q 2391 2731 1894 2731 
Q 1613 2731 1398 2631 
Q 1184 2531 1019 2322 
L 750 2322 
L 750 4666 
L 3219 4666 
z
" transform="scale(0.015625)"/>
       </defs>
       <use xlink:href="#DejaVuSerif-35"/>
       <use xlink:href="#DejaVuSerif-30" x="63.623047"/>
      </g>
     </g>
    </g>
    <g id="xtick_7">
     <g id="line2d_7"/>
     <g id="text_7">
      <!-- 60 -->
      <g style="fill: #262626" transform="translate(321.236346 196.801239) scale(0.07 -0.07)">
       <defs>
        <path id="DejaVuSerif-36" d="M 2094 219 
Q 2534 219 2771 542 
Q 3009 866 3009 1472 
Q 3009 2078 2771 2401 
Q 2534 2725 2094 2725 
Q 1647 2725 1412 2412 
Q 1178 2100 1178 1509 
Q 1178 888 1415 553 
Q 1653 219 2094 219 
z
M 1075 2569 
Q 1288 2803 1556 2918 
Q 1825 3034 2163 3034 
Q 2859 3034 3264 2615 
Q 3669 2197 3669 1472 
Q 3669 763 3233 336 
Q 2797 -91 2069 -91 
Q 1278 -91 853 498 
Q 428 1088 428 2181 
Q 428 3406 931 4078 
Q 1434 4750 2350 4750 
Q 2597 4750 2869 4703 
Q 3141 4656 3425 4563 
L 3425 3794 
L 3072 3794 
Q 3034 4109 2831 4275 
Q 2628 4441 2284 4441 
Q 1678 4441 1381 3981 
Q 1084 3522 1075 2569 
z
" transform="scale(0.015625)"/>
       </defs>
       <use xlink:href="#DejaVuSerif-36"/>
       <use xlink:href="#DejaVuSerif-30" x="63.623047"/>
      </g>
     </g>
    </g>
    <g id="text_8">
     <!-- $x$ -->
     <g style="fill: #262626" transform="translate(184.195854 208.33577) scale(0.08 -0.08)">
      <defs>
       <path id="DejaVuSans-Oblique-78" d="M 3841 3500 
L 2234 1784 
L 3219 0 
L 2559 0 
L 1819 1388 
L 531 0 
L -166 0 
L 1556 1844 
L 641 3500 
L 1300 3500 
L 1972 2234 
L 3144 3500 
L 3841 3500 
z
" transform="scale(0.015625)"/>
      </defs>
      <use xlink:href="#DejaVuSans-Oblique-78" transform="translate(0 0.3125)"/>
     </g>
    </g>
   </g>
   <g id="matplotlib.axis_2">
    <g id="ytick_1">
     <g id="line2d_8"/>
     <g id="text_9">
      <!-- 0.0 -->
      <g style="fill: #262626" transform="translate(18.96 182.424407) scale(0.07 -0.07)">
       <defs>
        <path id="DejaVuSerif-2e" d="M 603 325 
Q 603 500 722 622 
Q 841 744 1019 744 
Q 1191 744 1312 622 
Q 1434 500 1434 325 
Q 1434 153 1312 31 
Q 1191 -91 1019 -91 
Q 841 -91 722 29 
Q 603 150 603 325 
z
" transform="scale(0.015625)"/>
       </defs>
       <use xlink:href="#DejaVuSerif-30"/>
       <use xlink:href="#DejaVuSerif-2e" x="63.623047"/>
       <use xlink:href="#DejaVuSerif-30" x="95.410156"/>
      </g>
     </g>
    </g>
    <g id="ytick_2">
     <g id="line2d_9"/>
     <g id="text_10">
      <!-- 0.2 -->
      <g style="fill: #262626" transform="translate(18.96 149.554892) scale(0.07 -0.07)">
       <use xlink:href="#DejaVuSerif-30"/>
       <use xlink:href="#DejaVuSerif-2e" x="63.623047"/>
       <use xlink:href="#DejaVuSerif-32" x="95.410156"/>
      </g>
     </g>
    </g>
    <g id="ytick_3">
     <g id="line2d_10"/>
     <g id="text_11">
      <!-- 0.4 -->
      <g style="fill: #262626" transform="translate(18.96 116.685377) scale(0.07 -0.07)">
       <use xlink:href="#DejaVuSerif-30"/>
       <use xlink:href="#DejaVuSerif-2e" x="63.623047"/>
       <use xlink:href="#DejaVuSerif-34" x="95.410156"/>
      </g>
     </g>
    </g>
    <g id="ytick_4">
     <g id="line2d_11"/>
     <g id="text_12">
      <!-- 0.6 -->
      <g style="fill: #262626" transform="translate(18.96 83.815862) scale(0.07 -0.07)">
       <use xlink:href="#DejaVuSerif-30"/>
       <use xlink:href="#DejaVuSerif-2e" x="63.623047"/>
       <use xlink:href="#DejaVuSerif-36" x="95.410156"/>
      </g>
     </g>
    </g>
    <g id="ytick_5">
     <g id="line2d_12"/>
     <g id="text_13">
      <!-- 0.8 -->
      <g style="fill: #262626" transform="translate(18.96 50.946347) scale(0.07 -0.07)">
       <defs>
        <path id="DejaVuSerif-38" d="M 2981 1275 
Q 2981 1775 2732 2051 
Q 2484 2328 2034 2328 
Q 1584 2328 1336 2051 
Q 1088 1775 1088 1275 
Q 1088 772 1336 495 
Q 1584 219 2034 219 
Q 2484 219 2732 495 
Q 2981 772 2981 1275 
z
M 2853 3541 
Q 2853 3966 2637 4203 
Q 2422 4441 2034 4441 
Q 1650 4441 1433 4203 
Q 1216 3966 1216 3541 
Q 1216 3113 1433 2875 
Q 1650 2638 2034 2638 
Q 2422 2638 2637 2875 
Q 2853 3113 2853 3541 
z
M 2516 2484 
Q 3047 2413 3344 2092 
Q 3641 1772 3641 1275 
Q 3641 619 3225 264 
Q 2809 -91 2034 -91 
Q 1263 -91 845 264 
Q 428 619 428 1275 
Q 428 1772 725 2092 
Q 1022 2413 1556 2484 
Q 1084 2569 832 2842 
Q 581 3116 581 3541 
Q 581 4103 968 4426 
Q 1356 4750 2034 4750 
Q 2713 4750 3100 4426 
Q 3488 4103 3488 3541 
Q 3488 3116 3236 2842 
Q 2984 2569 2516 2484 
z
" transform="scale(0.015625)"/>
       </defs>
       <use xlink:href="#DejaVuSerif-30"/>
       <use xlink:href="#DejaVuSerif-2e" x="63.623047"/>
       <use xlink:href="#DejaVuSerif-38" x="95.410156"/>
      </g>
     </g>
    </g>
    <g id="ytick_6">
     <g id="line2d_13"/>
     <g id="text_14">
      <!-- 1.0 -->
      <g style="fill: #262626" transform="translate(18.96 18.076832) scale(0.07 -0.07)">
       <use xlink:href="#DejaVuSerif-31"/>
       <use xlink:href="#DejaVuSerif-2e" x="63.623047"/>
       <use xlink:href="#DejaVuSerif-30" x="95.410156"/>
      </g>
     </g>
    </g>
    <g id="text_15">
     <!-- $\phi_i(x)$ -->
     <g style="fill: #262626" transform="translate(13.28 106.631166) rotate(-90) scale(0.08 -0.08)">
      <defs>
       <path id="DejaVuSans-Oblique-3d5" d="M 2991 4863 
L 2738 3572 
Q 3363 3572 3684 3094 
Q 4016 2606 3850 1747 
Q 3681 888 3159 400 
Q 2653 -78 2028 -78 
L 1784 -1331 
L 1213 -1331 
L 1456 -78 
Q 834 -78 509 400 
Q 178 888 347 1747 
Q 513 2606 1034 3094 
Q 1544 3572 2166 3572 
L 2419 4863 
L 2991 4863 
z
M 2128 434 
Q 2481 434 2784 756 
Q 3116 1116 3244 1747 
Q 3369 2372 3169 2738 
Q 2991 3059 2638 3059 
L 2128 434 
z
M 1556 434 
L 2066 3059 
Q 1716 3059 1413 2738 
Q 1072 2372 953 1747 
Q 834 1116 1028 756 
Q 1203 434 1556 434 
z
" transform="scale(0.015625)"/>
       <path id="DejaVuSans-Oblique-69" d="M 1172 4863 
L 1747 4863 
L 1606 4134 
L 1031 4134 
L 1172 4863 
z
M 909 3500 
L 1484 3500 
L 800 0 
L 225 0 
L 909 3500 
z
" transform="scale(0.015625)"/>
       <path id="DejaVuSans-28" d="M 1984 4856 
Q 1566 4138 1362 3434 
Q 1159 2731 1159 2009 
Q 1159 1288 1364 580 
Q 1569 -128 1984 -844 
L 1484 -844 
Q 1016 -109 783 600 
Q 550 1309 550 2009 
Q 550 2706 781 3412 
Q 1013 4119 1484 4856 
L 1984 4856 
z
" transform="scale(0.015625)"/>
       <path id="DejaVuSans-29" d="M 513 4856 
L 1013 4856 
Q 1481 4119 1714 3412 
Q 1947 2706 1947 2009 
Q 1947 1309 1714 600 
Q 1481 -109 1013 -844 
L 513 -844 
Q 928 -128 1133 580 
Q 1338 1288 1338 2009 
Q 1338 2731 1133 3434 
Q 928 4138 513 4856 
z
" transform="scale(0.015625)"/>
      </defs>
      <use xlink:href="#DejaVuSans-Oblique-3d5" transform="translate(0 0.015625)"/>
      <use xlink:href="#DejaVuSans-Oblique-69" transform="translate(65.966797 -16.390625) scale(0.7)"/>
      <use xlink:href="#DejaVuSans-28" transform="translate(88.149414 0.015625)"/>
      <use xlink:href="#DejaVuSans-Oblique-78" transform="translate(127.163086 0.015625)"/>
      <use xlink:href="#DejaVuSans-29" transform="translate(186.342773 0.015625)"/>
     </g>
    </g>
   </g>
   <g id="line2d_14">
    <path d="M 47.501612 15.417379 
L 325.690096 15.417379 
L 325.690096 15.417379 
" clip-path="url(#p38056a1439)" style="fill: none; stroke: #4c72b0; stroke-linecap: round"/>
   </g>
   <g id="line2d_15">
    <path d="M 47.501612 15.417379 
L 48.899544 18.378441 
L 50.297476 26.945359 
L 51.695408 40.224952 
L 53.09334 56.900493 
L 57.287136 112.334487 
L 58.685068 128.429759 
L 60.083 142.078773 
L 61.480933 153.08673 
L 62.878865 161.553712 
L 64.276797 167.777413 
L 65.674729 172.155938 
L 67.072661 175.107648 
L 68.470593 177.016117 
L 69.868525 178.20047 
L 71.266457 178.906334 
L 72.664389 179.310553 
L 75.460253 179.65084 
L 79.65405 179.754021 
L 106.214759 179.764954 
L 325.690096 179.764954 
L 325.690096 179.764954 
" clip-path="url(#p38056a1439)" style="fill: none; stroke: #dd8452; stroke-linecap: round"/>
   </g>
   <g id="line2d_16">
    <path d="M 47.501612 179.742288 
L 51.695408 179.550246 
L 53.09334 179.342522 
L 54.491272 178.963509 
L 55.889204 178.298736 
L 57.287136 177.178342 
L 58.685068 175.36476 
L 60.083 172.546899 
L 61.480933 168.347311 
L 62.878865 162.349267 
L 64.276797 154.148877 
L 65.674729 143.432685 
L 67.072661 130.073663 
L 68.470593 114.229559 
L 71.266457 77.555559 
L 72.664389 58.897306 
L 74.062321 41.937034 
L 75.460253 28.20928 
L 76.858185 19.065251 
L 78.256117 15.454264 
L 79.65405 17.76144 
L 81.051982 25.740058 
L 82.449914 38.555008 
L 83.847846 54.926748 
L 88.041642 110.415754 
L 89.439574 126.755275 
L 90.837506 140.691953 
L 92.235438 151.993013 
L 93.63337 160.730362 
L 95.031302 167.184718 
L 96.429235 171.7474 
L 97.827167 174.837724 
L 99.225099 176.845029 
L 100.623031 178.096369 
L 102.020963 178.845494 
L 103.418895 179.276385 
L 106.214759 179.641264 
L 110.408555 179.752959 
L 134.173401 179.764954 
L 325.690096 179.764954 
L 325.690096 179.764954 
" clip-path="url(#p38056a1439)" style="fill: none; stroke: #55a868; stroke-linecap: round"/>
   </g>
   <g id="line2d_17">
    <path d="M 47.501612 179.764954 
L 81.051982 179.667956 
L 83.847846 179.372417 
L 85.245778 179.017212 
L 86.64371 178.391446 
L 88.041642 177.332086 
L 89.439574 175.609545 
L 90.837506 172.920846 
L 92.235438 168.894997 
L 93.63337 163.117544 
L 95.031302 155.179775 
L 96.429235 144.753678 
L 97.827167 131.686512 
L 99.225099 116.099959 
L 102.020963 79.667054 
L 103.418895 60.915032 
L 104.816827 43.689212 
L 106.214759 29.530206 
L 107.612691 19.820956 
L 109.010623 15.564871 
L 110.408555 17.215068 
L 111.806487 24.594926 
L 113.20442 36.929216 
L 114.602352 52.978225 
L 120.19408 125.050738 
L 121.592012 139.27228 
L 122.989944 150.867432 
L 124.387876 159.878716 
L 125.785808 166.568644 
L 127.18374 171.320719 
L 128.581672 174.554496 
L 129.979604 176.664684 
L 131.377537 177.986139 
L 132.775469 178.780784 
L 134.173401 179.239884 
L 135.571333 179.494824 
L 138.367197 179.700847 
L 145.356857 179.764023 
L 325.690096 179.764954 
L 325.690096 179.764954 
" clip-path="url(#p38056a1439)" style="fill: none; stroke: #c44e52; stroke-linecap: round"/>
   </g>
   <g id="line2d_18">
    <path d="M 47.501612 179.764954 
L 111.806487 179.675586 
L 114.602352 179.400361 
L 116.000284 179.06763 
L 117.398216 178.478871 
L 118.796148 177.477718 
L 120.19408 175.842473 
L 121.592012 173.278332 
L 122.989944 169.421055 
L 124.387876 163.859072 
L 125.785808 156.179777 
L 127.18374 146.041783 
L 128.581672 133.26789 
L 129.979604 117.944736 
L 132.775469 81.778927 
L 135.571333 45.479412 
L 136.969265 30.90646 
L 138.367197 20.644557 
L 139.765129 15.749051 
L 141.163061 16.740055 
L 142.560993 23.511441 
L 143.958925 35.349552 
L 145.356857 51.057082 
L 150.948586 123.316739 
L 152.346518 137.81986 
L 153.74445 149.709728 
L 155.142382 158.998292 
L 156.540314 165.928612 
L 157.938246 170.875323 
L 159.336178 174.25746 
L 160.73411 176.474679 
L 162.132042 177.869478 
L 163.529974 178.711993 
L 164.927906 179.200908 
L 166.325839 179.473598 
L 169.121703 179.695248 
L 174.713431 179.762375 
L 276.762473 179.764954 
L 325.690096 179.764954 
L 325.690096 179.764954 
" clip-path="url(#p38056a1439)" style="fill: none; stroke: #8172b3; stroke-linecap: round"/>
   </g>
   <g id="line2d_19">
    <path d="M 47.501612 179.764954 
L 142.560993 179.682653 
L 145.356857 179.426467 
L 146.754789 179.11494 
L 148.152722 178.561272 
L 149.550654 177.615598 
L 150.948586 176.064006 
L 152.346518 173.619904 
L 153.74445 169.926073 
L 155.142382 164.57439 
L 156.540314 157.149258 
L 157.938246 147.297076 
L 159.336178 134.817437 
L 160.73411 119.763001 
L 162.132042 102.526612 
L 166.325839 47.305537 
L 167.723771 32.336306 
L 169.121703 21.534965 
L 170.519635 16.006555 
L 171.917567 16.337037 
L 173.315499 22.491011 
L 174.713431 33.817951 
L 176.111363 49.165471 
L 178.907227 85.996312 
L 180.305159 104.528639 
L 181.703091 121.553924 
L 183.101024 136.334845 
L 184.498956 148.519673 
L 185.896888 158.088621 
L 187.29482 165.26405 
L 188.692752 170.410634 
L 190.090684 173.946103 
L 191.488616 176.274595 
L 192.886548 177.746072 
L 194.28448 178.638899 
L 195.682412 179.159312 
L 197.080344 179.450845 
L 199.876209 179.689195 
L 205.467937 179.762105 
L 297.731454 179.764954 
L 325.690096 179.764954 
L 325.690096 179.764954 
" clip-path="url(#p38056a1439)" style="fill: none; stroke: #937860; stroke-linecap: round"/>
   </g>
   <g id="line2d_20">
    <path d="M 47.501612 179.764954 
L 173.315499 179.689195 
L 176.111363 179.450845 
L 177.509295 179.159312 
L 178.907227 178.638899 
L 180.305159 177.746072 
L 181.703091 176.274595 
L 183.101024 173.946103 
L 184.498956 170.410634 
L 185.896888 165.26405 
L 187.29482 158.088621 
L 188.692752 148.519673 
L 190.090684 136.334845 
L 191.488616 121.553924 
L 192.886548 104.528639 
L 197.080344 49.165471 
L 198.478276 33.817951 
L 199.876209 22.491011 
L 201.274141 16.337037 
L 202.672073 16.006555 
L 204.070005 21.534965 
L 205.467937 32.336306 
L 206.865869 47.305537 
L 209.661733 83.889293 
L 212.457597 119.763001 
L 213.855529 134.817437 
L 215.253461 147.297076 
L 216.651393 157.149258 
L 218.049326 164.57439 
L 219.447258 169.926073 
L 220.84519 173.619904 
L 222.243122 176.064006 
L 223.641054 177.615598 
L 225.038986 178.561272 
L 226.436918 179.11494 
L 227.83485 179.426467 
L 230.630714 179.682653 
L 236.222443 179.761809 
L 320.098367 179.764954 
L 325.690096 179.764954 
L 325.690096 179.764954 
" clip-path="url(#p38056a1439)" style="fill: none; stroke: #da8bc3; stroke-linecap: round"/>
   </g>
   <g id="line2d_21">
    <path d="M 47.501612 179.764954 
L 204.070005 179.695248 
L 206.865869 179.473598 
L 208.263801 179.200908 
L 209.661733 178.711993 
L 211.059665 177.869478 
L 212.457597 176.474679 
L 213.855529 174.25746 
L 215.253461 170.875323 
L 216.651393 165.928612 
L 218.049326 158.998292 
L 219.447258 149.709728 
L 220.84519 137.81986 
L 222.243122 123.316739 
L 223.641054 106.511665 
L 227.83485 51.057082 
L 229.232782 35.349552 
L 230.630714 23.511441 
L 232.028646 16.740055 
L 233.426578 15.749051 
L 234.824511 20.644557 
L 236.222443 30.90646 
L 237.620375 45.479412 
L 240.416239 81.778927 
L 243.212103 117.944736 
L 244.610035 133.26789 
L 246.007967 146.041783 
L 247.405899 156.179777 
L 248.803831 163.859072 
L 250.201763 169.421055 
L 251.599696 173.278332 
L 252.997628 175.842473 
L 254.39556 177.477718 
L 255.793492 178.478871 
L 257.191424 179.06763 
L 258.589356 179.400361 
L 261.38522 179.675586 
L 266.976948 179.761483 
L 325.690096 179.764954 
L 325.690096 179.764954 
" clip-path="url(#p38056a1439)" style="fill: none; stroke: #8c8c8c; stroke-linecap: round"/>
   </g>
   <g id="line2d_22">
    <path d="M 47.501612 179.764954 
L 234.824511 179.700847 
L 237.620375 179.494824 
L 239.018307 179.239884 
L 240.416239 178.780784 
L 241.814171 177.986139 
L 243.212103 176.664684 
L 244.610035 174.554496 
L 246.007967 171.320719 
L 247.405899 166.568644 
L 248.803831 159.878716 
L 250.201763 150.867432 
L 251.599696 139.27228 
L 252.997628 125.050738 
L 254.39556 108.474436 
L 258.589356 52.978225 
L 259.987288 36.929216 
L 261.38522 24.594926 
L 262.783152 17.215068 
L 264.181084 15.564871 
L 265.579016 19.820956 
L 266.976948 29.530206 
L 268.37488 43.689212 
L 269.772813 60.915032 
L 273.966609 116.099959 
L 275.364541 131.686512 
L 276.762473 144.753678 
L 278.160405 155.179775 
L 279.558337 163.117544 
L 280.956269 168.894997 
L 282.354201 172.920846 
L 283.752133 175.609545 
L 285.150065 177.332086 
L 286.547998 178.391446 
L 287.94593 179.017212 
L 289.343862 179.372417 
L 292.139726 179.667956 
L 296.333522 179.755883 
L 325.690096 179.764954 
L 325.690096 179.764954 
" clip-path="url(#p38056a1439)" style="fill: none; stroke: #ccb974; stroke-linecap: round"/>
   </g>
   <g id="line2d_23">
    <path d="M 47.501612 179.764954 
L 265.579016 179.706022 
L 268.37488 179.514616 
L 269.772813 179.276385 
L 271.170745 178.845494 
L 272.568677 178.096369 
L 273.966609 176.845029 
L 275.364541 174.837724 
L 276.762473 171.7474 
L 278.160405 167.184718 
L 279.558337 160.730362 
L 280.956269 151.993013 
L 282.354201 140.691953 
L 283.752133 126.755275 
L 285.150065 110.415754 
L 290.741794 38.555008 
L 292.139726 25.740058 
L 293.537658 17.76144 
L 294.93559 15.454264 
L 296.333522 19.065251 
L 297.731454 28.20928 
L 299.129386 41.937034 
L 300.527318 58.897306 
L 304.721115 114.229559 
L 306.119047 130.073663 
L 307.516979 143.432685 
L 308.914911 154.148877 
L 310.312843 162.349267 
L 311.710775 168.347311 
L 313.108707 172.546899 
L 314.506639 175.36476 
L 315.904571 177.178342 
L 317.302503 178.298736 
L 318.700435 178.963509 
L 320.098367 179.342522 
L 322.894232 179.659722 
L 325.690096 179.742288 
L 325.690096 179.742288 
" clip-path="url(#p38056a1439)" style="fill: none; stroke: #64b5cd; stroke-linecap: round"/>
   </g>
   <g id="line2d_24">
    <path d="M 47.501612 179.764954 
L 296.333522 179.710804 
L 299.129386 179.533063 
L 300.527318 179.310553 
L 301.92525 178.906334 
L 303.323183 178.20047 
L 304.721115 177.016117 
L 306.119047 175.107648 
L 307.516979 172.155938 
L 308.914911 167.777413 
L 310.312843 161.553712 
L 311.710775 153.08673 
L 313.108707 142.078773 
L 314.506639 128.429759 
L 315.904571 112.334487 
L 318.700435 75.446365 
L 320.098367 56.900493 
L 321.4963 40.224952 
L 322.894232 26.945359 
L 324.292164 18.378441 
L 325.690096 15.417379 
L 325.690096 15.417379 
" clip-path="url(#p38056a1439)" style="fill: none; stroke: #4c72b0; stroke-linecap: round"/>
   </g>
   <g id="patch_3">
    <path d="M 33.592188 187.982332 
L 33.592188 7.2 
" style="fill: none; stroke: #262626; stroke-width: 0.5; stroke-linejoin: miter; stroke-linecap: square"/>
   </g>
   <g id="patch_4">
    <path d="M 33.592188 187.982332 
L 339.59952 187.982332 
" style="fill: none; stroke: #262626; stroke-width: 0.5; stroke-linejoin: miter; stroke-linecap: square"/>
   </g>
  </g>
 </g>
 <defs>
  <clipPath id="p38056a1439">
   <rect x="33.592188" y="7.2" width="306.007332" height="180.782332"/>
  </clipPath>
 </defs>
</svg>