<?xml version="1.0" encoding="utf-8" standalone="no"?>
<!DOCTYPE svg PUBLIC "-//W3C//DTD SVG 1.1//EN"
  "http://www.w3.org/Graphics/SVG/1.1/DTD/svg11.dtd">
<svg xmlns:xlink="http://www.w3.org/1999/xlink" width="454.464pt" height="339.264pt" viewBox="0 0 454.464 339.264" xmlns="http://www.w3.org/2000/svg" version="1.1">
 <metadata>
  <rdf:RDF xmlns:dc="http://purl.org/dc/elements/1.1/" xmlns:cc="http://creativecommons.org/ns#" xmlns:rdf="http://www.w3.org/1999/02/22-rdf-syntax-ns#">
   <cc:Work>
    <dc:type rdf:resource="http://purl.org/dc/dcmitype/StillImage"/>
    <dc:date>2025-03-19T13:16:00.390241</dc:date>
    <dc:format>image/svg+xml</dc:format>
    <dc:creator>
     <cc:Agent>
      <dc:title>Matplotlib v3.9.2, https://matplotlib.org/</dc:title>
     </cc:Agent>
    </dc:creator>
   </cc:Work>
  </rdf:RDF>
 </metadata>
 <defs>
  <style type="text/css">*{stroke-linejoin: round; stroke-linecap: butt}</style>
 </defs>
 <g id="figure_1">
  <g id="patch_1">
   <path d="M 0 339.264 
L 454.464 339.264 
L 454.464 0 
L 0 0 
z
" style="fill: #ffffff"/>
  </g>
  <g id="axes_1">
   <g id="patch_2">
    <path d="M 45.99175 302.596125 
L 447.264 302.596125 
L 447.264 7.2 
L 45.99175 7.2 
z
" style="fill: #ffffff"/>
   </g>
   <g id="matplotlib.axis_1">
    <g id="xtick_1">
     <g id="line2d_1">
      <defs>
       <path id="mf62737bf79" d="M 0 0 
L 0 4.8 
" style="stroke: #262626"/>
      </defs>
      <g>
       <use xlink:href="#mf62737bf79" x="64.231398" y="302.596125" style="fill: #262626; stroke: #262626"/>
      </g>
     </g>
     <g id="text_1">
      <!-- 0 -->
      <g style="fill: #262626" transform="translate(61.784585 317.195) scale(0.088 -0.088)">
       <defs>
        <path id="ArialMT-30" d="M 266 2259 
Q 266 3072 433 3567 
Q 600 4063 929 4331 
Q 1259 4600 1759 4600 
Q 2128 4600 2406 4451 
Q 2684 4303 2865 4023 
Q 3047 3744 3150 3342 
Q 3253 2941 3253 2259 
Q 3253 1453 3087 958 
Q 2922 463 2592 192 
Q 2263 -78 1759 -78 
Q 1097 -78 719 397 
Q 266 969 266 2259 
z
M 844 2259 
Q 844 1131 1108 757 
Q 1372 384 1759 384 
Q 2147 384 2411 759 
Q 2675 1134 2675 2259 
Q 2675 3391 2411 3762 
Q 2147 4134 1753 4134 
Q 1366 4134 1134 3806 
Q 844 3388 844 2259 
z
" transform="scale(0.015625)"/>
       </defs>
       <use xlink:href="#ArialMT-30"/>
      </g>
     </g>
    </g>
    <g id="xtick_2">
     <g id="line2d_2">
      <g>
       <use xlink:href="#mf62737bf79" x="122.29" y="302.596125" style="fill: #262626; stroke: #262626"/>
      </g>
     </g>
     <g id="text_2">
      <!-- 2 -->
      <g style="fill: #262626" transform="translate(119.843187 317.195) scale(0.088 -0.088)">
       <defs>
        <path id="ArialMT-32" d="M 3222 541 
L 3222 0 
L 194 0 
Q 188 203 259 391 
Q 375 700 629 1000 
Q 884 1300 1366 1694 
Q 2113 2306 2375 2664 
Q 2638 3022 2638 3341 
Q 2638 3675 2398 3904 
Q 2159 4134 1775 4134 
Q 1369 4134 1125 3890 
Q 881 3647 878 3216 
L 300 3275 
Q 359 3922 746 4261 
Q 1134 4600 1788 4600 
Q 2447 4600 2831 4234 
Q 3216 3869 3216 3328 
Q 3216 3053 3103 2787 
Q 2991 2522 2730 2228 
Q 2469 1934 1863 1422 
Q 1356 997 1212 845 
Q 1069 694 975 541 
L 3222 541 
z
" transform="scale(0.015625)"/>
       </defs>
       <use xlink:href="#ArialMT-32"/>
      </g>
     </g>
    </g>
    <g id="xtick_3">
     <g id="line2d_3">
      <g>
       <use xlink:href="#mf62737bf79" x="180.348602" y="302.596125" style="fill: #262626; stroke: #262626"/>
      </g>
     </g>
     <g id="text_3">
      <!-- 4 -->
      <g style="fill: #262626" transform="translate(177.901789 317.195) scale(0.088 -0.088)">
       <defs>
        <path id="ArialMT-34" d="M 2069 0 
L 2069 1097 
L 81 1097 
L 81 1613 
L 2172 4581 
L 2631 4581 
L 2631 1613 
L 3250 1613 
L 3250 1097 
L 2631 1097 
L 2631 0 
L 2069 0 
z
M 2069 1613 
L 2069 3678 
L 634 1613 
L 2069 1613 
z
" transform="scale(0.015625)"/>
       </defs>
       <use xlink:href="#ArialMT-34"/>
      </g>
     </g>
    </g>
    <g id="xtick_4">
     <g id="line2d_4">
      <g>
       <use xlink:href="#mf62737bf79" x="238.407203" y="302.596125" style="fill: #262626; stroke: #262626"/>
      </g>
     </g>
     <g id="text_4">
      <!-- 6 -->
      <g style="fill: #262626" transform="translate(235.960391 317.195) scale(0.088 -0.088)">
       <defs>
        <path id="ArialMT-36" d="M 3184 3459 
L 2625 3416 
Q 2550 3747 2413 3897 
Q 2184 4138 1850 4138 
Q 1581 4138 1378 3988 
Q 1113 3794 959 3422 
Q 806 3050 800 2363 
Q 1003 2672 1297 2822 
Q 1591 2972 1913 2972 
Q 2475 2972 2870 2558 
Q 3266 2144 3266 1488 
Q 3266 1056 3080 686 
Q 2894 316 2569 119 
Q 2244 -78 1831 -78 
Q 1128 -78 684 439 
Q 241 956 241 2144 
Q 241 3472 731 4075 
Q 1159 4600 1884 4600 
Q 2425 4600 2770 4297 
Q 3116 3994 3184 3459 
z
M 888 1484 
Q 888 1194 1011 928 
Q 1134 663 1356 523 
Q 1578 384 1822 384 
Q 2178 384 2434 671 
Q 2691 959 2691 1453 
Q 2691 1928 2437 2201 
Q 2184 2475 1800 2475 
Q 1419 2475 1153 2201 
Q 888 1928 888 1484 
z
" transform="scale(0.015625)"/>
       </defs>
       <use xlink:href="#ArialMT-36"/>
      </g>
     </g>
    </g>
    <g id="xtick_5">
     <g id="line2d_5">
      <g>
       <use xlink:href="#mf62737bf79" x="296.465805" y="302.596125" style="fill: #262626; stroke: #262626"/>
      </g>
     </g>
     <g id="text_5">
      <!-- 8 -->
      <g style="fill: #262626" transform="translate(294.018993 317.195) scale(0.088 -0.088)">
       <defs>
        <path id="ArialMT-38" d="M 1131 2484 
Q 781 2613 612 2850 
Q 444 3088 444 3419 
Q 444 3919 803 4259 
Q 1163 4600 1759 4600 
Q 2359 4600 2725 4251 
Q 3091 3903 3091 3403 
Q 3091 3084 2923 2848 
Q 2756 2613 2416 2484 
Q 2838 2347 3058 2040 
Q 3278 1734 3278 1309 
Q 3278 722 2862 322 
Q 2447 -78 1769 -78 
Q 1091 -78 675 323 
Q 259 725 259 1325 
Q 259 1772 486 2073 
Q 713 2375 1131 2484 
z
M 1019 3438 
Q 1019 3113 1228 2906 
Q 1438 2700 1772 2700 
Q 2097 2700 2305 2904 
Q 2513 3109 2513 3406 
Q 2513 3716 2298 3927 
Q 2084 4138 1766 4138 
Q 1444 4138 1231 3931 
Q 1019 3725 1019 3438 
z
M 838 1322 
Q 838 1081 952 856 
Q 1066 631 1291 507 
Q 1516 384 1775 384 
Q 2178 384 2440 643 
Q 2703 903 2703 1303 
Q 2703 1709 2433 1975 
Q 2163 2241 1756 2241 
Q 1359 2241 1098 1978 
Q 838 1716 838 1322 
z
" transform="scale(0.015625)"/>
       </defs>
       <use xlink:href="#ArialMT-38"/>
      </g>
     </g>
    </g>
    <g id="xtick_6">
     <g id="line2d_6">
      <g>
       <use xlink:href="#mf62737bf79" x="354.524407" y="302.596125" style="fill: #262626; stroke: #262626"/>
      </g>
     </g>
     <g id="text_6">
      <!-- 10 -->
      <g style="fill: #262626" transform="translate(349.630782 317.195) scale(0.088 -0.088)">
       <defs>
        <path id="ArialMT-31" d="M 2384 0 
L 1822 0 
L 1822 3584 
Q 1619 3391 1289 3197 
Q 959 3003 697 2906 
L 697 3450 
Q 1169 3672 1522 3987 
Q 1875 4303 2022 4600 
L 2384 4600 
L 2384 0 
z
" transform="scale(0.015625)"/>
       </defs>
       <use xlink:href="#ArialMT-31"/>
       <use xlink:href="#ArialMT-30" x="55.615234"/>
      </g>
     </g>
    </g>
    <g id="xtick_7">
     <g id="line2d_7">
      <g>
       <use xlink:href="#mf62737bf79" x="412.583009" y="302.596125" style="fill: #262626; stroke: #262626"/>
      </g>
     </g>
     <g id="text_7">
      <!-- 12 -->
      <g style="fill: #262626" transform="translate(407.689384 317.195) scale(0.088 -0.088)">
       <use xlink:href="#ArialMT-31"/>
       <use xlink:href="#ArialMT-32" x="55.615234"/>
      </g>
     </g>
    </g>
    <g id="text_8">
     <!-- $t$ (Time) -->
     <g style="fill: #262626" transform="translate(229.539875 329.952) scale(0.096 -0.096)">
      <defs>
       <path id="DejaVuSans-Oblique-74" d="M 2706 3500 
L 2619 3053 
L 1472 3053 
L 1100 1153 
Q 1081 1047 1072 975 
Q 1063 903 1063 863 
Q 1063 663 1183 572 
Q 1303 481 1569 481 
L 2150 481 
L 2053 0 
L 1503 0 
Q 991 0 739 200 
Q 488 400 488 806 
Q 488 878 497 964 
Q 506 1050 525 1153 
L 897 3053 
L 409 3053 
L 500 3500 
L 978 3500 
L 1172 4494 
L 1747 4494 
L 1556 3500 
L 2706 3500 
z
" transform="scale(0.015625)"/>
       <path id="ArialMT-20" transform="scale(0.015625)"/>
       <path id="ArialMT-28" d="M 1497 -1347 
Q 1031 -759 709 28 
Q 388 816 388 1659 
Q 388 2403 628 3084 
Q 909 3875 1497 4659 
L 1900 4659 
Q 1522 4009 1400 3731 
Q 1209 3300 1100 2831 
Q 966 2247 966 1656 
Q 966 153 1900 -1347 
L 1497 -1347 
z
" transform="scale(0.015625)"/>
       <path id="ArialMT-54" d="M 1659 0 
L 1659 4041 
L 150 4041 
L 150 4581 
L 3781 4581 
L 3781 4041 
L 2266 4041 
L 2266 0 
L 1659 0 
z
" transform="scale(0.015625)"/>
       <path id="ArialMT-69" d="M 425 3934 
L 425 4581 
L 988 4581 
L 988 3934 
L 425 3934 
z
M 425 0 
L 425 3319 
L 988 3319 
L 988 0 
L 425 0 
z
" transform="scale(0.015625)"/>
       <path id="ArialMT-6d" d="M 422 0 
L 422 3319 
L 925 3319 
L 925 2853 
Q 1081 3097 1340 3245 
Q 1600 3394 1931 3394 
Q 2300 3394 2536 3241 
Q 2772 3088 2869 2813 
Q 3263 3394 3894 3394 
Q 4388 3394 4653 3120 
Q 4919 2847 4919 2278 
L 4919 0 
L 4359 0 
L 4359 2091 
Q 4359 2428 4304 2576 
Q 4250 2725 4106 2815 
Q 3963 2906 3769 2906 
Q 3419 2906 3187 2673 
Q 2956 2441 2956 1928 
L 2956 0 
L 2394 0 
L 2394 2156 
Q 2394 2531 2256 2718 
Q 2119 2906 1806 2906 
Q 1569 2906 1367 2781 
Q 1166 2656 1075 2415 
Q 984 2175 984 1722 
L 984 0 
L 422 0 
z
" transform="scale(0.015625)"/>
       <path id="ArialMT-65" d="M 2694 1069 
L 3275 997 
Q 3138 488 2766 206 
Q 2394 -75 1816 -75 
Q 1088 -75 661 373 
Q 234 822 234 1631 
Q 234 2469 665 2931 
Q 1097 3394 1784 3394 
Q 2450 3394 2872 2941 
Q 3294 2488 3294 1666 
Q 3294 1616 3291 1516 
L 816 1516 
Q 847 969 1125 678 
Q 1403 388 1819 388 
Q 2128 388 2347 550 
Q 2566 713 2694 1069 
z
M 847 1978 
L 2700 1978 
Q 2663 2397 2488 2606 
Q 2219 2931 1791 2931 
Q 1403 2931 1139 2672 
Q 875 2413 847 1978 
z
" transform="scale(0.015625)"/>
       <path id="ArialMT-29" d="M 791 -1347 
L 388 -1347 
Q 1322 153 1322 1656 
Q 1322 2244 1188 2822 
Q 1081 3291 891 3722 
Q 769 4003 388 4659 
L 791 4659 
Q 1378 3875 1659 3084 
Q 1900 2403 1900 1659 
Q 1900 816 1576 28 
Q 1253 -759 791 -1347 
z
" transform="scale(0.015625)"/>
      </defs>
      <use xlink:href="#DejaVuSans-Oblique-74" transform="translate(0 0.203125)"/>
      <use xlink:href="#ArialMT-20" transform="translate(39.208984 0.203125)"/>
      <use xlink:href="#ArialMT-28" transform="translate(66.992188 0.203125)"/>
      <use xlink:href="#ArialMT-54" transform="translate(100.292969 0.203125)"/>
      <use xlink:href="#ArialMT-69" transform="translate(161.376953 0.203125)"/>
      <use xlink:href="#ArialMT-6d" transform="translate(183.59375 0.203125)"/>
      <use xlink:href="#ArialMT-65" transform="translate(266.894531 0.203125)"/>
      <use xlink:href="#ArialMT-29" transform="translate(322.509766 0.203125)"/>
     </g>
    </g>
   </g>
   <g id="matplotlib.axis_2">
    <g id="ytick_1">
     <g id="line2d_8">
      <defs>
       <path id="ma5eca6143b" d="M 0 0 
L -4.8 0 
" style="stroke: #262626"/>
      </defs>
      <g>
       <use xlink:href="#ma5eca6143b" x="45.99175" y="301.577169" style="fill: #262626; stroke: #262626"/>
      </g>
     </g>
     <g id="text_9">
      <!-- −1.5 -->
      <g style="fill: #262626" transform="translate(20.32 304.726606) scale(0.088 -0.088)">
       <defs>
        <path id="ArialMT-2212" d="M 3381 1997 
L 356 1997 
L 356 2522 
L 3381 2522 
L 3381 1997 
z
" transform="scale(0.015625)"/>
        <path id="ArialMT-2e" d="M 581 0 
L 581 641 
L 1222 641 
L 1222 0 
L 581 0 
z
" transform="scale(0.015625)"/>
        <path id="ArialMT-35" d="M 266 1200 
L 856 1250 
Q 922 819 1161 601 
Q 1400 384 1738 384 
Q 2144 384 2425 690 
Q 2706 997 2706 1503 
Q 2706 1984 2436 2262 
Q 2166 2541 1728 2541 
Q 1456 2541 1237 2417 
Q 1019 2294 894 2097 
L 366 2166 
L 809 4519 
L 3088 4519 
L 3088 3981 
L 1259 3981 
L 1013 2750 
Q 1425 3038 1878 3038 
Q 2478 3038 2890 2622 
Q 3303 2206 3303 1553 
Q 3303 931 2941 478 
Q 2500 -78 1738 -78 
Q 1113 -78 717 272 
Q 322 622 266 1200 
z
" transform="scale(0.015625)"/>
       </defs>
       <use xlink:href="#ArialMT-2212"/>
       <use xlink:href="#ArialMT-31" x="58.398438"/>
       <use xlink:href="#ArialMT-2e" x="114.013672"/>
       <use xlink:href="#ArialMT-35" x="141.796875"/>
      </g>
     </g>
    </g>
    <g id="ytick_2">
     <g id="line2d_9">
      <g>
       <use xlink:href="#ma5eca6143b" x="45.99175" y="254.752157" style="fill: #262626; stroke: #262626"/>
      </g>
     </g>
     <g id="text_10">
      <!-- −1.0 -->
      <g style="fill: #262626" transform="translate(20.32 257.901594) scale(0.088 -0.088)">
       <use xlink:href="#ArialMT-2212"/>
       <use xlink:href="#ArialMT-31" x="58.398438"/>
       <use xlink:href="#ArialMT-2e" x="114.013672"/>
       <use xlink:href="#ArialMT-30" x="141.796875"/>
      </g>
     </g>
    </g>
    <g id="ytick_3">
     <g id="line2d_10">
      <g>
       <use xlink:href="#ma5eca6143b" x="45.99175" y="207.927145" style="fill: #262626; stroke: #262626"/>
      </g>
     </g>
     <g id="text_11">
      <!-- −0.5 -->
      <g style="fill: #262626" transform="translate(20.32 211.076582) scale(0.088 -0.088)">
       <use xlink:href="#ArialMT-2212"/>
       <use xlink:href="#ArialMT-30" x="58.398438"/>
       <use xlink:href="#ArialMT-2e" x="114.013672"/>
       <use xlink:href="#ArialMT-35" x="141.796875"/>
      </g>
     </g>
    </g>
    <g id="ytick_4">
     <g id="line2d_11">
      <g>
       <use xlink:href="#ma5eca6143b" x="45.99175" y="161.102133" style="fill: #262626; stroke: #262626"/>
      </g>
     </g>
     <g id="text_12">
      <!-- 0.0 -->
      <g style="fill: #262626" transform="translate(25.45975 164.25157) scale(0.088 -0.088)">
       <use xlink:href="#ArialMT-30"/>
       <use xlink:href="#ArialMT-2e" x="55.615234"/>
       <use xlink:href="#ArialMT-30" x="83.398438"/>
      </g>
     </g>
    </g>
    <g id="ytick_5">
     <g id="line2d_12">
      <g>
       <use xlink:href="#ma5eca6143b" x="45.99175" y="114.277121" style="fill: #262626; stroke: #262626"/>
      </g>
     </g>
     <g id="text_13">
      <!-- 0.5 -->
      <g style="fill: #262626" transform="translate(25.45975 117.426558) scale(0.088 -0.088)">
       <use xlink:href="#ArialMT-30"/>
       <use xlink:href="#ArialMT-2e" x="55.615234"/>
       <use xlink:href="#ArialMT-35" x="83.398438"/>
      </g>
     </g>
    </g>
    <g id="ytick_6">
     <g id="line2d_13">
      <g>
       <use xlink:href="#ma5eca6143b" x="45.99175" y="67.452109" style="fill: #262626; stroke: #262626"/>
      </g>
     </g>
     <g id="text_14">
      <!-- 1.0 -->
      <g style="fill: #262626" transform="translate(25.45975 70.601546) scale(0.088 -0.088)">
       <use xlink:href="#ArialMT-31"/>
       <use xlink:href="#ArialMT-2e" x="55.615234"/>
       <use xlink:href="#ArialMT-30" x="83.398438"/>
      </g>
     </g>
    </g>
    <g id="ytick_7">
     <g id="line2d_14">
      <g>
       <use xlink:href="#ma5eca6143b" x="45.99175" y="20.627097" style="fill: #262626; stroke: #262626"/>
      </g>
     </g>
     <g id="text_15">
      <!-- 1.5 -->
      <g style="fill: #262626" transform="translate(25.45975 23.776534) scale(0.088 -0.088)">
       <use xlink:href="#ArialMT-31"/>
       <use xlink:href="#ArialMT-2e" x="55.615234"/>
       <use xlink:href="#ArialMT-35" x="83.398438"/>
      </g>
     </g>
    </g>
    <g id="text_16">
     <!-- $y$ (Position) -->
     <g style="fill: #262626" transform="translate(14.208 179.378062) rotate(-90) scale(0.096 -0.096)">
      <defs>
       <path id="DejaVuSans-Oblique-79" d="M 1588 -325 
Q 1188 -997 936 -1164 
Q 684 -1331 294 -1331 
L -159 -1331 
L -63 -850 
L 269 -850 
Q 509 -850 678 -719 
Q 847 -588 1056 -206 
L 1234 128 
L 459 3500 
L 1069 3500 
L 1650 819 
L 3256 3500 
L 3859 3500 
L 1588 -325 
z
" transform="scale(0.015625)"/>
       <path id="ArialMT-50" d="M 494 0 
L 494 4581 
L 2222 4581 
Q 2678 4581 2919 4538 
Q 3256 4481 3484 4323 
Q 3713 4166 3852 3881 
Q 3991 3597 3991 3256 
Q 3991 2672 3619 2267 
Q 3247 1863 2275 1863 
L 1100 1863 
L 1100 0 
L 494 0 
z
M 1100 2403 
L 2284 2403 
Q 2872 2403 3119 2622 
Q 3366 2841 3366 3238 
Q 3366 3525 3220 3729 
Q 3075 3934 2838 4000 
Q 2684 4041 2272 4041 
L 1100 4041 
L 1100 2403 
z
" transform="scale(0.015625)"/>
       <path id="ArialMT-6f" d="M 213 1659 
Q 213 2581 725 3025 
Q 1153 3394 1769 3394 
Q 2453 3394 2887 2945 
Q 3322 2497 3322 1706 
Q 3322 1066 3130 698 
Q 2938 331 2570 128 
Q 2203 -75 1769 -75 
Q 1072 -75 642 372 
Q 213 819 213 1659 
z
M 791 1659 
Q 791 1022 1069 705 
Q 1347 388 1769 388 
Q 2188 388 2466 706 
Q 2744 1025 2744 1678 
Q 2744 2294 2464 2611 
Q 2184 2928 1769 2928 
Q 1347 2928 1069 2612 
Q 791 2297 791 1659 
z
" transform="scale(0.015625)"/>
       <path id="ArialMT-73" d="M 197 991 
L 753 1078 
Q 800 744 1014 566 
Q 1228 388 1613 388 
Q 2000 388 2187 545 
Q 2375 703 2375 916 
Q 2375 1106 2209 1216 
Q 2094 1291 1634 1406 
Q 1016 1563 777 1677 
Q 538 1791 414 1992 
Q 291 2194 291 2438 
Q 291 2659 392 2848 
Q 494 3038 669 3163 
Q 800 3259 1026 3326 
Q 1253 3394 1513 3394 
Q 1903 3394 2198 3281 
Q 2494 3169 2634 2976 
Q 2775 2784 2828 2463 
L 2278 2388 
Q 2241 2644 2061 2787 
Q 1881 2931 1553 2931 
Q 1166 2931 1000 2803 
Q 834 2675 834 2503 
Q 834 2394 903 2306 
Q 972 2216 1119 2156 
Q 1203 2125 1616 2013 
Q 2213 1853 2448 1751 
Q 2684 1650 2818 1456 
Q 2953 1263 2953 975 
Q 2953 694 2789 445 
Q 2625 197 2315 61 
Q 2006 -75 1616 -75 
Q 969 -75 630 194 
Q 291 463 197 991 
z
" transform="scale(0.015625)"/>
       <path id="ArialMT-74" d="M 1650 503 
L 1731 6 
Q 1494 -44 1306 -44 
Q 1000 -44 831 53 
Q 663 150 594 308 
Q 525 466 525 972 
L 525 2881 
L 113 2881 
L 113 3319 
L 525 3319 
L 525 4141 
L 1084 4478 
L 1084 3319 
L 1650 3319 
L 1650 2881 
L 1084 2881 
L 1084 941 
Q 1084 700 1114 631 
Q 1144 563 1211 522 
Q 1278 481 1403 481 
Q 1497 481 1650 503 
z
" transform="scale(0.015625)"/>
       <path id="ArialMT-6e" d="M 422 0 
L 422 3319 
L 928 3319 
L 928 2847 
Q 1294 3394 1984 3394 
Q 2284 3394 2536 3286 
Q 2788 3178 2913 3003 
Q 3038 2828 3088 2588 
Q 3119 2431 3119 2041 
L 3119 0 
L 2556 0 
L 2556 2019 
Q 2556 2363 2490 2533 
Q 2425 2703 2258 2804 
Q 2091 2906 1866 2906 
Q 1506 2906 1245 2678 
Q 984 2450 984 1813 
L 984 0 
L 422 0 
z
" transform="scale(0.015625)"/>
      </defs>
      <use xlink:href="#DejaVuSans-Oblique-79" transform="translate(0 0.203125)"/>
      <use xlink:href="#ArialMT-20" transform="translate(59.179688 0.203125)"/>
      <use xlink:href="#ArialMT-28" transform="translate(86.962891 0.203125)"/>
      <use xlink:href="#ArialMT-50" transform="translate(120.263672 0.203125)"/>
      <use xlink:href="#ArialMT-6f" transform="translate(186.962891 0.203125)"/>
      <use xlink:href="#ArialMT-73" transform="translate(242.578125 0.203125)"/>
      <use xlink:href="#ArialMT-69" transform="translate(292.578125 0.203125)"/>
      <use xlink:href="#ArialMT-74" transform="translate(314.794922 0.203125)"/>
      <use xlink:href="#ArialMT-69" transform="translate(342.578125 0.203125)"/>
      <use xlink:href="#ArialMT-6f" transform="translate(364.794922 0.203125)"/>
      <use xlink:href="#ArialMT-6e" transform="translate(420.410156 0.203125)"/>
      <use xlink:href="#ArialMT-29" transform="translate(476.025391 0.203125)"/>
     </g>
    </g>
   </g>
   <g id="line2d_15">
    <path d="M 64.231398 20.627097 
L 67.916175 33.281776 
L 71.600952 65.444524 
L 75.28573 111.6378 
L 78.970507 164.345199 
L 82.655284 215.228369 
L 86.340062 256.44092 
L 90.024839 281.833088 
L 93.709616 287.86305 
L 97.394394 274.080895 
L 101.079171 243.120906 
L 104.763948 200.215659 
L 108.448726 152.319307 
L 112.133503 106.985816 
L 115.81828 71.182291 
L 119.503058 50.223068 
L 123.187835 46.986875 
L 126.872612 61.531391 
L 130.557389 91.15501 
L 134.242167 130.885041 
L 137.926944 174.305909 
L 141.611721 214.590401 
L 145.296499 245.568903 
L 148.981276 262.669839 
L 152.666053 263.588678 
L 156.350831 248.588542 
L 160.035608 220.395036 
L 163.720385 183.711768 
L 167.405163 144.441227 
L 171.08994 108.739236 
L 174.774717 82.053816 
L 178.459495 68.297931 
L 182.144272 69.281049 
L 185.829049 84.481223 
L 189.513827 111.184484 
L 193.198604 144.960735 
L 196.883381 180.393889 
L 200.568159 211.946634 
L 204.252936 234.822323 
L 207.937713 245.690384 
L 211.62249 243.166147 
L 215.307268 227.976833 
L 218.992045 202.795824 
L 222.676822 171.779224 
L 226.3616 139.884074 
L 230.046377 112.07942 
L 233.731154 92.575304 
L 237.415932 84.188796 
L 241.100709 87.941981 
L 244.785486 102.948423 
L 248.470264 126.598495 
L 252.155041 155.007338 
L 255.839818 183.649373 
L 259.524596 208.076297 
L 263.209373 224.60509 
L 266.89415 230.870073 
L 270.578928 226.156814 
L 274.263705 211.471545 
L 277.948482 189.34196 
L 281.63326 163.387025 
L 285.318037 137.728312 
L 289.002814 116.33813 
L 292.687591 102.427157 
L 296.372369 97.965539 
L 300.057146 103.408418 
L 303.741923 117.663311 
L 307.426701 138.298356 
L 311.111478 161.953068 
L 314.796255 184.882843 
L 318.481033 203.549383 
L 322.16581 215.164323 
L 325.850587 218.102919 
L 329.535365 212.126875 
L 333.220142 198.386558 
L 336.904919 179.207754 
L 340.589697 157.701476 
L 344.274474 137.261748 
L 347.959251 121.032094 
L 351.644029 111.424241 
L 355.328806 109.762404 
L 359.013583 116.105157 
L 362.698361 129.268068 
L 366.383138 147.038574 
L 370.067915 166.544921 
L 373.752692 184.71811 
L 377.43747 198.772848 
L 381.122247 206.632444 
L 384.807024 207.233148 
L 388.491802 200.663749 
L 392.176579 188.122911 
L 395.861356 171.705439 
L 399.546134 154.054904 
L 403.230911 137.93986 
L 406.915688 125.821305 
L 410.600466 119.478678 
L 414.285243 119.750954 
L 417.97002 126.430085 
L 421.654798 138.319518 
L 425.339575 153.444563 
L 429.024352 169.378178 
" clip-path="url(#peeb5980abb)" style="fill: none; stroke: #4c72b0; stroke-width: 1.2; stroke-linecap: round"/>
   </g>
   <g id="line2d_16">
    <defs>
     <path id="m1e9cda40ed" d="M 0 1.2 
C 0.318244 1.2 0.623496 1.07356 0.848528 0.848528 
C 1.07356 0.623496 1.2 0.318244 1.2 0 
C 1.2 -0.318244 1.07356 -0.623496 0.848528 -0.848528 
C 0.623496 -1.07356 0.318244 -1.2 0 -1.2 
C -0.318244 -1.2 -0.623496 -1.07356 -0.848528 -0.848528 
C -1.07356 -0.623496 -1.2 -0.318244 -1.2 0 
C -1.2 0.318244 -1.07356 0.623496 -0.848528 0.848528 
C -0.623496 1.07356 -0.318244 1.2 0 1.2 
z
" style="stroke: #dd8452"/>
    </defs>
    <g clip-path="url(#peeb5980abb)">
     <use xlink:href="#m1e9cda40ed" x="64.231398" y="21.190457" style="fill: #dd8452; stroke: #dd8452"/>
     <use xlink:href="#m1e9cda40ed" x="67.916175" y="51.25316" style="fill: #dd8452; stroke: #dd8452"/>
     <use xlink:href="#m1e9cda40ed" x="71.600952" y="56.999672" style="fill: #dd8452; stroke: #dd8452"/>
     <use xlink:href="#m1e9cda40ed" x="75.28573" y="119.357213" style="fill: #dd8452; stroke: #dd8452"/>
     <use xlink:href="#m1e9cda40ed" x="78.970507" y="162.174091" style="fill: #dd8452; stroke: #dd8452"/>
     <use xlink:href="#m1e9cda40ed" x="82.655284" y="214.119554" style="fill: #dd8452; stroke: #dd8452"/>
     <use xlink:href="#m1e9cda40ed" x="86.340062" y="250.546603" style="fill: #dd8452; stroke: #dd8452"/>
     <use xlink:href="#m1e9cda40ed" x="90.024839" y="289.169028" style="fill: #dd8452; stroke: #dd8452"/>
     <use xlink:href="#m1e9cda40ed" x="93.709616" y="253.127342" style="fill: #dd8452; stroke: #dd8452"/>
     <use xlink:href="#m1e9cda40ed" x="97.394394" y="266.189719" style="fill: #dd8452; stroke: #dd8452"/>
     <use xlink:href="#m1e9cda40ed" x="101.079171" y="255.094129" style="fill: #dd8452; stroke: #dd8452"/>
     <use xlink:href="#m1e9cda40ed" x="104.763948" y="188.351488" style="fill: #dd8452; stroke: #dd8452"/>
     <use xlink:href="#m1e9cda40ed" x="108.448726" y="142.026667" style="fill: #dd8452; stroke: #dd8452"/>
     <use xlink:href="#m1e9cda40ed" x="112.133503" y="102.937559" style="fill: #dd8452; stroke: #dd8452"/>
     <use xlink:href="#m1e9cda40ed" x="115.81828" y="73.352087" style="fill: #dd8452; stroke: #dd8452"/>
     <use xlink:href="#m1e9cda40ed" x="119.503058" y="46.426841" style="fill: #dd8452; stroke: #dd8452"/>
     <use xlink:href="#m1e9cda40ed" x="123.187835" y="41.572535" style="fill: #dd8452; stroke: #dd8452"/>
     <use xlink:href="#m1e9cda40ed" x="126.872612" y="56.380018" style="fill: #dd8452; stroke: #dd8452"/>
     <use xlink:href="#m1e9cda40ed" x="130.557389" y="93.301268" style="fill: #dd8452; stroke: #dd8452"/>
     <use xlink:href="#m1e9cda40ed" x="134.242167" y="123.979823" style="fill: #dd8452; stroke: #dd8452"/>
     <use xlink:href="#m1e9cda40ed" x="137.926944" y="182.357795" style="fill: #dd8452; stroke: #dd8452"/>
     <use xlink:href="#m1e9cda40ed" x="141.611721" y="218.990544" style="fill: #dd8452; stroke: #dd8452"/>
     <use xlink:href="#m1e9cda40ed" x="145.296499" y="237.431438" style="fill: #dd8452; stroke: #dd8452"/>
     <use xlink:href="#m1e9cda40ed" x="148.981276" y="258.459733" style="fill: #dd8452; stroke: #dd8452"/>
     <use xlink:href="#m1e9cda40ed" x="152.666053" y="262.612488" style="fill: #dd8452; stroke: #dd8452"/>
     <use xlink:href="#m1e9cda40ed" x="156.350831" y="257.573399" style="fill: #dd8452; stroke: #dd8452"/>
     <use xlink:href="#m1e9cda40ed" x="160.035608" y="229.43294" style="fill: #dd8452; stroke: #dd8452"/>
     <use xlink:href="#m1e9cda40ed" x="163.720385" y="166.976307" style="fill: #dd8452; stroke: #dd8452"/>
     <use xlink:href="#m1e9cda40ed" x="167.405163" y="162.649285" style="fill: #dd8452; stroke: #dd8452"/>
     <use xlink:href="#m1e9cda40ed" x="171.08994" y="98.650144" style="fill: #dd8452; stroke: #dd8452"/>
     <use xlink:href="#m1e9cda40ed" x="174.774717" y="86.157768" style="fill: #dd8452; stroke: #dd8452"/>
     <use xlink:href="#m1e9cda40ed" x="178.459495" y="69.449877" style="fill: #dd8452; stroke: #dd8452"/>
     <use xlink:href="#m1e9cda40ed" x="182.144272" y="77.332024" style="fill: #dd8452; stroke: #dd8452"/>
     <use xlink:href="#m1e9cda40ed" x="185.829049" y="72.786554" style="fill: #dd8452; stroke: #dd8452"/>
     <use xlink:href="#m1e9cda40ed" x="189.513827" y="97.888747" style="fill: #dd8452; stroke: #dd8452"/>
     <use xlink:href="#m1e9cda40ed" x="193.198604" y="149.418955" style="fill: #dd8452; stroke: #dd8452"/>
     <use xlink:href="#m1e9cda40ed" x="196.883381" y="197.802724" style="fill: #dd8452; stroke: #dd8452"/>
     <use xlink:href="#m1e9cda40ed" x="200.568159" y="205.591927" style="fill: #dd8452; stroke: #dd8452"/>
     <use xlink:href="#m1e9cda40ed" x="204.252936" y="231.988196" style="fill: #dd8452; stroke: #dd8452"/>
     <use xlink:href="#m1e9cda40ed" x="207.937713" y="237.488041" style="fill: #dd8452; stroke: #dd8452"/>
     <use xlink:href="#m1e9cda40ed" x="211.62249" y="244.630556" style="fill: #dd8452; stroke: #dd8452"/>
     <use xlink:href="#m1e9cda40ed" x="215.307268" y="214.250521" style="fill: #dd8452; stroke: #dd8452"/>
     <use xlink:href="#m1e9cda40ed" x="218.992045" y="210.066092" style="fill: #dd8452; stroke: #dd8452"/>
     <use xlink:href="#m1e9cda40ed" x="222.676822" y="173.778646" style="fill: #dd8452; stroke: #dd8452"/>
     <use xlink:href="#m1e9cda40ed" x="226.3616" y="154.271793" style="fill: #dd8452; stroke: #dd8452"/>
     <use xlink:href="#m1e9cda40ed" x="230.046377" y="99.814894" style="fill: #dd8452; stroke: #dd8452"/>
     <use xlink:href="#m1e9cda40ed" x="233.731154" y="84.881455" style="fill: #dd8452; stroke: #dd8452"/>
     <use xlink:href="#m1e9cda40ed" x="237.415932" y="82.920891" style="fill: #dd8452; stroke: #dd8452"/>
     <use xlink:href="#m1e9cda40ed" x="241.100709" y="85.991125" style="fill: #dd8452; stroke: #dd8452"/>
     <use xlink:href="#m1e9cda40ed" x="244.785486" y="96.502514" style="fill: #dd8452; stroke: #dd8452"/>
     <use xlink:href="#m1e9cda40ed" x="248.470264" y="113.236269" style="fill: #dd8452; stroke: #dd8452"/>
     <use xlink:href="#m1e9cda40ed" x="252.155041" y="146.216642" style="fill: #dd8452; stroke: #dd8452"/>
     <use xlink:href="#m1e9cda40ed" x="255.839818" y="174.282036" style="fill: #dd8452; stroke: #dd8452"/>
     <use xlink:href="#m1e9cda40ed" x="259.524596" y="202.727719" style="fill: #dd8452; stroke: #dd8452"/>
     <use xlink:href="#m1e9cda40ed" x="263.209373" y="214.988261" style="fill: #dd8452; stroke: #dd8452"/>
     <use xlink:href="#m1e9cda40ed" x="266.89415" y="236.835789" style="fill: #dd8452; stroke: #dd8452"/>
     <use xlink:href="#m1e9cda40ed" x="270.578928" y="224.720195" style="fill: #dd8452; stroke: #dd8452"/>
     <use xlink:href="#m1e9cda40ed" x="274.263705" y="208.076431" style="fill: #dd8452; stroke: #dd8452"/>
     <use xlink:href="#m1e9cda40ed" x="277.948482" y="190.334813" style="fill: #dd8452; stroke: #dd8452"/>
     <use xlink:href="#m1e9cda40ed" x="281.63326" y="169.152148" style="fill: #dd8452; stroke: #dd8452"/>
     <use xlink:href="#m1e9cda40ed" x="285.318037" y="136.448698" style="fill: #dd8452; stroke: #dd8452"/>
     <use xlink:href="#m1e9cda40ed" x="289.002814" y="119.376674" style="fill: #dd8452; stroke: #dd8452"/>
     <use xlink:href="#m1e9cda40ed" x="292.687591" y="112.358373" style="fill: #dd8452; stroke: #dd8452"/>
     <use xlink:href="#m1e9cda40ed" x="296.372369" y="101.494929" style="fill: #dd8452; stroke: #dd8452"/>
     <use xlink:href="#m1e9cda40ed" x="300.057146" y="105.39562" style="fill: #dd8452; stroke: #dd8452"/>
     <use xlink:href="#m1e9cda40ed" x="303.741923" y="121.023962" style="fill: #dd8452; stroke: #dd8452"/>
     <use xlink:href="#m1e9cda40ed" x="307.426701" y="121.834467" style="fill: #dd8452; stroke: #dd8452"/>
     <use xlink:href="#m1e9cda40ed" x="311.111478" y="165.560994" style="fill: #dd8452; stroke: #dd8452"/>
     <use xlink:href="#m1e9cda40ed" x="314.796255" y="184.444225" style="fill: #dd8452; stroke: #dd8452"/>
     <use xlink:href="#m1e9cda40ed" x="318.481033" y="189.258685" style="fill: #dd8452; stroke: #dd8452"/>
     <use xlink:href="#m1e9cda40ed" x="322.16581" y="218.113202" style="fill: #dd8452; stroke: #dd8452"/>
     <use xlink:href="#m1e9cda40ed" x="325.850587" y="218.727364" style="fill: #dd8452; stroke: #dd8452"/>
     <use xlink:href="#m1e9cda40ed" x="329.535365" y="222.920802" style="fill: #dd8452; stroke: #dd8452"/>
     <use xlink:href="#m1e9cda40ed" x="333.220142" y="188.495698" style="fill: #dd8452; stroke: #dd8452"/>
     <use xlink:href="#m1e9cda40ed" x="336.904919" y="171.708605" style="fill: #dd8452; stroke: #dd8452"/>
     <use xlink:href="#m1e9cda40ed" x="340.589697" y="160.594396" style="fill: #dd8452; stroke: #dd8452"/>
     <use xlink:href="#m1e9cda40ed" x="344.274474" y="147.687125" style="fill: #dd8452; stroke: #dd8452"/>
     <use xlink:href="#m1e9cda40ed" x="347.959251" y="113.064756" style="fill: #dd8452; stroke: #dd8452"/>
     <use xlink:href="#m1e9cda40ed" x="351.644029" y="112.875816" style="fill: #dd8452; stroke: #dd8452"/>
     <use xlink:href="#m1e9cda40ed" x="355.328806" y="121.720848" style="fill: #dd8452; stroke: #dd8452"/>
     <use xlink:href="#m1e9cda40ed" x="359.013583" y="125.924534" style="fill: #dd8452; stroke: #dd8452"/>
     <use xlink:href="#m1e9cda40ed" x="362.698361" y="141.545743" style="fill: #dd8452; stroke: #dd8452"/>
     <use xlink:href="#m1e9cda40ed" x="366.383138" y="155.860535" style="fill: #dd8452; stroke: #dd8452"/>
     <use xlink:href="#m1e9cda40ed" x="370.067915" y="161.448895" style="fill: #dd8452; stroke: #dd8452"/>
     <use xlink:href="#m1e9cda40ed" x="373.752692" y="192.599957" style="fill: #dd8452; stroke: #dd8452"/>
     <use xlink:href="#m1e9cda40ed" x="377.43747" y="187.288639" style="fill: #dd8452; stroke: #dd8452"/>
     <use xlink:href="#m1e9cda40ed" x="381.122247" y="201.661885" style="fill: #dd8452; stroke: #dd8452"/>
     <use xlink:href="#m1e9cda40ed" x="384.807024" y="199.814623" style="fill: #dd8452; stroke: #dd8452"/>
     <use xlink:href="#m1e9cda40ed" x="388.491802" y="193.425007" style="fill: #dd8452; stroke: #dd8452"/>
     <use xlink:href="#m1e9cda40ed" x="392.176579" y="188.645733" style="fill: #dd8452; stroke: #dd8452"/>
     <use xlink:href="#m1e9cda40ed" x="395.861356" y="157.154502" style="fill: #dd8452; stroke: #dd8452"/>
     <use xlink:href="#m1e9cda40ed" x="399.546134" y="137.00097" style="fill: #dd8452; stroke: #dd8452"/>
     <use xlink:href="#m1e9cda40ed" x="403.230911" y="135.934989" style="fill: #dd8452; stroke: #dd8452"/>
     <use xlink:href="#m1e9cda40ed" x="406.915688" y="125.339083" style="fill: #dd8452; stroke: #dd8452"/>
     <use xlink:href="#m1e9cda40ed" x="410.600466" y="134.357901" style="fill: #dd8452; stroke: #dd8452"/>
     <use xlink:href="#m1e9cda40ed" x="414.285243" y="120.839228" style="fill: #dd8452; stroke: #dd8452"/>
     <use xlink:href="#m1e9cda40ed" x="417.97002" y="135.367167" style="fill: #dd8452; stroke: #dd8452"/>
     <use xlink:href="#m1e9cda40ed" x="421.654798" y="135.254763" style="fill: #dd8452; stroke: #dd8452"/>
     <use xlink:href="#m1e9cda40ed" x="425.339575" y="153.92043" style="fill: #dd8452; stroke: #dd8452"/>
     <use xlink:href="#m1e9cda40ed" x="429.024352" y="164.259893" style="fill: #dd8452; stroke: #dd8452"/>
    </g>
   </g>
   <g id="patch_3">
    <path d="M 45.99175 302.596125 
L 45.99175 7.2 
" style="fill: none; stroke: #262626; stroke-linejoin: miter; stroke-linecap: square"/>
   </g>
   <g id="patch_4">
    <path d="M 447.264 302.596125 
L 447.264 7.2 
" style="fill: none; stroke: #262626; stroke-linejoin: miter; stroke-linecap: square"/>
   </g>
   <g id="patch_5">
    <path d="M 45.99175 302.596125 
L 447.264 302.596125 
" style="fill: none; stroke: #262626; stroke-linejoin: miter; stroke-linecap: square"/>
   </g>
   <g id="patch_6">
    <path d="M 45.99175 7.2 
L 447.264 7.2 
" style="fill: none; stroke: #262626; stroke-linejoin: miter; stroke-linecap: square"/>
   </g>
   <g id="legend_1">
    <g id="line2d_17">
     <path d="M 293.900625 18.338875 
L 302.700625 18.338875 
L 311.500625 18.338875 
" style="fill: none; stroke: #4c72b0; stroke-width: 1.2; stroke-linecap: round"/>
    </g>
    <g id="text_17">
     <!-- Unobserved true position -->
     <g style="fill: #262626" transform="translate(318.540625 21.418875) scale(0.088 -0.088)">
      <defs>
       <path id="ArialMT-55" d="M 3500 4581 
L 4106 4581 
L 4106 1934 
Q 4106 1244 3950 837 
Q 3794 431 3386 176 
Q 2978 -78 2316 -78 
Q 1672 -78 1262 144 
Q 853 366 678 786 
Q 503 1206 503 1934 
L 503 4581 
L 1109 4581 
L 1109 1938 
Q 1109 1341 1220 1058 
Q 1331 775 1601 622 
Q 1872 469 2263 469 
Q 2931 469 3215 772 
Q 3500 1075 3500 1938 
L 3500 4581 
z
" transform="scale(0.015625)"/>
       <path id="ArialMT-62" d="M 941 0 
L 419 0 
L 419 4581 
L 981 4581 
L 981 2947 
Q 1338 3394 1891 3394 
Q 2197 3394 2470 3270 
Q 2744 3147 2920 2923 
Q 3097 2700 3197 2384 
Q 3297 2069 3297 1709 
Q 3297 856 2875 390 
Q 2453 -75 1863 -75 
Q 1275 -75 941 416 
L 941 0 
z
M 934 1684 
Q 934 1088 1097 822 
Q 1363 388 1816 388 
Q 2184 388 2453 708 
Q 2722 1028 2722 1663 
Q 2722 2313 2464 2622 
Q 2206 2931 1841 2931 
Q 1472 2931 1203 2611 
Q 934 2291 934 1684 
z
" transform="scale(0.015625)"/>
       <path id="ArialMT-72" d="M 416 0 
L 416 3319 
L 922 3319 
L 922 2816 
Q 1116 3169 1280 3281 
Q 1444 3394 1641 3394 
Q 1925 3394 2219 3213 
L 2025 2691 
Q 1819 2813 1613 2813 
Q 1428 2813 1281 2702 
Q 1134 2591 1072 2394 
Q 978 2094 978 1738 
L 978 0 
L 416 0 
z
" transform="scale(0.015625)"/>
       <path id="ArialMT-76" d="M 1344 0 
L 81 3319 
L 675 3319 
L 1388 1331 
Q 1503 1009 1600 663 
Q 1675 925 1809 1294 
L 2547 3319 
L 3125 3319 
L 1869 0 
L 1344 0 
z
" transform="scale(0.015625)"/>
       <path id="ArialMT-64" d="M 2575 0 
L 2575 419 
Q 2259 -75 1647 -75 
Q 1250 -75 917 144 
Q 584 363 401 755 
Q 219 1147 219 1656 
Q 219 2153 384 2558 
Q 550 2963 881 3178 
Q 1213 3394 1622 3394 
Q 1922 3394 2156 3267 
Q 2391 3141 2538 2938 
L 2538 4581 
L 3097 4581 
L 3097 0 
L 2575 0 
z
M 797 1656 
Q 797 1019 1065 703 
Q 1334 388 1700 388 
Q 2069 388 2326 689 
Q 2584 991 2584 1609 
Q 2584 2291 2321 2609 
Q 2059 2928 1675 2928 
Q 1300 2928 1048 2622 
Q 797 2316 797 1656 
z
" transform="scale(0.015625)"/>
       <path id="ArialMT-75" d="M 2597 0 
L 2597 488 
Q 2209 -75 1544 -75 
Q 1250 -75 995 37 
Q 741 150 617 320 
Q 494 491 444 738 
Q 409 903 409 1263 
L 409 3319 
L 972 3319 
L 972 1478 
Q 972 1038 1006 884 
Q 1059 663 1231 536 
Q 1403 409 1656 409 
Q 1909 409 2131 539 
Q 2353 669 2445 892 
Q 2538 1116 2538 1541 
L 2538 3319 
L 3100 3319 
L 3100 0 
L 2597 0 
z
" transform="scale(0.015625)"/>
       <path id="ArialMT-70" d="M 422 -1272 
L 422 3319 
L 934 3319 
L 934 2888 
Q 1116 3141 1344 3267 
Q 1572 3394 1897 3394 
Q 2322 3394 2647 3175 
Q 2972 2956 3137 2557 
Q 3303 2159 3303 1684 
Q 3303 1175 3120 767 
Q 2938 359 2589 142 
Q 2241 -75 1856 -75 
Q 1575 -75 1351 44 
Q 1128 163 984 344 
L 984 -1272 
L 422 -1272 
z
M 931 1641 
Q 931 1000 1190 694 
Q 1450 388 1819 388 
Q 2194 388 2461 705 
Q 2728 1022 2728 1688 
Q 2728 2322 2467 2637 
Q 2206 2953 1844 2953 
Q 1484 2953 1207 2617 
Q 931 2281 931 1641 
z
" transform="scale(0.015625)"/>
      </defs>
      <use xlink:href="#ArialMT-55"/>
      <use xlink:href="#ArialMT-6e" x="72.216797"/>
      <use xlink:href="#ArialMT-6f" x="127.832031"/>
      <use xlink:href="#ArialMT-62" x="183.447266"/>
      <use xlink:href="#ArialMT-73" x="239.0625"/>
      <use xlink:href="#ArialMT-65" x="289.0625"/>
      <use xlink:href="#ArialMT-72" x="344.677734"/>
      <use xlink:href="#ArialMT-76" x="377.978516"/>
      <use xlink:href="#ArialMT-65" x="427.978516"/>
      <use xlink:href="#ArialMT-64" x="483.59375"/>
      <use xlink:href="#ArialMT-20" x="539.208984"/>
      <use xlink:href="#ArialMT-74" x="566.992188"/>
      <use xlink:href="#ArialMT-72" x="594.775391"/>
      <use xlink:href="#ArialMT-75" x="628.076172"/>
      <use xlink:href="#ArialMT-65" x="683.691406"/>
      <use xlink:href="#ArialMT-20" x="739.306641"/>
      <use xlink:href="#ArialMT-70" x="767.089844"/>
      <use xlink:href="#ArialMT-6f" x="822.705078"/>
      <use xlink:href="#ArialMT-73" x="878.320312"/>
      <use xlink:href="#ArialMT-69" x="928.320312"/>
      <use xlink:href="#ArialMT-74" x="950.537109"/>
      <use xlink:href="#ArialMT-69" x="978.320312"/>
      <use xlink:href="#ArialMT-6f" x="1000.537109"/>
      <use xlink:href="#ArialMT-6e" x="1056.152344"/>
     </g>
    </g>
    <g id="line2d_18">
     <g>
      <use xlink:href="#m1e9cda40ed" x="302.700625" y="30.894" style="fill: #dd8452; stroke: #dd8452"/>
     </g>
    </g>
    <g id="text_18">
     <!-- Noisy measurement of position -->
     <g style="fill: #262626" transform="translate(318.540625 33.974) scale(0.088 -0.088)">
      <defs>
       <path id="ArialMT-4e" d="M 488 0 
L 488 4581 
L 1109 4581 
L 3516 984 
L 3516 4581 
L 4097 4581 
L 4097 0 
L 3475 0 
L 1069 3600 
L 1069 0 
L 488 0 
z
" transform="scale(0.015625)"/>
       <path id="ArialMT-79" d="M 397 -1278 
L 334 -750 
Q 519 -800 656 -800 
Q 844 -800 956 -737 
Q 1069 -675 1141 -563 
Q 1194 -478 1313 -144 
Q 1328 -97 1363 -6 
L 103 3319 
L 709 3319 
L 1400 1397 
Q 1534 1031 1641 628 
Q 1738 1016 1872 1384 
L 2581 3319 
L 3144 3319 
L 1881 -56 
Q 1678 -603 1566 -809 
Q 1416 -1088 1222 -1217 
Q 1028 -1347 759 -1347 
Q 597 -1347 397 -1278 
z
" transform="scale(0.015625)"/>
       <path id="ArialMT-61" d="M 2588 409 
Q 2275 144 1986 34 
Q 1697 -75 1366 -75 
Q 819 -75 525 192 
Q 231 459 231 875 
Q 231 1119 342 1320 
Q 453 1522 633 1644 
Q 813 1766 1038 1828 
Q 1203 1872 1538 1913 
Q 2219 1994 2541 2106 
Q 2544 2222 2544 2253 
Q 2544 2597 2384 2738 
Q 2169 2928 1744 2928 
Q 1347 2928 1158 2789 
Q 969 2650 878 2297 
L 328 2372 
Q 403 2725 575 2942 
Q 747 3159 1072 3276 
Q 1397 3394 1825 3394 
Q 2250 3394 2515 3294 
Q 2781 3194 2906 3042 
Q 3031 2891 3081 2659 
Q 3109 2516 3109 2141 
L 3109 1391 
Q 3109 606 3145 398 
Q 3181 191 3288 0 
L 2700 0 
Q 2613 175 2588 409 
z
M 2541 1666 
Q 2234 1541 1622 1453 
Q 1275 1403 1131 1340 
Q 988 1278 909 1158 
Q 831 1038 831 891 
Q 831 666 1001 516 
Q 1172 366 1500 366 
Q 1825 366 2078 508 
Q 2331 650 2450 897 
Q 2541 1088 2541 1459 
L 2541 1666 
z
" transform="scale(0.015625)"/>
       <path id="ArialMT-66" d="M 556 0 
L 556 2881 
L 59 2881 
L 59 3319 
L 556 3319 
L 556 3672 
Q 556 4006 616 4169 
Q 697 4388 901 4523 
Q 1106 4659 1475 4659 
Q 1713 4659 2000 4603 
L 1916 4113 
Q 1741 4144 1584 4144 
Q 1328 4144 1222 4034 
Q 1116 3925 1116 3625 
L 1116 3319 
L 1763 3319 
L 1763 2881 
L 1116 2881 
L 1116 0 
L 556 0 
z
" transform="scale(0.015625)"/>
      </defs>
      <use xlink:href="#ArialMT-4e"/>
      <use xlink:href="#ArialMT-6f" x="72.216797"/>
      <use xlink:href="#ArialMT-69" x="127.832031"/>
      <use xlink:href="#ArialMT-73" x="150.048828"/>
      <use xlink:href="#ArialMT-79" x="200.048828"/>
      <use xlink:href="#ArialMT-20" x="250.048828"/>
      <use xlink:href="#ArialMT-6d" x="277.832031"/>
      <use xlink:href="#ArialMT-65" x="361.132812"/>
      <use xlink:href="#ArialMT-61" x="416.748047"/>
      <use xlink:href="#ArialMT-73" x="472.363281"/>
      <use xlink:href="#ArialMT-75" x="522.363281"/>
      <use xlink:href="#ArialMT-72" x="577.978516"/>
      <use xlink:href="#ArialMT-65" x="611.279297"/>
      <use xlink:href="#ArialMT-6d" x="666.894531"/>
      <use xlink:href="#ArialMT-65" x="750.195312"/>
      <use xlink:href="#ArialMT-6e" x="805.810547"/>
      <use xlink:href="#ArialMT-74" x="861.425781"/>
      <use xlink:href="#ArialMT-20" x="889.208984"/>
      <use xlink:href="#ArialMT-6f" x="916.992188"/>
      <use xlink:href="#ArialMT-66" x="972.607422"/>
      <use xlink:href="#ArialMT-20" x="1000.390625"/>
      <use xlink:href="#ArialMT-70" x="1028.173828"/>
      <use xlink:href="#ArialMT-6f" x="1083.789062"/>
      <use xlink:href="#ArialMT-73" x="1139.404297"/>
      <use xlink:href="#ArialMT-69" x="1189.404297"/>
      <use xlink:href="#ArialMT-74" x="1211.621094"/>
      <use xlink:href="#ArialMT-69" x="1239.404297"/>
      <use xlink:href="#ArialMT-6f" x="1261.621094"/>
      <use xlink:href="#ArialMT-6e" x="1317.236328"/>
     </g>
    </g>
   </g>
  </g>
 </g>
 <defs>
  <clipPath id="peeb5980abb">
   <rect x="45.99175" y="7.2" width="401.27225" height="295.396125"/>
  </clipPath>
 </defs>
</svg>