<?xml version="1.0" encoding="utf-8" standalone="no"?>
<!DOCTYPE svg PUBLIC "-//W3C//DTD SVG 1.1//EN"
  "http://www.w3.org/Graphics/SVG/1.1/DTD/svg11.dtd">
<svg xmlns:xlink="http://www.w3.org/1999/xlink" width="454.464pt" height="339.264pt" viewBox="0 0 454.464 339.264" xmlns="http://www.w3.org/2000/svg" version="1.1">
 <metadata>
  <rdf:RDF xmlns:dc="http://purl.org/dc/elements/1.1/" xmlns:cc="http://creativecommons.org/ns#" xmlns:rdf="http://www.w3.org/1999/02/22-rdf-syntax-ns#">
   <cc:Work>
    <dc:type rdf:resource="http://purl.org/dc/dcmitype/StillImage"/>
    <dc:date>2025-03-19T13:16:00.529293</dc:date>
    <dc:format>image/svg+xml</dc:format>
    <dc:creator>
     <cc:Agent>
      <dc:title>Matplotlib v3.9.2, https://matplotlib.org/</dc:title>
     </cc:Agent>
    </dc:creator>
   </cc:Work>
  </rdf:RDF>
 </metadata>
 <defs>
  <style type="text/css">*{stroke-linejoin: round; stroke-linecap: butt}</style>
 </defs>
 <g id="figure_1">
  <g id="patch_1">
   <path d="M 0 339.264 
L 454.464 339.264 
L 454.464 0 
L 0 0 
z
" style="fill: #ffffff"/>
  </g>
  <g id="axes_1">
   <g id="patch_2">
    <path d="M 38.653375 302.596125 
L 447.264 302.596125 
L 447.264 7.2 
L 38.653375 7.2 
z
" style="fill: #ffffff"/>
   </g>
   <g id="matplotlib.axis_1">
    <g id="xtick_1">
     <g id="line2d_1">
      <defs>
       <path id="m9f6a739fa6" d="M 0 0 
L 0 4.8 
" style="stroke: #262626"/>
      </defs>
      <g>
       <use xlink:href="#m9f6a739fa6" x="57.226585" y="302.596125" style="fill: #262626; stroke: #262626"/>
      </g>
     </g>
     <g id="text_1">
      <!-- 0 -->
      <g style="fill: #262626" transform="translate(54.779773 317.195) scale(0.088 -0.088)">
       <defs>
        <path id="ArialMT-30" d="M 266 2259 
Q 266 3072 433 3567 
Q 600 4063 929 4331 
Q 1259 4600 1759 4600 
Q 2128 4600 2406 4451 
Q 2684 4303 2865 4023 
Q 3047 3744 3150 3342 
Q 3253 2941 3253 2259 
Q 3253 1453 3087 958 
Q 2922 463 2592 192 
Q 2263 -78 1759 -78 
Q 1097 -78 719 397 
Q 266 969 266 2259 
z
M 844 2259 
Q 844 1131 1108 757 
Q 1372 384 1759 384 
Q 2147 384 2411 759 
Q 2675 1134 2675 2259 
Q 2675 3391 2411 3762 
Q 2147 4134 1753 4134 
Q 1366 4134 1134 3806 
Q 844 3388 844 2259 
z
" transform="scale(0.015625)"/>
       </defs>
       <use xlink:href="#ArialMT-30"/>
      </g>
     </g>
    </g>
    <g id="xtick_2">
     <g id="line2d_2">
      <g>
       <use xlink:href="#m9f6a739fa6" x="116.34695" y="302.596125" style="fill: #262626; stroke: #262626"/>
      </g>
     </g>
     <g id="text_2">
      <!-- 2 -->
      <g style="fill: #262626" transform="translate(113.900137 317.195) scale(0.088 -0.088)">
       <defs>
        <path id="ArialMT-32" d="M 3222 541 
L 3222 0 
L 194 0 
Q 188 203 259 391 
Q 375 700 629 1000 
Q 884 1300 1366 1694 
Q 2113 2306 2375 2664 
Q 2638 3022 2638 3341 
Q 2638 3675 2398 3904 
Q 2159 4134 1775 4134 
Q 1369 4134 1125 3890 
Q 881 3647 878 3216 
L 300 3275 
Q 359 3922 746 4261 
Q 1134 4600 1788 4600 
Q 2447 4600 2831 4234 
Q 3216 3869 3216 3328 
Q 3216 3053 3103 2787 
Q 2991 2522 2730 2228 
Q 2469 1934 1863 1422 
Q 1356 997 1212 845 
Q 1069 694 975 541 
L 3222 541 
z
" transform="scale(0.015625)"/>
       </defs>
       <use xlink:href="#ArialMT-32"/>
      </g>
     </g>
    </g>
    <g id="xtick_3">
     <g id="line2d_3">
      <g>
       <use xlink:href="#m9f6a739fa6" x="175.467314" y="302.596125" style="fill: #262626; stroke: #262626"/>
      </g>
     </g>
     <g id="text_3">
      <!-- 4 -->
      <g style="fill: #262626" transform="translate(173.020501 317.195) scale(0.088 -0.088)">
       <defs>
        <path id="ArialMT-34" d="M 2069 0 
L 2069 1097 
L 81 1097 
L 81 1613 
L 2172 4581 
L 2631 4581 
L 2631 1613 
L 3250 1613 
L 3250 1097 
L 2631 1097 
L 2631 0 
L 2069 0 
z
M 2069 1613 
L 2069 3678 
L 634 1613 
L 2069 1613 
z
" transform="scale(0.015625)"/>
       </defs>
       <use xlink:href="#ArialMT-34"/>
      </g>
     </g>
    </g>
    <g id="xtick_4">
     <g id="line2d_4">
      <g>
       <use xlink:href="#m9f6a739fa6" x="234.587678" y="302.596125" style="fill: #262626; stroke: #262626"/>
      </g>
     </g>
     <g id="text_4">
      <!-- 6 -->
      <g style="fill: #262626" transform="translate(232.140866 317.195) scale(0.088 -0.088)">
       <defs>
        <path id="ArialMT-36" d="M 3184 3459 
L 2625 3416 
Q 2550 3747 2413 3897 
Q 2184 4138 1850 4138 
Q 1581 4138 1378 3988 
Q 1113 3794 959 3422 
Q 806 3050 800 2363 
Q 1003 2672 1297 2822 
Q 1591 2972 1913 2972 
Q 2475 2972 2870 2558 
Q 3266 2144 3266 1488 
Q 3266 1056 3080 686 
Q 2894 316 2569 119 
Q 2244 -78 1831 -78 
Q 1128 -78 684 439 
Q 241 956 241 2144 
Q 241 3472 731 4075 
Q 1159 4600 1884 4600 
Q 2425 4600 2770 4297 
Q 3116 3994 3184 3459 
z
M 888 1484 
Q 888 1194 1011 928 
Q 1134 663 1356 523 
Q 1578 384 1822 384 
Q 2178 384 2434 671 
Q 2691 959 2691 1453 
Q 2691 1928 2437 2201 
Q 2184 2475 1800 2475 
Q 1419 2475 1153 2201 
Q 888 1928 888 1484 
z
" transform="scale(0.015625)"/>
       </defs>
       <use xlink:href="#ArialMT-36"/>
      </g>
     </g>
    </g>
    <g id="xtick_5">
     <g id="line2d_5">
      <g>
       <use xlink:href="#m9f6a739fa6" x="293.708043" y="302.596125" style="fill: #262626; stroke: #262626"/>
      </g>
     </g>
     <g id="text_5">
      <!-- 8 -->
      <g style="fill: #262626" transform="translate(291.26123 317.195) scale(0.088 -0.088)">
       <defs>
        <path id="ArialMT-38" d="M 1131 2484 
Q 781 2613 612 2850 
Q 444 3088 444 3419 
Q 444 3919 803 4259 
Q 1163 4600 1759 4600 
Q 2359 4600 2725 4251 
Q 3091 3903 3091 3403 
Q 3091 3084 2923 2848 
Q 2756 2613 2416 2484 
Q 2838 2347 3058 2040 
Q 3278 1734 3278 1309 
Q 3278 722 2862 322 
Q 2447 -78 1769 -78 
Q 1091 -78 675 323 
Q 259 725 259 1325 
Q 259 1772 486 2073 
Q 713 2375 1131 2484 
z
M 1019 3438 
Q 1019 3113 1228 2906 
Q 1438 2700 1772 2700 
Q 2097 2700 2305 2904 
Q 2513 3109 2513 3406 
Q 2513 3716 2298 3927 
Q 2084 4138 1766 4138 
Q 1444 4138 1231 3931 
Q 1019 3725 1019 3438 
z
M 838 1322 
Q 838 1081 952 856 
Q 1066 631 1291 507 
Q 1516 384 1775 384 
Q 2178 384 2440 643 
Q 2703 903 2703 1303 
Q 2703 1709 2433 1975 
Q 2163 2241 1756 2241 
Q 1359 2241 1098 1978 
Q 838 1716 838 1322 
z
" transform="scale(0.015625)"/>
       </defs>
       <use xlink:href="#ArialMT-38"/>
      </g>
     </g>
    </g>
    <g id="xtick_6">
     <g id="line2d_6">
      <g>
       <use xlink:href="#m9f6a739fa6" x="352.828407" y="302.596125" style="fill: #262626; stroke: #262626"/>
      </g>
     </g>
     <g id="text_6">
      <!-- 10 -->
      <g style="fill: #262626" transform="translate(347.934782 317.195) scale(0.088 -0.088)">
       <defs>
        <path id="ArialMT-31" d="M 2384 0 
L 1822 0 
L 1822 3584 
Q 1619 3391 1289 3197 
Q 959 3003 697 2906 
L 697 3450 
Q 1169 3672 1522 3987 
Q 1875 4303 2022 4600 
L 2384 4600 
L 2384 0 
z
" transform="scale(0.015625)"/>
       </defs>
       <use xlink:href="#ArialMT-31"/>
       <use xlink:href="#ArialMT-30" x="55.615234"/>
      </g>
     </g>
    </g>
    <g id="xtick_7">
     <g id="line2d_7">
      <g>
       <use xlink:href="#m9f6a739fa6" x="411.948771" y="302.596125" style="fill: #262626; stroke: #262626"/>
      </g>
     </g>
     <g id="text_7">
      <!-- 12 -->
      <g style="fill: #262626" transform="translate(407.055146 317.195) scale(0.088 -0.088)">
       <use xlink:href="#ArialMT-31"/>
       <use xlink:href="#ArialMT-32" x="55.615234"/>
      </g>
     </g>
    </g>
    <g id="text_8">
     <!-- $t$ (Time) -->
     <g style="fill: #262626" transform="translate(225.870688 329.952) scale(0.096 -0.096)">
      <defs>
       <path id="DejaVuSans-Oblique-74" d="M 2706 3500 
L 2619 3053 
L 1472 3053 
L 1100 1153 
Q 1081 1047 1072 975 
Q 1063 903 1063 863 
Q 1063 663 1183 572 
Q 1303 481 1569 481 
L 2150 481 
L 2053 0 
L 1503 0 
Q 991 0 739 200 
Q 488 400 488 806 
Q 488 878 497 964 
Q 506 1050 525 1153 
L 897 3053 
L 409 3053 
L 500 3500 
L 978 3500 
L 1172 4494 
L 1747 4494 
L 1556 3500 
L 2706 3500 
z
" transform="scale(0.015625)"/>
       <path id="ArialMT-20" transform="scale(0.015625)"/>
       <path id="ArialMT-28" d="M 1497 -1347 
Q 1031 -759 709 28 
Q 388 816 388 1659 
Q 388 2403 628 3084 
Q 909 3875 1497 4659 
L 1900 4659 
Q 1522 4009 1400 3731 
Q 1209 3300 1100 2831 
Q 966 2247 966 1656 
Q 966 153 1900 -1347 
L 1497 -1347 
z
" transform="scale(0.015625)"/>
       <path id="ArialMT-54" d="M 1659 0 
L 1659 4041 
L 150 4041 
L 150 4581 
L 3781 4581 
L 3781 4041 
L 2266 4041 
L 2266 0 
L 1659 0 
z
" transform="scale(0.015625)"/>
       <path id="ArialMT-69" d="M 425 3934 
L 425 4581 
L 988 4581 
L 988 3934 
L 425 3934 
z
M 425 0 
L 425 3319 
L 988 3319 
L 988 0 
L 425 0 
z
" transform="scale(0.015625)"/>
       <path id="ArialMT-6d" d="M 422 0 
L 422 3319 
L 925 3319 
L 925 2853 
Q 1081 3097 1340 3245 
Q 1600 3394 1931 3394 
Q 2300 3394 2536 3241 
Q 2772 3088 2869 2813 
Q 3263 3394 3894 3394 
Q 4388 3394 4653 3120 
Q 4919 2847 4919 2278 
L 4919 0 
L 4359 0 
L 4359 2091 
Q 4359 2428 4304 2576 
Q 4250 2725 4106 2815 
Q 3963 2906 3769 2906 
Q 3419 2906 3187 2673 
Q 2956 2441 2956 1928 
L 2956 0 
L 2394 0 
L 2394 2156 
Q 2394 2531 2256 2718 
Q 2119 2906 1806 2906 
Q 1569 2906 1367 2781 
Q 1166 2656 1075 2415 
Q 984 2175 984 1722 
L 984 0 
L 422 0 
z
" transform="scale(0.015625)"/>
       <path id="ArialMT-65" d="M 2694 1069 
L 3275 997 
Q 3138 488 2766 206 
Q 2394 -75 1816 -75 
Q 1088 -75 661 373 
Q 234 822 234 1631 
Q 234 2469 665 2931 
Q 1097 3394 1784 3394 
Q 2450 3394 2872 2941 
Q 3294 2488 3294 1666 
Q 3294 1616 3291 1516 
L 816 1516 
Q 847 969 1125 678 
Q 1403 388 1819 388 
Q 2128 388 2347 550 
Q 2566 713 2694 1069 
z
M 847 1978 
L 2700 1978 
Q 2663 2397 2488 2606 
Q 2219 2931 1791 2931 
Q 1403 2931 1139 2672 
Q 875 2413 847 1978 
z
" transform="scale(0.015625)"/>
       <path id="ArialMT-29" d="M 791 -1347 
L 388 -1347 
Q 1322 153 1322 1656 
Q 1322 2244 1188 2822 
Q 1081 3291 891 3722 
Q 769 4003 388 4659 
L 791 4659 
Q 1378 3875 1659 3084 
Q 1900 2403 1900 1659 
Q 1900 816 1576 28 
Q 1253 -759 791 -1347 
z
" transform="scale(0.015625)"/>
      </defs>
      <use xlink:href="#DejaVuSans-Oblique-74" transform="translate(0 0.203125)"/>
      <use xlink:href="#ArialMT-20" transform="translate(39.208984 0.203125)"/>
      <use xlink:href="#ArialMT-28" transform="translate(66.992188 0.203125)"/>
      <use xlink:href="#ArialMT-54" transform="translate(100.292969 0.203125)"/>
      <use xlink:href="#ArialMT-69" transform="translate(161.376953 0.203125)"/>
      <use xlink:href="#ArialMT-6d" transform="translate(183.59375 0.203125)"/>
      <use xlink:href="#ArialMT-65" transform="translate(266.894531 0.203125)"/>
      <use xlink:href="#ArialMT-29" transform="translate(322.509766 0.203125)"/>
     </g>
    </g>
   </g>
   <g id="matplotlib.axis_2">
    <g id="ytick_1">
     <g id="line2d_8">
      <defs>
       <path id="m19ca3a1cd5" d="M 0 0 
L -4.8 0 
" style="stroke: #262626"/>
      </defs>
      <g>
       <use xlink:href="#m19ca3a1cd5" x="38.653375" y="276.770526" style="fill: #262626; stroke: #262626"/>
      </g>
     </g>
     <g id="text_9">
      <!-- −4 -->
      <g style="fill: #262626" transform="translate(20.32 279.919964) scale(0.088 -0.088)">
       <defs>
        <path id="ArialMT-2212" d="M 3381 1997 
L 356 1997 
L 356 2522 
L 3381 2522 
L 3381 1997 
z
" transform="scale(0.015625)"/>
       </defs>
       <use xlink:href="#ArialMT-2212"/>
       <use xlink:href="#ArialMT-34" x="58.398438"/>
      </g>
     </g>
    </g>
    <g id="ytick_2">
     <g id="line2d_9">
      <g>
       <use xlink:href="#m19ca3a1cd5" x="38.653375" y="218.262349" style="fill: #262626; stroke: #262626"/>
      </g>
     </g>
     <g id="text_10">
      <!-- −2 -->
      <g style="fill: #262626" transform="translate(20.32 221.411786) scale(0.088 -0.088)">
       <use xlink:href="#ArialMT-2212"/>
       <use xlink:href="#ArialMT-32" x="58.398438"/>
      </g>
     </g>
    </g>
    <g id="ytick_3">
     <g id="line2d_10">
      <g>
       <use xlink:href="#m19ca3a1cd5" x="38.653375" y="159.754172" style="fill: #262626; stroke: #262626"/>
      </g>
     </g>
     <g id="text_11">
      <!-- 0 -->
      <g style="fill: #262626" transform="translate(25.45975 162.903609) scale(0.088 -0.088)">
       <use xlink:href="#ArialMT-30"/>
      </g>
     </g>
    </g>
    <g id="ytick_4">
     <g id="line2d_11">
      <g>
       <use xlink:href="#m19ca3a1cd5" x="38.653375" y="101.245994" style="fill: #262626; stroke: #262626"/>
      </g>
     </g>
     <g id="text_12">
      <!-- 2 -->
      <g style="fill: #262626" transform="translate(25.45975 104.395432) scale(0.088 -0.088)">
       <use xlink:href="#ArialMT-32"/>
      </g>
     </g>
    </g>
    <g id="ytick_5">
     <g id="line2d_12">
      <g>
       <use xlink:href="#m19ca3a1cd5" x="38.653375" y="42.737817" style="fill: #262626; stroke: #262626"/>
      </g>
     </g>
     <g id="text_13">
      <!-- 4 -->
      <g style="fill: #262626" transform="translate(25.45975 45.887255) scale(0.088 -0.088)">
       <use xlink:href="#ArialMT-34"/>
      </g>
     </g>
    </g>
    <g id="text_14">
     <!-- $v$ (Velocity) -->
     <g style="fill: #262626" transform="translate(14.208 179.090063) rotate(-90) scale(0.096 -0.096)">
      <defs>
       <path id="DejaVuSans-Oblique-76" d="M 459 3500 
L 1069 3500 
L 1581 525 
L 3256 3500 
L 3866 3500 
L 1875 0 
L 1100 0 
L 459 3500 
z
" transform="scale(0.015625)"/>
       <path id="ArialMT-56" d="M 1803 0 
L 28 4581 
L 684 4581 
L 1875 1253 
Q 2019 853 2116 503 
Q 2222 878 2363 1253 
L 3600 4581 
L 4219 4581 
L 2425 0 
L 1803 0 
z
" transform="scale(0.015625)"/>
       <path id="ArialMT-6c" d="M 409 0 
L 409 4581 
L 972 4581 
L 972 0 
L 409 0 
z
" transform="scale(0.015625)"/>
       <path id="ArialMT-6f" d="M 213 1659 
Q 213 2581 725 3025 
Q 1153 3394 1769 3394 
Q 2453 3394 2887 2945 
Q 3322 2497 3322 1706 
Q 3322 1066 3130 698 
Q 2938 331 2570 128 
Q 2203 -75 1769 -75 
Q 1072 -75 642 372 
Q 213 819 213 1659 
z
M 791 1659 
Q 791 1022 1069 705 
Q 1347 388 1769 388 
Q 2188 388 2466 706 
Q 2744 1025 2744 1678 
Q 2744 2294 2464 2611 
Q 2184 2928 1769 2928 
Q 1347 2928 1069 2612 
Q 791 2297 791 1659 
z
" transform="scale(0.015625)"/>
       <path id="ArialMT-63" d="M 2588 1216 
L 3141 1144 
Q 3050 572 2676 248 
Q 2303 -75 1759 -75 
Q 1078 -75 664 370 
Q 250 816 250 1647 
Q 250 2184 428 2587 
Q 606 2991 970 3192 
Q 1334 3394 1763 3394 
Q 2303 3394 2647 3120 
Q 2991 2847 3088 2344 
L 2541 2259 
Q 2463 2594 2264 2762 
Q 2066 2931 1784 2931 
Q 1359 2931 1093 2626 
Q 828 2322 828 1663 
Q 828 994 1084 691 
Q 1341 388 1753 388 
Q 2084 388 2306 591 
Q 2528 794 2588 1216 
z
" transform="scale(0.015625)"/>
       <path id="ArialMT-74" d="M 1650 503 
L 1731 6 
Q 1494 -44 1306 -44 
Q 1000 -44 831 53 
Q 663 150 594 308 
Q 525 466 525 972 
L 525 2881 
L 113 2881 
L 113 3319 
L 525 3319 
L 525 4141 
L 1084 4478 
L 1084 3319 
L 1650 3319 
L 1650 2881 
L 1084 2881 
L 1084 941 
Q 1084 700 1114 631 
Q 1144 563 1211 522 
Q 1278 481 1403 481 
Q 1497 481 1650 503 
z
" transform="scale(0.015625)"/>
       <path id="ArialMT-79" d="M 397 -1278 
L 334 -750 
Q 519 -800 656 -800 
Q 844 -800 956 -737 
Q 1069 -675 1141 -563 
Q 1194 -478 1313 -144 
Q 1328 -97 1363 -6 
L 103 3319 
L 709 3319 
L 1400 1397 
Q 1534 1031 1641 628 
Q 1738 1016 1872 1384 
L 2581 3319 
L 3144 3319 
L 1881 -56 
Q 1678 -603 1566 -809 
Q 1416 -1088 1222 -1217 
Q 1028 -1347 759 -1347 
Q 597 -1347 397 -1278 
z
" transform="scale(0.015625)"/>
      </defs>
      <use xlink:href="#DejaVuSans-Oblique-76" transform="translate(0 0.203125)"/>
      <use xlink:href="#ArialMT-20" transform="translate(59.179688 0.203125)"/>
      <use xlink:href="#ArialMT-28" transform="translate(86.962891 0.203125)"/>
      <use xlink:href="#ArialMT-56" transform="translate(120.263672 0.203125)"/>
      <use xlink:href="#ArialMT-65" transform="translate(186.962891 0.203125)"/>
      <use xlink:href="#ArialMT-6c" transform="translate(242.578125 0.203125)"/>
      <use xlink:href="#ArialMT-6f" transform="translate(264.794922 0.203125)"/>
      <use xlink:href="#ArialMT-63" transform="translate(320.410156 0.203125)"/>
      <use xlink:href="#ArialMT-69" transform="translate(370.410156 0.203125)"/>
      <use xlink:href="#ArialMT-74" transform="translate(392.626953 0.203125)"/>
      <use xlink:href="#ArialMT-79" transform="translate(420.410156 0.203125)"/>
      <use xlink:href="#ArialMT-29" transform="translate(470.410156 0.203125)"/>
     </g>
    </g>
   </g>
   <g id="line2d_13">
    <path d="M 57.226585 118.19007 
L 60.978749 157.169552 
L 64.730913 195.572813 
L 68.483076 227.457848 
L 72.23524 248.042595 
L 75.987404 254.417568 
L 79.739567 245.950189 
L 83.491731 224.325826 
L 87.243895 193.228284 
L 90.996058 157.71834 
L 94.748222 123.41429 
L 98.500386 95.606557 
L 102.252549 78.445351 
L 106.004713 74.325546 
L 109.756877 83.559224 
L 113.50904 104.379484 
L 117.261204 133.266606 
L 121.013368 165.537905 
L 124.765532 196.103184 
L 128.517695 220.264451 
L 132.269859 234.434756 
L 136.022023 236.666692 
L 139.774186 226.913339 
L 143.52635 206.987905 
L 147.278514 180.235863 
L 151.030677 150.97765 
L 154.782841 123.814118 
L 158.535005 102.905895 
L 162.287168 91.339103 
L 166.039332 90.67362 
L 169.791496 100.7394 
L 173.543659 119.706211 
L 177.295823 144.409127 
L 181.047987 170.872872 
L 184.80015 194.948707 
L 188.552314 212.962263 
L 192.304478 222.271553 
L 196.056641 221.65087 
L 199.808805 211.4454 
L 203.560969 193.478301 
L 207.313133 170.730881 
L 211.065296 146.851155 
L 214.81746 125.571317 
L 218.569624 110.126755 
L 222.321787 102.766691 
L 226.073951 104.430035 
L 229.826115 114.632608 
L 233.578278 131.577909 
L 237.330442 152.468656 
L 241.082606 173.965736 
L 244.834769 192.719695 
L 248.586933 205.890505 
L 252.339097 211.575291 
L 256.09126 209.079979 
L 259.843424 198.996651 
L 263.595588 183.079467 
L 267.347751 163.943464 
L 271.099915 144.637374 
L 274.852079 128.159887 
L 278.604242 116.995803 
L 282.356406 112.743508 
L 286.10857 115.889288 
L 289.860734 125.759775 
L 293.612897 140.655461 
L 297.365061 158.140017 
L 301.117225 175.436647 
L 304.869388 189.867306 
L 308.621552 199.265602 
L 312.373716 202.29998 
L 316.125879 198.659324 
L 319.878043 189.075634 
L 323.630207 175.184341 
L 327.38237 159.248001 
L 331.134534 143.789647 
L 334.886698 131.194929 
L 338.638861 123.345541 
L 342.391025 121.339991 
L 346.143189 125.342858 
L 349.895352 134.582674 
L 353.647516 147.495041 
L 357.39968 161.985158 
L 361.151843 175.766018 
L 364.904007 186.717951 
L 368.656171 193.213196 
L 372.408335 194.356039 
L 376.160498 190.10339 
L 379.912662 181.250096 
L 383.664826 169.284652 
L 387.416989 156.140944 
L 391.169153 143.887131 
L 394.921317 134.401507 
L 398.67348 129.085927 
L 402.425644 128.660321 
L 406.177808 133.068124 
L 409.929971 141.504515 
L 413.682135 152.560002 
L 417.434299 164.454195 
L 421.186462 175.321249 
L 424.938626 183.501402 
L 428.69079 187.793243 
" clip-path="url(#p4a0e75c3ad)" style="fill: none; stroke: #4c72b0; stroke-width: 1.2; stroke-linecap: round"/>
   </g>
   <g id="line2d_14">
    <defs>
     <path id="m80178dcfd2" d="M 0 1.2 
C 0.318244 1.2 0.623496 1.07356 0.848528 0.848528 
C 1.07356 0.623496 1.2 0.318244 1.2 0 
C 1.2 -0.318244 1.07356 -0.623496 0.848528 -0.848528 
C 0.623496 -1.07356 0.318244 -1.2 0 -1.2 
C -0.318244 -1.2 -0.623496 -1.07356 -0.848528 -0.848528 
C -1.07356 -0.623496 -1.2 -0.318244 -1.2 0 
C -1.2 0.318244 -1.07356 0.623496 -0.848528 0.848528 
C -0.623496 1.07356 -0.318244 1.2 0 1.2 
z
" style="stroke: #dd8452"/>
    </defs>
    <g clip-path="url(#p4a0e75c3ad)">
     <use xlink:href="#m80178dcfd2" x="57.226585" y="233.737186" style="fill: #dd8452; stroke: #dd8452"/>
     <use xlink:href="#m80178dcfd2" x="60.978749" y="203.816639" style="fill: #dd8452; stroke: #dd8452"/>
     <use xlink:href="#m80178dcfd2" x="64.730913" y="243.554742" style="fill: #dd8452; stroke: #dd8452"/>
     <use xlink:href="#m80178dcfd2" x="68.483076" y="289.169028" style="fill: #dd8452; stroke: #dd8452"/>
     <use xlink:href="#m80178dcfd2" x="72.23524" y="276.357191" style="fill: #dd8452; stroke: #dd8452"/>
     <use xlink:href="#m80178dcfd2" x="75.987404" y="268.494644" style="fill: #dd8452; stroke: #dd8452"/>
     <use xlink:href="#m80178dcfd2" x="79.739567" y="252.100933" style="fill: #dd8452; stroke: #dd8452"/>
     <use xlink:href="#m80178dcfd2" x="83.491731" y="162.929715" style="fill: #dd8452; stroke: #dd8452"/>
     <use xlink:href="#m80178dcfd2" x="87.243895" y="131.478627" style="fill: #dd8452; stroke: #dd8452"/>
     <use xlink:href="#m80178dcfd2" x="90.996058" y="162.17426" style="fill: #dd8452; stroke: #dd8452"/>
     <use xlink:href="#m80178dcfd2" x="94.748222" y="63.975905" style="fill: #dd8452; stroke: #dd8452"/>
     <use xlink:href="#m80178dcfd2" x="98.500386" y="20.627097" style="fill: #dd8452; stroke: #dd8452"/>
     <use xlink:href="#m80178dcfd2" x="102.252549" y="54.654173" style="fill: #dd8452; stroke: #dd8452"/>
     <use xlink:href="#m80178dcfd2" x="106.004713" y="75.25158" style="fill: #dd8452; stroke: #dd8452"/>
     <use xlink:href="#m80178dcfd2" x="109.756877" y="90.21895" style="fill: #dd8452; stroke: #dd8452"/>
     <use xlink:href="#m80178dcfd2" x="113.50904" y="120.650118" style="fill: #dd8452; stroke: #dd8452"/>
     <use xlink:href="#m80178dcfd2" x="117.261204" y="172.001342" style="fill: #dd8452; stroke: #dd8452"/>
     <use xlink:href="#m80178dcfd2" x="121.013368" y="223.405263" style="fill: #dd8452; stroke: #dd8452"/>
     <use xlink:href="#m80178dcfd2" x="124.765532" y="242.934275" style="fill: #dd8452; stroke: #dd8452"/>
     <use xlink:href="#m80178dcfd2" x="128.517695" y="269.33631" style="fill: #dd8452; stroke: #dd8452"/>
     <use xlink:href="#m80178dcfd2" x="132.269859" y="276.662816" style="fill: #dd8452; stroke: #dd8452"/>
     <use xlink:href="#m80178dcfd2" x="136.022023" y="227.521103" style="fill: #dd8452; stroke: #dd8452"/>
     <use xlink:href="#m80178dcfd2" x="139.774186" y="208.320159" style="fill: #dd8452; stroke: #dd8452"/>
     <use xlink:href="#m80178dcfd2" x="143.52635" y="190.738911" style="fill: #dd8452; stroke: #dd8452"/>
     <use xlink:href="#m80178dcfd2" x="147.278514" y="158.663557" style="fill: #dd8452; stroke: #dd8452"/>
     <use xlink:href="#m80178dcfd2" x="151.030677" y="118.927452" style="fill: #dd8452; stroke: #dd8452"/>
     <use xlink:href="#m80178dcfd2" x="154.782841" y="48.276402" style="fill: #dd8452; stroke: #dd8452"/>
     <use xlink:href="#m80178dcfd2" x="158.535005" y="77.578323" style="fill: #dd8452; stroke: #dd8452"/>
     <use xlink:href="#m80178dcfd2" x="162.287168" y="75.6803" style="fill: #dd8452; stroke: #dd8452"/>
     <use xlink:href="#m80178dcfd2" x="166.039332" y="65.633009" style="fill: #dd8452; stroke: #dd8452"/>
     <use xlink:href="#m80178dcfd2" x="169.791496" y="123.823873" style="fill: #dd8452; stroke: #dd8452"/>
     <use xlink:href="#m80178dcfd2" x="173.543659" y="148.894284" style="fill: #dd8452; stroke: #dd8452"/>
     <use xlink:href="#m80178dcfd2" x="177.295823" y="163.85988" style="fill: #dd8452; stroke: #dd8452"/>
     <use xlink:href="#m80178dcfd2" x="181.047987" y="185.048777" style="fill: #dd8452; stroke: #dd8452"/>
     <use xlink:href="#m80178dcfd2" x="184.80015" y="254.048691" style="fill: #dd8452; stroke: #dd8452"/>
     <use xlink:href="#m80178dcfd2" x="188.552314" y="282.696168" style="fill: #dd8452; stroke: #dd8452"/>
     <use xlink:href="#m80178dcfd2" x="192.304478" y="228.873803" style="fill: #dd8452; stroke: #dd8452"/>
     <use xlink:href="#m80178dcfd2" x="196.056641" y="201.818658" style="fill: #dd8452; stroke: #dd8452"/>
     <use xlink:href="#m80178dcfd2" x="199.808805" y="199.001652" style="fill: #dd8452; stroke: #dd8452"/>
     <use xlink:href="#m80178dcfd2" x="203.560969" y="175.310324" style="fill: #dd8452; stroke: #dd8452"/>
     <use xlink:href="#m80178dcfd2" x="207.313133" y="131.160904" style="fill: #dd8452; stroke: #dd8452"/>
     <use xlink:href="#m80178dcfd2" x="211.065296" y="117.223342" style="fill: #dd8452; stroke: #dd8452"/>
     <use xlink:href="#m80178dcfd2" x="214.81746" y="109.954402" style="fill: #dd8452; stroke: #dd8452"/>
     <use xlink:href="#m80178dcfd2" x="218.569624" y="91.100489" style="fill: #dd8452; stroke: #dd8452"/>
     <use xlink:href="#m80178dcfd2" x="222.321787" y="68.743367" style="fill: #dd8452; stroke: #dd8452"/>
     <use xlink:href="#m80178dcfd2" x="226.073951" y="74.370856" style="fill: #dd8452; stroke: #dd8452"/>
     <use xlink:href="#m80178dcfd2" x="229.826115" y="138.966466" style="fill: #dd8452; stroke: #dd8452"/>
     <use xlink:href="#m80178dcfd2" x="233.578278" y="161.119597" style="fill: #dd8452; stroke: #dd8452"/>
     <use xlink:href="#m80178dcfd2" x="237.330442" y="176.466066" style="fill: #dd8452; stroke: #dd8452"/>
     <use xlink:href="#m80178dcfd2" x="241.082606" y="193.278734" style="fill: #dd8452; stroke: #dd8452"/>
     <use xlink:href="#m80178dcfd2" x="244.834769" y="220.926336" style="fill: #dd8452; stroke: #dd8452"/>
     <use xlink:href="#m80178dcfd2" x="248.586933" y="234.869673" style="fill: #dd8452; stroke: #dd8452"/>
     <use xlink:href="#m80178dcfd2" x="252.339097" y="229.289834" style="fill: #dd8452; stroke: #dd8452"/>
     <use xlink:href="#m80178dcfd2" x="256.09126" y="209.842305" style="fill: #dd8452; stroke: #dd8452"/>
     <use xlink:href="#m80178dcfd2" x="259.843424" y="201.723416" style="fill: #dd8452; stroke: #dd8452"/>
     <use xlink:href="#m80178dcfd2" x="263.595588" y="171.729107" style="fill: #dd8452; stroke: #dd8452"/>
     <use xlink:href="#m80178dcfd2" x="267.347751" y="124.366402" style="fill: #dd8452; stroke: #dd8452"/>
     <use xlink:href="#m80178dcfd2" x="271.099915" y="117.443699" style="fill: #dd8452; stroke: #dd8452"/>
     <use xlink:href="#m80178dcfd2" x="274.852079" y="111.85868" style="fill: #dd8452; stroke: #dd8452"/>
     <use xlink:href="#m80178dcfd2" x="278.604242" y="93.448468" style="fill: #dd8452; stroke: #dd8452"/>
     <use xlink:href="#m80178dcfd2" x="282.356406" y="98.506524" style="fill: #dd8452; stroke: #dd8452"/>
     <use xlink:href="#m80178dcfd2" x="286.10857" y="130.111546" style="fill: #dd8452; stroke: #dd8452"/>
     <use xlink:href="#m80178dcfd2" x="289.860734" y="137.75107" style="fill: #dd8452; stroke: #dd8452"/>
     <use xlink:href="#m80178dcfd2" x="293.612897" y="151.186654" style="fill: #dd8452; stroke: #dd8452"/>
     <use xlink:href="#m80178dcfd2" x="297.365061" y="183.784227" style="fill: #dd8452; stroke: #dd8452"/>
     <use xlink:href="#m80178dcfd2" x="301.117225" y="179.981819" style="fill: #dd8452; stroke: #dd8452"/>
     <use xlink:href="#m80178dcfd2" x="304.869388" y="214.556029" style="fill: #dd8452; stroke: #dd8452"/>
     <use xlink:href="#m80178dcfd2" x="308.621552" y="236.794129" style="fill: #dd8452; stroke: #dd8452"/>
     <use xlink:href="#m80178dcfd2" x="312.373716" y="188.91367" style="fill: #dd8452; stroke: #dd8452"/>
     <use xlink:href="#m80178dcfd2" x="316.125879" y="201.183122" style="fill: #dd8452; stroke: #dd8452"/>
     <use xlink:href="#m80178dcfd2" x="319.878043" y="196.014746" style="fill: #dd8452; stroke: #dd8452"/>
     <use xlink:href="#m80178dcfd2" x="323.630207" y="165.669821" style="fill: #dd8452; stroke: #dd8452"/>
     <use xlink:href="#m80178dcfd2" x="327.38237" y="122.554759" style="fill: #dd8452; stroke: #dd8452"/>
     <use xlink:href="#m80178dcfd2" x="331.134534" y="96.738666" style="fill: #dd8452; stroke: #dd8452"/>
     <use xlink:href="#m80178dcfd2" x="334.886698" y="125.422221" style="fill: #dd8452; stroke: #dd8452"/>
     <use xlink:href="#m80178dcfd2" x="338.638861" y="130.196257" style="fill: #dd8452; stroke: #dd8452"/>
     <use xlink:href="#m80178dcfd2" x="342.391025" y="101.269974" style="fill: #dd8452; stroke: #dd8452"/>
     <use xlink:href="#m80178dcfd2" x="346.143189" y="116.919606" style="fill: #dd8452; stroke: #dd8452"/>
     <use xlink:href="#m80178dcfd2" x="349.895352" y="170.405306" style="fill: #dd8452; stroke: #dd8452"/>
     <use xlink:href="#m80178dcfd2" x="353.647516" y="175.810338" style="fill: #dd8452; stroke: #dd8452"/>
     <use xlink:href="#m80178dcfd2" x="357.39968" y="184.148278" style="fill: #dd8452; stroke: #dd8452"/>
     <use xlink:href="#m80178dcfd2" x="361.151843" y="196.589776" style="fill: #dd8452; stroke: #dd8452"/>
     <use xlink:href="#m80178dcfd2" x="364.904007" y="184.244571" style="fill: #dd8452; stroke: #dd8452"/>
     <use xlink:href="#m80178dcfd2" x="368.656171" y="204.961239" style="fill: #dd8452; stroke: #dd8452"/>
     <use xlink:href="#m80178dcfd2" x="372.408335" y="191.54942" style="fill: #dd8452; stroke: #dd8452"/>
     <use xlink:href="#m80178dcfd2" x="376.160498" y="170.90468" style="fill: #dd8452; stroke: #dd8452"/>
     <use xlink:href="#m80178dcfd2" x="379.912662" y="175.167126" style="fill: #dd8452; stroke: #dd8452"/>
     <use xlink:href="#m80178dcfd2" x="383.664826" y="149.618871" style="fill: #dd8452; stroke: #dd8452"/>
     <use xlink:href="#m80178dcfd2" x="387.416989" y="146.011092" style="fill: #dd8452; stroke: #dd8452"/>
     <use xlink:href="#m80178dcfd2" x="391.169153" y="115.124097" style="fill: #dd8452; stroke: #dd8452"/>
     <use xlink:href="#m80178dcfd2" x="394.921317" y="96.206404" style="fill: #dd8452; stroke: #dd8452"/>
     <use xlink:href="#m80178dcfd2" x="398.67348" y="133.644017" style="fill: #dd8452; stroke: #dd8452"/>
     <use xlink:href="#m80178dcfd2" x="402.425644" y="145.40447" style="fill: #dd8452; stroke: #dd8452"/>
     <use xlink:href="#m80178dcfd2" x="406.177808" y="157.813599" style="fill: #dd8452; stroke: #dd8452"/>
     <use xlink:href="#m80178dcfd2" x="409.929971" y="154.217198" style="fill: #dd8452; stroke: #dd8452"/>
     <use xlink:href="#m80178dcfd2" x="413.682135" y="160.996052" style="fill: #dd8452; stroke: #dd8452"/>
     <use xlink:href="#m80178dcfd2" x="417.434299" y="177.492177" style="fill: #dd8452; stroke: #dd8452"/>
     <use xlink:href="#m80178dcfd2" x="421.186462" y="182.583562" style="fill: #dd8452; stroke: #dd8452"/>
     <use xlink:href="#m80178dcfd2" x="424.938626" y="195.444359" style="fill: #dd8452; stroke: #dd8452"/>
     <use xlink:href="#m80178dcfd2" x="428.69079" y="185.199145" style="fill: #dd8452; stroke: #dd8452"/>
    </g>
   </g>
   <g id="patch_3">
    <path d="M 38.653375 302.596125 
L 38.653375 7.2 
" style="fill: none; stroke: #262626; stroke-linejoin: miter; stroke-linecap: square"/>
   </g>
   <g id="patch_4">
    <path d="M 447.264 302.596125 
L 447.264 7.2 
" style="fill: none; stroke: #262626; stroke-linejoin: miter; stroke-linecap: square"/>
   </g>
   <g id="patch_5">
    <path d="M 38.653375 302.596125 
L 447.264 302.596125 
" style="fill: none; stroke: #262626; stroke-linejoin: miter; stroke-linecap: square"/>
   </g>
   <g id="patch_6">
    <path d="M 38.653375 7.2 
L 447.264 7.2 
" style="fill: none; stroke: #262626; stroke-linejoin: miter; stroke-linecap: square"/>
   </g>
   <g id="legend_1">
    <g id="line2d_15">
     <path d="M 210.7695 18.338875 
L 219.5695 18.338875 
L 228.3695 18.338875 
" style="fill: none; stroke: #4c72b0; stroke-width: 1.2; stroke-linecap: round"/>
    </g>
    <g id="text_15">
     <!-- Unobserved true velocity -->
     <g style="fill: #262626" transform="translate(235.4095 21.418875) scale(0.088 -0.088)">
      <defs>
       <path id="ArialMT-55" d="M 3500 4581 
L 4106 4581 
L 4106 1934 
Q 4106 1244 3950 837 
Q 3794 431 3386 176 
Q 2978 -78 2316 -78 
Q 1672 -78 1262 144 
Q 853 366 678 786 
Q 503 1206 503 1934 
L 503 4581 
L 1109 4581 
L 1109 1938 
Q 1109 1341 1220 1058 
Q 1331 775 1601 622 
Q 1872 469 2263 469 
Q 2931 469 3215 772 
Q 3500 1075 3500 1938 
L 3500 4581 
z
" transform="scale(0.015625)"/>
       <path id="ArialMT-6e" d="M 422 0 
L 422 3319 
L 928 3319 
L 928 2847 
Q 1294 3394 1984 3394 
Q 2284 3394 2536 3286 
Q 2788 3178 2913 3003 
Q 3038 2828 3088 2588 
Q 3119 2431 3119 2041 
L 3119 0 
L 2556 0 
L 2556 2019 
Q 2556 2363 2490 2533 
Q 2425 2703 2258 2804 
Q 2091 2906 1866 2906 
Q 1506 2906 1245 2678 
Q 984 2450 984 1813 
L 984 0 
L 422 0 
z
" transform="scale(0.015625)"/>
       <path id="ArialMT-62" d="M 941 0 
L 419 0 
L 419 4581 
L 981 4581 
L 981 2947 
Q 1338 3394 1891 3394 
Q 2197 3394 2470 3270 
Q 2744 3147 2920 2923 
Q 3097 2700 3197 2384 
Q 3297 2069 3297 1709 
Q 3297 856 2875 390 
Q 2453 -75 1863 -75 
Q 1275 -75 941 416 
L 941 0 
z
M 934 1684 
Q 934 1088 1097 822 
Q 1363 388 1816 388 
Q 2184 388 2453 708 
Q 2722 1028 2722 1663 
Q 2722 2313 2464 2622 
Q 2206 2931 1841 2931 
Q 1472 2931 1203 2611 
Q 934 2291 934 1684 
z
" transform="scale(0.015625)"/>
       <path id="ArialMT-73" d="M 197 991 
L 753 1078 
Q 800 744 1014 566 
Q 1228 388 1613 388 
Q 2000 388 2187 545 
Q 2375 703 2375 916 
Q 2375 1106 2209 1216 
Q 2094 1291 1634 1406 
Q 1016 1563 777 1677 
Q 538 1791 414 1992 
Q 291 2194 291 2438 
Q 291 2659 392 2848 
Q 494 3038 669 3163 
Q 800 3259 1026 3326 
Q 1253 3394 1513 3394 
Q 1903 3394 2198 3281 
Q 2494 3169 2634 2976 
Q 2775 2784 2828 2463 
L 2278 2388 
Q 2241 2644 2061 2787 
Q 1881 2931 1553 2931 
Q 1166 2931 1000 2803 
Q 834 2675 834 2503 
Q 834 2394 903 2306 
Q 972 2216 1119 2156 
Q 1203 2125 1616 2013 
Q 2213 1853 2448 1751 
Q 2684 1650 2818 1456 
Q 2953 1263 2953 975 
Q 2953 694 2789 445 
Q 2625 197 2315 61 
Q 2006 -75 1616 -75 
Q 969 -75 630 194 
Q 291 463 197 991 
z
" transform="scale(0.015625)"/>
       <path id="ArialMT-72" d="M 416 0 
L 416 3319 
L 922 3319 
L 922 2816 
Q 1116 3169 1280 3281 
Q 1444 3394 1641 3394 
Q 1925 3394 2219 3213 
L 2025 2691 
Q 1819 2813 1613 2813 
Q 1428 2813 1281 2702 
Q 1134 2591 1072 2394 
Q 978 2094 978 1738 
L 978 0 
L 416 0 
z
" transform="scale(0.015625)"/>
       <path id="ArialMT-76" d="M 1344 0 
L 81 3319 
L 675 3319 
L 1388 1331 
Q 1503 1009 1600 663 
Q 1675 925 1809 1294 
L 2547 3319 
L 3125 3319 
L 1869 0 
L 1344 0 
z
" transform="scale(0.015625)"/>
       <path id="ArialMT-64" d="M 2575 0 
L 2575 419 
Q 2259 -75 1647 -75 
Q 1250 -75 917 144 
Q 584 363 401 755 
Q 219 1147 219 1656 
Q 219 2153 384 2558 
Q 550 2963 881 3178 
Q 1213 3394 1622 3394 
Q 1922 3394 2156 3267 
Q 2391 3141 2538 2938 
L 2538 4581 
L 3097 4581 
L 3097 0 
L 2575 0 
z
M 797 1656 
Q 797 1019 1065 703 
Q 1334 388 1700 388 
Q 2069 388 2326 689 
Q 2584 991 2584 1609 
Q 2584 2291 2321 2609 
Q 2059 2928 1675 2928 
Q 1300 2928 1048 2622 
Q 797 2316 797 1656 
z
" transform="scale(0.015625)"/>
       <path id="ArialMT-75" d="M 2597 0 
L 2597 488 
Q 2209 -75 1544 -75 
Q 1250 -75 995 37 
Q 741 150 617 320 
Q 494 491 444 738 
Q 409 903 409 1263 
L 409 3319 
L 972 3319 
L 972 1478 
Q 972 1038 1006 884 
Q 1059 663 1231 536 
Q 1403 409 1656 409 
Q 1909 409 2131 539 
Q 2353 669 2445 892 
Q 2538 1116 2538 1541 
L 2538 3319 
L 3100 3319 
L 3100 0 
L 2597 0 
z
" transform="scale(0.015625)"/>
      </defs>
      <use xlink:href="#ArialMT-55"/>
      <use xlink:href="#ArialMT-6e" x="72.216797"/>
      <use xlink:href="#ArialMT-6f" x="127.832031"/>
      <use xlink:href="#ArialMT-62" x="183.447266"/>
      <use xlink:href="#ArialMT-73" x="239.0625"/>
      <use xlink:href="#ArialMT-65" x="289.0625"/>
      <use xlink:href="#ArialMT-72" x="344.677734"/>
      <use xlink:href="#ArialMT-76" x="377.978516"/>
      <use xlink:href="#ArialMT-65" x="427.978516"/>
      <use xlink:href="#ArialMT-64" x="483.59375"/>
      <use xlink:href="#ArialMT-20" x="539.208984"/>
      <use xlink:href="#ArialMT-74" x="566.992188"/>
      <use xlink:href="#ArialMT-72" x="594.775391"/>
      <use xlink:href="#ArialMT-75" x="628.076172"/>
      <use xlink:href="#ArialMT-65" x="683.691406"/>
      <use xlink:href="#ArialMT-20" x="739.306641"/>
      <use xlink:href="#ArialMT-76" x="767.089844"/>
      <use xlink:href="#ArialMT-65" x="817.089844"/>
      <use xlink:href="#ArialMT-6c" x="872.705078"/>
      <use xlink:href="#ArialMT-6f" x="894.921875"/>
      <use xlink:href="#ArialMT-63" x="950.537109"/>
      <use xlink:href="#ArialMT-69" x="1000.537109"/>
      <use xlink:href="#ArialMT-74" x="1022.753906"/>
      <use xlink:href="#ArialMT-79" x="1050.537109"/>
     </g>
    </g>
    <g id="line2d_16">
     <g>
      <use xlink:href="#m80178dcfd2" x="219.5695" y="30.997125" style="fill: #dd8452; stroke: #dd8452"/>
     </g>
    </g>
    <g id="text_16">
     <!-- Reconstruction of velocity from noisy measurements -->
     <g style="fill: #262626" transform="translate(235.4095 34.077125) scale(0.088 -0.088)">
      <defs>
       <path id="ArialMT-52" d="M 503 0 
L 503 4581 
L 2534 4581 
Q 3147 4581 3465 4457 
Q 3784 4334 3975 4021 
Q 4166 3709 4166 3331 
Q 4166 2844 3850 2509 
Q 3534 2175 2875 2084 
Q 3116 1969 3241 1856 
Q 3506 1613 3744 1247 
L 4541 0 
L 3778 0 
L 3172 953 
Q 2906 1366 2734 1584 
Q 2563 1803 2427 1890 
Q 2291 1978 2150 2013 
Q 2047 2034 1813 2034 
L 1109 2034 
L 1109 0 
L 503 0 
z
M 1109 2559 
L 2413 2559 
Q 2828 2559 3062 2645 
Q 3297 2731 3419 2920 
Q 3541 3109 3541 3331 
Q 3541 3656 3305 3865 
Q 3069 4075 2559 4075 
L 1109 4075 
L 1109 2559 
z
" transform="scale(0.015625)"/>
       <path id="ArialMT-66" d="M 556 0 
L 556 2881 
L 59 2881 
L 59 3319 
L 556 3319 
L 556 3672 
Q 556 4006 616 4169 
Q 697 4388 901 4523 
Q 1106 4659 1475 4659 
Q 1713 4659 2000 4603 
L 1916 4113 
Q 1741 4144 1584 4144 
Q 1328 4144 1222 4034 
Q 1116 3925 1116 3625 
L 1116 3319 
L 1763 3319 
L 1763 2881 
L 1116 2881 
L 1116 0 
L 556 0 
z
" transform="scale(0.015625)"/>
       <path id="ArialMT-61" d="M 2588 409 
Q 2275 144 1986 34 
Q 1697 -75 1366 -75 
Q 819 -75 525 192 
Q 231 459 231 875 
Q 231 1119 342 1320 
Q 453 1522 633 1644 
Q 813 1766 1038 1828 
Q 1203 1872 1538 1913 
Q 2219 1994 2541 2106 
Q 2544 2222 2544 2253 
Q 2544 2597 2384 2738 
Q 2169 2928 1744 2928 
Q 1347 2928 1158 2789 
Q 969 2650 878 2297 
L 328 2372 
Q 403 2725 575 2942 
Q 747 3159 1072 3276 
Q 1397 3394 1825 3394 
Q 2250 3394 2515 3294 
Q 2781 3194 2906 3042 
Q 3031 2891 3081 2659 
Q 3109 2516 3109 2141 
L 3109 1391 
Q 3109 606 3145 398 
Q 3181 191 3288 0 
L 2700 0 
Q 2613 175 2588 409 
z
M 2541 1666 
Q 2234 1541 1622 1453 
Q 1275 1403 1131 1340 
Q 988 1278 909 1158 
Q 831 1038 831 891 
Q 831 666 1001 516 
Q 1172 366 1500 366 
Q 1825 366 2078 508 
Q 2331 650 2450 897 
Q 2541 1088 2541 1459 
L 2541 1666 
z
" transform="scale(0.015625)"/>
      </defs>
      <use xlink:href="#ArialMT-52"/>
      <use xlink:href="#ArialMT-65" x="72.216797"/>
      <use xlink:href="#ArialMT-63" x="127.832031"/>
      <use xlink:href="#ArialMT-6f" x="177.832031"/>
      <use xlink:href="#ArialMT-6e" x="233.447266"/>
      <use xlink:href="#ArialMT-73" x="289.0625"/>
      <use xlink:href="#ArialMT-74" x="339.0625"/>
      <use xlink:href="#ArialMT-72" x="366.845703"/>
      <use xlink:href="#ArialMT-75" x="400.146484"/>
      <use xlink:href="#ArialMT-63" x="455.761719"/>
      <use xlink:href="#ArialMT-74" x="505.761719"/>
      <use xlink:href="#ArialMT-69" x="533.544922"/>
      <use xlink:href="#ArialMT-6f" x="555.761719"/>
      <use xlink:href="#ArialMT-6e" x="611.376953"/>
      <use xlink:href="#ArialMT-20" x="666.992188"/>
      <use xlink:href="#ArialMT-6f" x="694.775391"/>
      <use xlink:href="#ArialMT-66" x="750.390625"/>
      <use xlink:href="#ArialMT-20" x="778.173828"/>
      <use xlink:href="#ArialMT-76" x="805.957031"/>
      <use xlink:href="#ArialMT-65" x="855.957031"/>
      <use xlink:href="#ArialMT-6c" x="911.572266"/>
      <use xlink:href="#ArialMT-6f" x="933.789062"/>
      <use xlink:href="#ArialMT-63" x="989.404297"/>
      <use xlink:href="#ArialMT-69" x="1039.404297"/>
      <use xlink:href="#ArialMT-74" x="1061.621094"/>
      <use xlink:href="#ArialMT-79" x="1089.404297"/>
      <use xlink:href="#ArialMT-20" x="1139.404297"/>
      <use xlink:href="#ArialMT-66" x="1167.1875"/>
      <use xlink:href="#ArialMT-72" x="1194.970703"/>
      <use xlink:href="#ArialMT-6f" x="1228.271484"/>
      <use xlink:href="#ArialMT-6d" x="1283.886719"/>
      <use xlink:href="#ArialMT-20" x="1367.1875"/>
      <use xlink:href="#ArialMT-6e" x="1394.970703"/>
      <use xlink:href="#ArialMT-6f" x="1450.585938"/>
      <use xlink:href="#ArialMT-69" x="1506.201172"/>
      <use xlink:href="#ArialMT-73" x="1528.417969"/>
      <use xlink:href="#ArialMT-79" x="1578.417969"/>
      <use xlink:href="#ArialMT-20" x="1628.417969"/>
      <use xlink:href="#ArialMT-6d" x="1656.201172"/>
      <use xlink:href="#ArialMT-65" x="1739.501953"/>
      <use xlink:href="#ArialMT-61" x="1795.117188"/>
      <use xlink:href="#ArialMT-73" x="1850.732422"/>
      <use xlink:href="#ArialMT-75" x="1900.732422"/>
      <use xlink:href="#ArialMT-72" x="1956.347656"/>
      <use xlink:href="#ArialMT-65" x="1989.648438"/>
      <use xlink:href="#ArialMT-6d" x="2045.263672"/>
      <use xlink:href="#ArialMT-65" x="2128.564453"/>
      <use xlink:href="#ArialMT-6e" x="2184.179688"/>
      <use xlink:href="#ArialMT-74" x="2239.794922"/>
      <use xlink:href="#ArialMT-73" x="2267.578125"/>
     </g>
    </g>
   </g>
  </g>
 </g>
 <defs>
  <clipPath id="p4a0e75c3ad">
   <rect x="38.653375" y="7.2" width="408.610625" height="295.396125"/>
  </clipPath>
 </defs>
</svg>