<?xml version="1.0" encoding="utf-8" standalone="no"?>
<!DOCTYPE svg PUBLIC "-//W3C//DTD SVG 1.1//EN"
  "http://www.w3.org/Graphics/SVG/1.1/DTD/svg11.dtd">
<svg xmlns:xlink="http://www.w3.org/1999/xlink" width="454.464pt" height="339.264pt" viewBox="0 0 454.464 339.264" xmlns="http://www.w3.org/2000/svg" version="1.1">
 <metadata>
  <rdf:RDF xmlns:dc="http://purl.org/dc/elements/1.1/" xmlns:cc="http://creativecommons.org/ns#" xmlns:rdf="http://www.w3.org/1999/02/22-rdf-syntax-ns#">
   <cc:Work>
    <dc:type rdf:resource="http://purl.org/dc/dcmitype/StillImage"/>
    <dc:date>2025-05-29T17:37:18.446119</dc:date>
    <dc:format>image/svg+xml</dc:format>
    <dc:creator>
     <cc:Agent>
      <dc:title>Matplotlib v3.9.2, https://matplotlib.org/</dc:title>
     </cc:Agent>
    </dc:creator>
   </cc:Work>
  </rdf:RDF>
 </metadata>
 <defs>
  <style type="text/css">*{stroke-linejoin: round; stroke-linecap: butt}</style>
 </defs>
 <g id="figure_1">
  <g id="patch_1">
   <path d="M 0 339.264 
L 454.464 339.264 
L 454.464 0 
L 0 0 
z
" style="fill: #ffffff"/>
  </g>
  <g id="axes_1">
   <g id="patch_2">
    <path d="M 41.044 302.936625 
L 447.264 302.936625 
L 447.264 20.0715 
L 41.044 20.0715 
z
" style="fill: #ffffff"/>
   </g>
   <g id="matplotlib.axis_1">
    <g id="xtick_1">
     <g id="line2d_1">
      <defs>
       <path id="md47742e86d" d="M 0 0 
L 0 4.8 
" style="stroke: #262626"/>
      </defs>
      <g>
       <use xlink:href="#md47742e86d" x="84.127939" y="302.936625" style="fill: #262626; stroke: #262626"/>
      </g>
     </g>
     <g id="text_1">
      <!-- −4 -->
      <g style="fill: #262626" transform="translate(79.111252 317.5355) scale(0.088 -0.088)">
       <defs>
        <path id="ArialMT-2212" d="M 3381 1997 
L 356 1997 
L 356 2522 
L 3381 2522 
L 3381 1997 
z
" transform="scale(0.015625)"/>
        <path id="ArialMT-34" d="M 2069 0 
L 2069 1097 
L 81 1097 
L 81 1613 
L 2172 4581 
L 2631 4581 
L 2631 1613 
L 3250 1613 
L 3250 1097 
L 2631 1097 
L 2631 0 
L 2069 0 
z
M 2069 1613 
L 2069 3678 
L 634 1613 
L 2069 1613 
z
" transform="scale(0.015625)"/>
       </defs>
       <use xlink:href="#ArialMT-2212"/>
       <use xlink:href="#ArialMT-34" x="58.398438"/>
      </g>
     </g>
    </g>
    <g id="xtick_2">
     <g id="line2d_2">
      <g>
       <use xlink:href="#md47742e86d" x="133.366727" y="302.936625" style="fill: #262626; stroke: #262626"/>
      </g>
     </g>
     <g id="text_2">
      <!-- −2 -->
      <g style="fill: #262626" transform="translate(128.35004 317.5355) scale(0.088 -0.088)">
       <defs>
        <path id="ArialMT-32" d="M 3222 541 
L 3222 0 
L 194 0 
Q 188 203 259 391 
Q 375 700 629 1000 
Q 884 1300 1366 1694 
Q 2113 2306 2375 2664 
Q 2638 3022 2638 3341 
Q 2638 3675 2398 3904 
Q 2159 4134 1775 4134 
Q 1369 4134 1125 3890 
Q 881 3647 878 3216 
L 300 3275 
Q 359 3922 746 4261 
Q 1134 4600 1788 4600 
Q 2447 4600 2831 4234 
Q 3216 3869 3216 3328 
Q 3216 3053 3103 2787 
Q 2991 2522 2730 2228 
Q 2469 1934 1863 1422 
Q 1356 997 1212 845 
Q 1069 694 975 541 
L 3222 541 
z
" transform="scale(0.015625)"/>
       </defs>
       <use xlink:href="#ArialMT-2212"/>
       <use xlink:href="#ArialMT-32" x="58.398438"/>
      </g>
     </g>
    </g>
    <g id="xtick_3">
     <g id="line2d_3">
      <g>
       <use xlink:href="#md47742e86d" x="182.605515" y="302.936625" style="fill: #262626; stroke: #262626"/>
      </g>
     </g>
     <g id="text_3">
      <!-- 0 -->
      <g style="fill: #262626" transform="translate(180.158703 317.5355) scale(0.088 -0.088)">
       <defs>
        <path id="ArialMT-30" d="M 266 2259 
Q 266 3072 433 3567 
Q 600 4063 929 4331 
Q 1259 4600 1759 4600 
Q 2128 4600 2406 4451 
Q 2684 4303 2865 4023 
Q 3047 3744 3150 3342 
Q 3253 2941 3253 2259 
Q 3253 1453 3087 958 
Q 2922 463 2592 192 
Q 2263 -78 1759 -78 
Q 1097 -78 719 397 
Q 266 969 266 2259 
z
M 844 2259 
Q 844 1131 1108 757 
Q 1372 384 1759 384 
Q 2147 384 2411 759 
Q 2675 1134 2675 2259 
Q 2675 3391 2411 3762 
Q 2147 4134 1753 4134 
Q 1366 4134 1134 3806 
Q 844 3388 844 2259 
z
" transform="scale(0.015625)"/>
       </defs>
       <use xlink:href="#ArialMT-30"/>
      </g>
     </g>
    </g>
    <g id="xtick_4">
     <g id="line2d_4">
      <g>
       <use xlink:href="#md47742e86d" x="231.844303" y="302.936625" style="fill: #262626; stroke: #262626"/>
      </g>
     </g>
     <g id="text_4">
      <!-- 2 -->
      <g style="fill: #262626" transform="translate(229.397491 317.5355) scale(0.088 -0.088)">
       <use xlink:href="#ArialMT-32"/>
      </g>
     </g>
    </g>
    <g id="xtick_5">
     <g id="line2d_5">
      <g>
       <use xlink:href="#md47742e86d" x="281.083091" y="302.936625" style="fill: #262626; stroke: #262626"/>
      </g>
     </g>
     <g id="text_5">
      <!-- 4 -->
      <g style="fill: #262626" transform="translate(278.636278 317.5355) scale(0.088 -0.088)">
       <use xlink:href="#ArialMT-34"/>
      </g>
     </g>
    </g>
    <g id="xtick_6">
     <g id="line2d_6">
      <g>
       <use xlink:href="#md47742e86d" x="330.321879" y="302.936625" style="fill: #262626; stroke: #262626"/>
      </g>
     </g>
     <g id="text_6">
      <!-- 6 -->
      <g style="fill: #262626" transform="translate(327.875066 317.5355) scale(0.088 -0.088)">
       <defs>
        <path id="ArialMT-36" d="M 3184 3459 
L 2625 3416 
Q 2550 3747 2413 3897 
Q 2184 4138 1850 4138 
Q 1581 4138 1378 3988 
Q 1113 3794 959 3422 
Q 806 3050 800 2363 
Q 1003 2672 1297 2822 
Q 1591 2972 1913 2972 
Q 2475 2972 2870 2558 
Q 3266 2144 3266 1488 
Q 3266 1056 3080 686 
Q 2894 316 2569 119 
Q 2244 -78 1831 -78 
Q 1128 -78 684 439 
Q 241 956 241 2144 
Q 241 3472 731 4075 
Q 1159 4600 1884 4600 
Q 2425 4600 2770 4297 
Q 3116 3994 3184 3459 
z
M 888 1484 
Q 888 1194 1011 928 
Q 1134 663 1356 523 
Q 1578 384 1822 384 
Q 2178 384 2434 671 
Q 2691 959 2691 1453 
Q 2691 1928 2437 2201 
Q 2184 2475 1800 2475 
Q 1419 2475 1153 2201 
Q 888 1928 888 1484 
z
" transform="scale(0.015625)"/>
       </defs>
       <use xlink:href="#ArialMT-36"/>
      </g>
     </g>
    </g>
    <g id="xtick_7">
     <g id="line2d_7">
      <g>
       <use xlink:href="#md47742e86d" x="379.560667" y="302.936625" style="fill: #262626; stroke: #262626"/>
      </g>
     </g>
     <g id="text_7">
      <!-- 8 -->
      <g style="fill: #262626" transform="translate(377.113854 317.5355) scale(0.088 -0.088)">
       <defs>
        <path id="ArialMT-38" d="M 1131 2484 
Q 781 2613 612 2850 
Q 444 3088 444 3419 
Q 444 3919 803 4259 
Q 1163 4600 1759 4600 
Q 2359 4600 2725 4251 
Q 3091 3903 3091 3403 
Q 3091 3084 2923 2848 
Q 2756 2613 2416 2484 
Q 2838 2347 3058 2040 
Q 3278 1734 3278 1309 
Q 3278 722 2862 322 
Q 2447 -78 1769 -78 
Q 1091 -78 675 323 
Q 259 725 259 1325 
Q 259 1772 486 2073 
Q 713 2375 1131 2484 
z
M 1019 3438 
Q 1019 3113 1228 2906 
Q 1438 2700 1772 2700 
Q 2097 2700 2305 2904 
Q 2513 3109 2513 3406 
Q 2513 3716 2298 3927 
Q 2084 4138 1766 4138 
Q 1444 4138 1231 3931 
Q 1019 3725 1019 3438 
z
M 838 1322 
Q 838 1081 952 856 
Q 1066 631 1291 507 
Q 1516 384 1775 384 
Q 2178 384 2440 643 
Q 2703 903 2703 1303 
Q 2703 1709 2433 1975 
Q 2163 2241 1756 2241 
Q 1359 2241 1098 1978 
Q 838 1716 838 1322 
z
" transform="scale(0.015625)"/>
       </defs>
       <use xlink:href="#ArialMT-38"/>
      </g>
     </g>
    </g>
    <g id="xtick_8">
     <g id="line2d_8">
      <g>
       <use xlink:href="#md47742e86d" x="428.799455" y="302.936625" style="fill: #262626; stroke: #262626"/>
      </g>
     </g>
     <g id="text_8">
      <!-- 10 -->
      <g style="fill: #262626" transform="translate(423.90583 317.5355) scale(0.088 -0.088)">
       <defs>
        <path id="ArialMT-31" d="M 2384 0 
L 1822 0 
L 1822 3584 
Q 1619 3391 1289 3197 
Q 959 3003 697 2906 
L 697 3450 
Q 1169 3672 1522 3987 
Q 1875 4303 2022 4600 
L 2384 4600 
L 2384 0 
z
" transform="scale(0.015625)"/>
       </defs>
       <use xlink:href="#ArialMT-31"/>
       <use xlink:href="#ArialMT-30" x="55.615234"/>
      </g>
     </g>
    </g>
    <g id="text_9">
     <!-- $x$ -->
     <g style="fill: #262626" transform="translate(241.274 330.156) scale(0.096 -0.096)">
      <defs>
       <path id="DejaVuSans-Oblique-78" d="M 3841 3500 
L 2234 1784 
L 3219 0 
L 2559 0 
L 1819 1388 
L 531 0 
L -166 0 
L 1556 1844 
L 641 3500 
L 1300 3500 
L 1972 2234 
L 3144 3500 
L 3841 3500 
z
" transform="scale(0.015625)"/>
      </defs>
      <use xlink:href="#DejaVuSans-Oblique-78" transform="translate(0 0.3125)"/>
     </g>
    </g>
   </g>
   <g id="matplotlib.axis_2">
    <g id="ytick_1">
     <g id="line2d_9">
      <defs>
       <path id="mb7d53cb86b" d="M 0 0 
L -4.8 0 
" style="stroke: #262626"/>
      </defs>
      <g>
       <use xlink:href="#mb7d53cb86b" x="41.044" y="302.936625" style="fill: #262626; stroke: #262626"/>
      </g>
     </g>
     <g id="text_10">
      <!-- 0.0 -->
      <g style="fill: #262626" transform="translate(20.512 306.086062) scale(0.088 -0.088)">
       <defs>
        <path id="ArialMT-2e" d="M 581 0 
L 581 641 
L 1222 641 
L 1222 0 
L 581 0 
z
" transform="scale(0.015625)"/>
       </defs>
       <use xlink:href="#ArialMT-30"/>
       <use xlink:href="#ArialMT-2e" x="55.615234"/>
       <use xlink:href="#ArialMT-30" x="83.398438"/>
      </g>
     </g>
    </g>
    <g id="ytick_2">
     <g id="line2d_10">
      <g>
       <use xlink:href="#mb7d53cb86b" x="41.044" y="252.404833" style="fill: #262626; stroke: #262626"/>
      </g>
     </g>
     <g id="text_11">
      <!-- 0.1 -->
      <g style="fill: #262626" transform="translate(20.512 255.554271) scale(0.088 -0.088)">
       <use xlink:href="#ArialMT-30"/>
       <use xlink:href="#ArialMT-2e" x="55.615234"/>
       <use xlink:href="#ArialMT-31" x="83.398438"/>
      </g>
     </g>
    </g>
    <g id="ytick_3">
     <g id="line2d_11">
      <g>
       <use xlink:href="#mb7d53cb86b" x="41.044" y="201.873041" style="fill: #262626; stroke: #262626"/>
      </g>
     </g>
     <g id="text_12">
      <!-- 0.2 -->
      <g style="fill: #262626" transform="translate(20.512 205.022479) scale(0.088 -0.088)">
       <use xlink:href="#ArialMT-30"/>
       <use xlink:href="#ArialMT-2e" x="55.615234"/>
       <use xlink:href="#ArialMT-32" x="83.398438"/>
      </g>
     </g>
    </g>
    <g id="ytick_4">
     <g id="line2d_12">
      <g>
       <use xlink:href="#mb7d53cb86b" x="41.044" y="151.341249" style="fill: #262626; stroke: #262626"/>
      </g>
     </g>
     <g id="text_13">
      <!-- 0.3 -->
      <g style="fill: #262626" transform="translate(20.512 154.490687) scale(0.088 -0.088)">
       <defs>
        <path id="ArialMT-33" d="M 269 1209 
L 831 1284 
Q 928 806 1161 595 
Q 1394 384 1728 384 
Q 2125 384 2398 659 
Q 2672 934 2672 1341 
Q 2672 1728 2419 1979 
Q 2166 2231 1775 2231 
Q 1616 2231 1378 2169 
L 1441 2663 
Q 1497 2656 1531 2656 
Q 1891 2656 2178 2843 
Q 2466 3031 2466 3422 
Q 2466 3731 2256 3934 
Q 2047 4138 1716 4138 
Q 1388 4138 1169 3931 
Q 950 3725 888 3313 
L 325 3413 
Q 428 3978 793 4289 
Q 1159 4600 1703 4600 
Q 2078 4600 2393 4439 
Q 2709 4278 2876 4000 
Q 3044 3722 3044 3409 
Q 3044 3113 2884 2869 
Q 2725 2625 2413 2481 
Q 2819 2388 3044 2092 
Q 3269 1797 3269 1353 
Q 3269 753 2831 336 
Q 2394 -81 1725 -81 
Q 1122 -81 723 278 
Q 325 638 269 1209 
z
" transform="scale(0.015625)"/>
       </defs>
       <use xlink:href="#ArialMT-30"/>
       <use xlink:href="#ArialMT-2e" x="55.615234"/>
       <use xlink:href="#ArialMT-33" x="83.398438"/>
      </g>
     </g>
    </g>
    <g id="ytick_5">
     <g id="line2d_13">
      <g>
       <use xlink:href="#mb7d53cb86b" x="41.044" y="100.809457" style="fill: #262626; stroke: #262626"/>
      </g>
     </g>
     <g id="text_14">
      <!-- 0.4 -->
      <g style="fill: #262626" transform="translate(20.512 103.958895) scale(0.088 -0.088)">
       <use xlink:href="#ArialMT-30"/>
       <use xlink:href="#ArialMT-2e" x="55.615234"/>
       <use xlink:href="#ArialMT-34" x="83.398438"/>
      </g>
     </g>
    </g>
    <g id="ytick_6">
     <g id="line2d_14">
      <g>
       <use xlink:href="#mb7d53cb86b" x="41.044" y="50.277666" style="fill: #262626; stroke: #262626"/>
      </g>
     </g>
     <g id="text_15">
      <!-- 0.5 -->
      <g style="fill: #262626" transform="translate(20.512 53.427103) scale(0.088 -0.088)">
       <defs>
        <path id="ArialMT-35" d="M 266 1200 
L 856 1250 
Q 922 819 1161 601 
Q 1400 384 1738 384 
Q 2144 384 2425 690 
Q 2706 997 2706 1503 
Q 2706 1984 2436 2262 
Q 2166 2541 1728 2541 
Q 1456 2541 1237 2417 
Q 1019 2294 894 2097 
L 366 2166 
L 809 4519 
L 3088 4519 
L 3088 3981 
L 1259 3981 
L 1013 2750 
Q 1425 3038 1878 3038 
Q 2478 3038 2890 2622 
Q 3303 2206 3303 1553 
Q 3303 931 2941 478 
Q 2500 -78 1738 -78 
Q 1113 -78 717 272 
Q 322 622 266 1200 
z
" transform="scale(0.015625)"/>
       </defs>
       <use xlink:href="#ArialMT-30"/>
       <use xlink:href="#ArialMT-2e" x="55.615234"/>
       <use xlink:href="#ArialMT-35" x="83.398438"/>
      </g>
     </g>
    </g>
    <g id="text_16">
     <!-- $p(x)$ -->
     <g style="fill: #262626" transform="translate(14.496 171.152062) rotate(-90) scale(0.096 -0.096)">
      <defs>
       <path id="DejaVuSans-Oblique-70" d="M 3175 2156 
Q 3175 2616 2975 2859 
Q 2775 3103 2400 3103 
Q 2144 3103 1911 2972 
Q 1678 2841 1497 2591 
Q 1319 2344 1212 1994 
Q 1106 1644 1106 1300 
Q 1106 863 1306 627 
Q 1506 391 1875 391 
Q 2147 391 2380 519 
Q 2613 647 2778 891 
Q 2956 1147 3065 1494 
Q 3175 1841 3175 2156 
z
M 1394 2969 
Q 1625 3272 1939 3428 
Q 2253 3584 2638 3584 
Q 3175 3584 3472 3232 
Q 3769 2881 3769 2247 
Q 3769 1728 3584 1258 
Q 3400 788 3053 416 
Q 2822 169 2531 39 
Q 2241 -91 1919 -91 
Q 1547 -91 1294 64 
Q 1041 219 916 525 
L 556 -1331 
L -19 -1331 
L 922 3500 
L 1497 3500 
L 1394 2969 
z
" transform="scale(0.015625)"/>
       <path id="DejaVuSans-28" d="M 1984 4856 
Q 1566 4138 1362 3434 
Q 1159 2731 1159 2009 
Q 1159 1288 1364 580 
Q 1569 -128 1984 -844 
L 1484 -844 
Q 1016 -109 783 600 
Q 550 1309 550 2009 
Q 550 2706 781 3412 
Q 1013 4119 1484 4856 
L 1984 4856 
z
" transform="scale(0.015625)"/>
       <path id="DejaVuSans-29" d="M 513 4856 
L 1013 4856 
Q 1481 4119 1714 3412 
Q 1947 2706 1947 2009 
Q 1947 1309 1714 600 
Q 1481 -109 1013 -844 
L 513 -844 
Q 928 -128 1133 580 
Q 1338 1288 1338 2009 
Q 1338 2731 1133 3434 
Q 928 4138 513 4856 
z
" transform="scale(0.015625)"/>
      </defs>
      <use xlink:href="#DejaVuSans-Oblique-70" transform="translate(0 0.125)"/>
      <use xlink:href="#DejaVuSans-28" transform="translate(63.476562 0.125)"/>
      <use xlink:href="#DejaVuSans-Oblique-78" transform="translate(102.490234 0.125)"/>
      <use xlink:href="#DejaVuSans-29" transform="translate(161.669922 0.125)"/>
     </g>
    </g>
   </g>
   <g id="PolyCollection_1">
    <defs>
     <path id="mf48d5b367f" d="M 59.508545 -36.3276 
L 59.508545 -36.327375 
L 61.364279 -36.327375 
L 63.220012 -36.327375 
L 65.075745 -36.327375 
L 66.931478 -36.327375 
L 68.787212 -36.327375 
L 70.642945 -36.327375 
L 72.498678 -36.327375 
L 74.354411 -36.327375 
L 76.210144 -36.327375 
L 78.065878 -36.327375 
L 79.921611 -36.327375 
L 81.777344 -36.327375 
L 83.633077 -36.327375 
L 85.48881 -36.327375 
L 87.344544 -36.327375 
L 89.200277 -36.327375 
L 91.05601 -36.327375 
L 92.911743 -36.327375 
L 94.767476 -36.327375 
L 96.62321 -36.327375 
L 98.478943 -36.327375 
L 100.334676 -36.327375 
L 102.190409 -36.327375 
L 104.046143 -36.327375 
L 105.901876 -36.327375 
L 107.757609 -36.327375 
L 109.613342 -36.327375 
L 111.469075 -36.327375 
L 113.324809 -36.327375 
L 115.180542 -36.327375 
L 117.036275 -36.327375 
L 118.892008 -36.327375 
L 120.747741 -36.327375 
L 122.603475 -36.327375 
L 124.459208 -36.327375 
L 126.314941 -36.327375 
L 128.170674 -36.327375 
L 130.026407 -36.327375 
L 131.882141 -36.327375 
L 133.737874 -36.327375 
L 135.593607 -36.327375 
L 137.44934 -36.327375 
L 139.305074 -36.327375 
L 141.160807 -36.327375 
L 143.01654 -36.327375 
L 144.872273 -36.327375 
L 146.728006 -36.327375 
L 148.58374 -36.327375 
L 150.439473 -36.327375 
L 152.295206 -36.327375 
L 154.150939 -36.327375 
L 156.006672 -36.327375 
L 157.862406 -36.327375 
L 159.718139 -36.327375 
L 161.573872 -36.327375 
L 163.429605 -36.327375 
L 165.285339 -36.327375 
L 167.141072 -36.327375 
L 168.996805 -36.327375 
L 170.852538 -36.327375 
L 172.708271 -36.327375 
L 174.564005 -36.327375 
L 176.419738 -36.327375 
L 178.275471 -36.327375 
L 180.131204 -36.327375 
L 181.986937 -36.327375 
L 183.842671 -36.327375 
L 185.698404 -36.327375 
L 187.554137 -36.327375 
L 189.40987 -36.327375 
L 191.265603 -36.327375 
L 193.121337 -36.327375 
L 194.97707 -36.327375 
L 196.832803 -36.327375 
L 198.688536 -36.327375 
L 200.54427 -36.327375 
L 202.400003 -36.327375 
L 204.255736 -36.327375 
L 206.111469 -36.327375 
L 207.967202 -36.327375 
L 209.822936 -36.327375 
L 211.678669 -36.327375 
L 213.534402 -36.327375 
L 215.390135 -36.327375 
L 217.245868 -36.327375 
L 219.101602 -36.327375 
L 220.957335 -36.327375 
L 222.813068 -36.327375 
L 224.668801 -36.327375 
L 226.524534 -36.327375 
L 228.380268 -36.327375 
L 230.236001 -36.327375 
L 232.091734 -36.327375 
L 233.947467 -36.327375 
L 235.803201 -36.327375 
L 237.658934 -36.327375 
L 239.514667 -36.327375 
L 241.3704 -36.327375 
L 243.226133 -36.327375 
L 245.081867 -36.327375 
L 246.9376 -36.327375 
L 248.793333 -36.327375 
L 250.649066 -36.327375 
L 252.504799 -36.327375 
L 254.360533 -36.327375 
L 256.216266 -36.327375 
L 258.071999 -36.327375 
L 259.927732 -36.327375 
L 261.783466 -36.327375 
L 263.639199 -36.327375 
L 265.494932 -36.327375 
L 267.350665 -36.327375 
L 269.206398 -36.327375 
L 271.062132 -36.327375 
L 272.917865 -36.327375 
L 274.773598 -36.327375 
L 276.629331 -36.327375 
L 278.485064 -36.327375 
L 280.340798 -36.327375 
L 282.196531 -36.327375 
L 284.052264 -36.327375 
L 285.907997 -36.327375 
L 287.76373 -36.327375 
L 289.619464 -36.327375 
L 291.475197 -36.327375 
L 293.33093 -36.327375 
L 295.186663 -36.327375 
L 297.042397 -36.327375 
L 298.89813 -36.327375 
L 300.753863 -36.327375 
L 302.609596 -36.327375 
L 304.465329 -36.327375 
L 306.321063 -36.327375 
L 308.176796 -36.327375 
L 310.032529 -36.327375 
L 311.888262 -36.327375 
L 313.743995 -36.327375 
L 315.599729 -36.327375 
L 317.455462 -36.327375 
L 319.311195 -36.327375 
L 321.166928 -36.327375 
L 323.022661 -36.327375 
L 324.878395 -36.327375 
L 326.734128 -36.327375 
L 328.589861 -36.327375 
L 330.445594 -36.327375 
L 332.301328 -36.327375 
L 334.157061 -36.327375 
L 336.012794 -36.327375 
L 337.868527 -36.327375 
L 339.72426 -36.327375 
L 341.579994 -36.327375 
L 343.435727 -36.327375 
L 345.29146 -36.327375 
L 347.147193 -36.327375 
L 349.002926 -36.327375 
L 350.85866 -36.327375 
L 352.714393 -36.327375 
L 354.570126 -36.327375 
L 356.425859 -36.327375 
L 358.281593 -36.327375 
L 360.137326 -36.327375 
L 361.993059 -36.327375 
L 363.848792 -36.327375 
L 365.704525 -36.327375 
L 367.560259 -36.327375 
L 369.415992 -36.327375 
L 371.271725 -36.327375 
L 373.127458 -36.327375 
L 374.983191 -36.327375 
L 376.838925 -36.327375 
L 378.694658 -36.327375 
L 380.550391 -36.327375 
L 382.406124 -36.327375 
L 384.261857 -36.327375 
L 386.117591 -36.327375 
L 387.973324 -36.327375 
L 389.829057 -36.327375 
L 391.68479 -36.327375 
L 393.540524 -36.327375 
L 395.396257 -36.327375 
L 397.25199 -36.327375 
L 399.107723 -36.327375 
L 400.963456 -36.327375 
L 402.81919 -36.327375 
L 404.674923 -36.327375 
L 406.530656 -36.327375 
L 408.386389 -36.327375 
L 410.242122 -36.327375 
L 412.097856 -36.327375 
L 413.953589 -36.327375 
L 415.809322 -36.327375 
L 417.665055 -36.327375 
L 419.520788 -36.327375 
L 421.376522 -36.327375 
L 423.232255 -36.327375 
L 425.087988 -36.327375 
L 426.943721 -36.327375 
L 428.799455 -36.327375 
L 428.799455 -36.327375 
L 428.799455 -36.327375 
L 426.943721 -36.327375 
L 425.087988 -36.327375 
L 423.232255 -36.327375 
L 421.376522 -36.327375 
L 419.520788 -36.327375 
L 417.665055 -36.327375 
L 415.809322 -36.327375 
L 413.953589 -36.327375 
L 412.097856 -36.327375 
L 410.242122 -36.327375 
L 408.386389 -36.327375 
L 406.530656 -36.327375 
L 404.674923 -36.327375 
L 402.81919 -36.327375 
L 400.963456 -36.327375 
L 399.107723 -36.327375 
L 397.25199 -36.327375 
L 395.396257 -36.327375 
L 393.540524 -36.327375 
L 391.68479 -36.327375 
L 389.829057 -36.327375 
L 387.973324 -36.327375 
L 386.117591 -36.327375 
L 384.261857 -36.327375 
L 382.406124 -36.327375 
L 380.550391 -36.327375 
L 378.694658 -36.327375 
L 376.838925 -36.327375 
L 374.983191 -36.327375 
L 373.127458 -36.327375 
L 371.271725 -36.327375 
L 369.415992 -36.327375 
L 367.560259 -36.327375 
L 365.704525 -36.327375 
L 363.848792 -36.327375 
L 361.993059 -36.327375 
L 360.137326 -36.327375 
L 358.281593 -36.327375 
L 356.425859 -36.327375 
L 354.570126 -36.327375 
L 352.714393 -36.327375 
L 350.85866 -36.327375 
L 349.002926 -36.327375 
L 347.147193 -36.327375 
L 345.29146 -36.327375 
L 343.435727 -36.327375 
L 341.579994 -36.327375 
L 339.72426 -36.327375 
L 337.868527 -36.327375 
L 336.012794 -36.327375 
L 334.157061 -36.327376 
L 332.301328 -36.327377 
L 330.445594 -36.32738 
L 328.589861 -36.327386 
L 326.734128 -36.327401 
L 324.878395 -36.327434 
L 323.022661 -36.327507 
L 321.166928 -36.327666 
L 319.311195 -36.328004 
L 317.455462 -36.328711 
L 315.599729 -36.330152 
L 313.743995 -36.333024 
L 311.888262 -36.338618 
L 310.032529 -36.34926 
L 308.176796 -36.369034 
L 306.321063 -36.404914 
L 304.465329 -36.468478 
L 302.609596 -36.578414 
L 300.753863 -36.764008 
L 298.89813 -37.0698 
L 297.042397 -37.561448 
L 295.186663 -38.332659 
L 293.33093 -39.512699 
L 291.475197 -41.273568 
L 289.619464 -43.835414 
L 287.76373 -47.468223 
L 285.907997 -52.487522 
L 284.052264 -59.241693 
L 282.196531 -68.089 
L 280.340798 -79.363423 
L 278.485064 -93.330143 
L 276.629331 -110.133698 
L 274.773598 -129.744322 
L 272.917865 -151.910093 
L 271.062132 -176.123861 
L 269.206398 -201.613771 
L 267.350665 -227.364338 
L 265.494932 -252.171291 
L 263.639199 -274.728354 
L 261.783466 -293.738454 
L 259.927732 -308.036764 
L 258.071999 -316.709613 
L 256.216266 -319.1925 
L 254.360533 -315.332681 
L 252.504799 -305.406765 
L 250.649066 -290.090609 
L 248.793333 -270.386145 
L 246.9376 -247.516263 
L 245.081867 -222.80315 
L 243.226133 -197.546917 
L 241.3704 -172.919817 
L 239.514667 -149.887388 
L 237.658934 -129.162534 
L 235.803201 -111.19292 
L 233.947467 -96.17732 
L 232.091734 -84.103273 
L 230.236001 -74.797034 
L 228.380268 -67.977107 
L 226.524534 -63.304219 
L 224.668801 -60.422932 
L 222.813068 -58.99247 
L 220.957335 -58.706478 
L 219.101602 -59.302953 
L 217.245868 -60.566462 
L 215.390135 -62.325056 
L 213.534402 -64.444111 
L 211.678669 -66.818938 
L 209.822936 -69.367442 
L 207.967202 -72.023656 
L 206.111469 -74.732509 
L 204.255736 -77.445931 
L 202.400003 -80.120191 
L 200.54427 -82.714268 
L 198.688536 -85.189037 
L 196.832803 -87.507055 
L 194.97707 -89.632753 
L 193.121337 -91.532903 
L 191.265603 -93.177211 
L 189.40987 -94.538978 
L 187.554137 -95.595739 
L 185.698404 -96.329833 
L 183.842671 -96.728877 
L 181.986937 -96.786096 
L 180.131204 -96.500515 
L 178.275471 -95.87698 
L 176.419738 -94.92602 
L 174.564005 -93.663554 
L 172.708271 -92.110444 
L 170.852538 -90.291922 
L 168.996805 -88.236911 
L 167.141072 -85.977259 
L 165.285339 -83.546922 
L 163.429605 -80.981118 
L 161.573872 -78.315492 
L 159.718139 -75.585307 
L 157.862406 -72.82469 
L 156.006672 -70.065962 
L 154.150939 -67.339058 
L 152.295206 -64.671057 
L 150.439473 -62.085823 
L 148.58374 -59.603763 
L 146.728006 -57.241705 
L 144.872273 -55.012879 
L 143.01654 -52.926995 
L 141.160807 -50.990413 
L 139.305074 -49.206378 
L 137.44934 -47.575316 
L 135.593607 -46.095164 
L 133.737874 -44.761733 
L 131.882141 -43.56907 
L 130.026407 -42.509829 
L 128.170674 -41.57562 
L 126.314941 -40.757334 
L 124.459208 -40.045448 
L 122.603475 -39.43028 
L 120.747741 -38.902223 
L 118.892008 -38.451926 
L 117.036275 -38.070447 
L 115.180542 -37.749362 
L 113.324809 -37.480852 
L 111.469075 -37.257742 
L 109.613342 -37.073535 
L 107.757609 -36.92241 
L 105.901876 -36.799205 
L 104.046143 -36.699391 
L 102.190409 -36.61903 
L 100.334676 -36.554733 
L 98.478943 -36.503606 
L 96.62321 -36.463202 
L 94.767476 -36.431469 
L 92.911743 -36.406697 
L 91.05601 -36.387478 
L 89.200277 -36.372658 
L 87.344544 -36.361299 
L 85.48881 -36.352645 
L 83.633077 -36.346092 
L 81.777344 -36.34116 
L 79.921611 -36.33747 
L 78.065878 -36.334726 
L 76.210144 -36.332697 
L 74.354411 -36.331207 
L 72.498678 -36.330118 
L 70.642945 -36.329327 
L 68.787212 -36.328757 
L 66.931478 -36.328348 
L 65.075745 -36.328056 
L 63.220012 -36.327849 
L 61.364279 -36.327703 
L 59.508545 -36.3276 
z
" style="stroke: #0000ff; stroke-opacity: 0.5; stroke-width: 0.8"/>
    </defs>
    <g clip-path="url(#pf494b563fd)">
     <use xlink:href="#mf48d5b367f" x="0" y="339.264" style="fill: #0000ff; fill-opacity: 0.5; stroke: #0000ff; stroke-opacity: 0.5; stroke-width: 0.8"/>
    </g>
   </g>
   <g id="line2d_15">
    <path d="M 59.508545 302.9364 
L 94.767476 302.832531 
L 104.046143 302.564609 
L 109.613342 302.190465 
L 113.324809 301.783148 
L 117.036275 301.193553 
L 120.747741 300.361777 
L 124.459208 299.218552 
L 128.170674 297.68838 
L 130.026407 296.754171 
L 131.882141 295.69493 
L 133.737874 294.502267 
L 135.593607 293.168836 
L 137.44934 291.688684 
L 139.305074 290.057622 
L 143.01654 286.337005 
L 146.728006 282.022295 
L 150.439473 277.178177 
L 154.150939 271.924942 
L 165.285339 255.717078 
L 168.996805 251.027089 
L 170.852538 248.972078 
L 172.708271 247.153556 
L 174.564005 245.600446 
L 176.419738 244.33798 
L 178.275471 243.38702 
L 180.131204 242.763485 
L 181.986937 242.477904 
L 183.842671 242.535123 
L 185.698404 242.934167 
L 187.554137 243.668261 
L 189.40987 244.725022 
L 191.265603 246.086789 
L 193.121337 247.731097 
L 194.97707 249.631247 
L 196.832803 251.756945 
L 200.54427 256.549732 
L 204.255736 261.818069 
L 209.822936 269.896558 
L 213.534402 274.819889 
L 215.390135 276.938944 
L 217.245868 278.697538 
L 219.101602 279.961047 
L 220.957335 280.557522 
L 222.813068 280.27153 
L 224.668801 278.841068 
L 226.524534 275.959781 
L 228.380268 271.286893 
L 230.236001 264.466966 
L 232.091734 255.160727 
L 233.947467 243.08668 
L 235.803201 228.07108 
L 237.658934 210.101466 
L 239.514667 189.376612 
L 241.3704 166.344183 
L 248.793333 68.877855 
L 250.649066 49.173391 
L 252.504799 33.857235 
L 254.360533 23.931319 
L 256.216266 20.0715 
L 258.071999 22.554387 
L 259.927732 31.227236 
L 261.783466 45.525546 
L 263.639199 64.535646 
L 265.494932 87.092709 
L 269.206398 137.650229 
L 272.917865 187.353907 
L 274.773598 209.519678 
L 276.629331 229.130302 
L 278.485064 245.933857 
L 280.340798 259.900577 
L 282.196531 271.175 
L 284.052264 280.022307 
L 285.907997 286.776478 
L 287.76373 291.795777 
L 289.619464 295.428586 
L 291.475197 297.990432 
L 293.33093 299.751301 
L 295.186663 300.931341 
L 297.042397 301.702552 
L 298.89813 302.1942 
L 300.753863 302.499992 
L 304.465329 302.795522 
L 310.032529 302.91474 
L 332.301328 302.936623 
L 428.799455 302.936625 
L 428.799455 302.936625 
" clip-path="url(#pf494b563fd)" style="fill: none; stroke: #4c72b0; stroke-width: 1.2; stroke-linecap: round"/>
   </g>
   <g id="line2d_16">
    <defs>
     <path id="m959d089f76" d="M 0 2.4 
C 0.636487 2.4 1.246992 2.147121 1.697056 1.697056 
C 2.147121 1.246992 2.4 0.636487 2.4 0 
C 2.4 -0.636487 2.147121 -1.246992 1.697056 -1.697056 
C 1.246992 -2.147121 0.636487 -2.4 0 -2.4 
C -0.636487 -2.4 -1.246992 -2.147121 -1.697056 -1.697056 
C -2.147121 -1.246992 -2.4 -0.636487 -2.4 0 
C -2.4 0.636487 -2.147121 1.246992 -1.697056 1.697056 
C -1.246992 2.147121 -0.636487 2.4 0 2.4 
z
" style="stroke: #ff0000"/>
    </defs>
    <g clip-path="url(#pf494b563fd)">
     <use xlink:href="#m959d089f76" x="234.306242" y="302.936625" style="fill: #ff0000; stroke: #ff0000"/>
    </g>
   </g>
   <g id="patch_3">
    <path d="M 41.044 302.936625 
L 41.044 20.0715 
" style="fill: none; stroke: #262626; stroke-linejoin: miter; stroke-linecap: square"/>
   </g>
   <g id="patch_4">
    <path d="M 447.264 302.936625 
L 447.264 20.0715 
" style="fill: none; stroke: #262626; stroke-linejoin: miter; stroke-linecap: square"/>
   </g>
   <g id="patch_5">
    <path d="M 41.044 302.936625 
L 447.264 302.936625 
" style="fill: none; stroke: #262626; stroke-linejoin: miter; stroke-linecap: square"/>
   </g>
   <g id="patch_6">
    <path d="M 41.044 20.0715 
L 447.264 20.0715 
" style="fill: none; stroke: #262626; stroke-linejoin: miter; stroke-linecap: square"/>
   </g>
   <g id="text_17">
    <!-- $V[X]$ = 2.37 -->
    <g style="fill: #262626" transform="translate(219.002 14.0715) scale(0.096 -0.096)">
     <defs>
      <path id="DejaVuSans-Oblique-56" d="M 1319 0 
L 500 4666 
L 1119 4666 
L 1797 653 
L 4063 4666 
L 4750 4666 
L 2053 0 
L 1319 0 
z
" transform="scale(0.015625)"/>
      <path id="DejaVuSans-5b" d="M 550 4863 
L 1875 4863 
L 1875 4416 
L 1125 4416 
L 1125 -397 
L 1875 -397 
L 1875 -844 
L 550 -844 
L 550 4863 
z
" transform="scale(0.015625)"/>
      <path id="DejaVuSans-Oblique-58" d="M 878 4666 
L 1516 4666 
L 2316 2981 
L 3763 4666 
L 4500 4666 
L 2578 2438 
L 3738 0 
L 3103 0 
L 2163 1966 
L 459 0 
L -275 0 
L 1906 2509 
L 878 4666 
z
" transform="scale(0.015625)"/>
      <path id="DejaVuSans-5d" d="M 1947 4863 
L 1947 -844 
L 622 -844 
L 622 -397 
L 1369 -397 
L 1369 4416 
L 622 4416 
L 622 4863 
L 1947 4863 
z
" transform="scale(0.015625)"/>
      <path id="ArialMT-20" transform="scale(0.015625)"/>
      <path id="ArialMT-3d" d="M 3381 2694 
L 356 2694 
L 356 3219 
L 3381 3219 
L 3381 2694 
z
M 3381 1303 
L 356 1303 
L 356 1828 
L 3381 1828 
L 3381 1303 
z
" transform="scale(0.015625)"/>
      <path id="ArialMT-37" d="M 303 3981 
L 303 4522 
L 3269 4522 
L 3269 4084 
Q 2831 3619 2401 2847 
Q 1972 2075 1738 1259 
Q 1569 684 1522 0 
L 944 0 
Q 953 541 1156 1306 
Q 1359 2072 1739 2783 
Q 2119 3494 2547 3981 
L 303 3981 
z
" transform="scale(0.015625)"/>
     </defs>
     <use xlink:href="#DejaVuSans-Oblique-56" transform="translate(0 0.015625)"/>
     <use xlink:href="#DejaVuSans-5b" transform="translate(68.408203 0.015625)"/>
     <use xlink:href="#DejaVuSans-Oblique-58" transform="translate(107.421875 0.015625)"/>
     <use xlink:href="#DejaVuSans-5d" transform="translate(175.927734 0.015625)"/>
     <use xlink:href="#ArialMT-20" transform="translate(214.941406 0.015625)"/>
     <use xlink:href="#ArialMT-3d" transform="translate(242.724609 0.015625)"/>
     <use xlink:href="#ArialMT-20" transform="translate(301.123047 0.015625)"/>
     <use xlink:href="#ArialMT-32" transform="translate(328.90625 0.015625)"/>
     <use xlink:href="#ArialMT-2e" transform="translate(384.521484 0.015625)"/>
     <use xlink:href="#ArialMT-33" transform="translate(412.304688 0.015625)"/>
     <use xlink:href="#ArialMT-37" transform="translate(467.919922 0.015625)"/>
    </g>
   </g>
  </g>
 </g>
 <defs>
  <clipPath id="pf494b563fd">
   <rect x="41.044" y="20.0715" width="406.22" height="282.865125"/>
  </clipPath>
 </defs>
</svg>