<?xml version="1.0" encoding="utf-8" standalone="no"?>
<!DOCTYPE svg PUBLIC "-//W3C//DTD SVG 1.1//EN"
  "http://www.w3.org/Graphics/SVG/1.1/DTD/svg11.dtd">
<svg xmlns:xlink="http://www.w3.org/1999/xlink" width="414.76725pt" height="309.639375pt" viewBox="0 0 414.76725 309.639375" xmlns="http://www.w3.org/2000/svg" version="1.1">
 <metadata>
  <rdf:RDF xmlns:dc="http://purl.org/dc/elements/1.1/" xmlns:cc="http://creativecommons.org/ns#" xmlns:rdf="http://www.w3.org/1999/02/22-rdf-syntax-ns#">
   <cc:Work>
    <dc:type rdf:resource="http://purl.org/dc/dcmitype/StillImage"/>
    <dc:date>2025-05-29T17:40:24.712077</dc:date>
    <dc:format>image/svg+xml</dc:format>
    <dc:creator>
     <cc:Agent>
      <dc:title>Matplotlib v3.9.2, https://matplotlib.org/</dc:title>
     </cc:Agent>
    </dc:creator>
   </cc:Work>
  </rdf:RDF>
 </metadata>
 <defs>
  <style type="text/css">*{stroke-linejoin: round; stroke-linecap: butt}</style>
 </defs>
 <g id="figure_1">
  <g id="patch_1">
   <path d="M 0 309.639375 
L 414.76725 309.639375 
L 414.76725 0 
L 0 0 
z
" style="fill: #ffffff"/>
  </g>
  <g id="axes_1">
   <g id="patch_2">
    <path d="M 45.553625 273.312 
L 402.673625 273.312 
L 402.673625 7.2 
L 45.553625 7.2 
z
" style="fill: #ffffff"/>
   </g>
   <g id="matplotlib.axis_1">
    <g id="xtick_1">
     <g id="line2d_1">
      <defs>
       <path id="ma5024963aa" d="M 0 0 
L 0 4.8 
" style="stroke: #262626"/>
      </defs>
      <g>
       <use xlink:href="#ma5024963aa" x="69.361625" y="273.312" style="fill: #262626; stroke: #262626"/>
      </g>
     </g>
     <g id="text_1">
      <!-- −4 -->
      <g style="fill: #262626" transform="translate(64.344938 287.910875) scale(0.088 -0.088)">
       <defs>
        <path id="ArialMT-2212" d="M 3381 1997 
L 356 1997 
L 356 2522 
L 3381 2522 
L 3381 1997 
z
" transform="scale(0.015625)"/>
        <path id="ArialMT-34" d="M 2069 0 
L 2069 1097 
L 81 1097 
L 81 1613 
L 2172 4581 
L 2631 4581 
L 2631 1613 
L 3250 1613 
L 3250 1097 
L 2631 1097 
L 2631 0 
L 2069 0 
z
M 2069 1613 
L 2069 3678 
L 634 1613 
L 2069 1613 
z
" transform="scale(0.015625)"/>
       </defs>
       <use xlink:href="#ArialMT-2212"/>
       <use xlink:href="#ArialMT-34" x="58.398438"/>
      </g>
     </g>
    </g>
    <g id="xtick_2">
     <g id="line2d_2">
      <g>
       <use xlink:href="#ma5024963aa" x="116.977625" y="273.312" style="fill: #262626; stroke: #262626"/>
      </g>
     </g>
     <g id="text_2">
      <!-- −2 -->
      <g style="fill: #262626" transform="translate(111.960938 287.910875) scale(0.088 -0.088)">
       <defs>
        <path id="ArialMT-32" d="M 3222 541 
L 3222 0 
L 194 0 
Q 188 203 259 391 
Q 375 700 629 1000 
Q 884 1300 1366 1694 
Q 2113 2306 2375 2664 
Q 2638 3022 2638 3341 
Q 2638 3675 2398 3904 
Q 2159 4134 1775 4134 
Q 1369 4134 1125 3890 
Q 881 3647 878 3216 
L 300 3275 
Q 359 3922 746 4261 
Q 1134 4600 1788 4600 
Q 2447 4600 2831 4234 
Q 3216 3869 3216 3328 
Q 3216 3053 3103 2787 
Q 2991 2522 2730 2228 
Q 2469 1934 1863 1422 
Q 1356 997 1212 845 
Q 1069 694 975 541 
L 3222 541 
z
" transform="scale(0.015625)"/>
       </defs>
       <use xlink:href="#ArialMT-2212"/>
       <use xlink:href="#ArialMT-32" x="58.398438"/>
      </g>
     </g>
    </g>
    <g id="xtick_3">
     <g id="line2d_3">
      <g>
       <use xlink:href="#ma5024963aa" x="164.593625" y="273.312" style="fill: #262626; stroke: #262626"/>
      </g>
     </g>
     <g id="text_3">
      <!-- 0 -->
      <g style="fill: #262626" transform="translate(162.146813 287.910875) scale(0.088 -0.088)">
       <defs>
        <path id="ArialMT-30" d="M 266 2259 
Q 266 3072 433 3567 
Q 600 4063 929 4331 
Q 1259 4600 1759 4600 
Q 2128 4600 2406 4451 
Q 2684 4303 2865 4023 
Q 3047 3744 3150 3342 
Q 3253 2941 3253 2259 
Q 3253 1453 3087 958 
Q 2922 463 2592 192 
Q 2263 -78 1759 -78 
Q 1097 -78 719 397 
Q 266 969 266 2259 
z
M 844 2259 
Q 844 1131 1108 757 
Q 1372 384 1759 384 
Q 2147 384 2411 759 
Q 2675 1134 2675 2259 
Q 2675 3391 2411 3762 
Q 2147 4134 1753 4134 
Q 1366 4134 1134 3806 
Q 844 3388 844 2259 
z
" transform="scale(0.015625)"/>
       </defs>
       <use xlink:href="#ArialMT-30"/>
      </g>
     </g>
    </g>
    <g id="xtick_4">
     <g id="line2d_4">
      <g>
       <use xlink:href="#ma5024963aa" x="212.209625" y="273.312" style="fill: #262626; stroke: #262626"/>
      </g>
     </g>
     <g id="text_4">
      <!-- 2 -->
      <g style="fill: #262626" transform="translate(209.762813 287.910875) scale(0.088 -0.088)">
       <use xlink:href="#ArialMT-32"/>
      </g>
     </g>
    </g>
    <g id="xtick_5">
     <g id="line2d_5">
      <g>
       <use xlink:href="#ma5024963aa" x="259.825625" y="273.312" style="fill: #262626; stroke: #262626"/>
      </g>
     </g>
     <g id="text_5">
      <!-- 4 -->
      <g style="fill: #262626" transform="translate(257.378812 287.910875) scale(0.088 -0.088)">
       <use xlink:href="#ArialMT-34"/>
      </g>
     </g>
    </g>
    <g id="xtick_6">
     <g id="line2d_6">
      <g>
       <use xlink:href="#ma5024963aa" x="307.441625" y="273.312" style="fill: #262626; stroke: #262626"/>
      </g>
     </g>
     <g id="text_6">
      <!-- 6 -->
      <g style="fill: #262626" transform="translate(304.994813 287.910875) scale(0.088 -0.088)">
       <defs>
        <path id="ArialMT-36" d="M 3184 3459 
L 2625 3416 
Q 2550 3747 2413 3897 
Q 2184 4138 1850 4138 
Q 1581 4138 1378 3988 
Q 1113 3794 959 3422 
Q 806 3050 800 2363 
Q 1003 2672 1297 2822 
Q 1591 2972 1913 2972 
Q 2475 2972 2870 2558 
Q 3266 2144 3266 1488 
Q 3266 1056 3080 686 
Q 2894 316 2569 119 
Q 2244 -78 1831 -78 
Q 1128 -78 684 439 
Q 241 956 241 2144 
Q 241 3472 731 4075 
Q 1159 4600 1884 4600 
Q 2425 4600 2770 4297 
Q 3116 3994 3184 3459 
z
M 888 1484 
Q 888 1194 1011 928 
Q 1134 663 1356 523 
Q 1578 384 1822 384 
Q 2178 384 2434 671 
Q 2691 959 2691 1453 
Q 2691 1928 2437 2201 
Q 2184 2475 1800 2475 
Q 1419 2475 1153 2201 
Q 888 1928 888 1484 
z
" transform="scale(0.015625)"/>
       </defs>
       <use xlink:href="#ArialMT-36"/>
      </g>
     </g>
    </g>
    <g id="xtick_7">
     <g id="line2d_7">
      <g>
       <use xlink:href="#ma5024963aa" x="355.057625" y="273.312" style="fill: #262626; stroke: #262626"/>
      </g>
     </g>
     <g id="text_7">
      <!-- 8 -->
      <g style="fill: #262626" transform="translate(352.610813 287.910875) scale(0.088 -0.088)">
       <defs>
        <path id="ArialMT-38" d="M 1131 2484 
Q 781 2613 612 2850 
Q 444 3088 444 3419 
Q 444 3919 803 4259 
Q 1163 4600 1759 4600 
Q 2359 4600 2725 4251 
Q 3091 3903 3091 3403 
Q 3091 3084 2923 2848 
Q 2756 2613 2416 2484 
Q 2838 2347 3058 2040 
Q 3278 1734 3278 1309 
Q 3278 722 2862 322 
Q 2447 -78 1769 -78 
Q 1091 -78 675 323 
Q 259 725 259 1325 
Q 259 1772 486 2073 
Q 713 2375 1131 2484 
z
M 1019 3438 
Q 1019 3113 1228 2906 
Q 1438 2700 1772 2700 
Q 2097 2700 2305 2904 
Q 2513 3109 2513 3406 
Q 2513 3716 2298 3927 
Q 2084 4138 1766 4138 
Q 1444 4138 1231 3931 
Q 1019 3725 1019 3438 
z
M 838 1322 
Q 838 1081 952 856 
Q 1066 631 1291 507 
Q 1516 384 1775 384 
Q 2178 384 2440 643 
Q 2703 903 2703 1303 
Q 2703 1709 2433 1975 
Q 2163 2241 1756 2241 
Q 1359 2241 1098 1978 
Q 838 1716 838 1322 
z
" transform="scale(0.015625)"/>
       </defs>
       <use xlink:href="#ArialMT-38"/>
      </g>
     </g>
    </g>
    <g id="xtick_8">
     <g id="line2d_8">
      <g>
       <use xlink:href="#ma5024963aa" x="402.673625" y="273.312" style="fill: #262626; stroke: #262626"/>
      </g>
     </g>
     <g id="text_8">
      <!-- 10 -->
      <g style="fill: #262626" transform="translate(397.78 287.910875) scale(0.088 -0.088)">
       <defs>
        <path id="ArialMT-31" d="M 2384 0 
L 1822 0 
L 1822 3584 
Q 1619 3391 1289 3197 
Q 959 3003 697 2906 
L 697 3450 
Q 1169 3672 1522 3987 
Q 1875 4303 2022 4600 
L 2384 4600 
L 2384 0 
z
" transform="scale(0.015625)"/>
       </defs>
       <use xlink:href="#ArialMT-31"/>
       <use xlink:href="#ArialMT-30" x="55.615234"/>
      </g>
     </g>
    </g>
    <g id="text_9">
     <!-- $x$ -->
     <g style="fill: #262626" transform="translate(221.233625 300.531375) scale(0.096 -0.096)">
      <defs>
       <path id="DejaVuSans-Oblique-78" d="M 3841 3500 
L 2234 1784 
L 3219 0 
L 2559 0 
L 1819 1388 
L 531 0 
L -166 0 
L 1556 1844 
L 641 3500 
L 1300 3500 
L 1972 2234 
L 3144 3500 
L 3841 3500 
z
" transform="scale(0.015625)"/>
      </defs>
      <use xlink:href="#DejaVuSans-Oblique-78" transform="translate(0 0.3125)"/>
     </g>
    </g>
   </g>
   <g id="matplotlib.axis_2">
    <g id="ytick_1">
     <g id="line2d_9">
      <defs>
       <path id="m1f95d3993c" d="M 0 0 
L -4.8 0 
" style="stroke: #262626"/>
      </defs>
      <g>
       <use xlink:href="#m1f95d3993c" x="45.553625" y="273.312" style="fill: #262626; stroke: #262626"/>
      </g>
     </g>
     <g id="text_10">
      <!-- 0.00 -->
      <g style="fill: #262626" transform="translate(20.128 276.461437) scale(0.088 -0.088)">
       <defs>
        <path id="ArialMT-2e" d="M 581 0 
L 581 641 
L 1222 641 
L 1222 0 
L 581 0 
z
" transform="scale(0.015625)"/>
       </defs>
       <use xlink:href="#ArialMT-30"/>
       <use xlink:href="#ArialMT-2e" x="55.615234"/>
       <use xlink:href="#ArialMT-30" x="83.398438"/>
       <use xlink:href="#ArialMT-30" x="139.013672"/>
      </g>
     </g>
    </g>
    <g id="ytick_2">
     <g id="line2d_10">
      <g>
       <use xlink:href="#m1f95d3993c" x="45.553625" y="227.527821" style="fill: #262626; stroke: #262626"/>
      </g>
     </g>
     <g id="text_11">
      <!-- 0.05 -->
      <g style="fill: #262626" transform="translate(20.128 230.677259) scale(0.088 -0.088)">
       <defs>
        <path id="ArialMT-35" d="M 266 1200 
L 856 1250 
Q 922 819 1161 601 
Q 1400 384 1738 384 
Q 2144 384 2425 690 
Q 2706 997 2706 1503 
Q 2706 1984 2436 2262 
Q 2166 2541 1728 2541 
Q 1456 2541 1237 2417 
Q 1019 2294 894 2097 
L 366 2166 
L 809 4519 
L 3088 4519 
L 3088 3981 
L 1259 3981 
L 1013 2750 
Q 1425 3038 1878 3038 
Q 2478 3038 2890 2622 
Q 3303 2206 3303 1553 
Q 3303 931 2941 478 
Q 2500 -78 1738 -78 
Q 1113 -78 717 272 
Q 322 622 266 1200 
z
" transform="scale(0.015625)"/>
       </defs>
       <use xlink:href="#ArialMT-30"/>
       <use xlink:href="#ArialMT-2e" x="55.615234"/>
       <use xlink:href="#ArialMT-30" x="83.398438"/>
       <use xlink:href="#ArialMT-35" x="139.013672"/>
      </g>
     </g>
    </g>
    <g id="ytick_3">
     <g id="line2d_11">
      <g>
       <use xlink:href="#m1f95d3993c" x="45.553625" y="181.743643" style="fill: #262626; stroke: #262626"/>
      </g>
     </g>
     <g id="text_12">
      <!-- 0.10 -->
      <g style="fill: #262626" transform="translate(20.128 184.89308) scale(0.088 -0.088)">
       <use xlink:href="#ArialMT-30"/>
       <use xlink:href="#ArialMT-2e" x="55.615234"/>
       <use xlink:href="#ArialMT-31" x="83.398438"/>
       <use xlink:href="#ArialMT-30" x="139.013672"/>
      </g>
     </g>
    </g>
    <g id="ytick_4">
     <g id="line2d_12">
      <g>
       <use xlink:href="#m1f95d3993c" x="45.553625" y="135.959464" style="fill: #262626; stroke: #262626"/>
      </g>
     </g>
     <g id="text_13">
      <!-- 0.15 -->
      <g style="fill: #262626" transform="translate(20.128 139.108902) scale(0.088 -0.088)">
       <use xlink:href="#ArialMT-30"/>
       <use xlink:href="#ArialMT-2e" x="55.615234"/>
       <use xlink:href="#ArialMT-31" x="83.398438"/>
       <use xlink:href="#ArialMT-35" x="139.013672"/>
      </g>
     </g>
    </g>
    <g id="ytick_5">
     <g id="line2d_13">
      <g>
       <use xlink:href="#m1f95d3993c" x="45.553625" y="90.175286" style="fill: #262626; stroke: #262626"/>
      </g>
     </g>
     <g id="text_14">
      <!-- 0.20 -->
      <g style="fill: #262626" transform="translate(20.128 93.324723) scale(0.088 -0.088)">
       <use xlink:href="#ArialMT-30"/>
       <use xlink:href="#ArialMT-2e" x="55.615234"/>
       <use xlink:href="#ArialMT-32" x="83.398438"/>
       <use xlink:href="#ArialMT-30" x="139.013672"/>
      </g>
     </g>
    </g>
    <g id="ytick_6">
     <g id="line2d_14">
      <g>
       <use xlink:href="#m1f95d3993c" x="45.553625" y="44.391107" style="fill: #262626; stroke: #262626"/>
      </g>
     </g>
     <g id="text_15">
      <!-- 0.25 -->
      <g style="fill: #262626" transform="translate(20.128 47.540545) scale(0.088 -0.088)">
       <use xlink:href="#ArialMT-30"/>
       <use xlink:href="#ArialMT-2e" x="55.615234"/>
       <use xlink:href="#ArialMT-32" x="83.398438"/>
       <use xlink:href="#ArialMT-35" x="139.013672"/>
      </g>
     </g>
    </g>
    <g id="text_16">
     <!-- $f_X(x)$ -->
     <g style="fill: #262626" transform="translate(14.22 151.008) rotate(-90) scale(0.096 -0.096)">
      <defs>
       <path id="DejaVuSans-Oblique-66" d="M 3059 4863 
L 2969 4384 
L 2419 4384 
Q 2106 4384 1964 4261 
Q 1822 4138 1753 3809 
L 1691 3500 
L 2638 3500 
L 2553 3053 
L 1606 3053 
L 1013 0 
L 434 0 
L 1031 3053 
L 481 3053 
L 563 3500 
L 1113 3500 
L 1159 3744 
Q 1278 4363 1576 4613 
Q 1875 4863 2516 4863 
L 3059 4863 
z
" transform="scale(0.015625)"/>
       <path id="DejaVuSans-Oblique-58" d="M 878 4666 
L 1516 4666 
L 2316 2981 
L 3763 4666 
L 4500 4666 
L 2578 2438 
L 3738 0 
L 3103 0 
L 2163 1966 
L 459 0 
L -275 0 
L 1906 2509 
L 878 4666 
z
" transform="scale(0.015625)"/>
       <path id="DejaVuSans-28" d="M 1984 4856 
Q 1566 4138 1362 3434 
Q 1159 2731 1159 2009 
Q 1159 1288 1364 580 
Q 1569 -128 1984 -844 
L 1484 -844 
Q 1016 -109 783 600 
Q 550 1309 550 2009 
Q 550 2706 781 3412 
Q 1013 4119 1484 4856 
L 1984 4856 
z
" transform="scale(0.015625)"/>
       <path id="DejaVuSans-29" d="M 513 4856 
L 1013 4856 
Q 1481 4119 1714 3412 
Q 1947 2706 1947 2009 
Q 1947 1309 1714 600 
Q 1481 -109 1013 -844 
L 513 -844 
Q 928 -128 1133 580 
Q 1338 1288 1338 2009 
Q 1338 2731 1133 3434 
Q 928 4138 513 4856 
z
" transform="scale(0.015625)"/>
      </defs>
      <use xlink:href="#DejaVuSans-Oblique-66" transform="translate(0 0.015625)"/>
      <use xlink:href="#DejaVuSans-Oblique-58" transform="translate(35.205078 -16.390625) scale(0.7)"/>
      <use xlink:href="#DejaVuSans-28" transform="translate(85.893555 0.015625)"/>
      <use xlink:href="#DejaVuSans-Oblique-78" transform="translate(124.907227 0.015625)"/>
      <use xlink:href="#DejaVuSans-29" transform="translate(184.086914 0.015625)"/>
     </g>
    </g>
   </g>
   <g id="PolyCollection_1">
    <defs>
     <path id="m4714e1a92e" d="M 188.401625 -137.405009 
L 188.401625 -36.327375 
L 188.882595 -36.327375 
L 189.363564 -36.327375 
L 189.844534 -36.327375 
L 190.325504 -36.327375 
L 190.806473 -36.327375 
L 191.287443 -36.327375 
L 191.768413 -36.327375 
L 192.249383 -36.327375 
L 192.730352 -36.327375 
L 193.211322 -36.327375 
L 193.692292 -36.327375 
L 194.173261 -36.327375 
L 194.654231 -36.327375 
L 195.135201 -36.327375 
L 195.61617 -36.327375 
L 196.09714 -36.327375 
L 196.57811 -36.327375 
L 197.05908 -36.327375 
L 197.540049 -36.327375 
L 198.021019 -36.327375 
L 198.501989 -36.327375 
L 198.982958 -36.327375 
L 199.463928 -36.327375 
L 199.944898 -36.327375 
L 200.425867 -36.327375 
L 200.906837 -36.327375 
L 201.387807 -36.327375 
L 201.868777 -36.327375 
L 202.349746 -36.327375 
L 202.830716 -36.327375 
L 203.311686 -36.327375 
L 203.792655 -36.327375 
L 204.273625 -36.327375 
L 204.754595 -36.327375 
L 205.235564 -36.327375 
L 205.716534 -36.327375 
L 206.197504 -36.327375 
L 206.678473 -36.327375 
L 207.159443 -36.327375 
L 207.640413 -36.327375 
L 208.121383 -36.327375 
L 208.602352 -36.327375 
L 209.083322 -36.327375 
L 209.564292 -36.327375 
L 210.045261 -36.327375 
L 210.526231 -36.327375 
L 211.007201 -36.327375 
L 211.48817 -36.327375 
L 211.96914 -36.327375 
L 212.45011 -36.327375 
L 212.93108 -36.327375 
L 213.412049 -36.327375 
L 213.893019 -36.327375 
L 214.373989 -36.327375 
L 214.854958 -36.327375 
L 215.335928 -36.327375 
L 215.816898 -36.327375 
L 216.297867 -36.327375 
L 216.778837 -36.327375 
L 217.259807 -36.327375 
L 217.740777 -36.327375 
L 218.221746 -36.327375 
L 218.702716 -36.327375 
L 219.183686 -36.327375 
L 219.664655 -36.327375 
L 220.145625 -36.327375 
L 220.626595 -36.327375 
L 221.107564 -36.327375 
L 221.588534 -36.327375 
L 222.069504 -36.327375 
L 222.550473 -36.327375 
L 223.031443 -36.327375 
L 223.512413 -36.327375 
L 223.993383 -36.327375 
L 224.474352 -36.327375 
L 224.955322 -36.327375 
L 225.436292 -36.327375 
L 225.917261 -36.327375 
L 226.398231 -36.327375 
L 226.879201 -36.327375 
L 227.36017 -36.327375 
L 227.84114 -36.327375 
L 228.32211 -36.327375 
L 228.80308 -36.327375 
L 229.284049 -36.327375 
L 229.765019 -36.327375 
L 230.245989 -36.327375 
L 230.726958 -36.327375 
L 231.207928 -36.327375 
L 231.688898 -36.327375 
L 232.169867 -36.327375 
L 232.650837 -36.327375 
L 233.131807 -36.327375 
L 233.612777 -36.327375 
L 234.093746 -36.327375 
L 234.574716 -36.327375 
L 235.055686 -36.327375 
L 235.536655 -36.327375 
L 236.017625 -36.327375 
L 236.017625 -293.258251 
L 236.017625 -293.258251 
L 235.536655 -293.281878 
L 235.055686 -293.205376 
L 234.574716 -293.029128 
L 234.093746 -292.753647 
L 233.612777 -292.379581 
L 233.131807 -291.90771 
L 232.650837 -291.338945 
L 232.169867 -290.674325 
L 231.688898 -289.915017 
L 231.207928 -289.062316 
L 230.726958 -288.117638 
L 230.245989 -287.082522 
L 229.765019 -285.958626 
L 229.284049 -284.747722 
L 228.80308 -283.451695 
L 228.32211 -282.072542 
L 227.84114 -280.612363 
L 227.36017 -279.073361 
L 226.879201 -277.457836 
L 226.398231 -275.768185 
L 225.917261 -274.006893 
L 225.436292 -272.176529 
L 224.955322 -270.279745 
L 224.474352 -268.319268 
L 223.993383 -266.297897 
L 223.512413 -264.218495 
L 223.031443 -262.083989 
L 222.550473 -259.89736 
L 222.069504 -257.661639 
L 221.588534 -255.379905 
L 221.107564 -253.055276 
L 220.626595 -250.690902 
L 220.145625 -248.289964 
L 219.664655 -245.855669 
L 219.183686 -243.391237 
L 218.702716 -240.899905 
L 218.221746 -238.384914 
L 217.740777 -235.849508 
L 217.259807 -233.296929 
L 216.778837 -230.730407 
L 216.297867 -228.153158 
L 215.816898 -225.568381 
L 215.335928 -222.979246 
L 214.854958 -220.388898 
L 214.373989 -217.800443 
L 213.893019 -215.21695 
L 213.412049 -212.641442 
L 212.93108 -210.076895 
L 212.45011 -207.526229 
L 211.96914 -204.992309 
L 211.48817 -202.477935 
L 211.007201 -199.985844 
L 210.526231 -197.5187 
L 210.045261 -195.079097 
L 209.564292 -192.669549 
L 209.083322 -190.292492 
L 208.602352 -187.950275 
L 208.121383 -185.645164 
L 207.640413 -183.379334 
L 207.159443 -181.154867 
L 206.678473 -178.973752 
L 206.197504 -176.837882 
L 205.716534 -174.749048 
L 205.235564 -172.708943 
L 204.754595 -170.719159 
L 204.273625 -168.781181 
L 203.792655 -166.896392 
L 203.311686 -165.066067 
L 202.830716 -163.291375 
L 202.349746 -161.573378 
L 201.868777 -159.913029 
L 201.387807 -158.311174 
L 200.906837 -156.768549 
L 200.425867 -155.285784 
L 199.944898 -153.8634 
L 199.463928 -152.501809 
L 198.982958 -151.201317 
L 198.501989 -149.962126 
L 198.021019 -148.78433 
L 197.540049 -147.667921 
L 197.05908 -146.612786 
L 196.57811 -145.618713 
L 196.09714 -144.68539 
L 195.61617 -143.812406 
L 195.135201 -142.999255 
L 194.654231 -142.245336 
L 194.173261 -141.549957 
L 193.692292 -140.912336 
L 193.211322 -140.331603 
L 192.730352 -139.806807 
L 192.249383 -139.336909 
L 191.768413 -138.920797 
L 191.287443 -138.557277 
L 190.806473 -138.245085 
L 190.325504 -137.982886 
L 189.844534 -137.769276 
L 189.363564 -137.602789 
L 188.882595 -137.481895 
L 188.401625 -137.405009 
z
" style="stroke: #ff0000; stroke-opacity: 0.5; stroke-width: 0.8"/>
    </defs>
    <g clip-path="url(#p10041029a7)">
     <use xlink:href="#m4714e1a92e" x="0" y="309.639375" style="fill: #ff0000; fill-opacity: 0.5; stroke: #ff0000; stroke-opacity: 0.5; stroke-width: 0.8"/>
    </g>
   </g>
   <g id="line2d_15">
    <path d="M 45.553625 273.311592 
L 76.061364 273.203087 
L 83.239655 272.992653 
L 88.623374 272.637872 
L 92.212519 272.233737 
L 95.801665 271.62608 
L 99.390811 270.735207 
L 102.979957 269.462071 
L 104.77453 268.646069 
L 106.569102 267.689147 
L 108.363675 266.574356 
L 110.158248 265.284279 
L 111.952821 263.801362 
L 113.747394 262.108332 
L 115.541967 260.188664 
L 117.33654 258.027124 
L 119.131112 255.610356 
L 120.925685 252.92752 
L 122.720258 249.970944 
L 124.514831 246.736784 
L 126.309404 243.225665 
L 128.103977 239.443271 
L 131.693122 231.115688 
L 135.282268 221.917452 
L 140.665987 207.091361 
L 146.049705 192.192507 
L 149.638851 182.987454 
L 151.433424 178.78264 
L 153.227997 174.917881 
L 155.02257 171.443391 
L 156.817143 168.402581 
L 158.611715 165.830471 
L 160.406288 163.752226 
L 162.200861 162.181914 
L 163.995434 161.121485 
L 165.790007 160.560048 
L 167.58458 160.473469 
L 169.379153 160.824304 
L 171.173726 161.562093 
L 172.968298 162.624017 
L 174.762871 163.935904 
L 181.941163 169.885958 
L 183.735736 171.048164 
L 185.530308 171.871778 
L 187.324881 172.255435 
L 189.119454 172.103544 
L 190.914027 171.328866 
L 192.7086 169.854997 
L 194.503173 167.618708 
L 196.297746 164.57207 
L 198.092318 160.684324 
L 199.886891 155.943418 
L 201.681464 150.357181 
L 203.476037 143.954071 
L 205.27061 136.783462 
L 207.065183 128.915439 
L 210.654329 111.466182 
L 216.038047 82.881784 
L 219.627193 63.974619 
L 221.421766 55.060798 
L 223.216339 46.728503 
L 225.010911 39.137096 
L 226.805484 32.435756 
L 228.600057 26.759815 
L 230.39463 22.227397 
L 232.189203 18.936497 
L 233.983776 16.962588 
L 235.778349 16.356836 
L 237.572921 17.144984 
L 239.367494 19.326956 
L 241.162067 22.877164 
L 242.95664 27.74553 
L 244.751213 33.859162 
L 246.545786 41.124625 
L 248.340359 49.430709 
L 250.134932 58.651611 
L 251.929504 68.650385 
L 255.51865 90.399763 
L 268.08066 170.047325 
L 271.669806 189.976356 
L 273.464379 199.083454 
L 275.258952 207.569753 
L 277.053524 215.415626 
L 278.848097 222.613948 
L 280.64267 229.168767 
L 282.437243 235.093831 
L 284.231816 240.411054 
L 286.026389 245.148954 
L 287.820962 249.341144 
L 289.615535 253.024894 
L 291.410107 256.239809 
L 293.20468 259.026647 
L 294.999253 261.426286 
L 296.793826 263.478862 
L 298.588399 265.223062 
L 300.382972 266.695575 
L 302.177545 267.930693 
L 303.972117 268.960042 
L 305.76669 269.812435 
L 307.561263 270.513818 
L 311.150409 271.553278 
L 314.739555 272.231441 
L 318.3287 272.663022 
L 323.712419 273.022536 
L 330.89071 273.220896 
L 345.247293 273.30513 
L 402.673625 273.312 
L 402.673625 273.312 
" clip-path="url(#p10041029a7)" style="fill: none; stroke: #1f77b4; stroke-width: 1.2; stroke-linecap: round"/>
   </g>
   <g id="patch_3">
    <path d="M 45.553625 273.312 
L 45.553625 7.2 
" style="fill: none; stroke: #262626; stroke-linejoin: miter; stroke-linecap: square"/>
   </g>
   <g id="patch_4">
    <path d="M 402.673625 273.312 
L 402.673625 7.2 
" style="fill: none; stroke: #262626; stroke-linejoin: miter; stroke-linecap: square"/>
   </g>
   <g id="patch_5">
    <path d="M 45.553625 273.312 
L 402.673625 273.312 
" style="fill: none; stroke: #262626; stroke-linejoin: miter; stroke-linecap: square"/>
   </g>
   <g id="patch_6">
    <path d="M 45.553625 7.2 
L 402.673625 7.2 
" style="fill: none; stroke: #262626; stroke-linejoin: miter; stroke-linecap: square"/>
   </g>
  </g>
 </g>
 <defs>
  <clipPath id="p10041029a7">
   <rect x="45.553625" y="7.2" width="357.12" height="266.112"/>
  </clipPath>
 </defs>
</svg>