<?xml version="1.0" encoding="utf-8" standalone="no"?>
<!DOCTYPE svg PUBLIC "-//W3C//DTD SVG 1.1//EN"
  "http://www.w3.org/Graphics/SVG/1.1/DTD/svg11.dtd">
<svg xmlns:xlink="http://www.w3.org/1999/xlink" width="346.79952pt" height="217.19952pt" viewBox="0 0 346.79952 217.19952" xmlns="http://www.w3.org/2000/svg" version="1.1">
 <metadata>
  <rdf:RDF xmlns:dc="http://purl.org/dc/elements/1.1/" xmlns:cc="http://creativecommons.org/ns#" xmlns:rdf="http://www.w3.org/1999/02/22-rdf-syntax-ns#">
   <cc:Work>
    <dc:type rdf:resource="http://purl.org/dc/dcmitype/StillImage"/>
    <dc:date>2025-06-09T14:01:07.452246</dc:date>
    <dc:format>image/svg+xml</dc:format>
    <dc:creator>
     <cc:Agent>
      <dc:title>Matplotlib v3.9.2, https://matplotlib.org/</dc:title>
     </cc:Agent>
    </dc:creator>
   </cc:Work>
  </rdf:RDF>
 </metadata>
 <defs>
  <style type="text/css">*{stroke-linejoin: round; stroke-linecap: butt}</style>
 </defs>
 <g id="figure_1">
  <g id="patch_1">
   <path d="M 0 217.19952 
L 346.79952 217.19952 
L 346.79952 -0 
L 0 -0 
z
" style="fill: #ffffff"/>
  </g>
  <g id="axes_1">
   <g id="patch_2">
    <path d="M 41.669531 187.982332 
L 339.59952 187.982332 
L 339.59952 19.27875 
L 41.669531 19.27875 
z
" style="fill: #ffffff"/>
   </g>
   <g id="matplotlib.axis_1">
    <g id="xtick_1">
     <g id="line2d_1"/>
     <g id="text_1">
      <!-- 0 -->
      <g style="fill: #262626" transform="translate(52.984928 196.801239) scale(0.07 -0.07)">
       <defs>
        <path id="DejaVuSerif-30" d="M 2034 219 
Q 2513 219 2750 744 
Q 2988 1269 2988 2328 
Q 2988 3391 2750 3916 
Q 2513 4441 2034 4441 
Q 1556 4441 1318 3916 
Q 1081 3391 1081 2328 
Q 1081 1269 1318 744 
Q 1556 219 2034 219 
z
M 2034 -91 
Q 1275 -91 848 546 
Q 422 1184 422 2328 
Q 422 3475 848 4112 
Q 1275 4750 2034 4750 
Q 2797 4750 3222 4112 
Q 3647 3475 3647 2328 
Q 3647 1184 3222 546 
Q 2797 -91 2034 -91 
z
" transform="scale(0.015625)"/>
       </defs>
       <use xlink:href="#DejaVuSerif-30"/>
      </g>
     </g>
    </g>
    <g id="xtick_2">
     <g id="line2d_2"/>
     <g id="text_2">
      <!-- 10 -->
      <g style="fill: #262626" transform="translate(95.898961 196.801239) scale(0.07 -0.07)">
       <defs>
        <path id="DejaVuSerif-31" d="M 909 0 
L 909 331 
L 1722 331 
L 1722 4213 
L 781 3603 
L 781 4013 
L 1919 4750 
L 2350 4750 
L 2350 331 
L 3163 331 
L 3163 0 
L 909 0 
z
" transform="scale(0.015625)"/>
       </defs>
       <use xlink:href="#DejaVuSerif-31"/>
       <use xlink:href="#DejaVuSerif-30" x="63.623047"/>
      </g>
     </g>
    </g>
    <g id="xtick_3">
     <g id="line2d_3"/>
     <g id="text_3">
      <!-- 20 -->
      <g style="fill: #262626" transform="translate(141.039868 196.801239) scale(0.07 -0.07)">
       <defs>
        <path id="DejaVuSerif-32" d="M 819 3553 
L 469 3553 
L 469 4384 
Q 803 4563 1142 4656 
Q 1481 4750 1806 4750 
Q 2534 4750 2956 4397 
Q 3378 4044 3378 3438 
Q 3378 2753 2422 1800 
Q 2347 1728 2309 1691 
L 1131 513 
L 3078 513 
L 3078 1088 
L 3444 1088 
L 3444 0 
L 434 0 
L 434 341 
L 1850 1753 
Q 2319 2222 2519 2614 
Q 2719 3006 2719 3438 
Q 2719 3909 2473 4175 
Q 2228 4441 1797 4441 
Q 1350 4441 1106 4219 
Q 863 3997 819 3553 
z
" transform="scale(0.015625)"/>
       </defs>
       <use xlink:href="#DejaVuSerif-32"/>
       <use xlink:href="#DejaVuSerif-30" x="63.623047"/>
      </g>
     </g>
    </g>
    <g id="xtick_4">
     <g id="line2d_4"/>
     <g id="text_4">
      <!-- 30 -->
      <g style="fill: #262626" transform="translate(186.180776 196.801239) scale(0.07 -0.07)">
       <defs>
        <path id="DejaVuSerif-33" d="M 622 4469 
Q 988 4606 1323 4678 
Q 1659 4750 1953 4750 
Q 2638 4750 3022 4454 
Q 3406 4159 3406 3634 
Q 3406 3213 3140 2930 
Q 2875 2647 2388 2547 
Q 2963 2466 3280 2130 
Q 3597 1794 3597 1259 
Q 3597 606 3158 257 
Q 2719 -91 1894 -91 
Q 1528 -91 1179 -12 
Q 831 66 488 225 
L 488 1131 
L 838 1131 
Q 869 681 1141 450 
Q 1413 219 1906 219 
Q 2384 219 2661 495 
Q 2938 772 2938 1253 
Q 2938 1803 2653 2086 
Q 2369 2369 1819 2369 
L 1522 2369 
L 1522 2688 
L 1678 2688 
Q 2225 2688 2498 2914 
Q 2772 3141 2772 3597 
Q 2772 4006 2547 4223 
Q 2322 4441 1900 4441 
Q 1478 4441 1245 4241 
Q 1013 4041 972 3647 
L 622 3647 
L 622 4469 
z
" transform="scale(0.015625)"/>
       </defs>
       <use xlink:href="#DejaVuSerif-33"/>
       <use xlink:href="#DejaVuSerif-30" x="63.623047"/>
      </g>
     </g>
    </g>
    <g id="xtick_5">
     <g id="line2d_5"/>
     <g id="text_5">
      <!-- 40 -->
      <g style="fill: #262626" transform="translate(231.321683 196.801239) scale(0.07 -0.07)">
       <defs>
        <path id="DejaVuSerif-34" d="M 2234 1581 
L 2234 4063 
L 641 1581 
L 2234 1581 
z
M 3609 0 
L 1484 0 
L 1484 331 
L 2234 331 
L 2234 1247 
L 197 1247 
L 197 1588 
L 2241 4750 
L 2859 4750 
L 2859 1581 
L 3750 1581 
L 3750 1247 
L 2859 1247 
L 2859 331 
L 3609 331 
L 3609 0 
z
" transform="scale(0.015625)"/>
       </defs>
       <use xlink:href="#DejaVuSerif-34"/>
       <use xlink:href="#DejaVuSerif-30" x="63.623047"/>
      </g>
     </g>
    </g>
    <g id="xtick_6">
     <g id="line2d_6"/>
     <g id="text_6">
      <!-- 50 -->
      <g style="fill: #262626" transform="translate(276.46259 196.801239) scale(0.07 -0.07)">
       <defs>
        <path id="DejaVuSerif-35" d="M 3219 4666 
L 3219 4153 
L 1081 4153 
L 1081 2816 
Q 1244 2928 1461 2984 
Q 1678 3041 1947 3041 
Q 2703 3041 3140 2622 
Q 3578 2203 3578 1478 
Q 3578 738 3136 323 
Q 2694 -91 1894 -91 
Q 1572 -91 1234 -12 
Q 897 66 544 225 
L 544 1131 
L 897 1131 
Q 925 688 1179 453 
Q 1434 219 1894 219 
Q 2388 219 2653 544 
Q 2919 869 2919 1478 
Q 2919 2084 2655 2407 
Q 2391 2731 1894 2731 
Q 1613 2731 1398 2631 
Q 1184 2531 1019 2322 
L 750 2322 
L 750 4666 
L 3219 4666 
z
" transform="scale(0.015625)"/>
       </defs>
       <use xlink:href="#DejaVuSerif-35"/>
       <use xlink:href="#DejaVuSerif-30" x="63.623047"/>
      </g>
     </g>
    </g>
    <g id="xtick_7">
     <g id="line2d_7"/>
     <g id="text_7">
      <!-- 60 -->
      <g style="fill: #262626" transform="translate(321.603498 196.801239) scale(0.07 -0.07)">
       <defs>
        <path id="DejaVuSerif-36" d="M 2094 219 
Q 2534 219 2771 542 
Q 3009 866 3009 1472 
Q 3009 2078 2771 2401 
Q 2534 2725 2094 2725 
Q 1647 2725 1412 2412 
Q 1178 2100 1178 1509 
Q 1178 888 1415 553 
Q 1653 219 2094 219 
z
M 1075 2569 
Q 1288 2803 1556 2918 
Q 1825 3034 2163 3034 
Q 2859 3034 3264 2615 
Q 3669 2197 3669 1472 
Q 3669 763 3233 336 
Q 2797 -91 2069 -91 
Q 1278 -91 853 498 
Q 428 1088 428 2181 
Q 428 3406 931 4078 
Q 1434 4750 2350 4750 
Q 2597 4750 2869 4703 
Q 3141 4656 3425 4563 
L 3425 3794 
L 3072 3794 
Q 3034 4109 2831 4275 
Q 2628 4441 2284 4441 
Q 1678 4441 1381 3981 
Q 1084 3522 1075 2569 
z
" transform="scale(0.015625)"/>
       </defs>
       <use xlink:href="#DejaVuSerif-36"/>
       <use xlink:href="#DejaVuSerif-30" x="63.623047"/>
      </g>
     </g>
    </g>
    <g id="text_8">
     <!-- $x$ -->
     <g style="fill: #262626" transform="translate(188.234526 208.33577) scale(0.08 -0.08)">
      <defs>
       <path id="DejaVuSans-Oblique-78" d="M 3841 3500 
L 2234 1784 
L 3219 0 
L 2559 0 
L 1819 1388 
L 531 0 
L -166 0 
L 1556 1844 
L 641 3500 
L 1300 3500 
L 1972 2234 
L 3144 3500 
L 3841 3500 
z
" transform="scale(0.015625)"/>
      </defs>
      <use xlink:href="#DejaVuSans-Oblique-78" transform="translate(0 0.3125)"/>
     </g>
    </g>
   </g>
   <g id="matplotlib.axis_2">
    <g id="ytick_1">
     <g id="line2d_8"/>
     <g id="text_9">
      <!-- −100 -->
      <g style="fill: #262626" transform="translate(18.9425 158.023803) scale(0.07 -0.07)">
       <defs>
        <path id="DejaVuSerif-2212" d="M 678 2259 
L 4684 2259 
L 4684 1753 
L 678 1753 
L 678 2259 
z
" transform="scale(0.015625)"/>
       </defs>
       <use xlink:href="#DejaVuSerif-2212"/>
       <use xlink:href="#DejaVuSerif-31" x="83.789062"/>
       <use xlink:href="#DejaVuSerif-30" x="147.412109"/>
       <use xlink:href="#DejaVuSerif-30" x="211.035156"/>
      </g>
     </g>
    </g>
    <g id="ytick_2">
     <g id="line2d_9"/>
     <g id="text_10">
      <!-- −50 -->
      <g style="fill: #262626" transform="translate(23.39625 121.333159) scale(0.07 -0.07)">
       <use xlink:href="#DejaVuSerif-2212"/>
       <use xlink:href="#DejaVuSerif-35" x="83.789062"/>
       <use xlink:href="#DejaVuSerif-30" x="147.412109"/>
      </g>
     </g>
    </g>
    <g id="ytick_3">
     <g id="line2d_10"/>
     <g id="text_11">
      <!-- 0 -->
      <g style="fill: #262626" transform="translate(33.715781 84.642514) scale(0.07 -0.07)">
       <use xlink:href="#DejaVuSerif-30"/>
      </g>
     </g>
    </g>
    <g id="ytick_4">
     <g id="line2d_11"/>
     <g id="text_12">
      <!-- 50 -->
      <g style="fill: #262626" transform="translate(29.262031 47.95187) scale(0.07 -0.07)">
       <use xlink:href="#DejaVuSerif-35"/>
       <use xlink:href="#DejaVuSerif-30" x="63.623047"/>
      </g>
     </g>
    </g>
    <g id="text_13">
     <!-- $y$ -->
     <g style="fill: #262626" transform="translate(13.2625 106.030541) rotate(-90) scale(0.08 -0.08)">
      <defs>
       <path id="DejaVuSans-Oblique-79" d="M 1588 -325 
Q 1188 -997 936 -1164 
Q 684 -1331 294 -1331 
L -159 -1331 
L -63 -850 
L 269 -850 
Q 509 -850 678 -719 
Q 847 -588 1056 -206 
L 1234 128 
L 459 3500 
L 1069 3500 
L 1650 819 
L 3256 3500 
L 3859 3500 
L 1588 -325 
z
" transform="scale(0.015625)"/>
      </defs>
      <use xlink:href="#DejaVuSans-Oblique-79" transform="translate(0 0.3125)"/>
     </g>
    </g>
   </g>
   <g id="line2d_12">
    <defs>
     <path id="m7bfd1aa2ff" d="M -2 2 
L 2 -2 
M -2 -2 
L 2 2 
" style="stroke: #4c72b0; stroke-width: 2"/>
    </defs>
    <g clip-path="url(#p19b995bddd)">
     <use xlink:href="#m7bfd1aa2ff" x="66.045621" y="81.983061" style="fill: #4c72b0; stroke: #4c72b0; stroke-width: 2"/>
     <use xlink:href="#m7bfd1aa2ff" x="66.948439" y="82.937018" style="fill: #4c72b0; stroke: #4c72b0; stroke-width: 2"/>
     <use xlink:href="#m7bfd1aa2ff" x="69.656894" y="83.964356" style="fill: #4c72b0; stroke: #4c72b0; stroke-width: 2"/>
     <use xlink:href="#m7bfd1aa2ff" x="71.46253" y="81.983061" style="fill: #4c72b0; stroke: #4c72b0; stroke-width: 2"/>
     <use xlink:href="#m7bfd1aa2ff" x="73.268166" y="83.964356" style="fill: #4c72b0; stroke: #4c72b0; stroke-width: 2"/>
     <use xlink:href="#m7bfd1aa2ff" x="83.199166" y="83.964356" style="fill: #4c72b0; stroke: #4c72b0; stroke-width: 2"/>
     <use xlink:href="#m7bfd1aa2ff" x="85.004802" y="83.964356" style="fill: #4c72b0; stroke: #4c72b0; stroke-width: 2"/>
     <use xlink:href="#m7bfd1aa2ff" x="85.90762" y="82.937018" style="fill: #4c72b0; stroke: #4c72b0; stroke-width: 2"/>
     <use xlink:href="#m7bfd1aa2ff" x="90.421711" y="83.964356" style="fill: #4c72b0; stroke: #4c72b0; stroke-width: 2"/>
     <use xlink:href="#m7bfd1aa2ff" x="92.227348" y="83.964356" style="fill: #4c72b0; stroke: #4c72b0; stroke-width: 2"/>
     <use xlink:href="#m7bfd1aa2ff" x="94.935802" y="82.937018" style="fill: #4c72b0; stroke: #4c72b0; stroke-width: 2"/>
     <use xlink:href="#m7bfd1aa2ff" x="98.547075" y="83.964356" style="fill: #4c72b0; stroke: #4c72b0; stroke-width: 2"/>
     <use xlink:href="#m7bfd1aa2ff" x="100.352711" y="83.964356" style="fill: #4c72b0; stroke: #4c72b0; stroke-width: 2"/>
     <use xlink:href="#m7bfd1aa2ff" x="101.255529" y="85.945651" style="fill: #4c72b0; stroke: #4c72b0; stroke-width: 2"/>
     <use xlink:href="#m7bfd1aa2ff" x="103.061165" y="83.964356" style="fill: #4c72b0; stroke: #4c72b0; stroke-width: 2"/>
     <use xlink:href="#m7bfd1aa2ff" x="104.866802" y="85.945651" style="fill: #4c72b0; stroke: #4c72b0; stroke-width: 2"/>
     <use xlink:href="#m7bfd1aa2ff" x="106.672438" y="81.983061" style="fill: #4c72b0; stroke: #4c72b0; stroke-width: 2"/>
     <use xlink:href="#m7bfd1aa2ff" x="114.797801" y="83.964356" style="fill: #4c72b0; stroke: #4c72b0; stroke-width: 2"/>
     <use xlink:href="#m7bfd1aa2ff" x="116.603438" y="83.964356" style="fill: #4c72b0; stroke: #4c72b0; stroke-width: 2"/>
     <use xlink:href="#m7bfd1aa2ff" x="117.506256" y="81.983061" style="fill: #4c72b0; stroke: #4c72b0; stroke-width: 2"/>
     <use xlink:href="#m7bfd1aa2ff" x="121.117528" y="91.742772" style="fill: #4c72b0; stroke: #4c72b0; stroke-width: 2"/>
     <use xlink:href="#m7bfd1aa2ff" x="122.020346" y="83.964356" style="fill: #4c72b0; stroke: #4c72b0; stroke-width: 2"/>
     <use xlink:href="#m7bfd1aa2ff" x="124.728801" y="98.713995" style="fill: #4c72b0; stroke: #4c72b0; stroke-width: 2"/>
     <use xlink:href="#m7bfd1aa2ff" x="125.631619" y="111.482339" style="fill: #4c72b0; stroke: #4c72b0; stroke-width: 2"/>
     <use xlink:href="#m7bfd1aa2ff" x="126.534437" y="97.760038" style="fill: #4c72b0; stroke: #4c72b0; stroke-width: 2"/>
     <use xlink:href="#m7bfd1aa2ff" x="127.437255" y="113.463634" style="fill: #4c72b0; stroke: #4c72b0; stroke-width: 2"/>
     <use xlink:href="#m7bfd1aa2ff" x="128.340073" y="97.760038" style="fill: #4c72b0; stroke: #4c72b0; stroke-width: 2"/>
     <use xlink:href="#m7bfd1aa2ff" x="129.242892" y="85.945651" style="fill: #4c72b0; stroke: #4c72b0; stroke-width: 2"/>
     <use xlink:href="#m7bfd1aa2ff" x="130.14571" y="125.278021" style="fill: #4c72b0; stroke: #4c72b0; stroke-width: 2"/>
     <use xlink:href="#m7bfd1aa2ff" x="131.048528" y="134.083776" style="fill: #4c72b0; stroke: #4c72b0; stroke-width: 2"/>
     <use xlink:href="#m7bfd1aa2ff" x="134.6598" y="109.501044" style="fill: #4c72b0; stroke: #4c72b0; stroke-width: 2"/>
     <use xlink:href="#m7bfd1aa2ff" x="135.562619" y="154.703918" style="fill: #4c72b0; stroke: #4c72b0; stroke-width: 2"/>
     <use xlink:href="#m7bfd1aa2ff" x="139.173891" y="164.537011" style="fill: #4c72b0; stroke: #4c72b0; stroke-width: 2"/>
     <use xlink:href="#m7bfd1aa2ff" x="141.882346" y="172.315427" style="fill: #4c72b0; stroke: #4c72b0; stroke-width: 2"/>
     <use xlink:href="#m7bfd1aa2ff" x="142.785164" y="144.797444" style="fill: #4c72b0; stroke: #4c72b0; stroke-width: 2"/>
     <use xlink:href="#m7bfd1aa2ff" x="143.687982" y="175.32406" style="fill: #4c72b0; stroke: #4c72b0; stroke-width: 2"/>
     <use xlink:href="#m7bfd1aa2ff" x="146.396436" y="172.315427" style="fill: #4c72b0; stroke: #4c72b0; stroke-width: 2"/>
     <use xlink:href="#m7bfd1aa2ff" x="147.299255" y="168.4996" style="fill: #4c72b0; stroke: #4c72b0; stroke-width: 2"/>
     <use xlink:href="#m7bfd1aa2ff" x="150.910527" y="180.313988" style="fill: #4c72b0; stroke: #4c72b0; stroke-width: 2"/>
     <use xlink:href="#m7bfd1aa2ff" x="151.813345" y="156.758594" style="fill: #4c72b0; stroke: #4c72b0; stroke-width: 2"/>
     <use xlink:href="#m7bfd1aa2ff" x="153.618982" y="161.528378" style="fill: #4c72b0; stroke: #4c72b0; stroke-width: 2"/>
     <use xlink:href="#m7bfd1aa2ff" x="154.5218" y="172.315427" style="fill: #4c72b0; stroke: #4c72b0; stroke-width: 2"/>
     <use xlink:href="#m7bfd1aa2ff" x="159.938709" y="172.315427" style="fill: #4c72b0; stroke: #4c72b0; stroke-width: 2"/>
     <use xlink:href="#m7bfd1aa2ff" x="160.841527" y="176.278017" style="fill: #4c72b0; stroke: #4c72b0; stroke-width: 2"/>
     <use xlink:href="#m7bfd1aa2ff" x="163.549981" y="164.537011" style="fill: #4c72b0; stroke: #4c72b0; stroke-width: 2"/>
     <use xlink:href="#m7bfd1aa2ff" x="164.452799" y="151.768667" style="fill: #4c72b0; stroke: #4c72b0; stroke-width: 2"/>
     <use xlink:href="#m7bfd1aa2ff" x="166.258436" y="121.242051" style="fill: #4c72b0; stroke: #4c72b0; stroke-width: 2"/>
     <use xlink:href="#m7bfd1aa2ff" x="168.064072" y="129.240611" style="fill: #4c72b0; stroke: #4c72b0; stroke-width: 2"/>
     <use xlink:href="#m7bfd1aa2ff" x="169.869708" y="135.037733" style="fill: #4c72b0; stroke: #4c72b0; stroke-width: 2"/>
     <use xlink:href="#m7bfd1aa2ff" x="170.772526" y="101.649246" style="fill: #4c72b0; stroke: #4c72b0; stroke-width: 2"/>
     <use xlink:href="#m7bfd1aa2ff" x="172.578163" y="85.945651" style="fill: #4c72b0; stroke: #4c72b0; stroke-width: 2"/>
     <use xlink:href="#m7bfd1aa2ff" x="173.480981" y="160.574421" style="fill: #4c72b0; stroke: #4c72b0; stroke-width: 2"/>
     <use xlink:href="#m7bfd1aa2ff" x="174.383799" y="130.121186" style="fill: #4c72b0; stroke: #4c72b0; stroke-width: 2"/>
     <use xlink:href="#m7bfd1aa2ff" x="177.092253" y="93.724067" style="fill: #4c72b0; stroke: #4c72b0; stroke-width: 2"/>
     <use xlink:href="#m7bfd1aa2ff" x="177.995072" y="115.444929" style="fill: #4c72b0; stroke: #4c72b0; stroke-width: 2"/>
     <use xlink:href="#m7bfd1aa2ff" x="179.800708" y="79.04781" style="fill: #4c72b0; stroke: #4c72b0; stroke-width: 2"/>
     <use xlink:href="#m7bfd1aa2ff" x="182.509162" y="73.177306" style="fill: #4c72b0; stroke: #4c72b0; stroke-width: 2"/>
     <use xlink:href="#m7bfd1aa2ff" x="183.41198" y="97.760038" style="fill: #4c72b0; stroke: #4c72b0; stroke-width: 2"/>
     <use xlink:href="#m7bfd1aa2ff" x="184.314799" y="47.567237" style="fill: #4c72b0; stroke: #4c72b0; stroke-width: 2"/>
     <use xlink:href="#m7bfd1aa2ff" x="187.926071" y="94.751405" style="fill: #4c72b0; stroke: #4c72b0; stroke-width: 2"/>
     <use xlink:href="#m7bfd1aa2ff" x="191.537344" y="55.419035" style="fill: #4c72b0; stroke: #4c72b0; stroke-width: 2"/>
     <use xlink:href="#m7bfd1aa2ff" x="195.148616" y="26.947095" style="fill: #4c72b0; stroke: #4c72b0; stroke-width: 2"/>
     <use xlink:href="#m7bfd1aa2ff" x="196.051435" y="76.039177" style="fill: #4c72b0; stroke: #4c72b0; stroke-width: 2"/>
     <use xlink:href="#m7bfd1aa2ff" x="199.662707" y="41.696734" style="fill: #4c72b0; stroke: #4c72b0; stroke-width: 2"/>
     <use xlink:href="#m7bfd1aa2ff" x="203.27398" y="47.567237" style="fill: #4c72b0; stroke: #4c72b0; stroke-width: 2"/>
     <use xlink:href="#m7bfd1aa2ff" x="205.982434" y="70.242055" style="fill: #4c72b0; stroke: #4c72b0; stroke-width: 2"/>
     <use xlink:href="#m7bfd1aa2ff" x="207.78807" y="48.521194" style="fill: #4c72b0; stroke: #4c72b0; stroke-width: 2"/>
     <use xlink:href="#m7bfd1aa2ff" x="210.496525" y="81.029104" style="fill: #4c72b0; stroke: #4c72b0; stroke-width: 2"/>
     <use xlink:href="#m7bfd1aa2ff" x="212.302161" y="26.947095" style="fill: #4c72b0; stroke: #4c72b0; stroke-width: 2"/>
     <use xlink:href="#m7bfd1aa2ff" x="214.107797" y="93.724067" style="fill: #4c72b0; stroke: #4c72b0; stroke-width: 2"/>
     <use xlink:href="#m7bfd1aa2ff" x="215.010616" y="30.909684" style="fill: #4c72b0; stroke: #4c72b0; stroke-width: 2"/>
     <use xlink:href="#m7bfd1aa2ff" x="215.913434" y="56.446373" style="fill: #4c72b0; stroke: #4c72b0; stroke-width: 2"/>
     <use xlink:href="#m7bfd1aa2ff" x="218.621888" y="109.501044" style="fill: #4c72b0; stroke: #4c72b0; stroke-width: 2"/>
     <use xlink:href="#m7bfd1aa2ff" x="226.747252" y="47.567237" style="fill: #4c72b0; stroke: #4c72b0; stroke-width: 2"/>
     <use xlink:href="#m7bfd1aa2ff" x="232.16416" y="78.020472" style="fill: #4c72b0; stroke: #4c72b0; stroke-width: 2"/>
     <use xlink:href="#m7bfd1aa2ff" x="233.066979" y="82.937018" style="fill: #4c72b0; stroke: #4c72b0; stroke-width: 2"/>
     <use xlink:href="#m7bfd1aa2ff" x="235.775433" y="97.760038" style="fill: #4c72b0; stroke: #4c72b0; stroke-width: 2"/>
     <use xlink:href="#m7bfd1aa2ff" x="237.581069" y="91.742772" style="fill: #4c72b0; stroke: #4c72b0; stroke-width: 2"/>
     <use xlink:href="#m7bfd1aa2ff" x="242.997978" y="59.381624" style="fill: #4c72b0; stroke: #4c72b0; stroke-width: 2"/>
     <use xlink:href="#m7bfd1aa2ff" x="246.609251" y="60.408962" style="fill: #4c72b0; stroke: #4c72b0; stroke-width: 2"/>
     <use xlink:href="#m7bfd1aa2ff" x="248.414887" y="81.983061" style="fill: #4c72b0; stroke: #4c72b0; stroke-width: 2"/>
     <use xlink:href="#m7bfd1aa2ff" x="249.317705" y="71.196012" style="fill: #4c72b0; stroke: #4c72b0; stroke-width: 2"/>
     <use xlink:href="#m7bfd1aa2ff" x="253.831796" y="82.937018" style="fill: #4c72b0; stroke: #4c72b0; stroke-width: 2"/>
     <use xlink:href="#m7bfd1aa2ff" x="255.637432" y="81.983061" style="fill: #4c72b0; stroke: #4c72b0; stroke-width: 2"/>
     <use xlink:href="#m7bfd1aa2ff" x="258.345887" y="74.131263" style="fill: #4c72b0; stroke: #4c72b0; stroke-width: 2"/>
     <use xlink:href="#m7bfd1aa2ff" x="265.568432" y="74.131263" style="fill: #4c72b0; stroke: #4c72b0; stroke-width: 2"/>
     <use xlink:href="#m7bfd1aa2ff" x="270.985341" y="101.649246" style="fill: #4c72b0; stroke: #4c72b0; stroke-width: 2"/>
     <use xlink:href="#m7bfd1aa2ff" x="275.499432" y="91.742772" style="fill: #4c72b0; stroke: #4c72b0; stroke-width: 2"/>
     <use xlink:href="#m7bfd1aa2ff" x="283.624795" y="81.983061" style="fill: #4c72b0; stroke: #4c72b0; stroke-width: 2"/>
     <use xlink:href="#m7bfd1aa2ff" x="289.944522" y="74.131263" style="fill: #4c72b0; stroke: #4c72b0; stroke-width: 2"/>
     <use xlink:href="#m7bfd1aa2ff" x="295.361431" y="92.770111" style="fill: #4c72b0; stroke: #4c72b0; stroke-width: 2"/>
     <use xlink:href="#m7bfd1aa2ff" x="303.486794" y="83.964356" style="fill: #4c72b0; stroke: #4c72b0; stroke-width: 2"/>
     <use xlink:href="#m7bfd1aa2ff" x="305.29243" y="83.964356" style="fill: #4c72b0; stroke: #4c72b0; stroke-width: 2"/>
     <use xlink:href="#m7bfd1aa2ff" x="315.22343" y="74.131263" style="fill: #4c72b0; stroke: #4c72b0; stroke-width: 2"/>
    </g>
   </g>
   <g id="line2d_13">
    <path d="M 55.211803 74.921575 
L 57.933868 72.598966 
L 60.655933 70.508573 
L 63.377998 68.698548 
L 66.100063 67.212793 
L 68.822127 66.090207 
L 71.544192 65.364 
L 74.266257 65.061108 
L 75.627289 65.074982 
L 76.988322 65.201697 
L 78.349354 65.442654 
L 79.710386 65.798788 
L 82.432451 66.857981 
L 85.154516 68.377311 
L 87.876581 70.347217 
L 90.598645 72.750637 
L 93.32071 75.563223 
L 96.042775 78.753674 
L 98.76484 82.284176 
L 101.486905 86.110961 
L 105.570002 92.298028 
L 111.014131 101.090223 
L 120.541358 116.601643 
L 124.624455 122.748442 
L 127.34652 126.526936 
L 130.068585 129.984229 
L 132.790649 133.068608 
L 135.512714 135.733344 
L 138.234779 137.937432 
L 140.956844 139.646235 
L 142.317876 140.30596 
L 143.678908 140.832036 
L 145.039941 141.222154 
L 146.400973 141.474482 
L 147.762006 141.587683 
L 149.123038 141.560911 
L 150.48407 141.393821 
L 151.845103 141.086566 
L 153.206135 140.639803 
L 154.567167 140.054684 
L 155.9282 139.332857 
L 157.289232 138.476458 
L 160.011297 136.370888 
L 162.733362 133.764494 
L 165.455427 130.690925 
L 168.177491 127.190456 
L 170.899556 123.309378 
L 173.621621 119.099302 
L 177.704718 112.291166 
L 183.148848 102.61457 
L 192.676074 85.480218 
L 196.759171 78.618488 
L 199.481236 74.354109 
L 202.203301 70.400068 
L 204.925366 66.804091 
L 207.64743 63.608115 
L 210.369495 60.847681 
L 213.09156 58.551436 
L 215.813625 56.740727 
L 217.174657 56.022056 
L 218.535689 55.429333 
L 219.896722 54.963072 
L 221.257754 54.623297 
L 222.618787 54.409551 
L 223.979819 54.320893 
L 225.340851 54.355908 
L 226.701884 54.512711 
L 228.062916 54.788959 
L 230.784981 55.688192 
L 233.507046 57.026145 
L 236.22911 58.768897 
L 238.951175 60.876659 
L 241.67324 63.304454 
L 244.395305 66.002881 
L 248.478402 70.441258 
L 253.922531 76.791503 
L 260.727693 84.771458 
L 264.810791 89.242575 
L 267.532855 91.982073 
L 270.25492 94.47396 
L 272.976985 96.67686 
L 275.69905 98.554965 
L 278.421114 100.078614 
L 281.143179 101.22476 
L 283.865244 101.977332 
L 286.587309 102.327486 
L 289.309373 102.273731 
L 292.031438 101.821936 
L 294.753503 100.985218 
L 297.475568 99.783707 
L 300.197632 98.244201 
L 302.919697 96.399709 
L 305.641762 94.288888 
L 309.724859 90.719968 
L 313.807956 86.815493 
L 324.696215 76.153955 
L 326.057248 74.921575 
L 326.057248 74.921575 
" clip-path="url(#p19b995bddd)" style="fill: none; stroke: #dd8452; stroke-linecap: round"/>
   </g>
   <g id="patch_3">
    <path d="M 41.669531 187.982332 
L 41.669531 19.27875 
" style="fill: none; stroke: #262626; stroke-width: 0.5; stroke-linejoin: miter; stroke-linecap: square"/>
   </g>
   <g id="patch_4">
    <path d="M 41.669531 187.982332 
L 339.59952 187.982332 
" style="fill: none; stroke: #262626; stroke-width: 0.5; stroke-linejoin: miter; stroke-linecap: square"/>
   </g>
   <g id="text_14">
    <!-- Fourier basis with 4 terms -->
    <g style="fill: #262626" transform="translate(137.044526 13.27875) scale(0.08 -0.08)">
     <defs>
      <path id="DejaVuSerif-46" d="M 353 0 
L 353 331 
L 947 331 
L 947 4331 
L 353 4331 
L 353 4666 
L 4172 4666 
L 4172 3628 
L 3788 3628 
L 3788 4281 
L 1581 4281 
L 1581 2719 
L 3175 2719 
L 3175 3303 
L 3559 3303 
L 3559 1753 
L 3175 1753 
L 3175 2338 
L 1581 2338 
L 1581 331 
L 2328 331 
L 2328 0 
L 353 0 
z
" transform="scale(0.015625)"/>
      <path id="DejaVuSerif-6f" d="M 1925 219 
Q 2388 219 2623 584 
Q 2859 950 2859 1663 
Q 2859 2375 2623 2739 
Q 2388 3103 1925 3103 
Q 1463 3103 1227 2739 
Q 991 2375 991 1663 
Q 991 950 1228 584 
Q 1466 219 1925 219 
z
M 1925 -91 
Q 1200 -91 759 389 
Q 319 869 319 1663 
Q 319 2456 758 2934 
Q 1197 3413 1925 3413 
Q 2653 3413 3092 2934 
Q 3531 2456 3531 1663 
Q 3531 869 3092 389 
Q 2653 -91 1925 -91 
z
" transform="scale(0.015625)"/>
      <path id="DejaVuSerif-75" d="M 2266 3322 
L 3341 3322 
L 3341 331 
L 3884 331 
L 3884 0 
L 2766 0 
L 2766 588 
Q 2606 256 2353 82 
Q 2100 -91 1766 -91 
Q 1213 -91 952 223 
Q 691 538 691 1209 
L 691 2988 
L 172 2988 
L 172 3322 
L 1269 3322 
L 1269 1388 
Q 1269 781 1417 556 
Q 1566 331 1947 331 
Q 2347 331 2556 625 
Q 2766 919 2766 1478 
L 2766 2988 
L 2266 2988 
L 2266 3322 
z
" transform="scale(0.015625)"/>
      <path id="DejaVuSerif-72" d="M 3059 3328 
L 3059 2497 
L 2728 2497 
Q 2713 2744 2591 2866 
Q 2469 2988 2234 2988 
Q 1809 2988 1582 2694 
Q 1356 2400 1356 1850 
L 1356 331 
L 2022 331 
L 2022 0 
L 263 0 
L 263 331 
L 781 331 
L 781 2994 
L 231 2994 
L 231 3322 
L 1356 3322 
L 1356 2731 
Q 1525 3078 1790 3245 
Q 2056 3413 2438 3413 
Q 2578 3413 2733 3391 
Q 2888 3369 3059 3328 
z
" transform="scale(0.015625)"/>
      <path id="DejaVuSerif-69" d="M 622 4353 
Q 622 4497 726 4603 
Q 831 4709 978 4709 
Q 1122 4709 1226 4603 
Q 1331 4497 1331 4353 
Q 1331 4206 1228 4103 
Q 1125 4000 978 4000 
Q 831 4000 726 4103 
Q 622 4206 622 4353 
z
M 1356 331 
L 1900 331 
L 1900 0 
L 231 0 
L 231 331 
L 781 331 
L 781 2988 
L 231 2988 
L 231 3322 
L 1356 3322 
L 1356 331 
z
" transform="scale(0.015625)"/>
      <path id="DejaVuSerif-65" d="M 3469 1600 
L 991 1600 
L 991 1575 
Q 991 903 1244 561 
Q 1497 219 1991 219 
Q 2369 219 2611 417 
Q 2853 616 2950 1006 
L 3413 1006 
Q 3275 459 2904 184 
Q 2534 -91 1931 -91 
Q 1203 -91 761 389 
Q 319 869 319 1663 
Q 319 2450 753 2931 
Q 1188 3413 1894 3413 
Q 2647 3413 3050 2948 
Q 3453 2484 3469 1600 
z
M 2791 1931 
Q 2772 2513 2545 2808 
Q 2319 3103 1894 3103 
Q 1497 3103 1269 2806 
Q 1041 2509 991 1931 
L 2791 1931 
z
" transform="scale(0.015625)"/>
      <path id="DejaVuSerif-20" transform="scale(0.015625)"/>
      <path id="DejaVuSerif-62" d="M 738 331 
L 738 4531 
L 184 4531 
L 184 4863 
L 1313 4863 
L 1313 2803 
Q 1481 3116 1742 3264 
Q 2003 3413 2388 3413 
Q 3000 3413 3387 2928 
Q 3775 2444 3775 1663 
Q 3775 881 3387 395 
Q 3000 -91 2388 -91 
Q 2003 -91 1742 57 
Q 1481 206 1313 519 
L 1313 0 
L 184 0 
L 184 331 
L 738 331 
z
M 1313 1497 
Q 1313 897 1542 583 
Q 1772 269 2209 269 
Q 2650 269 2876 622 
Q 3103 975 3103 1663 
Q 3103 2353 2876 2703 
Q 2650 3053 2209 3053 
Q 1772 3053 1542 2737 
Q 1313 2422 1313 1825 
L 1313 1497 
z
" transform="scale(0.015625)"/>
      <path id="DejaVuSerif-61" d="M 2547 1044 
L 2547 1747 
L 1806 1747 
Q 1378 1747 1168 1562 
Q 959 1378 959 997 
Q 959 650 1171 447 
Q 1384 244 1747 244 
Q 2106 244 2326 466 
Q 2547 688 2547 1044 
z
M 3122 2075 
L 3122 331 
L 3634 331 
L 3634 0 
L 2547 0 
L 2547 359 
Q 2356 128 2106 18 
Q 1856 -91 1522 -91 
Q 969 -91 644 203 
Q 319 497 319 997 
Q 319 1513 691 1797 
Q 1063 2081 1741 2081 
L 2547 2081 
L 2547 2309 
Q 2547 2688 2317 2895 
Q 2088 3103 1672 3103 
Q 1328 3103 1125 2947 
Q 922 2791 872 2484 
L 575 2484 
L 575 3156 
Q 875 3284 1158 3348 
Q 1441 3413 1709 3413 
Q 2400 3413 2761 3070 
Q 3122 2728 3122 2075 
z
" transform="scale(0.015625)"/>
      <path id="DejaVuSerif-73" d="M 359 184 
L 359 959 
L 691 959 
Q 703 588 923 403 
Q 1144 219 1575 219 
Q 1963 219 2166 364 
Q 2369 509 2369 788 
Q 2369 1006 2220 1140 
Q 2072 1275 1594 1428 
L 1178 1569 
Q 750 1706 558 1912 
Q 366 2119 366 2438 
Q 366 2894 700 3153 
Q 1034 3413 1625 3413 
Q 1888 3413 2178 3344 
Q 2469 3275 2778 3144 
L 2778 2419 
L 2447 2419 
Q 2434 2741 2221 2922 
Q 2009 3103 1644 3103 
Q 1281 3103 1095 2975 
Q 909 2847 909 2591 
Q 909 2381 1050 2254 
Q 1191 2128 1613 1997 
L 2069 1856 
Q 2541 1709 2748 1489 
Q 2956 1269 2956 922 
Q 2956 450 2595 179 
Q 2234 -91 1600 -91 
Q 1278 -91 972 -22 
Q 666 47 359 184 
z
" transform="scale(0.015625)"/>
      <path id="DejaVuSerif-77" d="M 3072 3322 
L 3922 728 
L 4672 2988 
L 4191 2988 
L 4191 3322 
L 5394 3322 
L 5394 2988 
L 5025 2988 
L 4038 0 
L 3559 0 
L 2741 2484 
L 1919 0 
L 1459 0 
L 475 2988 
L 103 2988 
L 103 3322 
L 1606 3322 
L 1606 2988 
L 1069 2988 
L 1813 728 
L 2669 3322 
L 3072 3322 
z
" transform="scale(0.015625)"/>
      <path id="DejaVuSerif-74" d="M 691 2988 
L 184 2988 
L 184 3322 
L 691 3322 
L 691 4353 
L 1269 4353 
L 1269 3322 
L 2350 3322 
L 2350 2988 
L 1269 2988 
L 1269 878 
Q 1269 456 1350 337 
Q 1431 219 1650 219 
Q 1875 219 1978 351 
Q 2081 484 2088 781 
L 2522 781 
Q 2497 328 2275 118 
Q 2053 -91 1600 -91 
Q 1103 -91 897 129 
Q 691 350 691 878 
L 691 2988 
z
" transform="scale(0.015625)"/>
      <path id="DejaVuSerif-68" d="M 263 0 
L 263 331 
L 781 331 
L 781 4531 
L 231 4531 
L 231 4863 
L 1356 4863 
L 1356 2731 
Q 1516 3069 1770 3241 
Q 2025 3413 2363 3413 
Q 2913 3413 3172 3097 
Q 3431 2781 3431 2113 
L 3431 331 
L 3944 331 
L 3944 0 
L 2356 0 
L 2356 331 
L 2853 331 
L 2853 1931 
Q 2853 2541 2704 2764 
Q 2556 2988 2175 2988 
Q 1775 2988 1565 2697 
Q 1356 2406 1356 1850 
L 1356 331 
L 1856 331 
L 1856 0 
L 263 0 
z
" transform="scale(0.015625)"/>
      <path id="DejaVuSerif-6d" d="M 3316 2675 
Q 3481 3041 3739 3227 
Q 3997 3413 4341 3413 
Q 4863 3413 5119 3089 
Q 5375 2766 5375 2113 
L 5375 331 
L 5894 331 
L 5894 0 
L 4300 0 
L 4300 331 
L 4800 331 
L 4800 2047 
Q 4800 2556 4650 2772 
Q 4500 2988 4153 2988 
Q 3769 2988 3567 2697 
Q 3366 2406 3366 1850 
L 3366 331 
L 3866 331 
L 3866 0 
L 2291 0 
L 2291 331 
L 2791 331 
L 2791 2069 
Q 2791 2566 2641 2777 
Q 2491 2988 2144 2988 
Q 1759 2988 1557 2697 
Q 1356 2406 1356 1850 
L 1356 331 
L 1856 331 
L 1856 0 
L 263 0 
L 263 331 
L 781 331 
L 781 2994 
L 231 2994 
L 231 3322 
L 1356 3322 
L 1356 2731 
Q 1516 3063 1762 3238 
Q 2009 3413 2322 3413 
Q 2709 3413 2968 3220 
Q 3228 3028 3316 2675 
z
" transform="scale(0.015625)"/>
     </defs>
     <use xlink:href="#DejaVuSerif-46"/>
     <use xlink:href="#DejaVuSerif-6f" x="63.884766"/>
     <use xlink:href="#DejaVuSerif-75" x="124.089844"/>
     <use xlink:href="#DejaVuSerif-72" x="188.494141"/>
     <use xlink:href="#DejaVuSerif-69" x="236.296875"/>
     <use xlink:href="#DejaVuSerif-65" x="268.279297"/>
     <use xlink:href="#DejaVuSerif-72" x="327.458984"/>
     <use xlink:href="#DejaVuSerif-20" x="375.261719"/>
     <use xlink:href="#DejaVuSerif-62" x="407.048828"/>
     <use xlink:href="#DejaVuSerif-61" x="471.0625"/>
     <use xlink:href="#DejaVuSerif-73" x="530.681641"/>
     <use xlink:href="#DejaVuSerif-69" x="582"/>
     <use xlink:href="#DejaVuSerif-73" x="613.982422"/>
     <use xlink:href="#DejaVuSerif-20" x="665.300781"/>
     <use xlink:href="#DejaVuSerif-77" x="697.087891"/>
     <use xlink:href="#DejaVuSerif-69" x="782.683594"/>
     <use xlink:href="#DejaVuSerif-74" x="814.666016"/>
     <use xlink:href="#DejaVuSerif-68" x="854.851562"/>
     <use xlink:href="#DejaVuSerif-20" x="919.255859"/>
     <use xlink:href="#DejaVuSerif-34" x="951.042969"/>
     <use xlink:href="#DejaVuSerif-20" x="1014.666016"/>
     <use xlink:href="#DejaVuSerif-74" x="1046.453125"/>
     <use xlink:href="#DejaVuSerif-65" x="1086.638672"/>
     <use xlink:href="#DejaVuSerif-72" x="1145.818359"/>
     <use xlink:href="#DejaVuSerif-6d" x="1193.621094"/>
     <use xlink:href="#DejaVuSerif-73" x="1288.445312"/>
    </g>
   </g>
  </g>
 </g>
 <defs>
  <clipPath id="p19b995bddd">
   <rect x="41.669531" y="19.27875" width="297.929989" height="168.703582"/>
  </clipPath>
 </defs>
</svg>