<?xml version="1.0" encoding="utf-8" standalone="no"?>
<!DOCTYPE svg PUBLIC "-//W3C//DTD SVG 1.1//EN"
  "http://www.w3.org/Graphics/SVG/1.1/DTD/svg11.dtd">
<svg xmlns:xlink="http://www.w3.org/1999/xlink" width="454.464pt" height="339.264pt" viewBox="0 0 454.464 339.264" xmlns="http://www.w3.org/2000/svg" version="1.1">
 <metadata>
  <rdf:RDF xmlns:dc="http://purl.org/dc/elements/1.1/" xmlns:cc="http://creativecommons.org/ns#" xmlns:rdf="http://www.w3.org/1999/02/22-rdf-syntax-ns#">
   <cc:Work>
    <dc:type rdf:resource="http://purl.org/dc/dcmitype/StillImage"/>
    <dc:date>2025-05-01T16:07:43.311875</dc:date>
    <dc:format>image/svg+xml</dc:format>
    <dc:creator>
     <cc:Agent>
      <dc:title>Matplotlib v3.9.2, https://matplotlib.org/</dc:title>
     </cc:Agent>
    </dc:creator>
   </cc:Work>
  </rdf:RDF>
 </metadata>
 <defs>
  <style type="text/css">*{stroke-linejoin: round; stroke-linecap: butt}</style>
 </defs>
 <g id="figure_1">
  <g id="patch_1">
   <path d="M 0 339.264 
L 454.464 339.264 
L 454.464 0 
L 0 0 
z
" style="fill: #ffffff"/>
  </g>
  <g id="axes_1">
   <g id="patch_2">
    <path d="M 41.428 302.819625 
L 447.264 302.819625 
L 447.264 10.349438 
L 41.428 10.349438 
z
" style="fill: #ffffff"/>
   </g>
   <g id="matplotlib.axis_1">
    <g id="xtick_1">
     <g id="line2d_1">
      <defs>
       <path id="m22ed8e9943" d="M 0 0 
L 0 4.8 
" style="stroke: #262626"/>
      </defs>
      <g>
       <use xlink:href="#m22ed8e9943" x="59.838193" y="302.819625" style="fill: #262626; stroke: #262626"/>
      </g>
     </g>
     <g id="text_1">
      <!-- 0 -->
      <g style="fill: #262626" transform="translate(57.391381 317.4185) scale(0.088 -0.088)">
       <defs>
        <path id="ArialMT-30" d="M 266 2259 
Q 266 3072 433 3567 
Q 600 4063 929 4331 
Q 1259 4600 1759 4600 
Q 2128 4600 2406 4451 
Q 2684 4303 2865 4023 
Q 3047 3744 3150 3342 
Q 3253 2941 3253 2259 
Q 3253 1453 3087 958 
Q 2922 463 2592 192 
Q 2263 -78 1759 -78 
Q 1097 -78 719 397 
Q 266 969 266 2259 
z
M 844 2259 
Q 844 1131 1108 757 
Q 1372 384 1759 384 
Q 2147 384 2411 759 
Q 2675 1134 2675 2259 
Q 2675 3391 2411 3762 
Q 2147 4134 1753 4134 
Q 1366 4134 1134 3806 
Q 844 3388 844 2259 
z
" transform="scale(0.015625)"/>
       </defs>
       <use xlink:href="#ArialMT-30"/>
      </g>
     </g>
    </g>
    <g id="xtick_2">
     <g id="line2d_2">
      <g>
       <use xlink:href="#m22ed8e9943" x="133.633936" y="302.819625" style="fill: #262626; stroke: #262626"/>
      </g>
     </g>
     <g id="text_2">
      <!-- 2000 -->
      <g style="fill: #262626" transform="translate(123.846686 317.4185) scale(0.088 -0.088)">
       <defs>
        <path id="ArialMT-32" d="M 3222 541 
L 3222 0 
L 194 0 
Q 188 203 259 391 
Q 375 700 629 1000 
Q 884 1300 1366 1694 
Q 2113 2306 2375 2664 
Q 2638 3022 2638 3341 
Q 2638 3675 2398 3904 
Q 2159 4134 1775 4134 
Q 1369 4134 1125 3890 
Q 881 3647 878 3216 
L 300 3275 
Q 359 3922 746 4261 
Q 1134 4600 1788 4600 
Q 2447 4600 2831 4234 
Q 3216 3869 3216 3328 
Q 3216 3053 3103 2787 
Q 2991 2522 2730 2228 
Q 2469 1934 1863 1422 
Q 1356 997 1212 845 
Q 1069 694 975 541 
L 3222 541 
z
" transform="scale(0.015625)"/>
       </defs>
       <use xlink:href="#ArialMT-32"/>
       <use xlink:href="#ArialMT-30" x="55.615234"/>
       <use xlink:href="#ArialMT-30" x="111.230469"/>
       <use xlink:href="#ArialMT-30" x="166.845703"/>
      </g>
     </g>
    </g>
    <g id="xtick_3">
     <g id="line2d_3">
      <g>
       <use xlink:href="#m22ed8e9943" x="207.429679" y="302.819625" style="fill: #262626; stroke: #262626"/>
      </g>
     </g>
     <g id="text_3">
      <!-- 4000 -->
      <g style="fill: #262626" transform="translate(197.642429 317.4185) scale(0.088 -0.088)">
       <defs>
        <path id="ArialMT-34" d="M 2069 0 
L 2069 1097 
L 81 1097 
L 81 1613 
L 2172 4581 
L 2631 4581 
L 2631 1613 
L 3250 1613 
L 3250 1097 
L 2631 1097 
L 2631 0 
L 2069 0 
z
M 2069 1613 
L 2069 3678 
L 634 1613 
L 2069 1613 
z
" transform="scale(0.015625)"/>
       </defs>
       <use xlink:href="#ArialMT-34"/>
       <use xlink:href="#ArialMT-30" x="55.615234"/>
       <use xlink:href="#ArialMT-30" x="111.230469"/>
       <use xlink:href="#ArialMT-30" x="166.845703"/>
      </g>
     </g>
    </g>
    <g id="xtick_4">
     <g id="line2d_4">
      <g>
       <use xlink:href="#m22ed8e9943" x="281.225423" y="302.819625" style="fill: #262626; stroke: #262626"/>
      </g>
     </g>
     <g id="text_4">
      <!-- 6000 -->
      <g style="fill: #262626" transform="translate(271.438173 317.4185) scale(0.088 -0.088)">
       <defs>
        <path id="ArialMT-36" d="M 3184 3459 
L 2625 3416 
Q 2550 3747 2413 3897 
Q 2184 4138 1850 4138 
Q 1581 4138 1378 3988 
Q 1113 3794 959 3422 
Q 806 3050 800 2363 
Q 1003 2672 1297 2822 
Q 1591 2972 1913 2972 
Q 2475 2972 2870 2558 
Q 3266 2144 3266 1488 
Q 3266 1056 3080 686 
Q 2894 316 2569 119 
Q 2244 -78 1831 -78 
Q 1128 -78 684 439 
Q 241 956 241 2144 
Q 241 3472 731 4075 
Q 1159 4600 1884 4600 
Q 2425 4600 2770 4297 
Q 3116 3994 3184 3459 
z
M 888 1484 
Q 888 1194 1011 928 
Q 1134 663 1356 523 
Q 1578 384 1822 384 
Q 2178 384 2434 671 
Q 2691 959 2691 1453 
Q 2691 1928 2437 2201 
Q 2184 2475 1800 2475 
Q 1419 2475 1153 2201 
Q 888 1928 888 1484 
z
" transform="scale(0.015625)"/>
       </defs>
       <use xlink:href="#ArialMT-36"/>
       <use xlink:href="#ArialMT-30" x="55.615234"/>
       <use xlink:href="#ArialMT-30" x="111.230469"/>
       <use xlink:href="#ArialMT-30" x="166.845703"/>
      </g>
     </g>
    </g>
    <g id="xtick_5">
     <g id="line2d_5">
      <g>
       <use xlink:href="#m22ed8e9943" x="355.021166" y="302.819625" style="fill: #262626; stroke: #262626"/>
      </g>
     </g>
     <g id="text_5">
      <!-- 8000 -->
      <g style="fill: #262626" transform="translate(345.233916 317.4185) scale(0.088 -0.088)">
       <defs>
        <path id="ArialMT-38" d="M 1131 2484 
Q 781 2613 612 2850 
Q 444 3088 444 3419 
Q 444 3919 803 4259 
Q 1163 4600 1759 4600 
Q 2359 4600 2725 4251 
Q 3091 3903 3091 3403 
Q 3091 3084 2923 2848 
Q 2756 2613 2416 2484 
Q 2838 2347 3058 2040 
Q 3278 1734 3278 1309 
Q 3278 722 2862 322 
Q 2447 -78 1769 -78 
Q 1091 -78 675 323 
Q 259 725 259 1325 
Q 259 1772 486 2073 
Q 713 2375 1131 2484 
z
M 1019 3438 
Q 1019 3113 1228 2906 
Q 1438 2700 1772 2700 
Q 2097 2700 2305 2904 
Q 2513 3109 2513 3406 
Q 2513 3716 2298 3927 
Q 2084 4138 1766 4138 
Q 1444 4138 1231 3931 
Q 1019 3725 1019 3438 
z
M 838 1322 
Q 838 1081 952 856 
Q 1066 631 1291 507 
Q 1516 384 1775 384 
Q 2178 384 2440 643 
Q 2703 903 2703 1303 
Q 2703 1709 2433 1975 
Q 2163 2241 1756 2241 
Q 1359 2241 1098 1978 
Q 838 1716 838 1322 
z
" transform="scale(0.015625)"/>
       </defs>
       <use xlink:href="#ArialMT-38"/>
       <use xlink:href="#ArialMT-30" x="55.615234"/>
       <use xlink:href="#ArialMT-30" x="111.230469"/>
       <use xlink:href="#ArialMT-30" x="166.845703"/>
      </g>
     </g>
    </g>
    <g id="xtick_6">
     <g id="line2d_6">
      <g>
       <use xlink:href="#m22ed8e9943" x="428.816909" y="302.819625" style="fill: #262626; stroke: #262626"/>
      </g>
     </g>
     <g id="text_6">
      <!-- 10000 -->
      <g style="fill: #262626" transform="translate(416.582847 317.4185) scale(0.088 -0.088)">
       <defs>
        <path id="ArialMT-31" d="M 2384 0 
L 1822 0 
L 1822 3584 
Q 1619 3391 1289 3197 
Q 959 3003 697 2906 
L 697 3450 
Q 1169 3672 1522 3987 
Q 1875 4303 2022 4600 
L 2384 4600 
L 2384 0 
z
" transform="scale(0.015625)"/>
       </defs>
       <use xlink:href="#ArialMT-31"/>
       <use xlink:href="#ArialMT-30" x="55.615234"/>
       <use xlink:href="#ArialMT-30" x="111.230469"/>
       <use xlink:href="#ArialMT-30" x="166.845703"/>
       <use xlink:href="#ArialMT-30" x="222.460938"/>
      </g>
     </g>
    </g>
    <g id="text_7">
     <!-- Number of experiments -->
     <g style="fill: #262626" transform="translate(194.46275 330.156) scale(0.096 -0.096)">
      <defs>
       <path id="ArialMT-4e" d="M 488 0 
L 488 4581 
L 1109 4581 
L 3516 984 
L 3516 4581 
L 4097 4581 
L 4097 0 
L 3475 0 
L 1069 3600 
L 1069 0 
L 488 0 
z
" transform="scale(0.015625)"/>
       <path id="ArialMT-75" d="M 2597 0 
L 2597 488 
Q 2209 -75 1544 -75 
Q 1250 -75 995 37 
Q 741 150 617 320 
Q 494 491 444 738 
Q 409 903 409 1263 
L 409 3319 
L 972 3319 
L 972 1478 
Q 972 1038 1006 884 
Q 1059 663 1231 536 
Q 1403 409 1656 409 
Q 1909 409 2131 539 
Q 2353 669 2445 892 
Q 2538 1116 2538 1541 
L 2538 3319 
L 3100 3319 
L 3100 0 
L 2597 0 
z
" transform="scale(0.015625)"/>
       <path id="ArialMT-6d" d="M 422 0 
L 422 3319 
L 925 3319 
L 925 2853 
Q 1081 3097 1340 3245 
Q 1600 3394 1931 3394 
Q 2300 3394 2536 3241 
Q 2772 3088 2869 2813 
Q 3263 3394 3894 3394 
Q 4388 3394 4653 3120 
Q 4919 2847 4919 2278 
L 4919 0 
L 4359 0 
L 4359 2091 
Q 4359 2428 4304 2576 
Q 4250 2725 4106 2815 
Q 3963 2906 3769 2906 
Q 3419 2906 3187 2673 
Q 2956 2441 2956 1928 
L 2956 0 
L 2394 0 
L 2394 2156 
Q 2394 2531 2256 2718 
Q 2119 2906 1806 2906 
Q 1569 2906 1367 2781 
Q 1166 2656 1075 2415 
Q 984 2175 984 1722 
L 984 0 
L 422 0 
z
" transform="scale(0.015625)"/>
       <path id="ArialMT-62" d="M 941 0 
L 419 0 
L 419 4581 
L 981 4581 
L 981 2947 
Q 1338 3394 1891 3394 
Q 2197 3394 2470 3270 
Q 2744 3147 2920 2923 
Q 3097 2700 3197 2384 
Q 3297 2069 3297 1709 
Q 3297 856 2875 390 
Q 2453 -75 1863 -75 
Q 1275 -75 941 416 
L 941 0 
z
M 934 1684 
Q 934 1088 1097 822 
Q 1363 388 1816 388 
Q 2184 388 2453 708 
Q 2722 1028 2722 1663 
Q 2722 2313 2464 2622 
Q 2206 2931 1841 2931 
Q 1472 2931 1203 2611 
Q 934 2291 934 1684 
z
" transform="scale(0.015625)"/>
       <path id="ArialMT-65" d="M 2694 1069 
L 3275 997 
Q 3138 488 2766 206 
Q 2394 -75 1816 -75 
Q 1088 -75 661 373 
Q 234 822 234 1631 
Q 234 2469 665 2931 
Q 1097 3394 1784 3394 
Q 2450 3394 2872 2941 
Q 3294 2488 3294 1666 
Q 3294 1616 3291 1516 
L 816 1516 
Q 847 969 1125 678 
Q 1403 388 1819 388 
Q 2128 388 2347 550 
Q 2566 713 2694 1069 
z
M 847 1978 
L 2700 1978 
Q 2663 2397 2488 2606 
Q 2219 2931 1791 2931 
Q 1403 2931 1139 2672 
Q 875 2413 847 1978 
z
" transform="scale(0.015625)"/>
       <path id="ArialMT-72" d="M 416 0 
L 416 3319 
L 922 3319 
L 922 2816 
Q 1116 3169 1280 3281 
Q 1444 3394 1641 3394 
Q 1925 3394 2219 3213 
L 2025 2691 
Q 1819 2813 1613 2813 
Q 1428 2813 1281 2702 
Q 1134 2591 1072 2394 
Q 978 2094 978 1738 
L 978 0 
L 416 0 
z
" transform="scale(0.015625)"/>
       <path id="ArialMT-20" transform="scale(0.015625)"/>
       <path id="ArialMT-6f" d="M 213 1659 
Q 213 2581 725 3025 
Q 1153 3394 1769 3394 
Q 2453 3394 2887 2945 
Q 3322 2497 3322 1706 
Q 3322 1066 3130 698 
Q 2938 331 2570 128 
Q 2203 -75 1769 -75 
Q 1072 -75 642 372 
Q 213 819 213 1659 
z
M 791 1659 
Q 791 1022 1069 705 
Q 1347 388 1769 388 
Q 2188 388 2466 706 
Q 2744 1025 2744 1678 
Q 2744 2294 2464 2611 
Q 2184 2928 1769 2928 
Q 1347 2928 1069 2612 
Q 791 2297 791 1659 
z
" transform="scale(0.015625)"/>
       <path id="ArialMT-66" d="M 556 0 
L 556 2881 
L 59 2881 
L 59 3319 
L 556 3319 
L 556 3672 
Q 556 4006 616 4169 
Q 697 4388 901 4523 
Q 1106 4659 1475 4659 
Q 1713 4659 2000 4603 
L 1916 4113 
Q 1741 4144 1584 4144 
Q 1328 4144 1222 4034 
Q 1116 3925 1116 3625 
L 1116 3319 
L 1763 3319 
L 1763 2881 
L 1116 2881 
L 1116 0 
L 556 0 
z
" transform="scale(0.015625)"/>
       <path id="ArialMT-78" d="M 47 0 
L 1259 1725 
L 138 3319 
L 841 3319 
L 1350 2541 
Q 1494 2319 1581 2169 
Q 1719 2375 1834 2534 
L 2394 3319 
L 3066 3319 
L 1919 1756 
L 3153 0 
L 2463 0 
L 1781 1031 
L 1600 1309 
L 728 0 
L 47 0 
z
" transform="scale(0.015625)"/>
       <path id="ArialMT-70" d="M 422 -1272 
L 422 3319 
L 934 3319 
L 934 2888 
Q 1116 3141 1344 3267 
Q 1572 3394 1897 3394 
Q 2322 3394 2647 3175 
Q 2972 2956 3137 2557 
Q 3303 2159 3303 1684 
Q 3303 1175 3120 767 
Q 2938 359 2589 142 
Q 2241 -75 1856 -75 
Q 1575 -75 1351 44 
Q 1128 163 984 344 
L 984 -1272 
L 422 -1272 
z
M 931 1641 
Q 931 1000 1190 694 
Q 1450 388 1819 388 
Q 2194 388 2461 705 
Q 2728 1022 2728 1688 
Q 2728 2322 2467 2637 
Q 2206 2953 1844 2953 
Q 1484 2953 1207 2617 
Q 931 2281 931 1641 
z
" transform="scale(0.015625)"/>
       <path id="ArialMT-69" d="M 425 3934 
L 425 4581 
L 988 4581 
L 988 3934 
L 425 3934 
z
M 425 0 
L 425 3319 
L 988 3319 
L 988 0 
L 425 0 
z
" transform="scale(0.015625)"/>
       <path id="ArialMT-6e" d="M 422 0 
L 422 3319 
L 928 3319 
L 928 2847 
Q 1294 3394 1984 3394 
Q 2284 3394 2536 3286 
Q 2788 3178 2913 3003 
Q 3038 2828 3088 2588 
Q 3119 2431 3119 2041 
L 3119 0 
L 2556 0 
L 2556 2019 
Q 2556 2363 2490 2533 
Q 2425 2703 2258 2804 
Q 2091 2906 1866 2906 
Q 1506 2906 1245 2678 
Q 984 2450 984 1813 
L 984 0 
L 422 0 
z
" transform="scale(0.015625)"/>
       <path id="ArialMT-74" d="M 1650 503 
L 1731 6 
Q 1494 -44 1306 -44 
Q 1000 -44 831 53 
Q 663 150 594 308 
Q 525 466 525 972 
L 525 2881 
L 113 2881 
L 113 3319 
L 525 3319 
L 525 4141 
L 1084 4478 
L 1084 3319 
L 1650 3319 
L 1650 2881 
L 1084 2881 
L 1084 941 
Q 1084 700 1114 631 
Q 1144 563 1211 522 
Q 1278 481 1403 481 
Q 1497 481 1650 503 
z
" transform="scale(0.015625)"/>
       <path id="ArialMT-73" d="M 197 991 
L 753 1078 
Q 800 744 1014 566 
Q 1228 388 1613 388 
Q 2000 388 2187 545 
Q 2375 703 2375 916 
Q 2375 1106 2209 1216 
Q 2094 1291 1634 1406 
Q 1016 1563 777 1677 
Q 538 1791 414 1992 
Q 291 2194 291 2438 
Q 291 2659 392 2848 
Q 494 3038 669 3163 
Q 800 3259 1026 3326 
Q 1253 3394 1513 3394 
Q 1903 3394 2198 3281 
Q 2494 3169 2634 2976 
Q 2775 2784 2828 2463 
L 2278 2388 
Q 2241 2644 2061 2787 
Q 1881 2931 1553 2931 
Q 1166 2931 1000 2803 
Q 834 2675 834 2503 
Q 834 2394 903 2306 
Q 972 2216 1119 2156 
Q 1203 2125 1616 2013 
Q 2213 1853 2448 1751 
Q 2684 1650 2818 1456 
Q 2953 1263 2953 975 
Q 2953 694 2789 445 
Q 2625 197 2315 61 
Q 2006 -75 1616 -75 
Q 969 -75 630 194 
Q 291 463 197 991 
z
" transform="scale(0.015625)"/>
      </defs>
      <use xlink:href="#ArialMT-4e"/>
      <use xlink:href="#ArialMT-75" x="72.216797"/>
      <use xlink:href="#ArialMT-6d" x="127.832031"/>
      <use xlink:href="#ArialMT-62" x="211.132812"/>
      <use xlink:href="#ArialMT-65" x="266.748047"/>
      <use xlink:href="#ArialMT-72" x="322.363281"/>
      <use xlink:href="#ArialMT-20" x="355.664062"/>
      <use xlink:href="#ArialMT-6f" x="383.447266"/>
      <use xlink:href="#ArialMT-66" x="439.0625"/>
      <use xlink:href="#ArialMT-20" x="466.845703"/>
      <use xlink:href="#ArialMT-65" x="494.628906"/>
      <use xlink:href="#ArialMT-78" x="550.244141"/>
      <use xlink:href="#ArialMT-70" x="600.244141"/>
      <use xlink:href="#ArialMT-65" x="655.859375"/>
      <use xlink:href="#ArialMT-72" x="711.474609"/>
      <use xlink:href="#ArialMT-69" x="744.775391"/>
      <use xlink:href="#ArialMT-6d" x="766.992188"/>
      <use xlink:href="#ArialMT-65" x="850.292969"/>
      <use xlink:href="#ArialMT-6e" x="905.908203"/>
      <use xlink:href="#ArialMT-74" x="961.523438"/>
      <use xlink:href="#ArialMT-73" x="989.306641"/>
     </g>
    </g>
   </g>
   <g id="matplotlib.axis_2">
    <g id="ytick_1">
     <g id="line2d_7">
      <defs>
       <path id="m9feefd81cc" d="M 0 0 
L -4.8 0 
" style="stroke: #262626"/>
      </defs>
      <g>
       <use xlink:href="#m9feefd81cc" x="41.428" y="289.525526" style="fill: #262626; stroke: #262626"/>
      </g>
     </g>
     <g id="text_8">
      <!-- 0.0 -->
      <g style="fill: #262626" transform="translate(20.896 292.674963) scale(0.088 -0.088)">
       <defs>
        <path id="ArialMT-2e" d="M 581 0 
L 581 641 
L 1222 641 
L 1222 0 
L 581 0 
z
" transform="scale(0.015625)"/>
       </defs>
       <use xlink:href="#ArialMT-30"/>
       <use xlink:href="#ArialMT-2e" x="55.615234"/>
       <use xlink:href="#ArialMT-30" x="83.398438"/>
      </g>
     </g>
    </g>
    <g id="ytick_2">
     <g id="line2d_8">
      <g>
       <use xlink:href="#m9feefd81cc" x="41.428" y="242.996178" style="fill: #262626; stroke: #262626"/>
      </g>
     </g>
     <g id="text_9">
      <!-- 0.1 -->
      <g style="fill: #262626" transform="translate(20.896 246.145615) scale(0.088 -0.088)">
       <use xlink:href="#ArialMT-30"/>
       <use xlink:href="#ArialMT-2e" x="55.615234"/>
       <use xlink:href="#ArialMT-31" x="83.398438"/>
      </g>
     </g>
    </g>
    <g id="ytick_3">
     <g id="line2d_9">
      <g>
       <use xlink:href="#m9feefd81cc" x="41.428" y="196.46683" style="fill: #262626; stroke: #262626"/>
      </g>
     </g>
     <g id="text_10">
      <!-- 0.2 -->
      <g style="fill: #262626" transform="translate(20.896 199.616267) scale(0.088 -0.088)">
       <use xlink:href="#ArialMT-30"/>
       <use xlink:href="#ArialMT-2e" x="55.615234"/>
       <use xlink:href="#ArialMT-32" x="83.398438"/>
      </g>
     </g>
    </g>
    <g id="ytick_4">
     <g id="line2d_10">
      <g>
       <use xlink:href="#m9feefd81cc" x="41.428" y="149.937482" style="fill: #262626; stroke: #262626"/>
      </g>
     </g>
     <g id="text_11">
      <!-- 0.3 -->
      <g style="fill: #262626" transform="translate(20.896 153.086919) scale(0.088 -0.088)">
       <defs>
        <path id="ArialMT-33" d="M 269 1209 
L 831 1284 
Q 928 806 1161 595 
Q 1394 384 1728 384 
Q 2125 384 2398 659 
Q 2672 934 2672 1341 
Q 2672 1728 2419 1979 
Q 2166 2231 1775 2231 
Q 1616 2231 1378 2169 
L 1441 2663 
Q 1497 2656 1531 2656 
Q 1891 2656 2178 2843 
Q 2466 3031 2466 3422 
Q 2466 3731 2256 3934 
Q 2047 4138 1716 4138 
Q 1388 4138 1169 3931 
Q 950 3725 888 3313 
L 325 3413 
Q 428 3978 793 4289 
Q 1159 4600 1703 4600 
Q 2078 4600 2393 4439 
Q 2709 4278 2876 4000 
Q 3044 3722 3044 3409 
Q 3044 3113 2884 2869 
Q 2725 2625 2413 2481 
Q 2819 2388 3044 2092 
Q 3269 1797 3269 1353 
Q 3269 753 2831 336 
Q 2394 -81 1725 -81 
Q 1122 -81 723 278 
Q 325 638 269 1209 
z
" transform="scale(0.015625)"/>
       </defs>
       <use xlink:href="#ArialMT-30"/>
       <use xlink:href="#ArialMT-2e" x="55.615234"/>
       <use xlink:href="#ArialMT-33" x="83.398438"/>
      </g>
     </g>
    </g>
    <g id="ytick_5">
     <g id="line2d_11">
      <g>
       <use xlink:href="#m9feefd81cc" x="41.428" y="103.408134" style="fill: #262626; stroke: #262626"/>
      </g>
     </g>
     <g id="text_12">
      <!-- 0.4 -->
      <g style="fill: #262626" transform="translate(20.896 106.557571) scale(0.088 -0.088)">
       <use xlink:href="#ArialMT-30"/>
       <use xlink:href="#ArialMT-2e" x="55.615234"/>
       <use xlink:href="#ArialMT-34" x="83.398438"/>
      </g>
     </g>
    </g>
    <g id="ytick_6">
     <g id="line2d_12">
      <g>
       <use xlink:href="#m9feefd81cc" x="41.428" y="56.878786" style="fill: #262626; stroke: #262626"/>
      </g>
     </g>
     <g id="text_13">
      <!-- 0.5 -->
      <g style="fill: #262626" transform="translate(20.896 60.028223) scale(0.088 -0.088)">
       <defs>
        <path id="ArialMT-35" d="M 266 1200 
L 856 1250 
Q 922 819 1161 601 
Q 1400 384 1738 384 
Q 2144 384 2425 690 
Q 2706 997 2706 1503 
Q 2706 1984 2436 2262 
Q 2166 2541 1728 2541 
Q 1456 2541 1237 2417 
Q 1019 2294 894 2097 
L 366 2166 
L 809 4519 
L 3088 4519 
L 3088 3981 
L 1259 3981 
L 1013 2750 
Q 1425 3038 1878 3038 
Q 2478 3038 2890 2622 
Q 3303 2206 3303 1553 
Q 3303 931 2941 478 
Q 2500 -78 1738 -78 
Q 1113 -78 717 272 
Q 322 622 266 1200 
z
" transform="scale(0.015625)"/>
       </defs>
       <use xlink:href="#ArialMT-30"/>
       <use xlink:href="#ArialMT-2e" x="55.615234"/>
       <use xlink:href="#ArialMT-35" x="83.398438"/>
      </g>
     </g>
    </g>
    <g id="ytick_7">
     <g id="line2d_13">
      <g>
       <use xlink:href="#m9feefd81cc" x="41.428" y="10.349437" style="fill: #262626; stroke: #262626"/>
      </g>
     </g>
     <g id="text_14">
      <!-- 0.6 -->
      <g style="fill: #262626" transform="translate(20.896 13.498875) scale(0.088 -0.088)">
       <use xlink:href="#ArialMT-30"/>
       <use xlink:href="#ArialMT-2e" x="55.615234"/>
       <use xlink:href="#ArialMT-36" x="83.398438"/>
      </g>
     </g>
    </g>
    <g id="text_15">
     <!-- $p(H|I)$ -->
     <g style="fill: #262626" transform="translate(14.592 170.024531) rotate(-90) scale(0.096 -0.096)">
      <defs>
       <path id="DejaVuSans-Oblique-70" d="M 3175 2156 
Q 3175 2616 2975 2859 
Q 2775 3103 2400 3103 
Q 2144 3103 1911 2972 
Q 1678 2841 1497 2591 
Q 1319 2344 1212 1994 
Q 1106 1644 1106 1300 
Q 1106 863 1306 627 
Q 1506 391 1875 391 
Q 2147 391 2380 519 
Q 2613 647 2778 891 
Q 2956 1147 3065 1494 
Q 3175 1841 3175 2156 
z
M 1394 2969 
Q 1625 3272 1939 3428 
Q 2253 3584 2638 3584 
Q 3175 3584 3472 3232 
Q 3769 2881 3769 2247 
Q 3769 1728 3584 1258 
Q 3400 788 3053 416 
Q 2822 169 2531 39 
Q 2241 -91 1919 -91 
Q 1547 -91 1294 64 
Q 1041 219 916 525 
L 556 -1331 
L -19 -1331 
L 922 3500 
L 1497 3500 
L 1394 2969 
z
" transform="scale(0.015625)"/>
       <path id="DejaVuSans-28" d="M 1984 4856 
Q 1566 4138 1362 3434 
Q 1159 2731 1159 2009 
Q 1159 1288 1364 580 
Q 1569 -128 1984 -844 
L 1484 -844 
Q 1016 -109 783 600 
Q 550 1309 550 2009 
Q 550 2706 781 3412 
Q 1013 4119 1484 4856 
L 1984 4856 
z
" transform="scale(0.015625)"/>
       <path id="DejaVuSans-Oblique-48" d="M 1081 4666 
L 1716 4666 
L 1344 2753 
L 3634 2753 
L 4006 4666 
L 4641 4666 
L 3731 0 
L 3097 0 
L 3531 2222 
L 1241 2222 
L 806 0 
L 172 0 
L 1081 4666 
z
" transform="scale(0.015625)"/>
       <path id="DejaVuSans-7c" d="M 1344 4891 
L 1344 -1509 
L 813 -1509 
L 813 4891 
L 1344 4891 
z
" transform="scale(0.015625)"/>
       <path id="DejaVuSans-Oblique-49" d="M 1081 4666 
L 1716 4666 
L 806 0 
L 172 0 
L 1081 4666 
z
" transform="scale(0.015625)"/>
       <path id="DejaVuSans-29" d="M 513 4856 
L 1013 4856 
Q 1481 4119 1714 3412 
Q 1947 2706 1947 2009 
Q 1947 1309 1714 600 
Q 1481 -109 1013 -844 
L 513 -844 
Q 928 -128 1133 580 
Q 1338 1288 1338 2009 
Q 1338 2731 1133 3434 
Q 928 4138 513 4856 
z
" transform="scale(0.015625)"/>
      </defs>
      <use xlink:href="#DejaVuSans-Oblique-70" transform="translate(0 0.578125)"/>
      <use xlink:href="#DejaVuSans-28" transform="translate(63.476562 0.578125)"/>
      <use xlink:href="#DejaVuSans-Oblique-48" transform="translate(102.490234 0.578125)"/>
      <use xlink:href="#DejaVuSans-7c" transform="translate(177.685547 0.578125)"/>
      <use xlink:href="#DejaVuSans-Oblique-49" transform="translate(211.376953 0.578125)"/>
      <use xlink:href="#DejaVuSans-29" transform="translate(240.869141 0.578125)"/>
     </g>
    </g>
   </g>
   <g id="line2d_14">
    <path d="M 59.875091 56.878786 
L 428.816909 56.878786 
L 428.816909 56.878786 
" clip-path="url(#pb23b6589d4)" style="fill: none; stroke-dasharray: 4.44,1.92; stroke-dashoffset: 0; stroke: #ff0000; stroke-width: 1.2"/>
   </g>
   <g id="line2d_15">
    <path d="M 59.875091 289.525526 
L 59.911989 56.878786 
L 59.985785 173.202156 
L 60.096478 23.643537 
L 60.133376 56.878786 
L 60.207172 103.408134 
L 60.24407 78.028489 
L 60.354763 23.643537 
L 60.391661 41.369003 
L 60.539253 93.612481 
L 60.613048 90.114034 
L 60.649946 99.178193 
L 60.686844 87.224012 
L 60.76064 66.184655 
L 60.797538 74.774689 
L 60.908231 96.990292 
L 60.945129 87.898351 
L 61.166516 56.878786 
L 61.240312 69.123351 
L 61.314108 68.511123 
L 61.351006 62.553096 
L 61.387904 67.957202 
L 61.424802 73.109953 
L 61.461699 67.453637 
L 61.683087 47.572916 
L 61.79378 52.489224 
L 61.830678 48.26224 
L 61.867576 52.648845 
L 61.941372 60.960307 
L 61.97827 56.878786 
L 62.052065 49.123894 
L 62.125861 49.374052 
L 62.236555 53.299605 
L 62.273453 49.828884 
L 62.31035 53.406446 
L 62.347248 50.036234 
L 62.421044 56.878786 
L 62.457942 53.602071 
L 62.568636 44.303286 
L 62.605533 47.572916 
L 62.826921 65.495331 
L 62.900716 65.287704 
L 63.159001 51.708858 
L 63.195899 54.322228 
L 63.232797 51.821248 
L 63.306593 46.978924 
L 63.343491 49.532046 
L 63.380389 52.031978 
L 63.417287 49.683526 
L 63.52798 42.919981 
L 63.601776 43.193683 
L 63.638674 45.585254 
L 63.675572 43.456858 
L 63.749367 39.320541 
L 63.823163 39.645694 
L 63.860061 41.938169 
L 63.896959 39.959023 
L 64.04455 32.389655 
L 64.118346 32.811881 
L 64.339733 41.623262 
L 64.450427 36.405872 
L 64.487325 38.414759 
L 64.671814 44.44728 
L 64.708712 42.778983 
L 64.74561 44.63422 
L 64.856304 46.614959 
L 64.966997 41.815328 
L 65.003895 43.584686 
L 65.077691 47.048642 
L 65.114589 45.490484 
L 65.372874 38.267046 
L 65.520465 41.771854 
L 65.926342 30.089161 
L 66.147729 39.192191 
L 66.184627 37.942423 
L 66.332218 33.085369 
L 66.406014 33.352711 
L 66.627401 39.177403 
L 66.701197 39.367741 
L 66.885687 33.735916 
L 66.99638 37.691426 
L 67.033278 36.596762 
L 67.180869 32.328125 
L 67.217767 33.614112 
L 67.402257 37.586129 
L 67.476052 37.772531 
L 67.623644 33.724371 
L 67.918827 40.944077 
L 67.992623 41.088283 
L 68.103316 38.183958 
L 68.21401 39.455902 
L 68.472295 35.006015 
L 68.73058 40.46802 
L 68.767478 39.574483 
L 68.804376 40.603088 
L 68.841274 39.716321 
L 68.878172 40.73595 
L 68.915069 39.855853 
L 68.951967 38.982882 
L 68.988865 39.993135 
L 69.025763 40.995273 
L 69.062661 40.12822 
L 69.136457 38.414759 
L 69.173355 39.407291 
L 69.320946 41.489702 
L 69.394742 39.812036 
L 69.43164 40.772473 
L 69.542333 41.840783 
L 69.579231 41.016508 
L 69.616129 41.954278 
L 69.653027 41.135773 
L 69.874414 44.904321 
L 69.94821 44.991726 
L 70.022006 43.392018 
L 70.058903 44.280587 
L 70.095801 43.489045 
L 70.169597 43.584686 
L 70.317189 40.495212 
L 70.501678 43.193683 
L 70.612372 40.944077 
L 70.649269 41.792478 
L 70.759963 42.731349 
L 70.833759 41.26491 
L 70.907555 41.369003 
L 71.202737 46.303934 
L 71.239635 45.585254 
L 71.276533 46.372159 
L 71.387227 47.216141 
L 71.461023 47.277491 
L 71.608614 44.480683 
L 71.830001 49.004588 
L 71.866899 48.315102 
L 71.940695 46.948742 
L 71.977593 47.686057 
L 72.088286 48.469867 
L 72.19898 46.461767 
L 72.235878 47.185171 
L 72.309674 48.619138 
L 72.346572 47.957229 
L 72.383469 47.299214 
L 72.420367 48.009555 
L 72.641754 52.185624 
L 72.678652 51.530585 
L 72.71555 50.879299 
L 72.752448 51.561146 
L 73.010733 54.923771 
L 73.047631 54.279381 
L 73.084529 54.934662 
L 73.121427 54.293822 
L 73.23212 54.956085 
L 73.269018 54.322228 
L 73.305916 54.966621 
L 73.527303 57.505866 
L 73.711793 55.641303 
L 73.785589 56.878786 
L 73.822486 56.264942 
L 74.006976 54.455382 
L 74.043874 55.065954 
L 74.080771 54.467938 
L 74.117669 53.873014 
L 74.154567 54.480366 
L 74.412852 58.645723 
L 74.486648 58.636821 
L 74.597342 58.042019 
L 74.63424 58.619285 
L 74.671137 58.036232 
L 74.781831 57.453222 
L 74.855627 58.593626 
L 74.929423 58.585241 
L 75.077014 57.442095 
L 75.113912 58.002683 
L 75.15081 57.43938 
L 75.261503 55.765643 
L 75.335299 55.770944 
L 75.372197 56.32618 
L 75.409095 55.776194 
L 75.519788 54.141765 
L 75.556686 54.694309 
L 75.593584 55.244265 
L 75.630482 54.704517 
L 75.704278 53.632552 
L 75.741176 54.179867 
L 76.073257 57.936271 
L 76.18395 57.403947 
L 76.405337 59.469506 
L 76.589827 57.903661 
L 76.626725 58.41272 
L 76.70052 58.406007 
L 76.88501 56.878786 
L 77.032601 57.877269 
L 77.069499 57.376958 
L 77.106397 57.873002 
L 77.217091 59.348496 
L 77.290886 59.338053 
L 77.364682 58.348133 
L 77.40158 58.8338 
L 77.438478 59.317431 
L 77.475376 58.82562 
L 77.586069 58.329805 
L 77.622967 58.809464 
L 77.659865 58.323796 
L 77.844354 55.925315 
L 77.881252 56.403025 
L 77.991946 56.878786 
L 78.397822 52.71612 
L 78.471618 53.653979 
L 78.508516 53.200576 
L 78.545414 52.748962 
L 78.582312 53.215057 
L 78.840597 56.427044 
L 78.877495 55.977054 
L 78.988188 55.534007 
L 79.098882 56.878786 
L 79.13578 56.433954 
L 79.246474 55.109609 
L 79.283371 55.554421 
L 79.615452 58.614955 
L 79.726146 57.310412 
L 79.763044 57.74044 
L 79.984431 59.435343 
L 80.058227 58.576937 
L 80.095125 58.997608 
L 80.16892 59.83437 
L 80.242716 59.823681 
L 80.279614 59.398425 
L 80.316512 59.813069 
L 80.390308 60.637889 
L 80.427205 60.214223 
L 80.648593 58.528762 
L 80.68549 58.937606 
L 80.722388 58.522932 
L 81.017571 56.06817 
L 81.312754 58.477732 
L 81.423448 58.071846 
L 81.534142 59.252732 
L 81.607937 59.244685 
L 81.644835 58.847032 
L 81.681733 59.236692 
L 81.718631 59.625037 
L 81.755529 59.228753 
L 81.866222 58.827251 
L 81.90312 59.213034 
L 81.940018 58.820745 
L 82.272099 56.1135 
L 82.456588 57.258307 
L 82.641078 56.125883 
L 82.825567 57.252215 
L 83.010056 55.396959 
L 83.046954 55.769183 
L 83.194546 56.511255 
L 83.268342 55.779667 
L 83.305239 56.147192 
L 83.452831 56.878786 
L 83.674218 55.438248 
L 83.82181 56.162949 
L 83.932503 55.097417 
L 83.969401 55.45587 
L 84.116993 56.171653 
L 84.375278 54.429872 
L 84.522869 55.140021 
L 84.744256 53.776829 
L 84.781154 54.12557 
L 84.818052 53.785993 
L 84.85495 53.447418 
L 84.891848 53.795103 
L 85.223929 56.878786 
L 85.260827 56.541127 
L 85.482214 55.205068 
L 85.740499 56.878786 
L 85.777397 56.547851 
L 85.814295 56.878786 
L 86.035682 58.189471 
L 86.07258 57.860417 
L 86.109478 58.18579 
L 86.293967 59.799037 
L 86.330865 59.47095 
L 86.662946 57.198795 
L 86.810537 57.83356 
L 86.921231 56.878786 
L 86.958129 57.195312 
L 86.995027 57.510978 
L 87.031924 57.194453 
L 87.10572 56.563973 
L 87.142618 56.878786 
L 87.179516 57.192749 
L 87.216414 56.878786 
L 87.364005 56.255068 
L 87.474699 56.568176 
L 87.548495 55.949438 
L 87.585392 56.260044 
L 87.659188 56.878786 
L 87.696086 56.570644 
L 87.732984 56.263318 
L 87.769882 56.571458 
L 87.917473 57.184497 
L 87.954371 56.878786 
L 87.991269 57.183696 
L 88.028167 57.487808 
L 88.065065 57.182899 
L 88.101963 56.878786 
L 88.138861 57.182106 
L 88.32335 58.084209 
L 88.434044 57.178975 
L 88.470941 57.478391 
L 88.692329 58.663799 
L 88.876818 57.765622 
L 89.098205 59.519165 
L 89.135103 59.222833 
L 89.319592 58.334647 
L 89.35649 58.623636 
L 89.393388 58.331012 
L 89.614775 57.167071 
L 89.725469 57.453222 
L 89.873061 56.878786 
L 89.946856 57.448998 
L 89.983754 57.163543 
L 90.205141 56.030742 
L 90.352733 57.1601 
L 90.389631 56.878786 
L 90.57412 55.482346 
L 90.611018 55.762974 
L 90.647916 56.042929 
L 90.684814 55.765643 
L 90.795507 55.492333 
L 90.979997 56.32749 
L 91.053792 55.778801 
L 91.09069 56.054771 
L 91.127588 56.33009 
L 91.164486 56.056712 
L 91.238282 55.511883 
L 91.27518 55.786547 
L 91.533465 57.14962 
L 91.79175 55.804205 
L 91.939341 56.343965 
L 92.123831 55.549376 
L 92.382116 56.878786 
L 92.455912 56.352435 
L 92.492809 56.615908 
L 92.566605 57.14107 
L 92.603503 56.878786 
L 92.714197 56.617678 
L 92.898686 57.398086 
L 93.193869 55.849375 
L 93.267665 56.365217 
L 93.304563 56.109281 
L 93.415256 55.856162 
L 93.52595 56.114338 
L 93.562848 55.860638 
L 93.599746 56.116009 
L 93.710439 56.878786 
L 93.747337 56.625633 
L 93.858031 56.374129 
L 93.894929 56.626731 
L 93.931826 56.375221 
L 93.968724 56.124256 
L 94.005622 56.376309 
L 94.079418 56.878786 
L 94.116316 56.628358 
L 94.300805 55.88244 
L 94.337703 56.132325 
L 94.374601 55.884569 
L 94.448397 55.39064 
L 94.485294 55.639985 
L 94.74358 56.878786 
L 94.780477 56.633118 
L 94.817375 56.878786 
L 94.928069 57.612687 
L 94.964967 57.367539 
L 95.186354 56.393093 
L 95.223252 56.636192 
L 95.26015 56.394105 
L 95.333946 55.911439 
L 95.370843 56.154029 
L 95.739822 58.074298 
L 95.850516 57.832256 
L 95.998107 58.303153 
L 96.367086 56.408792 
L 96.403984 56.644026 
L 96.440882 56.40974 
L 96.625371 55.712052 
L 96.80986 56.878786 
L 96.846758 56.646835 
L 97.031248 55.955584 
L 97.068145 56.187071 
L 97.105043 55.957412 
L 97.215737 55.73048 
L 97.363328 56.192512 
L 97.51092 55.739477 
L 97.547818 55.968231 
L 97.584716 55.741705 
L 97.658511 55.289979 
L 97.695409 55.518278 
L 97.953694 56.653571 
L 98.02749 56.204447 
L 98.064388 56.429661 
L 98.101286 56.65444 
L 98.138184 56.430526 
L 98.175082 56.207043 
L 98.21198 56.431388 
L 98.359571 56.878786 
L 98.396469 56.656157 
L 98.433367 56.878786 
L 98.470265 57.100989 
L 98.507162 56.878786 
L 98.580958 56.435649 
L 98.617856 56.657428 
L 98.654754 56.878786 
L 98.691652 56.657848 
L 98.876141 55.999214 
L 99.134426 57.097233 
L 99.208222 56.660747 
L 99.24512 56.878786 
L 99.355814 57.096009 
L 99.392711 56.878786 
L 99.429609 57.095604 
L 99.466507 57.31202 
L 99.503405 57.095201 
L 99.724792 56.233142 
L 99.76169 56.448755 
L 99.798588 56.234335 
L 99.835486 56.02031 
L 99.872384 56.235523 
L 100.056873 56.878786 
L 100.204465 56.453472 
L 100.241362 56.666323 
L 100.27826 56.454248 
L 100.352056 56.031256 
L 100.388954 56.243717 
L 100.425852 56.455791 
L 100.46275 56.244871 
L 100.499648 56.034333 
L 100.536545 56.24602 
L 100.573443 56.457324 
L 100.610341 56.247165 
L 100.757933 55.829882 
L 100.794831 56.040419 
L 100.831728 55.83177 
L 100.905524 55.415598 
L 100.942422 55.625751 
L 101.053116 55.837395 
L 101.200707 55.42604 
L 101.237605 55.634685 
L 101.274503 55.428628 
L 101.311401 55.222937 
L 101.348299 55.431206 
L 101.606584 56.467749 
L 101.754175 56.059607 
L 101.827971 56.469916 
L 101.864869 56.26602 
L 101.901767 56.062481 
L 101.938665 56.267094 
L 102.270745 57.687992 
L 102.455235 57.080211 
L 102.565928 57.280593 
L 102.602826 57.079516 
L 102.639724 57.279901 
L 102.750418 57.478906 
L 102.898009 56.679431 
L 102.934907 56.878786 
L 103.119396 57.47379 
L 103.23009 56.878786 
L 103.266988 57.076446 
L 103.451477 57.666084 
L 103.672865 56.878786 
L 103.709762 57.074451 
L 103.74666 56.878786 
L 103.93115 56.294735 
L 104.004945 56.684427 
L 104.041843 56.490394 
L 104.078741 56.296684 
L 104.115639 56.491041 
L 104.226333 57.072174 
L 104.26323 56.878786 
L 104.410822 56.108432 
L 104.44772 56.301498 
L 104.595311 56.686991 
L 104.779801 55.732742 
L 104.816699 55.924533 
L 104.890494 56.307172 
L 104.927392 56.117258 
L 104.96429 55.927654 
L 105.001188 56.118502 
L 105.111881 56.309967 
L 105.370167 55.370541 
L 105.591554 56.128312 
L 105.702247 55.568627 
L 105.739145 55.756695 
L 105.923635 56.319986 
L 105.960533 56.134316 
L 105.99743 56.32088 
L 106.18192 57.249242 
L 106.218818 57.063866 
L 106.255716 56.878786 
L 106.292613 57.063572 
L 106.403307 57.247481 
L 106.440205 57.062987 
L 106.477103 57.246897 
L 106.514001 57.430517 
L 106.550898 57.246316 
L 106.772286 56.512989 
L 106.846081 56.878786 
L 106.882979 56.696317 
L 107.030571 55.969299 
L 107.067469 56.151764 
L 107.104367 56.333945 
L 107.141264 56.152899 
L 107.21506 55.791651 
L 107.251958 55.973545 
L 107.288856 56.155156 
L 107.325754 55.974952 
L 107.436447 55.796708 
L 107.547141 55.979146 
L 107.657835 55.442695 
L 107.694733 55.623175 
L 107.842324 55.984678 
L 107.879222 55.806681 
L 107.91612 55.986051 
L 107.953018 56.165145 
L 107.989915 55.987419 
L 108.100609 55.811599 
L 108.174405 56.168414 
L 108.211303 55.991498 
L 108.321996 55.816472 
L 108.43269 55.99554 
L 108.506486 55.644117 
L 108.543384 55.8213 
L 108.727873 56.352038 
L 108.838567 56.178042 
L 109.023056 57.053314 
L 109.059954 56.878786 
L 109.170647 56.356766 
L 109.207545 56.531033 
L 109.281341 56.878786 
L 109.318239 56.705298 
L 109.355137 56.532069 
L 109.392035 56.705556 
L 109.613422 57.396162 
L 109.908605 56.36446 
L 109.982401 56.707596 
L 110.019298 56.536658 
L 110.240686 55.856911 
L 110.351379 56.02909 
L 110.388277 55.859895 
L 110.425175 56.030329 
L 110.498971 56.370453 
L 110.535869 56.201502 
L 110.757256 55.530109 
L 110.831052 55.868742 
L 110.867949 55.701253 
L 110.941745 55.367002 
L 110.978643 55.535947 
L 111.015541 55.704649 
L 111.052439 55.537882 
L 111.126235 55.205068 
L 111.163132 55.373523 
L 111.273826 55.877437 
L 111.310724 55.711383 
L 111.421418 55.547474 
L 111.569009 55.88315 
L 111.827294 55.062523 
L 112.011783 55.562538 
L 112.085579 55.2358 
L 112.122477 55.401142 
L 112.270069 55.732742 
L 112.343864 55.407373 
L 112.380762 55.571781 
L 112.454558 55.899907 
L 112.491456 55.737561 
L 112.528354 55.575442 
L 112.565252 55.739158 
L 112.749741 56.229841 
L 112.786639 56.06817 
L 112.823537 56.230744 
L 112.860435 56.393093 
L 112.897332 56.231646 
L 113.155618 55.429775 
L 113.229413 55.753335 
L 113.266311 55.593444 
L 113.413903 55.276535 
L 113.4508 55.437753 
L 113.487698 55.278739 
L 113.524596 55.119944 
L 113.561494 55.280937 
L 113.63529 55.60226 
L 113.672188 55.443679 
L 113.893575 54.814343 
L 113.967371 55.134331 
L 114.004269 54.977041 
L 114.262554 54.197433 
L 114.336349 54.51609 
L 114.373247 54.360282 
L 114.483941 53.894121 
L 114.520839 54.053117 
L 114.557737 54.211898 
L 114.594634 54.056925 
L 114.742226 53.751813 
L 114.926715 54.22976 
L 115.111205 53.772688 
L 115.148103 53.929961 
L 115.185 53.776829 
L 115.258796 53.471177 
L 115.295694 53.628232 
L 115.443286 53.945615 
L 115.627775 53.493714 
L 115.812264 53.96495 
L 115.996754 53.515955 
L 116.070549 53.825679 
L 116.107447 53.675125 
L 116.328834 53.079851 
L 116.550222 54.002866 
L 116.58712 53.85347 
L 116.734711 53.257825 
L 116.771609 53.410947 
L 116.882303 53.568159 
L 117.029894 52.976324 
L 117.066792 53.128838 
L 117.177486 53.585202 
L 117.214383 53.437708 
L 117.251281 53.290404 
L 117.288179 53.442128 
L 117.509566 54.050706 
L 117.546464 53.903763 
L 117.583362 54.05432 
L 117.62026 54.204685 
L 117.657158 54.057925 
L 117.694056 53.911353 
L 117.730954 54.061521 
L 117.767851 54.211498 
L 117.804749 54.065108 
L 118.099932 53.195335 
L 118.32132 53.7964 
L 118.505809 53.074499 
L 118.542707 53.223117 
L 118.616503 53.519793 
L 118.6534 53.375949 
L 118.911685 52.664697 
L 119.096175 53.1124 
L 119.133073 52.969973 
L 119.169971 53.117084 
L 119.317562 53.703706 
L 119.35446 53.561442 
L 119.686541 52.575825 
L 119.723439 52.72182 
L 119.760337 52.581124 
L 119.87103 52.446057 
L 120.055519 52.887297 
L 120.092417 52.747276 
L 120.129315 52.892183 
L 120.203111 53.181466 
L 120.240009 53.041607 
L 120.3876 52.483875 
L 120.424498 52.628236 
L 120.756579 53.637795 
L 120.867273 53.221703 
L 120.904171 53.364484 
L 121.125558 53.937436 
L 121.273149 53.665047 
L 121.310047 53.80662 
L 121.346945 53.668902 
L 121.420741 53.393963 
L 121.457639 53.535359 
L 121.568332 53.680414 
L 121.642128 53.406446 
L 121.679026 53.547329 
L 121.937311 54.252352 
L 121.974209 54.11576 
L 122.011107 54.255469 
L 122.048005 54.395012 
L 122.084902 54.258579 
L 122.380085 53.447418 
L 122.453881 53.725648 
L 122.490779 53.590492 
L 122.712166 53.055952 
L 122.859758 53.337325 
L 123.191839 52.407415 
L 123.302532 52.820994 
L 123.33943 52.68817 
L 123.487022 52.428152 
L 123.597715 52.570513 
L 123.782205 52.180207 
L 123.929796 52.458899 
L 124.003592 52.196419 
L 124.04049 52.332815 
L 124.224979 53.01245 
L 124.261877 52.881419 
L 124.630856 51.844289 
L 124.778447 52.120102 
L 124.999834 51.609324 
L 125.07363 51.87846 
L 125.110528 51.749773 
L 125.147426 51.621232 
L 125.184324 51.755565 
L 125.221222 51.889747 
L 125.258119 51.761345 
L 125.479507 51.255508 
L 125.663996 51.662491 
L 125.77469 51.54106 
L 125.885383 51.679976 
L 125.922281 51.552981 
L 125.959179 51.685778 
L 126.254362 52.484347 
L 126.365056 52.362626 
L 126.475749 52.498947 
L 126.623341 52.251558 
L 126.80783 52.648845 
L 126.992319 52.276982 
L 127.287502 53.060732 
L 127.471992 52.690383 
L 127.693379 53.210077 
L 127.767175 52.961323 
L 127.804073 53.089751 
L 127.84097 53.218039 
L 127.877868 53.09386 
L 127.988562 52.974049 
L 128.173051 53.361448 
L 128.394438 52.871953 
L 128.652724 53.510709 
L 128.763417 53.391575 
L 128.800315 53.517918 
L 128.837213 53.395305 
L 129.095498 52.788566 
L 129.132396 52.914624 
L 129.169294 52.792919 
L 129.279987 52.675816 
L 129.427579 52.931439 
L 129.648966 52.452103 
L 129.870353 52.956396 
L 130.054843 52.599944 
L 130.165536 52.728739 
L 130.386924 52.255053 
L 130.423821 52.379084 
L 130.460719 52.259885 
L 130.719004 51.67118 
L 130.755902 51.794934 
L 130.7928 51.676596 
L 130.977289 51.328085 
L 131.198677 51.826478 
L 131.272472 51.59136 
L 131.30937 51.714196 
L 131.456962 51.964558 
L 131.641451 51.61853 
L 131.789043 51.867933 
L 131.862838 51.634699 
L 131.899736 51.756507 
L 132.047328 52.004735 
L 132.121124 51.772196 
L 132.158021 51.893498 
L 132.342511 52.261369 
L 132.379409 52.145383 
L 132.416306 52.266064 
L 132.600796 52.631685 
L 132.711489 52.52034 
L 132.822183 52.879802 
L 132.859081 52.764265 
L 132.895979 52.648845 
L 132.932877 52.768419 
L 132.969775 52.887873 
L 133.006672 52.772565 
L 133.191162 52.197765 
L 133.22806 52.317085 
L 133.338753 52.440745 
L 133.375651 52.32624 
L 133.412549 52.445197 
L 133.670834 53.042033 
L 133.74463 52.813565 
L 133.781528 52.931685 
L 133.818426 53.049687 
L 133.855323 52.93562 
L 133.966017 52.594102 
L 134.002915 52.711978 
L 134.113609 53.064905 
L 134.150506 52.951283 
L 134.2612 52.841782 
L 134.408792 53.080002 
L 134.630179 52.63215 
L 134.77777 52.86961 
L 134.814668 52.757091 
L 134.851566 52.873554 
L 134.999157 53.10984 
L 135.109851 53.00134 
L 135.183647 53.232999 
L 135.220545 53.120909 
L 135.257443 53.008928 
L 135.29434 53.124584 
L 135.331238 53.240127 
L 135.368136 53.128252 
L 135.441932 52.904829 
L 135.47883 53.020254 
L 135.515728 53.135566 
L 135.552626 53.024015 
L 135.700217 52.805204 
L 135.737115 52.920285 
L 135.774013 52.809163 
L 135.884706 52.702206 
L 136.032298 52.93562 
L 136.069196 52.824922 
L 136.106094 52.939436 
L 136.401277 53.627337 
L 136.438174 53.516838 
L 136.475072 53.630468 
L 136.51197 53.743988 
L 136.548868 53.633593 
L 136.770255 53.196607 
L 136.880949 53.313318 
L 136.917847 53.203657 
L 136.954745 53.31673 
L 137.102336 53.545738 
L 137.286826 53.221166 
L 137.397519 53.337065 
L 137.655804 52.797264 
L 137.692702 52.909457 
L 137.7296 52.801131 
L 137.914089 52.261034 
L 137.950987 52.373109 
L 138.098579 52.600981 
L 138.283068 52.063895 
L 138.319966 52.175537 
L 138.356864 52.287074 
L 138.393762 52.179955 
L 138.541353 51.970626 
L 138.652047 52.086437 
L 138.688945 51.979813 
L 138.725843 52.09092 
L 138.836536 52.206291 
L 138.94723 51.887298 
L 138.984128 51.998085 
L 139.057923 52.219349 
L 139.094821 52.11321 
L 139.242413 51.905853 
L 139.316208 52.126484 
L 139.353106 52.020733 
L 139.390004 51.91508 
L 139.426902 52.025237 
L 139.685187 52.578476 
L 139.832779 52.371791 
L 140.017268 52.703349 
L 140.275553 52.183163 
L 140.460042 52.513332 
L 140.570736 52.412989 
L 140.718328 52.633407 
L 140.829021 52.321241 
L 140.865919 52.429258 
L 140.902817 52.537176 
L 140.939715 52.433306 
L 140.976613 52.329531 
L 141.013511 52.437348 
L 141.050408 52.545066 
L 141.087306 52.441382 
L 141.198 52.34191 
L 141.234898 52.449428 
L 141.271796 52.346022 
L 141.419387 52.143777 
L 141.456285 52.251093 
L 141.493183 52.148056 
L 141.603877 51.839506 
L 141.640774 51.946717 
L 141.71457 52.160848 
L 141.751468 52.058177 
L 141.788366 51.955599 
L 141.825264 52.062516 
L 141.899059 52.276062 
L 141.935957 52.173571 
L 142.083549 51.973269 
L 142.120447 52.079794 
L 142.157345 51.977666 
L 142.268038 51.671831 
L 142.304936 51.778253 
L 142.600119 52.418772 
L 142.637017 52.317085 
L 142.673915 52.422746 
L 142.710813 52.528312 
L 142.747711 52.426712 
L 142.969098 52.025525 
L 143.190485 52.450362 
L 143.301179 52.353385 
L 143.338076 52.458189 
L 143.374974 52.357382 
L 143.559464 52.059748 
L 143.633259 52.268877 
L 143.670157 52.168508 
L 143.743953 51.968036 
L 143.780851 52.072457 
L 144.039136 52.596944 
L 144.076034 52.496915 
L 144.112932 52.600693 
L 144.14983 52.70438 
L 144.186728 52.604436 
L 144.371217 52.30912 
L 144.518808 52.519827 
L 144.555706 52.420399 
L 144.592604 52.523622 
L 144.629502 52.626756 
L 144.6664 52.527411 
L 144.850889 52.233929 
L 144.961583 52.340813 
L 145.109174 52.147329 
L 145.146072 52.250001 
L 145.18297 52.15142 
L 145.219868 52.052924 
L 145.256766 52.155504 
L 145.588847 52.874539 
L 145.920927 52.191946 
L 146.068519 52.399067 
L 146.105417 52.301476 
L 146.142315 52.402897 
L 146.253008 52.507967 
L 146.289906 52.410538 
L 146.326804 52.511697 
L 146.4006 52.713754 
L 146.437498 52.616404 
L 146.585089 52.22783 
L 146.621987 52.328722 
L 146.769579 52.53394 
L 146.880272 52.440844 
L 146.990966 52.544977 
L 147.027864 52.448357 
L 147.064762 52.548643 
L 147.212353 52.75245 
L 147.249251 52.655987 
L 147.286149 52.755932 
L 147.359944 52.955569 
L 147.396842 52.859183 
L 147.581332 52.574136 
L 147.728923 52.776702 
L 147.765821 52.680796 
L 147.802719 52.780143 
L 147.839617 52.879408 
L 147.876515 52.783579 
L 147.987208 52.691339 
L 148.097902 52.793851 
L 148.208596 52.507552 
L 148.245493 52.606475 
L 148.393085 52.807468 
L 148.503779 52.715735 
L 148.577574 52.912666 
L 148.614472 52.81762 
L 148.688268 52.627765 
L 148.725166 52.726104 
L 148.835859 52.827723 
L 149.094144 52.358572 
L 149.278634 52.655825 
L 149.647613 51.908518 
L 149.68451 52.006102 
L 149.721408 51.912599 
L 149.795204 51.725822 
L 149.832102 51.823321 
L 149.905898 52.018079 
L 149.942795 51.924801 
L 150.016591 51.738473 
L 150.053489 51.835727 
L 150.127285 52.029998 
L 150.164183 51.936943 
L 150.274876 51.848073 
L 150.311774 51.945005 
L 150.348672 51.852174 
L 150.496264 51.670983 
L 150.533161 51.767751 
L 150.570059 51.675219 
L 150.606957 51.582762 
L 150.643855 51.679448 
L 150.717651 51.872583 
L 150.754549 51.780196 
L 150.865242 51.503486 
L 150.90214 51.599929 
L 151.123527 51.988878 
L 151.160425 51.896855 
L 151.197323 51.992828 
L 151.234221 52.088723 
L 151.271119 51.996772 
L 151.308017 51.904894 
L 151.344915 52.000709 
L 151.640098 52.577439 
L 151.676995 52.485697 
L 151.713893 52.580894 
L 151.824587 52.866026 
L 151.861485 52.774352 
L 151.972178 52.686113 
L 152.009076 52.780925 
L 152.045974 52.689468 
L 152.156668 52.415539 
L 152.193566 52.510269 
L 152.525647 53.17422 
L 152.63634 53.086135 
L 152.783932 53.276871 
L 152.894625 53.188909 
L 152.931523 53.282581 
L 152.968421 53.191832 
L 153.189808 52.832755 
L 153.3374 53.022762 
L 153.374298 52.932509 
L 153.411195 53.025803 
L 153.521889 53.121985 
L 153.558787 53.031871 
L 153.595685 53.124942 
L 153.817072 53.499151 
L 153.85397 53.409172 
L 153.890868 53.501803 
L 154.296744 54.334212 
L 154.444336 53.975238 
L 154.481234 54.067071 
L 154.88711 54.891896 
L 155.0716 54.62533 
L 155.292987 54.990273 
L 155.625068 54.369499 
L 155.661966 54.460048 
L 155.698863 54.37143 
L 155.846455 54.196463 
L 155.957149 54.467476 
L 155.994046 54.379128 
L 156.067842 54.202634 
L 156.10474 54.292831 
L 156.326127 54.654629 
L 156.399923 54.478533 
L 156.436821 54.568314 
L 156.584412 54.926753 
L 156.62131 54.838803 
L 156.658208 54.750919 
L 156.695106 54.840357 
L 156.732004 54.929727 
L 156.768902 54.841909 
L 156.842697 54.666473 
L 156.879595 54.755773 
L 156.953391 54.93417 
L 156.990289 54.84655 
L 157.13788 54.496737 
L 157.174778 54.585831 
L 157.248574 54.763815 
L 157.285472 54.676526 
L 157.396166 54.591034 
L 157.433063 54.679856 
L 157.469961 54.592763 
L 157.728246 54.160335 
L 157.875838 54.339547 
L 158.134123 53.90957 
L 158.207919 54.086327 
L 158.244817 54.000142 
L 158.429306 53.744323 
L 158.613795 54.010895 
L 158.687591 53.839354 
L 158.724489 53.927297 
L 158.761387 54.015174 
L 158.798285 53.929498 
L 158.945876 53.587432 
L 158.982774 53.675239 
L 159.130366 54.025815 
L 159.167263 53.940454 
L 159.241059 53.76992 
L 159.277957 53.857399 
L 159.314855 53.944813 
L 159.351753 53.85964 
L 159.425549 53.689482 
L 159.462446 53.776829 
L 159.794527 54.388289 
L 159.942119 54.220456 
L 160.015914 54.393793 
L 160.052812 54.30905 
L 160.237302 54.05727 
L 160.384893 54.232162 
L 160.532485 54.065542 
L 160.643178 54.324099 
L 160.680076 54.239909 
L 160.753872 54.071713 
L 160.79077 54.157771 
L 160.864565 54.329698 
L 160.901463 54.24569 
L 160.938361 54.161743 
L 160.975259 54.247611 
L 161.085953 54.504839 
L 161.122851 54.420951 
L 161.233544 54.169653 
L 161.270442 54.255268 
L 161.381136 54.51174 
L 161.418034 54.428093 
L 161.454931 54.344507 
L 161.491829 54.429872 
L 161.528727 54.515176 
L 161.565625 54.431649 
L 161.676319 54.350017 
L 161.713217 54.435194 
L 161.750114 54.351848 
L 161.934604 54.104177 
L 162.045297 54.19117 
L 162.155991 53.942386 
L 162.192889 54.027311 
L 162.488072 54.537265 
L 162.598765 54.456252 
L 162.746357 54.626558 
L 162.857051 54.545652 
L 162.967744 54.797867 
L 163.004642 54.715404 
L 163.04154 54.633 
L 163.078438 54.71695 
L 163.262927 54.969804 
L 163.373621 54.723114 
L 163.410519 54.806763 
L 163.484314 54.973882 
L 163.521212 54.891767 
L 163.668804 54.729242 
L 163.779497 54.979291 
L 163.816395 54.897408 
L 164.037782 54.407326 
L 164.07468 54.490553 
L 164.222272 54.822876 
L 164.25917 54.741395 
L 164.369863 54.497298 
L 164.406761 54.580229 
L 164.517455 54.664664 
L 164.628148 54.585085 
L 164.665046 54.667782 
L 164.701944 54.586699 
L 164.849536 54.426431 
L 164.886433 54.509008 
L 164.923331 54.428153 
L 165.29231 53.785512 
L 165.476799 54.034693 
L 165.661289 53.796297 
L 165.80888 53.962601 
L 166.030268 53.645335 
L 166.140961 53.729454 
L 166.436144 53.255005 
L 166.473042 53.336759 
L 166.50994 53.257511 
L 166.583736 53.099181 
L 166.620633 53.180876 
L 166.657531 53.262515 
L 166.694429 53.18343 
L 166.731327 53.104399 
L 166.768225 53.18598 
L 166.915816 53.511741 
L 166.952714 53.432761 
L 166.989612 53.353835 
L 167.02651 53.435133 
L 167.100306 53.597562 
L 167.137204 53.518688 
L 167.210999 53.361103 
L 167.247897 53.442231 
L 167.506182 53.849116 
L 167.616876 53.772581 
L 167.653774 53.853263 
L 167.690672 53.774707 
L 167.801365 53.539359 
L 167.838263 53.619983 
L 167.985855 53.783179 
L 168.207242 53.472653 
L 168.24414 53.552998 
L 168.281038 53.474971 
L 168.391731 53.241209 
L 168.428629 53.321496 
L 168.539323 53.404089 
L 168.613119 53.248612 
L 168.650016 53.328734 
L 168.871404 53.650861 
L 169.018995 53.497978 
L 169.092791 53.657402 
L 169.129689 53.579946 
L 169.240382 53.504819 
L 169.387974 53.666082 
L 169.424872 53.588832 
L 169.46177 53.668245 
L 169.498667 53.747605 
L 169.535565 53.670405 
L 169.646259 53.595465 
L 169.79385 53.75601 
L 169.97834 53.527425 
L 170.089033 53.608651 
L 170.125931 53.53191 
L 170.162829 53.610838 
L 170.273523 53.847304 
L 170.310421 53.770613 
L 170.49491 53.54307 
L 170.642501 53.702456 
L 170.753195 53.628232 
L 170.790093 53.706682 
L 170.826991 53.630394 
L 170.937684 53.556364 
L 171.19597 53.949503 
L 171.380459 53.723471 
L 171.491153 53.803482 
L 171.52805 53.72764 
L 171.564948 53.805513 
L 171.71254 54.116489 
L 171.749438 54.040695 
L 171.786335 53.96495 
L 171.823233 54.042565 
L 172.007723 54.276815 
L 172.044621 54.201168 
L 172.081518 54.278526 
L 172.302906 54.588955 
L 172.413599 54.514954 
L 172.561191 54.670355 
L 172.708782 54.521136 
L 172.893272 54.752771 
L 173.040863 54.603883 
L 173.151557 54.681861 
L 173.299148 54.533404 
L 173.520535 54.840012 
L 173.668127 54.691831 
L 173.705025 54.767927 
L 173.741923 54.693248 
L 173.889514 54.545544 
L 174.110901 54.850545 
L 174.221595 54.627365 
L 174.258493 54.703115 
L 174.406084 55.005623 
L 174.442982 54.931324 
L 174.553676 54.858373 
L 174.664369 54.935079 
L 174.775063 54.862265 
L 174.885757 55.088047 
L 174.922655 55.014031 
L 174.959552 54.940063 
L 174.99645 55.015226 
L 175.033348 55.090342 
L 175.070246 55.01642 
L 175.18094 54.943784 
L 175.328531 55.094913 
L 175.549918 54.801582 
L 175.623714 54.951183 
L 175.660612 54.877683 
L 175.992693 54.366082 
L 176.250978 54.740353 
L 176.435467 54.375624 
L 176.472365 54.450015 
L 176.693752 54.748455 
L 176.841344 54.604409 
L 177.099629 54.975445 
L 177.357914 54.614406 
L 177.542403 54.836745 
L 177.653097 54.765802 
L 177.763791 54.986165 
L 177.800689 54.913987 
L 177.94828 54.771083 
L 177.985178 54.844398 
L 178.022076 54.772399 
L 178.058974 54.700445 
L 178.095872 54.773714 
L 178.132769 54.846936 
L 178.169667 54.775026 
L 178.354157 54.56101 
L 178.427952 54.707223 
L 178.46485 54.635535 
L 178.575544 54.565331 
L 178.612442 54.638323 
L 178.64934 54.566768 
L 178.870727 54.138371 
L 178.907625 54.211314 
L 178.944523 54.284212 
L 178.98142 54.212967 
L 179.018318 54.141765 
L 179.055216 54.214617 
L 179.129012 54.360185 
L 179.16591 54.289026 
L 179.387297 54.006604 
L 179.497991 54.080999 
L 179.756276 53.729107 
L 179.830071 53.874123 
L 179.866969 53.803529 
L 180.125254 53.453312 
L 180.235948 53.52776 
L 180.641825 52.899489 
L 180.973906 53.406446 
L 181.232191 53.060268 
L 181.305986 53.203928 
L 181.342884 53.134395 
L 181.379782 53.064905 
L 181.41668 53.136668 
L 181.490476 53.280064 
L 181.527374 53.210614 
L 181.711863 53.004862 
L 181.896352 53.36236 
L 181.93325 53.293115 
L 182.043944 53.085632 
L 182.080842 53.156999 
L 182.154637 53.299605 
L 182.191535 53.230525 
L 182.412923 52.956986 
L 182.44982 53.028177 
L 182.486718 52.959346 
L 182.63431 52.824245 
L 182.855697 53.110662 
L 182.966391 53.044332 
L 183.040186 53.18598 
L 183.077084 53.117431 
L 183.298471 52.846057 
L 183.482961 53.060352 
L 183.593654 52.855676 
L 183.630552 52.926218 
L 183.778144 53.069446 
L 183.815042 53.00134 
L 183.85194 53.071713 
L 183.925735 53.212334 
L 183.962633 53.144266 
L 184.036429 53.008252 
L 184.073327 53.078497 
L 184.110225 53.148701 
L 184.147122 53.080753 
L 184.36851 52.811776 
L 184.626795 53.164142 
L 184.700591 53.028839 
L 184.737488 53.098706 
L 184.774386 53.16853 
L 184.811284 53.100938 
L 185.254059 52.429819 
L 185.290956 52.499553 
L 185.327854 52.432435 
L 185.512344 52.097437 
L 185.549242 52.167126 
L 185.733731 52.378585 
L 185.844425 52.178163 
L 185.881322 52.247644 
L 186.065812 52.458429 
L 186.250301 52.261162 
L 186.324097 52.399589 
L 186.360995 52.333049 
L 186.397893 52.266547 
L 186.434791 52.335698 
L 186.545484 52.407415 
L 186.656178 52.343629 
L 186.840667 52.552989 
L 186.877565 52.486675 
L 186.914463 52.555501 
L 186.951361 52.624288 
L 186.988259 52.55801 
L 187.172748 52.362028 
L 187.283442 52.433306 
L 187.504829 52.17206 
L 187.65242 52.311817 
L 187.689318 52.245993 
L 187.726216 52.314452 
L 187.873808 52.587895 
L 187.910705 52.522105 
L 188.242786 52.065405 
L 188.35348 52.136346 
L 188.722459 51.617093 
L 188.796254 51.753235 
L 188.833152 51.688155 
L 188.980744 51.561146 
L 189.017642 51.629116 
L 189.054539 51.564183 
L 189.202131 51.437533 
L 189.349722 51.576296 
L 189.423518 51.446829 
L 189.460416 51.514599 
L 189.644905 51.720614 
L 189.755599 51.658935 
L 189.90319 51.796857 
L 190.124578 51.541944 
L 190.161476 51.609324 
L 190.198373 51.544966 
L 190.382863 51.355234 
L 190.530454 51.624201 
L 190.567352 51.56002 
L 190.678046 51.367695 
L 190.714944 51.434839 
L 190.751841 51.501944 
L 190.788739 51.437907 
L 190.862535 51.309939 
L 190.899433 51.377004 
L 191.010127 51.447089 
L 191.30531 51.067514 
L 191.526697 51.338025 
L 191.63739 51.147287 
L 191.674288 51.214003 
L 191.858778 51.416984 
L 192.117063 51.103176 
L 192.227756 51.302526 
L 192.264654 51.239257 
L 192.301552 51.176024 
L 192.33845 51.242398 
L 192.412246 51.375036 
L 192.449144 51.311835 
L 192.559837 51.2518 
L 192.596735 51.318024 
L 192.633633 51.254927 
L 192.744327 51.065846 
L 192.781224 51.13203 
L 192.965714 51.333436 
L 193.03951 51.207618 
L 193.076407 51.273616 
L 193.260897 51.474381 
L 193.334693 51.348763 
L 193.37159 51.414576 
L 193.519182 51.549037 
L 193.55608 51.486311 
L 193.592978 51.551977 
L 193.629875 51.617607 
L 193.666773 51.554915 
L 193.777467 51.495225 
L 193.925058 51.629189 
L 194.146446 51.382187 
L 194.404731 51.711693 
L 194.847505 51.092818 
L 194.884403 51.157964 
L 194.921301 51.095979 
L 195.031995 51.037219 
L 195.142688 51.105441 
L 195.29028 50.984984 
L 195.364075 51.114872 
L 195.400973 51.053119 
L 195.548565 50.932947 
L 195.80685 51.259909 
L 195.991339 50.952283 
L 196.028237 51.01692 
L 196.102033 51.146088 
L 196.138931 51.08466 
L 196.249624 51.026433 
L 196.471012 51.287222 
L 196.544807 51.164655 
L 196.581705 51.228973 
L 196.729297 51.36048 
L 196.950684 51.118963 
L 196.987582 51.183103 
L 197.02448 51.122061 
L 197.245867 50.881447 
L 197.577948 51.332158 
L 197.762437 51.152863 
L 197.946926 51.346977 
L 198.094518 51.104527 
L 198.131416 51.16814 
L 198.279007 51.29824 
L 198.463497 51.119896 
L 198.500395 51.183336 
L 198.537292 51.12296 
L 198.721782 50.945181 
L 198.832475 51.135184 
L 198.869373 51.074966 
L 199.016965 50.957766 
L 199.164556 51.087262 
L 199.27525 51.030296 
L 199.349046 51.156451 
L 199.385943 51.09645 
L 199.496637 51.039567 
L 199.570433 51.165517 
L 199.607331 51.105609 
L 199.644229 51.045732 
L 199.681126 51.108655 
L 199.828718 51.237378 
L 199.865616 51.177561 
L 199.902514 51.24035 
L 200.123901 51.494011 
L 200.160799 51.434252 
L 200.197697 51.496842 
L 200.382186 51.687141 
L 200.566675 51.510953 
L 200.82496 51.825219 
L 200.898756 51.706153 
L 200.935654 51.768345 
L 201.193939 52.081319 
L 201.304633 52.024393 
L 201.341531 52.086323 
L 201.378429 52.026924 
L 201.599816 51.792287 
L 201.858101 52.103755 
L 202.005692 51.987951 
L 202.153284 52.113659 
L 202.780548 51.233769 
L 202.817446 51.295264 
L 202.854343 51.236682 
L 202.965037 51.18107 
L 203.481607 51.918683 
L 203.518505 51.860212 
L 203.555403 51.92123 
L 203.592301 51.982217 
L 203.629199 51.923774 
L 203.666097 51.865362 
L 203.702994 51.926316 
L 203.813688 51.989746 
L 203.924382 51.814772 
L 203.96128 51.87563 
L 204.071973 51.938985 
L 204.145769 51.822541 
L 204.182667 51.883303 
L 204.219565 51.944035 
L 204.256463 51.885856 
L 204.440952 51.714135 
L 204.47785 51.774801 
L 204.514748 51.716769 
L 204.662339 51.603484 
L 204.920624 51.908713 
L 205.031318 51.853379 
L 205.289603 52.15739 
L 205.326501 52.099585 
L 205.363399 52.159785 
L 205.437194 52.280092 
L 205.474092 52.222314 
L 205.732377 51.936366 
L 205.843071 52.116494 
L 205.879969 52.058919 
L 206.02756 51.946346 
L 206.064458 52.006295 
L 206.101356 51.948834 
L 206.285845 51.661965 
L 206.322743 51.72188 
L 206.433437 51.784331 
L 206.581028 51.672459 
L 206.876211 52.033195 
L 206.986905 51.86183 
L 207.023803 51.92141 
L 207.171394 52.042903 
L 207.466577 51.703689 
L 207.540373 51.822511 
L 207.577271 51.76567 
L 207.687965 51.595318 
L 207.724862 51.654682 
L 207.76176 51.714016 
L 207.798658 51.657288 
L 208.093841 51.320277 
L 208.278331 51.500673 
L 208.315228 51.444195 
L 208.352126 51.503345 
L 208.610411 51.801178 
L 208.684207 51.688353 
L 208.721105 51.747296 
L 208.831799 51.923952 
L 208.868696 51.867578 
L 208.905594 51.811233 
L 208.942492 51.870058 
L 209.053186 52.046361 
L 209.090084 51.990041 
L 209.237675 51.879955 
L 209.459062 52.116842 
L 209.643552 51.9508 
L 209.754245 52.011699 
L 209.901837 51.902079 
L 209.975633 52.018876 
L 210.01253 51.962908 
L 210.233918 51.627681 
L 210.270816 51.686033 
L 210.492203 51.921581 
L 210.602896 51.868283 
L 210.71359 51.928855 
L 210.750488 51.873183 
L 210.787386 51.931275 
L 210.934977 52.049732 
L 211.082569 51.940931 
L 211.119467 51.998878 
L 211.156364 51.943339 
L 211.267058 51.890259 
L 211.303956 51.948148 
L 211.340854 51.892689 
L 211.451547 51.726473 
L 211.488445 51.784331 
L 211.525343 51.842162 
L 211.562241 51.786809 
L 211.783628 51.455258 
L 211.820526 51.513056 
L 212.005016 51.801626 
L 212.041913 51.746457 
L 212.226403 51.583678 
L 212.410892 51.871395 
L 212.44779 51.816356 
L 212.595381 51.596468 
L 212.632279 51.653925 
L 212.853667 51.885885 
L 212.890564 51.831002 
L 212.927462 51.888291 
L 212.96436 51.945553 
L 213.001258 51.890696 
L 213.333339 51.510015 
L 213.370237 51.567216 
L 213.407135 51.512594 
L 213.48093 51.40343 
L 213.517828 51.460602 
L 213.591624 51.574864 
L 213.628522 51.520319 
L 213.776113 51.302402 
L 213.813011 51.359488 
L 213.960603 51.476168 
L 214.034398 51.367413 
L 214.071296 51.424388 
L 214.18199 51.483917 
L 214.624764 50.944769 
L 214.735458 51.004428 
L 214.809254 50.896441 
L 214.846152 50.953244 
L 215.030641 51.236853 
L 215.067539 51.182894 
L 215.141335 51.075054 
L 215.178232 51.131693 
L 215.473415 51.473527 
L 215.731701 51.207161 
L 215.768598 51.263554 
L 215.805496 51.209844 
L 216.137577 50.83744 
L 216.248271 50.896598 
L 216.358964 50.736297 
L 216.395862 50.792576 
L 216.506556 50.851668 
L 216.764841 50.588079 
L 216.912432 50.703291 
L 217.023126 50.653028 
L 217.281411 51.044897 
L 217.318309 50.991755 
L 217.429003 50.941418 
L 217.539696 51.000019 
L 217.687288 50.896752 
L 217.724186 50.952519 
L 217.761084 50.899547 
L 217.908675 50.796518 
L 217.982471 50.907917 
L 218.019369 50.855042 
L 218.16696 50.752223 
L 218.277654 50.919041 
L 218.314552 50.866262 
L 218.425245 50.81633 
L 218.499041 50.927357 
L 218.535939 50.87465 
L 218.572837 50.821967 
L 218.609735 50.87744 
L 218.831122 51.10176 
L 219.015611 50.946671 
L 219.236998 51.170324 
L 219.273896 51.117804 
L 219.310794 51.172965 
L 219.458386 51.285799 
L 219.90116 50.764971 
L 219.938058 50.819997 
L 219.974956 50.767788 
L 220.048752 50.663442 
L 220.085649 50.718441 
L 220.233241 50.831148 
L 220.307037 50.72694 
L 220.343935 50.781836 
L 220.454628 50.839484 
L 220.712913 50.582383 
L 220.860505 50.694775 
L 221.192586 50.335097 
L 221.229483 50.389782 
L 221.266381 50.338089 
L 221.377075 50.289431 
L 221.413973 50.344063 
L 221.450871 50.292439 
L 221.561564 50.243868 
L 221.709156 50.35598 
L 221.746054 50.304447 
L 221.782952 50.358952 
L 221.819849 50.413432 
L 221.856747 50.361922 
L 221.893645 50.310435 
L 221.930543 50.364889 
L 222.078134 50.476635 
L 222.225726 50.271005 
L 222.262624 50.325356 
L 222.373317 50.382634 
L 222.410215 50.331306 
L 222.447113 50.385582 
L 222.705398 50.659412 
L 222.742296 50.608126 
L 222.779194 50.662229 
L 222.926786 50.773124 
L 223.111275 50.622297 
L 223.148173 50.676274 
L 223.185071 50.625123 
L 223.221969 50.573996 
L 223.258866 50.627947 
L 223.295764 50.681875 
L 223.332662 50.630769 
L 223.406458 50.528626 
L 223.443356 50.582527 
L 223.554049 50.639218 
L 223.701641 50.540066 
L 223.812334 50.596695 
L 223.923028 50.548618 
L 224.07062 50.658843 
L 224.218211 50.559985 
L 224.476496 50.830596 
L 224.513394 50.779823 
L 224.550292 50.833306 
L 224.697883 50.942857 
L 224.771679 50.84142 
L 224.808577 50.894805 
L 224.845475 50.948166 
L 224.882373 50.897481 
L 224.956168 50.796178 
L 224.993066 50.849513 
L 225.10376 50.905493 
L 225.177556 50.804323 
L 225.214454 50.857585 
L 225.472739 51.229756 
L 225.509637 51.179199 
L 225.731024 50.876334 
L 225.767922 50.929403 
L 225.952411 51.091039 
L 225.989309 51.040659 
L 226.026207 51.093609 
L 226.1369 51.149079 
L 226.32139 51.000743 
L 226.468981 51.108982 
L 226.579675 51.06133 
L 226.83796 51.430143 
L 226.874858 51.379956 
L 226.985551 51.229527 
L 227.022449 51.282119 
L 227.206939 51.544733 
L 227.243837 51.494631 
L 227.391428 51.294444 
L 227.428326 51.346895 
L 227.502122 51.451727 
L 227.539019 51.401734 
L 227.649713 51.354193 
L 227.723509 51.458883 
L 227.760407 51.408954 
L 227.944896 51.261766 
L 228.203181 51.52531 
L 228.461466 51.278973 
L 228.645956 51.437649 
L 228.867343 51.241635 
L 229.051832 51.39997 
L 229.08873 51.350446 
L 229.125628 51.402358 
L 229.310117 51.560277 
L 229.6053 51.266139 
L 229.715994 51.320327 
L 229.826688 51.273448 
L 229.974279 51.37922 
L 230.011177 51.329969 
L 230.048075 51.381605 
L 230.195666 51.487146 
L 230.417053 51.292848 
L 230.601543 51.55023 
L 230.638441 51.501123 
L 230.786032 51.304905 
L 230.82293 51.356312 
L 231.081215 51.615285 
L 231.155011 51.517338 
L 231.191909 51.568589 
L 231.228807 51.619817 
L 231.265705 51.570875 
L 231.52399 51.328863 
L 231.560887 51.380044 
L 231.597785 51.331248 
L 231.708479 51.184984 
L 231.745377 51.236141 
L 231.819173 51.338389 
L 231.85607 51.289675 
L 232.04056 51.146115 
L 232.372641 51.505422 
L 232.594028 51.31355 
L 232.741619 51.417594 
L 232.815415 51.320672 
L 232.852313 51.371473 
L 233.036802 51.526027 
L 233.110598 51.429224 
L 233.147496 51.479915 
L 233.184394 51.530585 
L 233.221292 51.482213 
L 233.368883 51.387867 
L 233.627168 51.642999 
L 233.848556 51.452335 
L 233.885453 51.502806 
L 233.922351 51.454635 
L 234.033045 51.408803 
L 234.069943 51.45923 
L 234.106841 51.411119 
L 234.143739 51.363029 
L 234.180636 51.413434 
L 234.217534 51.463817 
L 234.254432 51.415746 
L 234.29133 51.367695 
L 234.328228 51.418056 
L 234.586513 51.671743 
L 234.623411 51.623729 
L 234.660309 51.673941 
L 234.8079 51.776453 
L 234.918594 51.632589 
L 234.955492 51.682714 
L 235.139981 51.835086 
L 235.213777 51.739314 
L 235.250675 51.789332 
L 235.50896 52.041141 
L 235.619653 51.995353 
L 235.656551 52.045202 
L 235.693449 51.997402 
L 235.841041 51.90395 
L 235.988632 52.005582 
L 236.136224 51.912279 
L 236.173121 51.961999 
L 236.210019 51.914357 
L 236.468304 51.678618 
L 236.763487 51.978406 
L 236.800385 51.930919 
L 236.837283 51.980449 
L 236.947977 52.031978 
L 236.984875 51.98453 
L 237.021772 52.033997 
L 237.05867 52.083444 
L 237.095568 52.036014 
L 237.132466 51.988604 
L 237.169364 52.038029 
L 237.316955 52.13879 
L 237.464547 52.046074 
L 237.501445 52.095395 
L 237.538343 52.048081 
L 237.722832 51.90832 
L 237.796628 52.006855 
L 237.833526 51.959638 
L 238.165607 51.631839 
L 238.2763 51.683201 
L 238.423892 51.59136 
L 238.534585 51.642673 
L 238.719075 51.504108 
L 238.829768 51.555391 
L 239.088053 51.323614 
L 239.272543 51.472846 
L 239.309441 51.426128 
L 239.346338 51.475069 
L 239.604623 51.817095 
L 239.641521 51.770392 
L 239.936704 51.492782 
L 240.121194 51.641139 
L 240.231887 51.501596 
L 240.268785 51.550271 
L 240.453275 51.698296 
L 240.52707 51.605396 
L 240.563968 51.653971 
L 240.674662 51.704638 
L 240.896049 51.52132 
L 241.080538 51.668863 
L 241.22813 51.578453 
L 241.301926 51.675219 
L 241.338823 51.628981 
L 241.560211 51.446425 
L 241.634006 51.543068 
L 241.670904 51.496941 
L 241.818496 51.406964 
L 241.855394 51.455235 
L 241.892292 51.409182 
L 242.113679 51.227448 
L 242.187475 51.323886 
L 242.224372 51.277943 
L 242.371964 51.188416 
L 242.630249 51.431264 
L 242.814738 51.296014 
L 242.925432 51.440047 
L 242.96233 51.394266 
L 243.220615 51.16794 
L 243.294411 51.26382 
L 243.331309 51.218167 
L 243.368206 51.172533 
L 243.405104 51.220443 
L 243.626492 51.414086 
L 243.774083 51.325132 
L 244.069266 51.613598 
L 244.438245 51.25211 
L 244.548938 51.301956 
L 244.585836 51.256605 
L 244.622734 51.304183 
L 244.917917 51.59136 
L 245.028611 51.45546 
L 245.065508 51.502885 
L 245.249998 51.647127 
L 245.286896 51.60188 
L 245.323794 51.649209 
L 245.397589 51.743811 
L 245.434487 51.69858 
L 245.545181 51.562995 
L 245.582079 51.610266 
L 245.692772 51.659591 
L 245.72967 51.614449 
L 245.766568 51.661663 
L 245.877262 51.803192 
L 245.91416 51.758066 
L 246.024853 51.715005 
L 246.061751 51.762124 
L 246.098649 51.717051 
L 246.172445 51.626958 
L 246.209343 51.674057 
L 246.283138 51.7682 
L 246.320036 51.723179 
L 246.467628 51.635265 
L 246.504525 51.682288 
L 246.541423 51.637337 
L 246.578321 51.592404 
L 246.615219 51.639408 
L 246.652117 51.686393 
L 246.689015 51.641477 
L 246.836606 51.553801 
L 246.9473 51.694585 
L 246.984198 51.649738 
L 247.021096 51.604909 
L 247.057994 51.651799 
L 247.094891 51.698671 
L 247.131789 51.653859 
L 247.279381 51.474786 
L 247.316279 51.521638 
L 247.611462 51.804353 
L 247.722155 51.670276 
L 247.759053 51.716979 
L 247.795951 51.763663 
L 247.832849 51.719005 
L 247.98044 51.631801 
L 248.017338 51.678447 
L 248.054236 51.633858 
L 248.091134 51.589287 
L 248.128032 51.635914 
L 248.238725 51.775684 
L 248.275623 51.731129 
L 248.460113 51.599634 
L 248.497011 51.646168 
L 248.533908 51.601699 
L 248.644602 51.468396 
L 248.6815 51.51491 
L 248.755296 51.607883 
L 248.792194 51.563482 
L 249.013581 51.388195 
L 249.124274 51.436757 
L 249.19807 51.348212 
L 249.234968 51.394613 
L 249.308764 51.487362 
L 249.345662 51.443114 
L 249.493253 51.35682 
L 249.567049 51.449457 
L 249.603947 51.405277 
L 249.825334 51.230923 
L 249.936028 51.279369 
L 249.972925 51.235307 
L 250.009823 51.281541 
L 250.083619 51.373956 
L 250.120517 51.32991 
L 250.268108 51.244055 
L 250.378802 51.29238 
L 250.4157 51.248419 
L 250.452598 51.294543 
L 250.637087 51.434915 
L 250.895372 51.217625 
L 251.116759 51.493444 
L 251.153657 51.449614 
L 251.301249 51.36413 
L 251.44884 51.547578 
L 251.485738 51.503813 
L 251.559534 51.416333 
L 251.596432 51.46215 
L 251.744023 51.555778 
L 251.817819 51.468396 
L 251.854717 51.514141 
L 251.928513 51.605579 
L 251.96541 51.561912 
L 252.076104 51.520319 
L 252.186798 51.568031 
L 252.223696 51.52443 
L 252.260593 51.570068 
L 252.297491 51.615688 
L 252.334389 51.572103 
L 252.555776 51.400028 
L 252.66647 51.447691 
L 252.814062 51.273912 
L 252.850959 51.319458 
L 253.18304 51.639794 
L 253.219938 51.596404 
L 253.256836 51.641793 
L 253.441325 51.7798 
L 253.588917 51.695074 
L 253.69961 51.742314 
L 253.736508 51.69902 
L 253.773406 51.744268 
L 253.920998 51.925091 
L 253.957896 51.881811 
L 253.994793 51.838548 
L 254.031691 51.88371 
L 254.179283 51.975845 
L 254.216181 51.932613 
L 254.253079 51.977706 
L 254.363772 52.024624 
L 254.40067 51.981424 
L 254.437568 52.026464 
L 254.511364 52.116494 
L 254.548261 52.07331 
L 254.585159 52.030142 
L 254.622057 52.075131 
L 254.769649 52.254915 
L 254.806547 52.211762 
L 254.843444 52.168624 
L 254.880342 52.213527 
L 254.91724 52.258413 
L 254.954138 52.215292 
L 255.027934 52.129098 
L 255.064832 52.173966 
L 255.396913 52.489224 
L 255.43381 52.446165 
L 255.470708 52.49088 
L 255.6183 52.58188 
L 255.655198 52.538852 
L 255.692096 52.583499 
L 255.728993 52.628129 
L 255.765891 52.585117 
L 255.876585 52.543753 
L 256.024176 52.722035 
L 256.061074 52.67907 
L 256.319359 52.466143 
L 256.430053 52.512293 
L 256.614542 52.385515 
L 256.65144 52.429973 
L 256.688338 52.387199 
L 256.83593 52.303414 
L 256.909725 52.392245 
L 256.946623 52.349534 
L 257.057317 52.30855 
L 257.131113 52.397279 
L 257.16801 52.354616 
L 257.204908 52.311968 
L 257.241806 52.356307 
L 257.426295 52.490864 
L 257.463193 52.448246 
L 257.500091 52.492502 
L 257.573887 52.580964 
L 257.610785 52.538361 
L 257.942866 52.242317 
L 258.164253 52.420625 
L 258.238049 52.335749 
L 258.274947 52.379853 
L 258.38564 52.425596 
L 258.422538 52.383196 
L 258.533232 52.342498 
L 258.607027 52.430556 
L 258.680823 52.345865 
L 258.865312 52.220675 
L 259.049802 52.354261 
L 259.0867 52.312016 
L 259.123598 52.269787 
L 259.160495 52.313707 
L 259.529474 52.580065 
L 259.566372 52.53788 
L 259.60327 52.581653 
L 259.640168 52.62541 
L 259.713964 52.541086 
L 259.861555 52.372623 
L 259.898453 52.416362 
L 259.935351 52.460085 
L 260.009146 52.375945 
L 260.415023 51.99988 
L 260.599512 52.047122 
L 260.710206 52.00705 
L 260.784002 52.094277 
L 260.857798 52.010627 
L 261.189878 51.634961 
L 261.226776 51.678547 
L 261.485061 51.812919 
L 261.706449 51.64838 
L 261.780244 51.735307 
L 261.85404 51.652201 
L 262.001632 51.571094 
L 262.112325 51.701313 
L 262.186121 51.618356 
L 262.37061 51.495995 
L 262.407508 51.539352 
L 262.481304 51.456575 
L 262.628895 51.37586 
L 262.924078 51.552934 
L 263.108568 51.431076 
L 263.219261 51.476249 
L 263.256159 51.435029 
L 263.293057 51.393824 
L 263.329955 51.437003 
L 263.477546 51.525255 
L 263.514444 51.484078 
L 263.662036 51.403754 
L 263.846525 51.450782 
L 263.920321 51.36862 
L 263.957219 51.411671 
L 264.10481 51.49967 
L 264.141708 51.458625 
L 264.178606 51.417594 
L 264.215504 51.460582 
L 264.436891 51.550357 
L 264.584483 51.470346 
L 264.842768 51.686526 
L 264.879666 51.645594 
L 264.990359 51.606575 
L 265.064155 51.692127 
L 265.137951 51.610365 
L 265.285542 51.530585 
L 265.506929 51.703293 
L 265.543827 51.662491 
L 265.765214 51.417986 
L 265.802112 51.460642 
L 266.134193 51.677419 
L 266.35558 51.516729 
L 266.54007 51.729161 
L 266.613866 51.64797 
L 266.687661 51.566837 
L 266.724559 51.609277 
L 266.761457 51.651701 
L 266.835253 51.570625 
L 266.872151 51.530108 
L 266.909048 51.572516 
L 267.278027 51.830244 
L 267.462517 51.710695 
L 267.610108 51.714367 
L 267.720802 51.593237 
L 267.7577 51.635461 
L 267.942189 51.763857 
L 267.979087 51.723522 
L 268.052883 51.642894 
L 268.08978 51.685042 
L 268.606351 52.191311 
L 268.643248 52.151029 
L 268.717044 52.070506 
L 268.79084 52.154368 
L 269.086023 52.325129 
L 269.270512 52.288152 
L 269.30741 52.329941 
L 269.381206 52.249611 
L 269.491899 52.211111 
L 269.528797 52.252869 
L 269.676389 52.256123 
L 269.897776 52.179264 
L 270.00847 52.304271 
L 270.082265 52.224218 
L 270.192959 52.104243 
L 270.266755 52.187505 
L 270.488142 52.273937 
L 270.635734 52.195716 
L 270.672631 52.237251 
L 270.857121 52.363348 
L 270.894019 52.323465 
L 270.930916 52.283596 
L 271.004712 52.366504 
L 271.152304 52.369655 
L 271.189202 52.329827 
L 271.262997 52.412618 
L 271.410589 52.49688 
L 271.447487 52.457078 
L 271.55818 52.337755 
L 271.631976 52.420399 
L 271.705772 52.502985 
L 271.779568 52.423503 
L 271.927159 52.264706 
L 272.000955 52.347232 
L 272.185444 52.391594 
L 272.296138 52.272719 
L 272.369933 52.355099 
L 272.665116 52.522709 
L 272.886504 52.366067 
L 272.923402 52.407134 
L 273.070993 52.490744 
L 273.107891 52.451252 
L 273.29238 52.414864 
L 273.47687 52.539261 
L 273.513768 52.499836 
L 273.661359 52.422567 
L 273.698257 52.463475 
L 274.177929 52.8338 
L 274.399316 52.677942 
L 274.436214 52.718665 
L 274.473112 52.759374 
L 274.546908 52.680829 
L 274.842091 52.52689 
L 275.100376 52.651745 
L 275.358661 52.537321 
L 275.506253 52.619897 
L 275.54315 52.58083 
L 275.764538 52.505726 
L 275.949027 52.628623 
L 275.985925 52.589634 
L 276.170414 52.553612 
L 276.354904 52.596944 
L 276.539393 52.560976 
L 276.686984 52.563915 
L 276.871474 52.52803 
L 276.982167 52.648845 
L 277.055963 52.571244 
L 277.388044 52.301611 
L 277.424942 52.341839 
L 277.830818 52.625934 
L 278.052206 52.551572 
L 278.347389 52.714558 
L 278.568776 52.561791 
L 278.605674 52.601758 
L 278.753265 52.604642 
L 278.900857 52.607521 
L 279.159142 52.729971 
L 279.454325 52.579199 
L 279.491223 52.619001 
L 279.565018 52.542297 
L 279.601916 52.503964 
L 279.675712 52.583528 
L 279.897099 52.743884 
L 279.933997 52.705575 
L 280.044691 52.66869 
L 280.081589 52.708372 
L 280.413669 52.909236 
L 280.561261 52.91189 
L 280.635057 52.990972 
L 280.708852 52.914541 
L 281.004035 52.764579 
L 281.225423 52.923791 
L 281.262321 52.885682 
L 281.483708 52.812212 
L 281.520606 52.851612 
L 281.594401 52.775532 
L 281.631299 52.737511 
L 281.705095 52.81627 
L 281.926482 52.897623 
L 282.221665 52.748505 
L 282.369257 52.905545 
L 282.443052 52.829737 
L 282.627542 52.79456 
L 282.959623 52.993004 
L 283.107214 52.918677 
L 283.144112 52.957773 
L 283.365499 53.038463 
L 283.734478 52.814752 
L 284.029661 52.973261 
L 284.287946 52.863019 
L 284.39864 52.903225 
L 284.435537 52.865658 
L 284.620027 52.830763 
L 284.693823 52.908444 
L 284.767618 52.833419 
L 284.989006 52.761144 
L 285.210393 52.917544 
L 285.247291 52.88011 
L 285.542474 52.657143 
L 285.579372 52.695859 
L 285.911452 52.891858 
L 286.059044 52.742675 
L 286.13284 52.819891 
L 286.391125 52.938189 
L 286.686308 52.716271 
L 286.723206 52.754782 
L 286.760103 52.793282 
L 286.833899 52.718977 
L 287.018389 52.608998 
L 287.055286 52.647471 
L 287.239776 52.764151 
L 287.276674 52.727075 
L 287.350469 52.652961 
L 287.424265 52.729768 
L 287.645652 52.884527 
L 287.68255 52.847498 
L 287.86704 52.813114 
L 288.088427 52.892275 
L 288.568099 52.562868 
L 288.604997 52.601087 
L 288.678793 52.527444 
L 288.715691 52.49064 
L 288.789486 52.567041 
L 289.047771 52.684253 
L 289.084669 52.647483 
L 289.158465 52.723711 
L 289.269159 52.763131 
L 289.306057 52.726383 
L 289.453648 52.729053 
L 289.675035 52.807748 
L 289.711933 52.771058 
L 289.785729 52.847038 
L 289.970218 52.962174 
L 290.007116 52.925507 
L 290.228503 52.854787 
L 290.63438 53.122219 
L 290.818869 53.088056 
L 290.966461 53.090477 
L 291.261644 52.946937 
L 291.483031 53.02481 
L 291.593725 52.989611 
L 291.630622 53.027264 
L 291.66752 53.064905 
L 291.741316 52.992086 
L 291.925805 52.958189 
L 292.220988 53.110928 
L 292.257886 53.074592 
L 292.331682 53.149644 
L 292.737559 53.414148 
L 292.88515 53.416342 
L 292.995844 53.381169 
L 293.254129 53.27471 
L 293.40172 53.276988 
L 293.623108 53.206962 
L 293.881393 53.321047 
L 294.065882 53.287201 
L 294.176576 53.252266 
L 294.471759 53.110486 
L 294.582452 53.075695 
L 294.914533 52.898485 
L 295.099022 52.938094 
L 295.209716 52.976418 
L 295.357307 52.978864 
L 295.578695 52.909699 
L 295.689388 52.875165 
L 295.83698 52.877669 
L 296.058367 52.954098 
L 296.35355 52.813819 
L 296.648733 52.963882 
L 296.87012 52.895108 
L 297.017712 52.897587 
L 297.38669 52.686952 
L 297.718771 52.873234 
L 297.866363 52.875718 
L 298.161546 53.024752 
L 298.346035 52.991742 
L 298.493627 52.994146 
L 298.899503 52.749387 
L 299.010197 52.715407 
L 299.416073 52.471647 
L 299.600563 52.510841 
L 299.748154 52.513528 
L 300.154031 52.770943 
L 300.449214 52.633277 
L 300.596805 52.635879 
L 300.707499 52.673468 
L 300.965784 52.784772 
L 301.113375 52.787277 
L 301.334763 52.862119 
L 301.482354 52.864572 
L 301.593048 52.830903 
L 301.777537 52.798509 
L 301.998924 52.873135 
L 302.109618 52.910398 
L 302.404801 53.056782 
L 302.663086 52.954794 
L 302.77378 52.921247 
L 303.068963 52.78488 
L 303.327248 52.894988 
L 303.474839 52.897401 
L 303.659329 52.93562 
L 303.80692 52.938006 
L 303.991409 52.976143 
L 304.175899 52.943957 
L 304.32349 52.946332 
L 304.471082 52.948705 
L 304.655571 52.98673 
L 304.803163 52.989075 
L 305.135243 53.169316 
L 305.393529 53.068343 
L 305.504222 53.035118 
L 305.799405 52.900128 
L 306.094588 53.044332 
L 306.24218 53.046629 
L 306.389771 53.048923 
L 306.57426 53.016996 
L 306.980137 53.266474 
L 307.238422 53.166153 
L 307.422912 53.203591 
L 307.644299 53.137593 
L 307.828788 53.174991 
L 308.087073 53.075108 
L 308.30846 53.147593 
L 308.566746 53.047931 
L 308.714337 53.050203 
L 308.935724 52.984684 
L 309.120214 53.022001 
L 309.267805 53.024283 
L 309.415397 53.026563 
L 309.784375 52.826185 
L 310.005763 52.898399 
L 310.190252 52.867044 
L 310.448537 52.973937 
L 310.559231 53.009899 
L 310.817516 53.116489 
L 310.928209 53.152335 
L 311.075801 53.154524 
L 311.297188 53.089528 
L 311.629269 53.264988 
L 311.96135 53.09951 
L 312.072043 53.067136 
L 312.219635 53.069365 
L 312.514818 53.209707 
L 312.662409 53.211849 
L 312.773103 53.179516 
L 313.289673 52.848364 
L 313.437265 52.85071 
L 313.584856 52.853053 
L 313.769345 52.889783 
L 313.916937 52.8921 
L 314.101426 52.928754 
L 314.249018 52.931045 
L 314.433507 52.967623 
L 314.581099 52.969889 
L 314.913179 53.143245 
L 315.060771 53.145406 
L 315.24526 53.181712 
L 315.42975 53.150795 
L 315.688035 53.255214 
L 315.872524 53.224297 
L 316.204605 53.396451 
L 316.315299 53.431423 
L 316.46289 53.433406 
L 316.573584 53.468327 
L 317.016358 53.741225 
L 317.459133 53.480051 
L 317.606724 53.481997 
L 317.975703 53.287326 
L 318.160192 53.323122 
L 318.307784 53.325152 
L 318.418477 53.293476 
L 318.566069 53.295521 
L 318.787456 53.364885 
L 319.008843 53.301643 
L 319.156435 53.303679 
L 319.636107 53.012904 
L 319.783698 53.015099 
L 319.93129 53.017292 
L 320.115779 53.05301 
L 320.44786 52.893191 
L 320.595452 52.895447 
L 320.853737 52.800726 
L 321.038226 52.83647 
L 321.14892 52.871033 
L 321.296511 52.873295 
L 321.444103 52.875555 
L 321.554796 52.844449 
L 321.849979 52.717944 
L 322.145162 52.853529 
L 322.36655 52.791527 
L 322.477243 52.760566 
L 322.624835 52.762879 
L 322.88312 52.864822 
L 323.067609 52.835024 
L 323.178303 52.804126 
L 323.768669 52.422948 
L 323.91626 52.425439 
L 324.100749 52.396064 
L 324.248341 52.398566 
L 324.543524 52.273846 
L 324.691115 52.276412 
L 324.801809 52.310732 
L 324.949401 52.313275 
L 325.244583 52.188979 
L 325.429073 52.224558 
L 325.724256 52.100584 
L 326.019439 52.234881 
L 326.16703 52.237454 
L 326.425315 52.338552 
L 326.572907 52.341064 
L 326.757396 52.37636 
L 326.86809 52.410374 
L 327.126375 52.511039 
L 327.347762 52.450475 
L 327.90123 52.811871 
L 328.011924 52.845559 
L 328.196413 52.88032 
L 328.454698 52.788293 
L 328.60229 52.79054 
L 328.786779 52.761427 
L 328.934371 52.763685 
L 329.11886 52.734626 
L 329.340247 52.801734 
L 329.450941 52.835247 
L 329.598532 52.837459 
L 329.856817 52.745952 
L 330.078205 52.812868 
L 330.447183 52.628082 
L 330.705468 52.727209 
L 331.148243 52.480867 
L 331.406528 52.579878 
L 331.664813 52.489224 
L 331.812405 52.491606 
L 332.218281 52.277536 
L 332.476566 52.376352 
L 332.919341 52.132176 
L 333.325217 52.358935 
L 333.509707 52.330615 
L 333.878685 52.524686 
L 334.136971 52.434901 
L 334.505949 52.628388 
L 334.653541 52.630671 
L 334.801132 52.632951 
L 335.059417 52.543366 
L 335.3546 52.672637 
L 335.575988 52.613751 
L 335.908068 52.774352 
L 336.166353 52.684993 
L 336.387741 52.750431 
L 336.57223 52.722164 
L 336.756719 52.755932 
L 337.015005 52.666864 
L 337.199494 52.700615 
L 337.383983 52.672463 
L 337.60537 52.737624 
L 337.752962 52.739823 
L 338.158839 52.961758 
L 338.30643 52.963834 
L 338.417124 52.934576 
L 338.638511 52.876129 
L 338.859898 52.940835 
L 339.00749 52.942917 
L 339.228877 53.007485 
L 339.413366 52.979335 
L 339.634753 53.043781 
L 340.003732 52.864993 
L 340.225119 52.929394 
L 340.483404 52.841266 
L 340.630996 52.843389 
L 340.815485 52.815487 
L 340.926179 52.786548 
L 341.110668 52.758713 
L 341.368953 52.853966 
L 341.627238 52.766266 
L 341.848626 52.830373 
L 341.959319 52.862389 
L 342.2914 53.019068 
L 342.586583 52.901659 
L 342.844868 52.996285 
L 343.029358 52.968502 
L 343.176949 52.970538 
L 343.361438 52.942805 
L 343.545928 52.975621 
L 343.767315 52.918198 
L 344.062498 53.043119 
L 344.210089 53.04511 
L 344.394579 53.077763 
L 344.54217 53.079733 
L 344.72666 53.112325 
L 345.058741 52.966227 
L 345.24323 52.998833 
L 345.501515 52.912192 
L 345.612209 52.88369 
L 345.796698 52.856248 
L 346.054983 52.949854 
L 346.350166 52.834058 
L 346.682247 52.988372 
L 346.903634 52.931566 
L 347.125021 52.994368 
L 347.309511 52.967 
L 347.457102 52.969007 
L 347.715387 52.883058 
L 347.899877 52.915417 
L 348.121264 52.858907 
L 348.231958 52.830685 
L 348.564038 52.686685 
L 348.71163 52.688826 
L 348.859221 52.690966 
L 349.080609 52.753528 
L 349.412689 52.610038 
L 349.92926 52.913552 
L 350.187545 52.828385 
L 350.408932 52.890556 
L 350.630319 52.834552 
L 350.851706 52.896624 
L 350.9624 52.927624 
L 351.183787 52.989554 
L 351.552766 52.817914 
L 351.811051 52.909708 
L 352.216928 52.7097 
L 352.401417 52.74167 
L 352.659702 52.657373 
L 352.770396 52.629664 
L 352.881089 52.660562 
L 353.139374 52.752079 
L 353.360762 52.696701 
L 353.72974 52.877203 
L 353.840434 52.907907 
L 354.098719 52.998909 
L 354.393902 52.886226 
L 354.615289 52.947466 
L 354.799779 52.920822 
L 354.94737 52.922802 
L 355.242553 52.810519 
L 355.353247 52.782994 
L 355.64843 52.671005 
L 355.943613 52.791161 
L 356.423285 52.537281 
L 356.866059 52.774955 
L 357.013651 52.776993 
L 357.235038 52.837775 
L 357.456425 52.783095 
L 357.788506 52.931714 
L 358.157485 52.763945 
L 358.305076 52.76598 
L 358.452668 52.768013 
L 358.563362 52.7408 
L 358.747851 52.714636 
L 358.93234 52.745905 
L 359.079932 52.747943 
L 359.227523 52.74998 
L 359.412013 52.723868 
L 359.6334 52.784203 
L 359.817889 52.758105 
L 359.965481 52.760132 
L 360.260664 52.649884 
L 360.445153 52.681035 
L 360.592744 52.683095 
L 360.924825 52.830276 
L 361.109315 52.804262 
L 361.515191 53.008928 
L 361.773476 52.926947 
L 361.921068 52.928878 
L 362.068659 52.930806 
L 362.179353 52.90386 
L 362.548332 52.738558 
L 362.732821 52.769421 
L 362.91731 52.743599 
L 363.1018 52.77442 
L 363.249391 52.776417 
L 363.507676 52.864711 
L 363.692166 52.838897 
L 364.061144 53.013097 
L 364.171838 53.042709 
L 364.393225 53.10187 
L 364.614612 53.048282 
L 364.762204 53.050136 
L 364.872898 53.079667 
L 365.020489 53.081505 
L 365.389468 52.917526 
L 365.647753 53.005083 
L 365.906038 52.924212 
L 366.053629 52.926118 
L 366.238119 52.900481 
L 366.533302 53.016267 
L 366.791587 52.93562 
L 367.08677 53.051164 
L 367.345055 52.970633 
L 367.640238 53.085935 
L 367.787829 53.087753 
L 367.898523 53.06125 
L 368.046115 53.063078 
L 368.193706 53.064905 
L 368.415093 53.012004 
L 368.562685 53.013852 
L 368.710276 53.015699 
L 368.894766 53.04578 
L 369.005459 53.074918 
L 369.226846 53.133131 
L 369.411336 53.107635 
L 369.632723 53.165748 
L 369.780315 53.167516 
L 369.964804 53.197403 
L 370.112395 53.199155 
L 370.259987 53.200904 
L 370.37068 53.229859 
L 370.55517 53.259652 
L 370.665863 53.288558 
L 370.813455 53.290262 
L 371.219332 53.101963 
L 371.403821 53.131751 
L 371.551412 53.133525 
L 371.846595 53.247119 
L 372.10488 53.167654 
L 372.547655 53.392516 
L 372.879736 53.259105 
L 373.064225 53.288643 
L 373.211817 53.290333 
L 373.396306 53.319821 
L 373.617693 53.267618 
L 373.83908 53.32484 
L 374.097366 53.245814 
L 374.54014 53.469143 
L 374.687731 53.470741 
L 374.872221 53.499985 
L 375.204302 53.367445 
L 375.351893 53.369087 
L 375.499485 53.370728 
L 375.794668 53.482681 
L 376.016055 53.430759 
L 376.200544 53.459904 
L 376.385034 53.434779 
L 376.717114 53.573836 
L 376.975399 53.495325 
L 377.196787 53.551783 
L 377.49197 53.44678 
L 377.713357 53.50318 
L 377.860948 53.504746 
L 378.00854 53.506312 
L 378.266825 53.428173 
L 378.414416 53.429772 
L 378.746497 53.298777 
L 379.004782 53.382361 
L 379.189272 53.3575 
L 379.336863 53.359127 
L 379.55825 53.307866 
L 379.705842 53.309514 
L 380.148616 53.100051 
L 380.25931 53.074567 
L 380.738982 52.839501 
L 380.923472 52.868557 
L 381.181757 52.79164 
L 381.403144 52.847844 
L 381.735225 52.718665 
L 381.956612 52.774822 
L 382.251795 52.672081 
L 382.399387 52.674006 
L 382.51008 52.702052 
L 382.915957 52.893289 
L 383.063548 52.895108 
L 383.21114 52.896927 
L 383.432527 52.846596 
L 383.580119 52.848434 
L 383.838404 52.772164 
L 384.096689 52.854855 
L 384.318076 52.80469 
L 384.465667 52.806542 
L 384.797748 52.678623 
L 384.982238 52.707407 
L 385.388114 52.52803 
L 385.535706 52.530002 
L 385.720195 52.506123 
L 385.904684 52.534923 
L 386.089174 52.511068 
L 386.384357 52.620167 
L 386.568846 52.596299 
L 386.716438 52.598233 
L 387.233008 52.34279 
L 387.343701 52.318113 
L 387.528191 52.294484 
L 387.675782 52.296548 
L 387.823374 52.29861 
L 388.044761 52.354009 
L 388.303046 52.279164 
L 388.487535 52.307866 
L 388.93031 52.105341 
L 389.151697 52.160684 
L 389.483778 52.035234 
L 389.742063 52.117086 
L 389.889655 52.119216 
L 390.074144 52.147869 
L 390.295531 52.099085 
L 390.406225 52.074717 
L 390.627612 52.026031 
L 390.738306 52.001713 
L 391.254876 51.7503 
L 391.550059 51.858378 
L 391.734548 51.835304 
L 391.845242 51.81113 
L 391.955935 51.838666 
L 392.103527 51.840905 
L 392.288016 51.81788 
L 392.39871 51.793752 
L 392.620097 51.745544 
L 392.730791 51.721465 
L 392.841484 51.748957 
L 393.173565 51.882829 
L 393.321157 51.88504 
L 393.43185 51.860965 
L 393.542544 51.888353 
L 393.874625 52.021806 
L 394.206706 51.898266 
L 394.501888 52.00526 
L 394.64948 52.007408 
L 394.833969 52.035715 
L 395.018459 52.01277 
L 395.313642 52.119404 
L 395.535029 52.071401 
L 396.051599 52.334106 
L 396.199191 52.3361 
L 396.457476 52.416089 
L 396.789557 52.293107 
L 396.974046 52.321079 
L 397.121637 52.323073 
L 397.453718 52.454684 
L 397.712003 52.381846 
L 397.933391 52.43557 
L 398.11788 52.412618 
L 398.376165 52.492095 
L 398.523757 52.494007 
L 398.671348 52.495917 
L 398.782042 52.522674 
L 399.077225 52.627681 
L 399.261714 52.604701 
L 399.409305 52.606559 
L 399.741386 52.484459 
L 399.925876 52.512084 
L 400.184161 52.439732 
L 400.442446 52.518707 
L 400.663833 52.471166 
L 400.922118 52.550006 
L 401.106608 52.527192 
L 401.254199 52.529073 
L 401.549382 52.432346 
L 401.770769 52.485435 
L 401.992156 52.4381 
L 402.324237 52.567728 
L 402.582522 52.49584 
L 402.840807 52.57422 
L 403.025297 52.551521 
L 403.13599 52.527911 
L 403.246684 52.554311 
L 403.541867 52.657927 
L 403.689459 52.659739 
L 403.873948 52.686952 
L 404.206029 52.566358 
L 404.464314 52.644316 
L 404.611905 52.646129 
L 404.759497 52.64794 
L 405.017782 52.576499 
L 405.312965 52.679565 
L 405.534352 52.632591 
L 405.829535 52.735455 
L 406.050922 52.688516 
L 406.419901 52.841586 
L 406.641288 52.794658 
L 406.751982 52.771217 
L 406.899573 52.772964 
L 407.30545 52.950695 
L 407.453041 52.952362 
L 407.82202 53.104536 
L 408.190999 52.96068 
L 408.559978 53.112523 
L 408.965854 52.944789 
L 409.150344 52.971441 
L 409.297935 52.973091 
L 409.482424 52.999703 
L 409.703812 52.953086 
L 409.962097 53.029535 
L 410.146586 53.007058 
L 410.441769 53.108253 
L 410.77385 52.989517 
L 410.921441 52.991152 
L 411.032135 53.01682 
L 411.364216 53.142567 
L 411.548705 53.12012 
L 411.843888 53.220818 
L 411.954582 53.246347 
L 412.175969 53.297356 
L 412.32356 53.298856 
L 412.471152 53.300354 
L 412.692539 53.253943 
L 412.987722 53.354203 
L 413.172212 53.331749 
L 413.282905 53.308572 
L 413.467395 53.286161 
L 413.651884 53.312296 
L 413.762577 53.337665 
L 414.020863 53.412957 
L 414.316046 53.318978 
L 414.611229 53.418725 
L 414.869514 53.348706 
L 415.201594 53.472785 
L 415.533675 53.355298 
L 415.718165 53.381245 
L 415.865756 53.382695 
L 416.234735 53.530831 
L 416.382326 53.532216 
L 416.788203 53.704362 
L 417.083386 53.61087 
L 417.341671 53.685265 
L 417.52616 53.662914 
L 417.636854 53.639917 
L 417.932037 53.546699 
L 418.116526 53.572375 
L 418.264118 53.573736 
L 418.596199 53.696433 
L 418.817586 53.65057 
L 419.038973 53.700355 
L 419.26036 53.654547 
L 419.44485 53.680072 
L 419.703135 53.610806 
L 419.924522 53.660494 
L 420.109011 53.638315 
L 420.404194 53.736198 
L 420.514888 53.760962 
L 420.773173 53.834543 
L 421.031458 53.765421 
L 421.289743 53.838893 
L 421.474233 53.816707 
L 421.732518 53.890053 
L 421.953905 53.844469 
L 422.322884 53.989646 
L 422.581169 53.92071 
L 422.765658 53.945866 
L 423.023943 53.877045 
L 423.356024 53.997858 
L 423.540513 53.975717 
L 423.651207 53.953005 
L 423.835696 53.930905 
L 423.983288 53.9321 
L 424.167777 53.91003 
L 424.46296 54.006604 
L 424.610552 54.007766 
L 424.795041 54.032738 
L 425.016428 53.98745 
L 425.311611 54.083736 
L 425.606794 53.992117 
L 425.754386 53.993281 
L 426.049569 53.901845 
L 426.19716 53.903044 
L 426.676833 53.696332 
L 426.824424 53.697612 
L 427.082709 53.629725 
L 427.304096 53.678404 
L 427.525484 53.633638 
L 427.746871 53.682255 
L 427.857564 53.706542 
L 428.005156 53.707814 
L 428.152747 53.709084 
L 428.374135 53.757574 
L 428.521726 53.758823 
L 428.816909 53.854378 
L 428.816909 53.854378 
" clip-path="url(#pb23b6589d4)" style="fill: none; stroke: #4c72b0; stroke-width: 1.2; stroke-linecap: round"/>
   </g>
   <g id="patch_3">
    <path d="M 41.428 302.819625 
L 41.428 10.349438 
" style="fill: none; stroke: #262626; stroke-linejoin: miter; stroke-linecap: square"/>
   </g>
   <g id="patch_4">
    <path d="M 447.264 302.819625 
L 447.264 10.349438 
" style="fill: none; stroke: #262626; stroke-linejoin: miter; stroke-linecap: square"/>
   </g>
   <g id="patch_5">
    <path d="M 41.428 302.819625 
L 447.264 302.819625 
" style="fill: none; stroke: #262626; stroke-linejoin: miter; stroke-linecap: square"/>
   </g>
   <g id="patch_6">
    <path d="M 41.428 10.349438 
L 447.264 10.349438 
" style="fill: none; stroke: #262626; stroke-linejoin: miter; stroke-linecap: square"/>
   </g>
  </g>
 </g>
 <defs>
  <clipPath id="pb23b6589d4">
   <rect x="41.428" y="10.349438" width="405.836" height="292.470187"/>
  </clipPath>
 </defs>
</svg>