<?xml version="1.0" encoding="utf-8" standalone="no"?>
<!DOCTYPE svg PUBLIC "-//W3C//DTD SVG 1.1//EN"
  "http://www.w3.org/Graphics/SVG/1.1/DTD/svg11.dtd">
<svg xmlns:xlink="http://www.w3.org/1999/xlink" width="410.257625pt" height="309.639375pt" viewBox="0 0 410.257625 309.639375" xmlns="http://www.w3.org/2000/svg" version="1.1">
 <metadata>
  <rdf:RDF xmlns:dc="http://purl.org/dc/elements/1.1/" xmlns:cc="http://creativecommons.org/ns#" xmlns:rdf="http://www.w3.org/1999/02/22-rdf-syntax-ns#">
   <cc:Work>
    <dc:type rdf:resource="http://purl.org/dc/dcmitype/StillImage"/>
    <dc:date>2025-06-03T20:39:00.284309</dc:date>
    <dc:format>image/svg+xml</dc:format>
    <dc:creator>
     <cc:Agent>
      <dc:title>Matplotlib v3.9.2, https://matplotlib.org/</dc:title>
     </cc:Agent>
    </dc:creator>
   </cc:Work>
  </rdf:RDF>
 </metadata>
 <defs>
  <style type="text/css">*{stroke-linejoin: round; stroke-linecap: butt}</style>
 </defs>
 <g id="figure_1">
  <g id="patch_1">
   <path d="M 0 309.639375 
L 410.257625 309.639375 
L 410.257625 0 
L 0 0 
z
" style="fill: #ffffff"/>
  </g>
  <g id="axes_1">
   <g id="patch_2">
    <path d="M 45.937625 273.312 
L 403.057625 273.312 
L 403.057625 7.2 
L 45.937625 7.2 
z
" style="fill: #ffffff"/>
   </g>
   <g id="matplotlib.axis_1">
    <g id="xtick_1">
     <g id="line2d_1">
      <defs>
       <path id="me1d644a7ca" d="M 0 0 
L 0 4.8 
" style="stroke: #262626"/>
      </defs>
      <g>
       <use xlink:href="#me1d644a7ca" x="62.170352" y="273.312" style="fill: #262626; stroke: #262626"/>
      </g>
     </g>
     <g id="text_1">
      <!-- −6 -->
      <g style="fill: #262626" transform="translate(57.153665 287.910875) scale(0.088 -0.088)">
       <defs>
        <path id="ArialMT-2212" d="M 3381 1997 
L 356 1997 
L 356 2522 
L 3381 2522 
L 3381 1997 
z
" transform="scale(0.015625)"/>
        <path id="ArialMT-36" d="M 3184 3459 
L 2625 3416 
Q 2550 3747 2413 3897 
Q 2184 4138 1850 4138 
Q 1581 4138 1378 3988 
Q 1113 3794 959 3422 
Q 806 3050 800 2363 
Q 1003 2672 1297 2822 
Q 1591 2972 1913 2972 
Q 2475 2972 2870 2558 
Q 3266 2144 3266 1488 
Q 3266 1056 3080 686 
Q 2894 316 2569 119 
Q 2244 -78 1831 -78 
Q 1128 -78 684 439 
Q 241 956 241 2144 
Q 241 3472 731 4075 
Q 1159 4600 1884 4600 
Q 2425 4600 2770 4297 
Q 3116 3994 3184 3459 
z
M 888 1484 
Q 888 1194 1011 928 
Q 1134 663 1356 523 
Q 1578 384 1822 384 
Q 2178 384 2434 671 
Q 2691 959 2691 1453 
Q 2691 1928 2437 2201 
Q 2184 2475 1800 2475 
Q 1419 2475 1153 2201 
Q 888 1928 888 1484 
z
" transform="scale(0.015625)"/>
       </defs>
       <use xlink:href="#ArialMT-2212"/>
       <use xlink:href="#ArialMT-36" x="58.398438"/>
      </g>
     </g>
    </g>
    <g id="xtick_2">
     <g id="line2d_2">
      <g>
       <use xlink:href="#me1d644a7ca" x="116.279443" y="273.312" style="fill: #262626; stroke: #262626"/>
      </g>
     </g>
     <g id="text_2">
      <!-- −4 -->
      <g style="fill: #262626" transform="translate(111.262756 287.910875) scale(0.088 -0.088)">
       <defs>
        <path id="ArialMT-34" d="M 2069 0 
L 2069 1097 
L 81 1097 
L 81 1613 
L 2172 4581 
L 2631 4581 
L 2631 1613 
L 3250 1613 
L 3250 1097 
L 2631 1097 
L 2631 0 
L 2069 0 
z
M 2069 1613 
L 2069 3678 
L 634 1613 
L 2069 1613 
z
" transform="scale(0.015625)"/>
       </defs>
       <use xlink:href="#ArialMT-2212"/>
       <use xlink:href="#ArialMT-34" x="58.398438"/>
      </g>
     </g>
    </g>
    <g id="xtick_3">
     <g id="line2d_3">
      <g>
       <use xlink:href="#me1d644a7ca" x="170.388534" y="273.312" style="fill: #262626; stroke: #262626"/>
      </g>
     </g>
     <g id="text_3">
      <!-- −2 -->
      <g style="fill: #262626" transform="translate(165.371847 287.910875) scale(0.088 -0.088)">
       <defs>
        <path id="ArialMT-32" d="M 3222 541 
L 3222 0 
L 194 0 
Q 188 203 259 391 
Q 375 700 629 1000 
Q 884 1300 1366 1694 
Q 2113 2306 2375 2664 
Q 2638 3022 2638 3341 
Q 2638 3675 2398 3904 
Q 2159 4134 1775 4134 
Q 1369 4134 1125 3890 
Q 881 3647 878 3216 
L 300 3275 
Q 359 3922 746 4261 
Q 1134 4600 1788 4600 
Q 2447 4600 2831 4234 
Q 3216 3869 3216 3328 
Q 3216 3053 3103 2787 
Q 2991 2522 2730 2228 
Q 2469 1934 1863 1422 
Q 1356 997 1212 845 
Q 1069 694 975 541 
L 3222 541 
z
" transform="scale(0.015625)"/>
       </defs>
       <use xlink:href="#ArialMT-2212"/>
       <use xlink:href="#ArialMT-32" x="58.398438"/>
      </g>
     </g>
    </g>
    <g id="xtick_4">
     <g id="line2d_4">
      <g>
       <use xlink:href="#me1d644a7ca" x="224.497625" y="273.312" style="fill: #262626; stroke: #262626"/>
      </g>
     </g>
     <g id="text_4">
      <!-- 0 -->
      <g style="fill: #262626" transform="translate(222.050813 287.910875) scale(0.088 -0.088)">
       <defs>
        <path id="ArialMT-30" d="M 266 2259 
Q 266 3072 433 3567 
Q 600 4063 929 4331 
Q 1259 4600 1759 4600 
Q 2128 4600 2406 4451 
Q 2684 4303 2865 4023 
Q 3047 3744 3150 3342 
Q 3253 2941 3253 2259 
Q 3253 1453 3087 958 
Q 2922 463 2592 192 
Q 2263 -78 1759 -78 
Q 1097 -78 719 397 
Q 266 969 266 2259 
z
M 844 2259 
Q 844 1131 1108 757 
Q 1372 384 1759 384 
Q 2147 384 2411 759 
Q 2675 1134 2675 2259 
Q 2675 3391 2411 3762 
Q 2147 4134 1753 4134 
Q 1366 4134 1134 3806 
Q 844 3388 844 2259 
z
" transform="scale(0.015625)"/>
       </defs>
       <use xlink:href="#ArialMT-30"/>
      </g>
     </g>
    </g>
    <g id="xtick_5">
     <g id="line2d_5">
      <g>
       <use xlink:href="#me1d644a7ca" x="278.606716" y="273.312" style="fill: #262626; stroke: #262626"/>
      </g>
     </g>
     <g id="text_5">
      <!-- 2 -->
      <g style="fill: #262626" transform="translate(276.159903 287.910875) scale(0.088 -0.088)">
       <use xlink:href="#ArialMT-32"/>
      </g>
     </g>
    </g>
    <g id="xtick_6">
     <g id="line2d_6">
      <g>
       <use xlink:href="#me1d644a7ca" x="332.715807" y="273.312" style="fill: #262626; stroke: #262626"/>
      </g>
     </g>
     <g id="text_6">
      <!-- 4 -->
      <g style="fill: #262626" transform="translate(330.268994 287.910875) scale(0.088 -0.088)">
       <use xlink:href="#ArialMT-34"/>
      </g>
     </g>
    </g>
    <g id="xtick_7">
     <g id="line2d_7">
      <g>
       <use xlink:href="#me1d644a7ca" x="386.824898" y="273.312" style="fill: #262626; stroke: #262626"/>
      </g>
     </g>
     <g id="text_7">
      <!-- 6 -->
      <g style="fill: #262626" transform="translate(384.378085 287.910875) scale(0.088 -0.088)">
       <use xlink:href="#ArialMT-36"/>
      </g>
     </g>
    </g>
    <g id="text_8">
     <!-- $z$ -->
     <g style="fill: #262626" transform="translate(221.953625 300.531375) scale(0.096 -0.096)">
      <defs>
       <path id="DejaVuSans-Oblique-7a" d="M 744 3500 
L 3475 3500 
L 3372 2975 
L 738 459 
L 2913 459 
L 2822 0 
L -19 0 
L 84 525 
L 2719 3041 
L 653 3041 
L 744 3500 
z
" transform="scale(0.015625)"/>
      </defs>
      <use xlink:href="#DejaVuSans-Oblique-7a" transform="translate(0 0.3125)"/>
     </g>
    </g>
   </g>
   <g id="matplotlib.axis_2">
    <g id="ytick_1">
     <g id="line2d_8">
      <defs>
       <path id="m8d0d22f857" d="M 0 0 
L -4.8 0 
" style="stroke: #262626"/>
      </defs>
      <g>
       <use xlink:href="#m8d0d22f857" x="45.937625" y="261.216" style="fill: #262626; stroke: #262626"/>
      </g>
     </g>
     <g id="text_9">
      <!-- 0.00 -->
      <g style="fill: #262626" transform="translate(20.512 264.365437) scale(0.088 -0.088)">
       <defs>
        <path id="ArialMT-2e" d="M 581 0 
L 581 641 
L 1222 641 
L 1222 0 
L 581 0 
z
" transform="scale(0.015625)"/>
       </defs>
       <use xlink:href="#ArialMT-30"/>
       <use xlink:href="#ArialMT-2e" x="55.615234"/>
       <use xlink:href="#ArialMT-30" x="83.398438"/>
       <use xlink:href="#ArialMT-30" x="139.013672"/>
      </g>
     </g>
    </g>
    <g id="ytick_2">
     <g id="line2d_9">
      <g>
       <use xlink:href="#m8d0d22f857" x="45.937625" y="230.840089" style="fill: #262626; stroke: #262626"/>
      </g>
     </g>
     <g id="text_10">
      <!-- 0.05 -->
      <g style="fill: #262626" transform="translate(20.512 233.989526) scale(0.088 -0.088)">
       <defs>
        <path id="ArialMT-35" d="M 266 1200 
L 856 1250 
Q 922 819 1161 601 
Q 1400 384 1738 384 
Q 2144 384 2425 690 
Q 2706 997 2706 1503 
Q 2706 1984 2436 2262 
Q 2166 2541 1728 2541 
Q 1456 2541 1237 2417 
Q 1019 2294 894 2097 
L 366 2166 
L 809 4519 
L 3088 4519 
L 3088 3981 
L 1259 3981 
L 1013 2750 
Q 1425 3038 1878 3038 
Q 2478 3038 2890 2622 
Q 3303 2206 3303 1553 
Q 3303 931 2941 478 
Q 2500 -78 1738 -78 
Q 1113 -78 717 272 
Q 322 622 266 1200 
z
" transform="scale(0.015625)"/>
       </defs>
       <use xlink:href="#ArialMT-30"/>
       <use xlink:href="#ArialMT-2e" x="55.615234"/>
       <use xlink:href="#ArialMT-30" x="83.398438"/>
       <use xlink:href="#ArialMT-35" x="139.013672"/>
      </g>
     </g>
    </g>
    <g id="ytick_3">
     <g id="line2d_10">
      <g>
       <use xlink:href="#m8d0d22f857" x="45.937625" y="200.464178" style="fill: #262626; stroke: #262626"/>
      </g>
     </g>
     <g id="text_11">
      <!-- 0.10 -->
      <g style="fill: #262626" transform="translate(20.512 203.613615) scale(0.088 -0.088)">
       <defs>
        <path id="ArialMT-31" d="M 2384 0 
L 1822 0 
L 1822 3584 
Q 1619 3391 1289 3197 
Q 959 3003 697 2906 
L 697 3450 
Q 1169 3672 1522 3987 
Q 1875 4303 2022 4600 
L 2384 4600 
L 2384 0 
z
" transform="scale(0.015625)"/>
       </defs>
       <use xlink:href="#ArialMT-30"/>
       <use xlink:href="#ArialMT-2e" x="55.615234"/>
       <use xlink:href="#ArialMT-31" x="83.398438"/>
       <use xlink:href="#ArialMT-30" x="139.013672"/>
      </g>
     </g>
    </g>
    <g id="ytick_4">
     <g id="line2d_11">
      <g>
       <use xlink:href="#m8d0d22f857" x="45.937625" y="170.088266" style="fill: #262626; stroke: #262626"/>
      </g>
     </g>
     <g id="text_12">
      <!-- 0.15 -->
      <g style="fill: #262626" transform="translate(20.512 173.237704) scale(0.088 -0.088)">
       <use xlink:href="#ArialMT-30"/>
       <use xlink:href="#ArialMT-2e" x="55.615234"/>
       <use xlink:href="#ArialMT-31" x="83.398438"/>
       <use xlink:href="#ArialMT-35" x="139.013672"/>
      </g>
     </g>
    </g>
    <g id="ytick_5">
     <g id="line2d_12">
      <g>
       <use xlink:href="#m8d0d22f857" x="45.937625" y="139.712355" style="fill: #262626; stroke: #262626"/>
      </g>
     </g>
     <g id="text_13">
      <!-- 0.20 -->
      <g style="fill: #262626" transform="translate(20.512 142.861793) scale(0.088 -0.088)">
       <use xlink:href="#ArialMT-30"/>
       <use xlink:href="#ArialMT-2e" x="55.615234"/>
       <use xlink:href="#ArialMT-32" x="83.398438"/>
       <use xlink:href="#ArialMT-30" x="139.013672"/>
      </g>
     </g>
    </g>
    <g id="ytick_6">
     <g id="line2d_13">
      <g>
       <use xlink:href="#m8d0d22f857" x="45.937625" y="109.336444" style="fill: #262626; stroke: #262626"/>
      </g>
     </g>
     <g id="text_14">
      <!-- 0.25 -->
      <g style="fill: #262626" transform="translate(20.512 112.485881) scale(0.088 -0.088)">
       <use xlink:href="#ArialMT-30"/>
       <use xlink:href="#ArialMT-2e" x="55.615234"/>
       <use xlink:href="#ArialMT-32" x="83.398438"/>
       <use xlink:href="#ArialMT-35" x="139.013672"/>
      </g>
     </g>
    </g>
    <g id="ytick_7">
     <g id="line2d_14">
      <g>
       <use xlink:href="#m8d0d22f857" x="45.937625" y="78.960533" style="fill: #262626; stroke: #262626"/>
      </g>
     </g>
     <g id="text_15">
      <!-- 0.30 -->
      <g style="fill: #262626" transform="translate(20.512 82.10997) scale(0.088 -0.088)">
       <defs>
        <path id="ArialMT-33" d="M 269 1209 
L 831 1284 
Q 928 806 1161 595 
Q 1394 384 1728 384 
Q 2125 384 2398 659 
Q 2672 934 2672 1341 
Q 2672 1728 2419 1979 
Q 2166 2231 1775 2231 
Q 1616 2231 1378 2169 
L 1441 2663 
Q 1497 2656 1531 2656 
Q 1891 2656 2178 2843 
Q 2466 3031 2466 3422 
Q 2466 3731 2256 3934 
Q 2047 4138 1716 4138 
Q 1388 4138 1169 3931 
Q 950 3725 888 3313 
L 325 3413 
Q 428 3978 793 4289 
Q 1159 4600 1703 4600 
Q 2078 4600 2393 4439 
Q 2709 4278 2876 4000 
Q 3044 3722 3044 3409 
Q 3044 3113 2884 2869 
Q 2725 2625 2413 2481 
Q 2819 2388 3044 2092 
Q 3269 1797 3269 1353 
Q 3269 753 2831 336 
Q 2394 -81 1725 -81 
Q 1122 -81 723 278 
Q 325 638 269 1209 
z
" transform="scale(0.015625)"/>
       </defs>
       <use xlink:href="#ArialMT-30"/>
       <use xlink:href="#ArialMT-2e" x="55.615234"/>
       <use xlink:href="#ArialMT-33" x="83.398438"/>
       <use xlink:href="#ArialMT-30" x="139.013672"/>
      </g>
     </g>
    </g>
    <g id="ytick_8">
     <g id="line2d_15">
      <g>
       <use xlink:href="#m8d0d22f857" x="45.937625" y="48.584622" style="fill: #262626; stroke: #262626"/>
      </g>
     </g>
     <g id="text_16">
      <!-- 0.35 -->
      <g style="fill: #262626" transform="translate(20.512 51.734059) scale(0.088 -0.088)">
       <use xlink:href="#ArialMT-30"/>
       <use xlink:href="#ArialMT-2e" x="55.615234"/>
       <use xlink:href="#ArialMT-33" x="83.398438"/>
       <use xlink:href="#ArialMT-35" x="139.013672"/>
      </g>
     </g>
    </g>
    <g id="ytick_9">
     <g id="line2d_16">
      <g>
       <use xlink:href="#m8d0d22f857" x="45.937625" y="18.20871" style="fill: #262626; stroke: #262626"/>
      </g>
     </g>
     <g id="text_17">
      <!-- 0.40 -->
      <g style="fill: #262626" transform="translate(20.512 21.358148) scale(0.088 -0.088)">
       <use xlink:href="#ArialMT-30"/>
       <use xlink:href="#ArialMT-2e" x="55.615234"/>
       <use xlink:href="#ArialMT-34" x="83.398438"/>
       <use xlink:href="#ArialMT-30" x="139.013672"/>
      </g>
     </g>
    </g>
    <g id="text_18">
     <!-- $\phi(z)$ -->
     <g style="fill: #262626" transform="translate(14.496 149.712) rotate(-90) scale(0.096 -0.096)">
      <defs>
       <path id="DejaVuSans-Oblique-3d5" d="M 2991 4863 
L 2738 3572 
Q 3363 3572 3684 3094 
Q 4016 2606 3850 1747 
Q 3681 888 3159 400 
Q 2653 -78 2028 -78 
L 1784 -1331 
L 1213 -1331 
L 1456 -78 
Q 834 -78 509 400 
Q 178 888 347 1747 
Q 513 2606 1034 3094 
Q 1544 3572 2166 3572 
L 2419 4863 
L 2991 4863 
z
M 2128 434 
Q 2481 434 2784 756 
Q 3116 1116 3244 1747 
Q 3369 2372 3169 2738 
Q 2991 3059 2638 3059 
L 2128 434 
z
M 1556 434 
L 2066 3059 
Q 1716 3059 1413 2738 
Q 1072 2372 953 1747 
Q 834 1116 1028 756 
Q 1203 434 1556 434 
z
" transform="scale(0.015625)"/>
       <path id="DejaVuSans-28" d="M 1984 4856 
Q 1566 4138 1362 3434 
Q 1159 2731 1159 2009 
Q 1159 1288 1364 580 
Q 1569 -128 1984 -844 
L 1484 -844 
Q 1016 -109 783 600 
Q 550 1309 550 2009 
Q 550 2706 781 3412 
Q 1013 4119 1484 4856 
L 1984 4856 
z
" transform="scale(0.015625)"/>
       <path id="DejaVuSans-29" d="M 513 4856 
L 1013 4856 
Q 1481 4119 1714 3412 
Q 1947 2706 1947 2009 
Q 1947 1309 1714 600 
Q 1481 -109 1013 -844 
L 513 -844 
Q 928 -128 1133 580 
Q 1338 1288 1338 2009 
Q 1338 2731 1133 3434 
Q 928 4138 513 4856 
z
" transform="scale(0.015625)"/>
      </defs>
      <use xlink:href="#DejaVuSans-Oblique-3d5" transform="translate(0 0.015625)"/>
      <use xlink:href="#DejaVuSans-28" transform="translate(65.966797 0.015625)"/>
      <use xlink:href="#DejaVuSans-Oblique-7a" transform="translate(104.980469 0.015625)"/>
      <use xlink:href="#DejaVuSans-29" transform="translate(157.470703 0.015625)"/>
     </g>
    </g>
   </g>
   <g id="PolyCollection_1">
    <defs>
     <path id="m37c8777e8b" d="M 62.170352 -48.423379 
L 62.170352 -48.423375 
L 63.536743 -48.423375 
L 64.903135 -48.423375 
L 66.269526 -48.423375 
L 67.635917 -48.423375 
L 69.002308 -48.423375 
L 70.368699 -48.423375 
L 71.735091 -48.423375 
L 73.101482 -48.423375 
L 74.467873 -48.423375 
L 75.834264 -48.423375 
L 77.200655 -48.423375 
L 78.567046 -48.423375 
L 79.933438 -48.423375 
L 81.299829 -48.423375 
L 82.66622 -48.423375 
L 84.032611 -48.423375 
L 85.399002 -48.423375 
L 86.765394 -48.423375 
L 88.131785 -48.423375 
L 89.498176 -48.423375 
L 90.864567 -48.423375 
L 92.230958 -48.423375 
L 93.59735 -48.423375 
L 94.963741 -48.423375 
L 96.330132 -48.423375 
L 97.696523 -48.423375 
L 99.062914 -48.423375 
L 100.429305 -48.423375 
L 101.795697 -48.423375 
L 103.162088 -48.423375 
L 104.528479 -48.423375 
L 105.89487 -48.423375 
L 107.261261 -48.423375 
L 108.627653 -48.423375 
L 109.994044 -48.423375 
L 111.360435 -48.423375 
L 112.726826 -48.423375 
L 114.093217 -48.423375 
L 115.459608 -48.423375 
L 116.826 -48.423375 
L 118.192391 -48.423375 
L 119.558782 -48.423375 
L 120.925173 -48.423375 
L 122.291564 -48.423375 
L 123.657956 -48.423375 
L 125.024347 -48.423375 
L 126.390738 -48.423375 
L 127.757129 -48.423375 
L 129.12352 -48.423375 
L 130.489912 -48.423375 
L 131.856303 -48.423375 
L 133.222694 -48.423375 
L 134.589085 -48.423375 
L 135.955476 -48.423375 
L 137.321867 -48.423375 
L 138.688259 -48.423375 
L 140.05465 -48.423375 
L 141.421041 -48.423375 
L 142.787432 -48.423375 
L 144.153823 -48.423375 
L 145.520215 -48.423375 
L 146.886606 -48.423375 
L 148.252997 -48.423375 
L 149.619388 -48.423375 
L 150.985779 -48.423375 
L 152.35217 -48.423375 
L 153.718562 -48.423375 
L 155.084953 -48.423375 
L 156.451344 -48.423375 
L 157.817735 -48.423375 
L 159.184126 -48.423375 
L 160.550518 -48.423375 
L 161.916909 -48.423375 
L 163.2833 -48.423375 
L 164.649691 -48.423375 
L 166.016082 -48.423375 
L 167.382473 -48.423375 
L 168.748865 -48.423375 
L 170.115256 -48.423375 
L 171.481647 -48.423375 
L 172.848038 -48.423375 
L 174.214429 -48.423375 
L 175.580821 -48.423375 
L 176.947212 -48.423375 
L 178.313603 -48.423375 
L 179.679994 -48.423375 
L 181.046385 -48.423375 
L 182.412777 -48.423375 
L 183.779168 -48.423375 
L 185.145559 -48.423375 
L 186.51195 -48.423375 
L 187.878341 -48.423375 
L 189.244732 -48.423375 
L 190.611124 -48.423375 
L 191.977515 -48.423375 
L 193.343906 -48.423375 
L 194.710297 -48.423375 
L 196.076688 -48.423375 
L 197.44308 -48.423375 
L 197.44308 -195.425 
L 197.44308 -195.425 
L 196.076688 -188.006906 
L 194.710297 -180.625502 
L 193.343906 -173.315463 
L 191.977515 -166.109057 
L 190.611124 -159.035962 
L 189.244732 -152.12312 
L 187.878341 -145.394637 
L 186.51195 -138.87172 
L 185.145559 -132.572658 
L 183.779168 -126.512838 
L 182.412777 -120.704794 
L 181.046385 -115.158292 
L 179.679994 -109.880437 
L 178.313603 -104.875811 
L 176.947212 -100.146624 
L 175.580821 -95.692888 
L 174.214429 -91.512599 
L 172.848038 -87.601932 
L 171.481647 -83.955438 
L 170.115256 -80.566243 
L 168.748865 -77.42625 
L 167.382473 -74.526331 
L 166.016082 -71.856519 
L 164.649691 -69.406185 
L 163.2833 -67.16421 
L 161.916909 -65.119145 
L 160.550518 -63.259354 
L 159.184126 -61.573145 
L 157.817735 -60.048893 
L 156.451344 -58.675142 
L 155.084953 -57.440692 
L 153.718562 -56.334681 
L 152.35217 -55.346644 
L 150.985779 -54.466568 
L 149.619388 -53.684928 
L 148.252997 -52.992717 
L 146.886606 -52.381465 
L 145.520215 -51.843246 
L 144.153823 -51.370687 
L 142.787432 -50.956955 
L 141.421041 -50.595754 
L 140.05465 -50.281302 
L 138.688259 -50.008318 
L 137.321867 -49.772 
L 135.955476 -49.567994 
L 134.589085 -49.392373 
L 133.222694 -49.241608 
L 131.856303 -49.11254 
L 130.489912 -49.002353 
L 129.12352 -48.908543 
L 127.757129 -48.828898 
L 126.390738 -48.761464 
L 125.024347 -48.704525 
L 123.657956 -48.65658 
L 122.291564 -48.616318 
L 120.925173 -48.582601 
L 119.558782 -48.554441 
L 118.192391 -48.530986 
L 116.826 -48.511504 
L 115.459608 -48.495365 
L 114.093217 -48.482032 
L 112.726826 -48.471046 
L 111.360435 -48.462019 
L 109.994044 -48.454622 
L 108.627653 -48.448576 
L 107.261261 -48.443648 
L 105.89487 -48.439643 
L 104.528479 -48.436395 
L 103.162088 -48.433769 
L 101.795697 -48.431652 
L 100.429305 -48.429949 
L 99.062914 -48.428583 
L 97.696523 -48.427491 
L 96.330132 -48.426619 
L 94.963741 -48.425926 
L 93.59735 -48.425375 
L 92.230958 -48.42494 
L 90.864567 -48.424596 
L 89.498176 -48.424325 
L 88.131785 -48.424112 
L 86.765394 -48.423946 
L 85.399002 -48.423816 
L 84.032611 -48.423715 
L 82.66622 -48.423636 
L 81.299829 -48.423575 
L 79.933438 -48.423528 
L 78.567046 -48.423492 
L 77.200655 -48.423464 
L 75.834264 -48.423442 
L 74.467873 -48.423426 
L 73.101482 -48.423413 
L 71.735091 -48.423404 
L 70.368699 -48.423397 
L 69.002308 -48.423391 
L 67.635917 -48.423387 
L 66.269526 -48.423384 
L 64.903135 -48.423382 
L 63.536743 -48.42338 
L 62.170352 -48.423379 
z
" style="stroke: #0000ff; stroke-opacity: 0.5; stroke-width: 0.8"/>
    </defs>
    <g clip-path="url(#p9643625d81)">
     <use xlink:href="#m37c8777e8b" x="0" y="309.639375" style="fill: #0000ff; fill-opacity: 0.5; stroke: #0000ff; stroke-opacity: 0.5; stroke-width: 0.8"/>
    </g>
   </g>
   <g id="PolyCollection_2">
    <defs>
     <path id="m4502555ed4" d="M 251.55217 -195.425 
L 251.55217 -48.423375 
L 252.918562 -48.423375 
L 254.284953 -48.423375 
L 255.651344 -48.423375 
L 257.017735 -48.423375 
L 258.384126 -48.423375 
L 259.750518 -48.423375 
L 261.116909 -48.423375 
L 262.4833 -48.423375 
L 263.849691 -48.423375 
L 265.216082 -48.423375 
L 266.582473 -48.423375 
L 267.948865 -48.423375 
L 269.315256 -48.423375 
L 270.681647 -48.423375 
L 272.048038 -48.423375 
L 273.414429 -48.423375 
L 274.780821 -48.423375 
L 276.147212 -48.423375 
L 277.513603 -48.423375 
L 278.879994 -48.423375 
L 280.246385 -48.423375 
L 281.612777 -48.423375 
L 282.979168 -48.423375 
L 284.345559 -48.423375 
L 285.71195 -48.423375 
L 287.078341 -48.423375 
L 288.444732 -48.423375 
L 289.811124 -48.423375 
L 291.177515 -48.423375 
L 292.543906 -48.423375 
L 293.910297 -48.423375 
L 295.276688 -48.423375 
L 296.64308 -48.423375 
L 298.009471 -48.423375 
L 299.375862 -48.423375 
L 300.742253 -48.423375 
L 302.108644 -48.423375 
L 303.475035 -48.423375 
L 304.841427 -48.423375 
L 306.207818 -48.423375 
L 307.574209 -48.423375 
L 308.9406 -48.423375 
L 310.306991 -48.423375 
L 311.673383 -48.423375 
L 313.039774 -48.423375 
L 314.406165 -48.423375 
L 315.772556 -48.423375 
L 317.138947 -48.423375 
L 318.505338 -48.423375 
L 319.87173 -48.423375 
L 321.238121 -48.423375 
L 322.604512 -48.423375 
L 323.970903 -48.423375 
L 325.337294 -48.423375 
L 326.703686 -48.423375 
L 328.070077 -48.423375 
L 329.436468 -48.423375 
L 330.802859 -48.423375 
L 332.16925 -48.423375 
L 333.535642 -48.423375 
L 334.902033 -48.423375 
L 336.268424 -48.423375 
L 337.634815 -48.423375 
L 339.001206 -48.423375 
L 340.367597 -48.423375 
L 341.733989 -48.423375 
L 343.10038 -48.423375 
L 344.466771 -48.423375 
L 345.833162 -48.423375 
L 347.199553 -48.423375 
L 348.565945 -48.423375 
L 349.932336 -48.423375 
L 351.298727 -48.423375 
L 352.665118 -48.423375 
L 354.031509 -48.423375 
L 355.3979 -48.423375 
L 356.764292 -48.423375 
L 358.130683 -48.423375 
L 359.497074 -48.423375 
L 360.863465 -48.423375 
L 362.229856 -48.423375 
L 363.596248 -48.423375 
L 364.962639 -48.423375 
L 366.32903 -48.423375 
L 367.695421 -48.423375 
L 369.061812 -48.423375 
L 370.428204 -48.423375 
L 371.794595 -48.423375 
L 373.160986 -48.423375 
L 374.527377 -48.423375 
L 375.893768 -48.423375 
L 377.260159 -48.423375 
L 378.626551 -48.423375 
L 379.992942 -48.423375 
L 381.359333 -48.423375 
L 382.725724 -48.423375 
L 384.092115 -48.423375 
L 385.458507 -48.423375 
L 386.824898 -48.423375 
L 386.824898 -48.423379 
L 386.824898 -48.423379 
L 385.458507 -48.42338 
L 384.092115 -48.423382 
L 382.725724 -48.423384 
L 381.359333 -48.423387 
L 379.992942 -48.423391 
L 378.626551 -48.423397 
L 377.260159 -48.423404 
L 375.893768 -48.423413 
L 374.527377 -48.423426 
L 373.160986 -48.423442 
L 371.794595 -48.423464 
L 370.428204 -48.423492 
L 369.061812 -48.423528 
L 367.695421 -48.423575 
L 366.32903 -48.423636 
L 364.962639 -48.423715 
L 363.596248 -48.423816 
L 362.229856 -48.423946 
L 360.863465 -48.424112 
L 359.497074 -48.424325 
L 358.130683 -48.424596 
L 356.764292 -48.42494 
L 355.3979 -48.425375 
L 354.031509 -48.425926 
L 352.665118 -48.426619 
L 351.298727 -48.427491 
L 349.932336 -48.428583 
L 348.565945 -48.429949 
L 347.199553 -48.431652 
L 345.833162 -48.433769 
L 344.466771 -48.436395 
L 343.10038 -48.439643 
L 341.733989 -48.443648 
L 340.367597 -48.448576 
L 339.001206 -48.454622 
L 337.634815 -48.462019 
L 336.268424 -48.471046 
L 334.902033 -48.482032 
L 333.535642 -48.495365 
L 332.16925 -48.511504 
L 330.802859 -48.530986 
L 329.436468 -48.554441 
L 328.070077 -48.582601 
L 326.703686 -48.616318 
L 325.337294 -48.65658 
L 323.970903 -48.704525 
L 322.604512 -48.761464 
L 321.238121 -48.828898 
L 319.87173 -48.908543 
L 318.505338 -49.002353 
L 317.138947 -49.11254 
L 315.772556 -49.241608 
L 314.406165 -49.392373 
L 313.039774 -49.567994 
L 311.673383 -49.772 
L 310.306991 -50.008318 
L 308.9406 -50.281302 
L 307.574209 -50.595754 
L 306.207818 -50.956955 
L 304.841427 -51.370687 
L 303.475035 -51.843246 
L 302.108644 -52.381465 
L 300.742253 -52.992717 
L 299.375862 -53.684928 
L 298.009471 -54.466568 
L 296.64308 -55.346644 
L 295.276688 -56.334681 
L 293.910297 -57.440692 
L 292.543906 -58.675142 
L 291.177515 -60.048893 
L 289.811124 -61.573145 
L 288.444732 -63.259354 
L 287.078341 -65.119145 
L 285.71195 -67.16421 
L 284.345559 -69.406185 
L 282.979168 -71.856519 
L 281.612777 -74.526331 
L 280.246385 -77.42625 
L 278.879994 -80.566243 
L 277.513603 -83.955438 
L 276.147212 -87.601932 
L 274.780821 -91.512599 
L 273.414429 -95.692888 
L 272.048038 -100.146624 
L 270.681647 -104.875811 
L 269.315256 -109.880437 
L 267.948865 -115.158292 
L 266.582473 -120.704794 
L 265.216082 -126.512838 
L 263.849691 -132.572658 
L 262.4833 -138.87172 
L 261.116909 -145.394637 
L 259.750518 -152.12312 
L 258.384126 -159.035962 
L 257.017735 -166.109057 
L 255.651344 -173.315463 
L 254.284953 -180.625502 
L 252.918562 -188.006906 
L 251.55217 -195.425 
z
" style="stroke: #ff0000; stroke-opacity: 0.5; stroke-width: 0.8"/>
    </defs>
    <g clip-path="url(#p9643625d81)">
     <use xlink:href="#m4502555ed4" x="0" y="309.639375" style="fill: #ff0000; fill-opacity: 0.5; stroke: #ff0000; stroke-opacity: 0.5; stroke-width: 0.8"/>
    </g>
   </g>
   <g id="line2d_17">
    <path d="M 62.170352 261.215996 
L 65.449691 261.215992 
L 68.72903 261.215985 
L 72.008369 261.215969 
L 75.287708 261.21594 
L 78.567046 261.215883 
L 81.846385 261.215777 
L 85.125724 261.215581 
L 88.405063 261.215224 
L 91.684402 261.214583 
L 94.963741 261.213449 
L 98.24308 261.211476 
L 101.522418 261.208094 
L 104.801757 261.202384 
L 108.081096 261.192892 
L 111.360435 261.177356 
L 114.639774 261.152316 
L 117.919113 261.112581 
L 121.198451 261.050505 
L 124.47779 260.95503 
L 127.757129 260.810477 
L 131.036468 260.595046 
L 134.315807 260.279037 
L 137.595146 259.822829 
L 140.874485 259.174706 
L 144.153823 258.268688 
L 147.433162 257.022605 
L 150.712501 255.336714 
L 153.99184 253.093259 
L 157.271179 250.157408 
L 160.550518 246.380021 
L 163.829856 241.602651 
L 167.109195 235.665083 
L 170.388534 228.415504 
L 173.667873 219.723126 
L 176.947212 209.492751 
L 180.226551 197.680382 
L 183.505889 184.30864 
L 186.785228 169.480437 
L 190.064567 153.389195 
L 193.343906 136.323912 
L 196.623245 118.667617 
L 199.902584 100.888195 
L 203.181923 83.521258 
L 206.461261 67.145515 
L 209.7406 52.352003 
L 213.019939 39.709303 
L 216.299278 29.727555 
L 219.578617 22.824396 
L 222.857956 19.296 
L 226.137294 19.296 
L 229.416633 22.824396 
L 232.695972 29.727555 
L 235.975311 39.709303 
L 239.25465 52.352003 
L 242.533989 67.145515 
L 245.813327 83.521258 
L 249.092666 100.888195 
L 252.372005 118.667617 
L 255.651344 136.323912 
L 258.930683 153.389195 
L 262.210022 169.480437 
L 265.489361 184.30864 
L 268.768699 197.680382 
L 272.048038 209.492751 
L 275.327377 219.723126 
L 278.606716 228.415504 
L 281.886055 235.665083 
L 285.165394 241.602651 
L 288.444732 246.380021 
L 291.724071 250.157408 
L 295.00341 253.093259 
L 298.282749 255.336714 
L 301.562088 257.022605 
L 304.841427 258.268688 
L 308.120765 259.174706 
L 311.400104 259.822829 
L 314.679443 260.279037 
L 317.958782 260.595046 
L 321.238121 260.810477 
L 324.51746 260.95503 
L 327.796799 261.050505 
L 331.076137 261.112581 
L 334.355476 261.152316 
L 337.634815 261.177356 
L 340.914154 261.192892 
L 344.193493 261.202384 
L 347.472832 261.208094 
L 350.75217 261.211476 
L 354.031509 261.213449 
L 357.310848 261.214583 
L 360.590187 261.215224 
L 363.869526 261.215581 
L 367.148865 261.215777 
L 370.428204 261.215883 
L 373.707542 261.21594 
L 376.986881 261.215969 
L 380.26622 261.215985 
L 383.545559 261.215992 
L 386.824898 261.215996 
" clip-path="url(#p9643625d81)" style="fill: none; stroke: #1f77b4; stroke-width: 1.2; stroke-linecap: round"/>
   </g>
   <g id="patch_3">
    <path d="M 45.937625 273.312 
L 45.937625 7.2 
" style="fill: none; stroke: #262626; stroke-linejoin: miter; stroke-linecap: square"/>
   </g>
   <g id="patch_4">
    <path d="M 403.057625 273.312 
L 403.057625 7.2 
" style="fill: none; stroke: #262626; stroke-linejoin: miter; stroke-linecap: square"/>
   </g>
   <g id="patch_5">
    <path d="M 45.937625 273.312 
L 403.057625 273.312 
" style="fill: none; stroke: #262626; stroke-linejoin: miter; stroke-linecap: square"/>
   </g>
   <g id="patch_6">
    <path d="M 45.937625 7.2 
L 403.057625 7.2 
" style="fill: none; stroke: #262626; stroke-linejoin: miter; stroke-linecap: square"/>
   </g>
  </g>
 </g>
 <defs>
  <clipPath id="p9643625d81">
   <rect x="45.937625" y="7.2" width="357.12" height="266.112"/>
  </clipPath>
 </defs>
</svg>