<?xml version="1.0" encoding="utf-8" standalone="no"?>
<!DOCTYPE svg PUBLIC "-//W3C//DTD SVG 1.1//EN"
  "http://www.w3.org/Graphics/SVG/1.1/DTD/svg11.dtd">
<svg xmlns:xlink="http://www.w3.org/1999/xlink" width="454.464pt" height="339.264pt" viewBox="0 0 454.464 339.264" xmlns="http://www.w3.org/2000/svg" version="1.1">
 <metadata>
  <rdf:RDF xmlns:dc="http://purl.org/dc/elements/1.1/" xmlns:cc="http://creativecommons.org/ns#" xmlns:rdf="http://www.w3.org/1999/02/22-rdf-syntax-ns#">
   <cc:Work>
    <dc:type rdf:resource="http://purl.org/dc/dcmitype/StillImage"/>
    <dc:date>2025-03-29T21:14:24.802115</dc:date>
    <dc:format>image/svg+xml</dc:format>
    <dc:creator>
     <cc:Agent>
      <dc:title>Matplotlib v3.9.2, https://matplotlib.org/</dc:title>
     </cc:Agent>
    </dc:creator>
   </cc:Work>
  </rdf:RDF>
 </metadata>
 <defs>
  <style type="text/css">*{stroke-linejoin: round; stroke-linecap: butt}</style>
 </defs>
 <g id="figure_1">
  <g id="patch_1">
   <path d="M 0 339.264 
L 454.464 339.264 
L 454.464 0 
L 0 0 
z
" style="fill: #ffffff"/>
  </g>
  <g id="axes_1">
   <g id="patch_2">
    <path d="M 38.29625 287.868898 
L 447.264 287.868898 
L 447.264 7.2 
L 38.29625 7.2 
z
" style="fill: #ffffff"/>
   </g>
   <g id="matplotlib.axis_1">
    <g id="xtick_1">
     <g id="line2d_1">
      <defs>
       <path id="m9945b02fd4" d="M 0 0 
L 0 4.8 
" style="stroke: #262626"/>
      </defs>
      <g>
       <use xlink:href="#m9945b02fd4" x="54.022108" y="287.868898" style="fill: #262626; stroke: #262626"/>
      </g>
     </g>
     <g id="text_1">
      <!-- 2018-01 -->
      <g style="fill: #262626" transform="translate(25.182023 317.769822) rotate(-30) scale(0.088 -0.088)">
       <defs>
        <path id="ArialMT-32" d="M 3222 541 
L 3222 0 
L 194 0 
Q 188 203 259 391 
Q 375 700 629 1000 
Q 884 1300 1366 1694 
Q 2113 2306 2375 2664 
Q 2638 3022 2638 3341 
Q 2638 3675 2398 3904 
Q 2159 4134 1775 4134 
Q 1369 4134 1125 3890 
Q 881 3647 878 3216 
L 300 3275 
Q 359 3922 746 4261 
Q 1134 4600 1788 4600 
Q 2447 4600 2831 4234 
Q 3216 3869 3216 3328 
Q 3216 3053 3103 2787 
Q 2991 2522 2730 2228 
Q 2469 1934 1863 1422 
Q 1356 997 1212 845 
Q 1069 694 975 541 
L 3222 541 
z
" transform="scale(0.015625)"/>
        <path id="ArialMT-30" d="M 266 2259 
Q 266 3072 433 3567 
Q 600 4063 929 4331 
Q 1259 4600 1759 4600 
Q 2128 4600 2406 4451 
Q 2684 4303 2865 4023 
Q 3047 3744 3150 3342 
Q 3253 2941 3253 2259 
Q 3253 1453 3087 958 
Q 2922 463 2592 192 
Q 2263 -78 1759 -78 
Q 1097 -78 719 397 
Q 266 969 266 2259 
z
M 844 2259 
Q 844 1131 1108 757 
Q 1372 384 1759 384 
Q 2147 384 2411 759 
Q 2675 1134 2675 2259 
Q 2675 3391 2411 3762 
Q 2147 4134 1753 4134 
Q 1366 4134 1134 3806 
Q 844 3388 844 2259 
z
" transform="scale(0.015625)"/>
        <path id="ArialMT-31" d="M 2384 0 
L 1822 0 
L 1822 3584 
Q 1619 3391 1289 3197 
Q 959 3003 697 2906 
L 697 3450 
Q 1169 3672 1522 3987 
Q 1875 4303 2022 4600 
L 2384 4600 
L 2384 0 
z
" transform="scale(0.015625)"/>
        <path id="ArialMT-38" d="M 1131 2484 
Q 781 2613 612 2850 
Q 444 3088 444 3419 
Q 444 3919 803 4259 
Q 1163 4600 1759 4600 
Q 2359 4600 2725 4251 
Q 3091 3903 3091 3403 
Q 3091 3084 2923 2848 
Q 2756 2613 2416 2484 
Q 2838 2347 3058 2040 
Q 3278 1734 3278 1309 
Q 3278 722 2862 322 
Q 2447 -78 1769 -78 
Q 1091 -78 675 323 
Q 259 725 259 1325 
Q 259 1772 486 2073 
Q 713 2375 1131 2484 
z
M 1019 3438 
Q 1019 3113 1228 2906 
Q 1438 2700 1772 2700 
Q 2097 2700 2305 2904 
Q 2513 3109 2513 3406 
Q 2513 3716 2298 3927 
Q 2084 4138 1766 4138 
Q 1444 4138 1231 3931 
Q 1019 3725 1019 3438 
z
M 838 1322 
Q 838 1081 952 856 
Q 1066 631 1291 507 
Q 1516 384 1775 384 
Q 2178 384 2440 643 
Q 2703 903 2703 1303 
Q 2703 1709 2433 1975 
Q 2163 2241 1756 2241 
Q 1359 2241 1098 1978 
Q 838 1716 838 1322 
z
" transform="scale(0.015625)"/>
        <path id="ArialMT-2d" d="M 203 1375 
L 203 1941 
L 1931 1941 
L 1931 1375 
L 203 1375 
z
" transform="scale(0.015625)"/>
       </defs>
       <use xlink:href="#ArialMT-32"/>
       <use xlink:href="#ArialMT-30" x="55.615234"/>
       <use xlink:href="#ArialMT-31" x="111.230469"/>
       <use xlink:href="#ArialMT-38" x="166.845703"/>
       <use xlink:href="#ArialMT-2d" x="222.460938"/>
       <use xlink:href="#ArialMT-30" x="255.761719"/>
       <use xlink:href="#ArialMT-31" x="311.376953"/>
      </g>
     </g>
    </g>
    <g id="xtick_2">
     <g id="line2d_2">
      <g>
       <use xlink:href="#m9945b02fd4" x="96.975892" y="287.868898" style="fill: #262626; stroke: #262626"/>
      </g>
     </g>
     <g id="text_2">
      <!-- 2018-04 -->
      <g style="fill: #262626" transform="translate(68.135807 317.769822) rotate(-30) scale(0.088 -0.088)">
       <defs>
        <path id="ArialMT-34" d="M 2069 0 
L 2069 1097 
L 81 1097 
L 81 1613 
L 2172 4581 
L 2631 4581 
L 2631 1613 
L 3250 1613 
L 3250 1097 
L 2631 1097 
L 2631 0 
L 2069 0 
z
M 2069 1613 
L 2069 3678 
L 634 1613 
L 2069 1613 
z
" transform="scale(0.015625)"/>
       </defs>
       <use xlink:href="#ArialMT-32"/>
       <use xlink:href="#ArialMT-30" x="55.615234"/>
       <use xlink:href="#ArialMT-31" x="111.230469"/>
       <use xlink:href="#ArialMT-38" x="166.845703"/>
       <use xlink:href="#ArialMT-2d" x="222.460938"/>
       <use xlink:href="#ArialMT-30" x="255.761719"/>
       <use xlink:href="#ArialMT-34" x="311.376953"/>
      </g>
     </g>
    </g>
    <g id="xtick_3">
     <g id="line2d_3">
      <g>
       <use xlink:href="#m9945b02fd4" x="140.40694" y="287.868898" style="fill: #262626; stroke: #262626"/>
      </g>
     </g>
     <g id="text_3">
      <!-- 2018-07 -->
      <g style="fill: #262626" transform="translate(111.566856 317.769822) rotate(-30) scale(0.088 -0.088)">
       <defs>
        <path id="ArialMT-37" d="M 303 3981 
L 303 4522 
L 3269 4522 
L 3269 4084 
Q 2831 3619 2401 2847 
Q 1972 2075 1738 1259 
Q 1569 684 1522 0 
L 944 0 
Q 953 541 1156 1306 
Q 1359 2072 1739 2783 
Q 2119 3494 2547 3981 
L 303 3981 
z
" transform="scale(0.015625)"/>
       </defs>
       <use xlink:href="#ArialMT-32"/>
       <use xlink:href="#ArialMT-30" x="55.615234"/>
       <use xlink:href="#ArialMT-31" x="111.230469"/>
       <use xlink:href="#ArialMT-38" x="166.845703"/>
       <use xlink:href="#ArialMT-2d" x="222.460938"/>
       <use xlink:href="#ArialMT-30" x="255.761719"/>
       <use xlink:href="#ArialMT-37" x="311.376953"/>
      </g>
     </g>
    </g>
    <g id="xtick_4">
     <g id="line2d_4">
      <g>
       <use xlink:href="#m9945b02fd4" x="184.315252" y="287.868898" style="fill: #262626; stroke: #262626"/>
      </g>
     </g>
     <g id="text_4">
      <!-- 2018-10 -->
      <g style="fill: #262626" transform="translate(155.475168 317.769822) rotate(-30) scale(0.088 -0.088)">
       <use xlink:href="#ArialMT-32"/>
       <use xlink:href="#ArialMT-30" x="55.615234"/>
       <use xlink:href="#ArialMT-31" x="111.230469"/>
       <use xlink:href="#ArialMT-38" x="166.845703"/>
       <use xlink:href="#ArialMT-2d" x="222.460938"/>
       <use xlink:href="#ArialMT-31" x="255.761719"/>
       <use xlink:href="#ArialMT-30" x="311.376953"/>
      </g>
     </g>
    </g>
    <g id="xtick_5">
     <g id="line2d_5">
      <g>
       <use xlink:href="#m9945b02fd4" x="228.223565" y="287.868898" style="fill: #262626; stroke: #262626"/>
      </g>
     </g>
     <g id="text_5">
      <!-- 2019-01 -->
      <g style="fill: #262626" transform="translate(199.383481 317.769822) rotate(-30) scale(0.088 -0.088)">
       <defs>
        <path id="ArialMT-39" d="M 350 1059 
L 891 1109 
Q 959 728 1153 556 
Q 1347 384 1650 384 
Q 1909 384 2104 503 
Q 2300 622 2425 820 
Q 2550 1019 2634 1356 
Q 2719 1694 2719 2044 
Q 2719 2081 2716 2156 
Q 2547 1888 2255 1720 
Q 1963 1553 1622 1553 
Q 1053 1553 659 1965 
Q 266 2378 266 3053 
Q 266 3750 677 4175 
Q 1088 4600 1706 4600 
Q 2153 4600 2523 4359 
Q 2894 4119 3086 3673 
Q 3278 3228 3278 2384 
Q 3278 1506 3087 986 
Q 2897 466 2520 194 
Q 2144 -78 1638 -78 
Q 1100 -78 759 220 
Q 419 519 350 1059 
z
M 2653 3081 
Q 2653 3566 2395 3850 
Q 2138 4134 1775 4134 
Q 1400 4134 1122 3828 
Q 844 3522 844 3034 
Q 844 2597 1108 2323 
Q 1372 2050 1759 2050 
Q 2150 2050 2401 2323 
Q 2653 2597 2653 3081 
z
" transform="scale(0.015625)"/>
       </defs>
       <use xlink:href="#ArialMT-32"/>
       <use xlink:href="#ArialMT-30" x="55.615234"/>
       <use xlink:href="#ArialMT-31" x="111.230469"/>
       <use xlink:href="#ArialMT-39" x="166.845703"/>
       <use xlink:href="#ArialMT-2d" x="222.460938"/>
       <use xlink:href="#ArialMT-30" x="255.761719"/>
       <use xlink:href="#ArialMT-31" x="311.376953"/>
      </g>
     </g>
    </g>
    <g id="xtick_6">
     <g id="line2d_6">
      <g>
       <use xlink:href="#m9945b02fd4" x="271.177349" y="287.868898" style="fill: #262626; stroke: #262626"/>
      </g>
     </g>
     <g id="text_6">
      <!-- 2019-04 -->
      <g style="fill: #262626" transform="translate(242.337265 317.769822) rotate(-30) scale(0.088 -0.088)">
       <use xlink:href="#ArialMT-32"/>
       <use xlink:href="#ArialMT-30" x="55.615234"/>
       <use xlink:href="#ArialMT-31" x="111.230469"/>
       <use xlink:href="#ArialMT-39" x="166.845703"/>
       <use xlink:href="#ArialMT-2d" x="222.460938"/>
       <use xlink:href="#ArialMT-30" x="255.761719"/>
       <use xlink:href="#ArialMT-34" x="311.376953"/>
      </g>
     </g>
    </g>
    <g id="xtick_7">
     <g id="line2d_7">
      <g>
       <use xlink:href="#m9945b02fd4" x="314.608397" y="287.868898" style="fill: #262626; stroke: #262626"/>
      </g>
     </g>
     <g id="text_7">
      <!-- 2019-07 -->
      <g style="fill: #262626" transform="translate(285.768313 317.769822) rotate(-30) scale(0.088 -0.088)">
       <use xlink:href="#ArialMT-32"/>
       <use xlink:href="#ArialMT-30" x="55.615234"/>
       <use xlink:href="#ArialMT-31" x="111.230469"/>
       <use xlink:href="#ArialMT-39" x="166.845703"/>
       <use xlink:href="#ArialMT-2d" x="222.460938"/>
       <use xlink:href="#ArialMT-30" x="255.761719"/>
       <use xlink:href="#ArialMT-37" x="311.376953"/>
      </g>
     </g>
    </g>
    <g id="xtick_8">
     <g id="line2d_8">
      <g>
       <use xlink:href="#m9945b02fd4" x="358.51671" y="287.868898" style="fill: #262626; stroke: #262626"/>
      </g>
     </g>
     <g id="text_8">
      <!-- 2019-10 -->
      <g style="fill: #262626" transform="translate(329.676626 317.769822) rotate(-30) scale(0.088 -0.088)">
       <use xlink:href="#ArialMT-32"/>
       <use xlink:href="#ArialMT-30" x="55.615234"/>
       <use xlink:href="#ArialMT-31" x="111.230469"/>
       <use xlink:href="#ArialMT-39" x="166.845703"/>
       <use xlink:href="#ArialMT-2d" x="222.460938"/>
       <use xlink:href="#ArialMT-31" x="255.761719"/>
       <use xlink:href="#ArialMT-30" x="311.376953"/>
      </g>
     </g>
    </g>
    <g id="xtick_9">
     <g id="line2d_9">
      <g>
       <use xlink:href="#m9945b02fd4" x="402.425022" y="287.868898" style="fill: #262626; stroke: #262626"/>
      </g>
     </g>
     <g id="text_9">
      <!-- 2020-01 -->
      <g style="fill: #262626" transform="translate(373.584938 317.769822) rotate(-30) scale(0.088 -0.088)">
       <use xlink:href="#ArialMT-32"/>
       <use xlink:href="#ArialMT-30" x="55.615234"/>
       <use xlink:href="#ArialMT-32" x="111.230469"/>
       <use xlink:href="#ArialMT-30" x="166.845703"/>
       <use xlink:href="#ArialMT-2d" x="222.460938"/>
       <use xlink:href="#ArialMT-30" x="255.761719"/>
       <use xlink:href="#ArialMT-31" x="311.376953"/>
      </g>
     </g>
    </g>
    <g id="xtick_10">
     <g id="line2d_10">
      <g>
       <use xlink:href="#m9945b02fd4" x="445.85607" y="287.868898" style="fill: #262626; stroke: #262626"/>
      </g>
     </g>
     <g id="text_10">
      <!-- 2020-04 -->
      <g style="fill: #262626" transform="translate(417.015986 317.769822) rotate(-30) scale(0.088 -0.088)">
       <use xlink:href="#ArialMT-32"/>
       <use xlink:href="#ArialMT-30" x="55.615234"/>
       <use xlink:href="#ArialMT-32" x="111.230469"/>
       <use xlink:href="#ArialMT-30" x="166.845703"/>
       <use xlink:href="#ArialMT-2d" x="222.460938"/>
       <use xlink:href="#ArialMT-30" x="255.761719"/>
       <use xlink:href="#ArialMT-34" x="311.376953"/>
      </g>
     </g>
    </g>
    <g id="text_11">
     <!-- date -->
     <g style="fill: #262626" transform="translate(233.438875 330.156) scale(0.096 -0.096)">
      <defs>
       <path id="ArialMT-64" d="M 2575 0 
L 2575 419 
Q 2259 -75 1647 -75 
Q 1250 -75 917 144 
Q 584 363 401 755 
Q 219 1147 219 1656 
Q 219 2153 384 2558 
Q 550 2963 881 3178 
Q 1213 3394 1622 3394 
Q 1922 3394 2156 3267 
Q 2391 3141 2538 2938 
L 2538 4581 
L 3097 4581 
L 3097 0 
L 2575 0 
z
M 797 1656 
Q 797 1019 1065 703 
Q 1334 388 1700 388 
Q 2069 388 2326 689 
Q 2584 991 2584 1609 
Q 2584 2291 2321 2609 
Q 2059 2928 1675 2928 
Q 1300 2928 1048 2622 
Q 797 2316 797 1656 
z
" transform="scale(0.015625)"/>
       <path id="ArialMT-61" d="M 2588 409 
Q 2275 144 1986 34 
Q 1697 -75 1366 -75 
Q 819 -75 525 192 
Q 231 459 231 875 
Q 231 1119 342 1320 
Q 453 1522 633 1644 
Q 813 1766 1038 1828 
Q 1203 1872 1538 1913 
Q 2219 1994 2541 2106 
Q 2544 2222 2544 2253 
Q 2544 2597 2384 2738 
Q 2169 2928 1744 2928 
Q 1347 2928 1158 2789 
Q 969 2650 878 2297 
L 328 2372 
Q 403 2725 575 2942 
Q 747 3159 1072 3276 
Q 1397 3394 1825 3394 
Q 2250 3394 2515 3294 
Q 2781 3194 2906 3042 
Q 3031 2891 3081 2659 
Q 3109 2516 3109 2141 
L 3109 1391 
Q 3109 606 3145 398 
Q 3181 191 3288 0 
L 2700 0 
Q 2613 175 2588 409 
z
M 2541 1666 
Q 2234 1541 1622 1453 
Q 1275 1403 1131 1340 
Q 988 1278 909 1158 
Q 831 1038 831 891 
Q 831 666 1001 516 
Q 1172 366 1500 366 
Q 1825 366 2078 508 
Q 2331 650 2450 897 
Q 2541 1088 2541 1459 
L 2541 1666 
z
" transform="scale(0.015625)"/>
       <path id="ArialMT-74" d="M 1650 503 
L 1731 6 
Q 1494 -44 1306 -44 
Q 1000 -44 831 53 
Q 663 150 594 308 
Q 525 466 525 972 
L 525 2881 
L 113 2881 
L 113 3319 
L 525 3319 
L 525 4141 
L 1084 4478 
L 1084 3319 
L 1650 3319 
L 1650 2881 
L 1084 2881 
L 1084 941 
Q 1084 700 1114 631 
Q 1144 563 1211 522 
Q 1278 481 1403 481 
Q 1497 481 1650 503 
z
" transform="scale(0.015625)"/>
       <path id="ArialMT-65" d="M 2694 1069 
L 3275 997 
Q 3138 488 2766 206 
Q 2394 -75 1816 -75 
Q 1088 -75 661 373 
Q 234 822 234 1631 
Q 234 2469 665 2931 
Q 1097 3394 1784 3394 
Q 2450 3394 2872 2941 
Q 3294 2488 3294 1666 
Q 3294 1616 3291 1516 
L 816 1516 
Q 847 969 1125 678 
Q 1403 388 1819 388 
Q 2128 388 2347 550 
Q 2566 713 2694 1069 
z
M 847 1978 
L 2700 1978 
Q 2663 2397 2488 2606 
Q 2219 2931 1791 2931 
Q 1403 2931 1139 2672 
Q 875 2413 847 1978 
z
" transform="scale(0.015625)"/>
      </defs>
      <use xlink:href="#ArialMT-64"/>
      <use xlink:href="#ArialMT-61" x="55.615234"/>
      <use xlink:href="#ArialMT-74" x="111.230469"/>
      <use xlink:href="#ArialMT-65" x="139.013672"/>
     </g>
    </g>
   </g>
   <g id="matplotlib.axis_2">
    <g id="ytick_1">
     <g id="line2d_11">
      <defs>
       <path id="mcbc130d61a" d="M 0 0 
L -4.8 0 
" style="stroke: #262626"/>
      </defs>
      <g>
       <use xlink:href="#mcbc130d61a" x="38.29625" y="233.891361" style="fill: #262626; stroke: #262626"/>
      </g>
     </g>
     <g id="text_12">
      <!-- 68 -->
      <g style="fill: #262626" transform="translate(20.209 237.040799) scale(0.088 -0.088)">
       <defs>
        <path id="ArialMT-36" d="M 3184 3459 
L 2625 3416 
Q 2550 3747 2413 3897 
Q 2184 4138 1850 4138 
Q 1581 4138 1378 3988 
Q 1113 3794 959 3422 
Q 806 3050 800 2363 
Q 1003 2672 1297 2822 
Q 1591 2972 1913 2972 
Q 2475 2972 2870 2558 
Q 3266 2144 3266 1488 
Q 3266 1056 3080 686 
Q 2894 316 2569 119 
Q 2244 -78 1831 -78 
Q 1128 -78 684 439 
Q 241 956 241 2144 
Q 241 3472 731 4075 
Q 1159 4600 1884 4600 
Q 2425 4600 2770 4297 
Q 3116 3994 3184 3459 
z
M 888 1484 
Q 888 1194 1011 928 
Q 1134 663 1356 523 
Q 1578 384 1822 384 
Q 2178 384 2434 671 
Q 2691 959 2691 1453 
Q 2691 1928 2437 2201 
Q 2184 2475 1800 2475 
Q 1419 2475 1153 2201 
Q 888 1928 888 1484 
z
" transform="scale(0.015625)"/>
       </defs>
       <use xlink:href="#ArialMT-36"/>
       <use xlink:href="#ArialMT-38" x="55.615234"/>
      </g>
     </g>
    </g>
    <g id="ytick_2">
     <g id="line2d_12">
      <g>
       <use xlink:href="#mcbc130d61a" x="38.29625" y="178.459152" style="fill: #262626; stroke: #262626"/>
      </g>
     </g>
     <g id="text_13">
      <!-- 70 -->
      <g style="fill: #262626" transform="translate(20.209 181.608589) scale(0.088 -0.088)">
       <use xlink:href="#ArialMT-37"/>
       <use xlink:href="#ArialMT-30" x="55.615234"/>
      </g>
     </g>
    </g>
    <g id="ytick_3">
     <g id="line2d_13">
      <g>
       <use xlink:href="#mcbc130d61a" x="38.29625" y="123.026942" style="fill: #262626; stroke: #262626"/>
      </g>
     </g>
     <g id="text_14">
      <!-- 72 -->
      <g style="fill: #262626" transform="translate(20.209 126.17638) scale(0.088 -0.088)">
       <use xlink:href="#ArialMT-37"/>
       <use xlink:href="#ArialMT-32" x="55.615234"/>
      </g>
     </g>
    </g>
    <g id="ytick_4">
     <g id="line2d_14">
      <g>
       <use xlink:href="#mcbc130d61a" x="38.29625" y="67.594732" style="fill: #262626; stroke: #262626"/>
      </g>
     </g>
     <g id="text_15">
      <!-- 74 -->
      <g style="fill: #262626" transform="translate(20.209 70.74417) scale(0.088 -0.088)">
       <use xlink:href="#ArialMT-37"/>
       <use xlink:href="#ArialMT-34" x="55.615234"/>
      </g>
     </g>
    </g>
    <g id="ytick_5">
     <g id="line2d_15">
      <g>
       <use xlink:href="#mcbc130d61a" x="38.29625" y="12.162523" style="fill: #262626; stroke: #262626"/>
      </g>
     </g>
     <g id="text_16">
      <!-- 76 -->
      <g style="fill: #262626" transform="translate(20.209 15.31196) scale(0.088 -0.088)">
       <use xlink:href="#ArialMT-37"/>
       <use xlink:href="#ArialMT-36" x="55.615234"/>
      </g>
     </g>
    </g>
    <g id="text_17">
     <!-- Unit temperature (degrees F) -->
     <g style="fill: #262626" transform="translate(14.1885 209.420699) rotate(-90) scale(0.096 -0.096)">
      <defs>
       <path id="ArialMT-55" d="M 3500 4581 
L 4106 4581 
L 4106 1934 
Q 4106 1244 3950 837 
Q 3794 431 3386 176 
Q 2978 -78 2316 -78 
Q 1672 -78 1262 144 
Q 853 366 678 786 
Q 503 1206 503 1934 
L 503 4581 
L 1109 4581 
L 1109 1938 
Q 1109 1341 1220 1058 
Q 1331 775 1601 622 
Q 1872 469 2263 469 
Q 2931 469 3215 772 
Q 3500 1075 3500 1938 
L 3500 4581 
z
" transform="scale(0.015625)"/>
       <path id="ArialMT-6e" d="M 422 0 
L 422 3319 
L 928 3319 
L 928 2847 
Q 1294 3394 1984 3394 
Q 2284 3394 2536 3286 
Q 2788 3178 2913 3003 
Q 3038 2828 3088 2588 
Q 3119 2431 3119 2041 
L 3119 0 
L 2556 0 
L 2556 2019 
Q 2556 2363 2490 2533 
Q 2425 2703 2258 2804 
Q 2091 2906 1866 2906 
Q 1506 2906 1245 2678 
Q 984 2450 984 1813 
L 984 0 
L 422 0 
z
" transform="scale(0.015625)"/>
       <path id="ArialMT-69" d="M 425 3934 
L 425 4581 
L 988 4581 
L 988 3934 
L 425 3934 
z
M 425 0 
L 425 3319 
L 988 3319 
L 988 0 
L 425 0 
z
" transform="scale(0.015625)"/>
       <path id="ArialMT-20" transform="scale(0.015625)"/>
       <path id="ArialMT-6d" d="M 422 0 
L 422 3319 
L 925 3319 
L 925 2853 
Q 1081 3097 1340 3245 
Q 1600 3394 1931 3394 
Q 2300 3394 2536 3241 
Q 2772 3088 2869 2813 
Q 3263 3394 3894 3394 
Q 4388 3394 4653 3120 
Q 4919 2847 4919 2278 
L 4919 0 
L 4359 0 
L 4359 2091 
Q 4359 2428 4304 2576 
Q 4250 2725 4106 2815 
Q 3963 2906 3769 2906 
Q 3419 2906 3187 2673 
Q 2956 2441 2956 1928 
L 2956 0 
L 2394 0 
L 2394 2156 
Q 2394 2531 2256 2718 
Q 2119 2906 1806 2906 
Q 1569 2906 1367 2781 
Q 1166 2656 1075 2415 
Q 984 2175 984 1722 
L 984 0 
L 422 0 
z
" transform="scale(0.015625)"/>
       <path id="ArialMT-70" d="M 422 -1272 
L 422 3319 
L 934 3319 
L 934 2888 
Q 1116 3141 1344 3267 
Q 1572 3394 1897 3394 
Q 2322 3394 2647 3175 
Q 2972 2956 3137 2557 
Q 3303 2159 3303 1684 
Q 3303 1175 3120 767 
Q 2938 359 2589 142 
Q 2241 -75 1856 -75 
Q 1575 -75 1351 44 
Q 1128 163 984 344 
L 984 -1272 
L 422 -1272 
z
M 931 1641 
Q 931 1000 1190 694 
Q 1450 388 1819 388 
Q 2194 388 2461 705 
Q 2728 1022 2728 1688 
Q 2728 2322 2467 2637 
Q 2206 2953 1844 2953 
Q 1484 2953 1207 2617 
Q 931 2281 931 1641 
z
" transform="scale(0.015625)"/>
       <path id="ArialMT-72" d="M 416 0 
L 416 3319 
L 922 3319 
L 922 2816 
Q 1116 3169 1280 3281 
Q 1444 3394 1641 3394 
Q 1925 3394 2219 3213 
L 2025 2691 
Q 1819 2813 1613 2813 
Q 1428 2813 1281 2702 
Q 1134 2591 1072 2394 
Q 978 2094 978 1738 
L 978 0 
L 416 0 
z
" transform="scale(0.015625)"/>
       <path id="ArialMT-75" d="M 2597 0 
L 2597 488 
Q 2209 -75 1544 -75 
Q 1250 -75 995 37 
Q 741 150 617 320 
Q 494 491 444 738 
Q 409 903 409 1263 
L 409 3319 
L 972 3319 
L 972 1478 
Q 972 1038 1006 884 
Q 1059 663 1231 536 
Q 1403 409 1656 409 
Q 1909 409 2131 539 
Q 2353 669 2445 892 
Q 2538 1116 2538 1541 
L 2538 3319 
L 3100 3319 
L 3100 0 
L 2597 0 
z
" transform="scale(0.015625)"/>
       <path id="ArialMT-28" d="M 1497 -1347 
Q 1031 -759 709 28 
Q 388 816 388 1659 
Q 388 2403 628 3084 
Q 909 3875 1497 4659 
L 1900 4659 
Q 1522 4009 1400 3731 
Q 1209 3300 1100 2831 
Q 966 2247 966 1656 
Q 966 153 1900 -1347 
L 1497 -1347 
z
" transform="scale(0.015625)"/>
       <path id="ArialMT-67" d="M 319 -275 
L 866 -356 
Q 900 -609 1056 -725 
Q 1266 -881 1628 -881 
Q 2019 -881 2231 -725 
Q 2444 -569 2519 -288 
Q 2563 -116 2559 434 
Q 2191 0 1641 0 
Q 956 0 581 494 
Q 206 988 206 1678 
Q 206 2153 378 2554 
Q 550 2956 876 3175 
Q 1203 3394 1644 3394 
Q 2231 3394 2613 2919 
L 2613 3319 
L 3131 3319 
L 3131 450 
Q 3131 -325 2973 -648 
Q 2816 -972 2473 -1159 
Q 2131 -1347 1631 -1347 
Q 1038 -1347 672 -1080 
Q 306 -813 319 -275 
z
M 784 1719 
Q 784 1066 1043 766 
Q 1303 466 1694 466 
Q 2081 466 2343 764 
Q 2606 1063 2606 1700 
Q 2606 2309 2336 2618 
Q 2066 2928 1684 2928 
Q 1309 2928 1046 2623 
Q 784 2319 784 1719 
z
" transform="scale(0.015625)"/>
       <path id="ArialMT-73" d="M 197 991 
L 753 1078 
Q 800 744 1014 566 
Q 1228 388 1613 388 
Q 2000 388 2187 545 
Q 2375 703 2375 916 
Q 2375 1106 2209 1216 
Q 2094 1291 1634 1406 
Q 1016 1563 777 1677 
Q 538 1791 414 1992 
Q 291 2194 291 2438 
Q 291 2659 392 2848 
Q 494 3038 669 3163 
Q 800 3259 1026 3326 
Q 1253 3394 1513 3394 
Q 1903 3394 2198 3281 
Q 2494 3169 2634 2976 
Q 2775 2784 2828 2463 
L 2278 2388 
Q 2241 2644 2061 2787 
Q 1881 2931 1553 2931 
Q 1166 2931 1000 2803 
Q 834 2675 834 2503 
Q 834 2394 903 2306 
Q 972 2216 1119 2156 
Q 1203 2125 1616 2013 
Q 2213 1853 2448 1751 
Q 2684 1650 2818 1456 
Q 2953 1263 2953 975 
Q 2953 694 2789 445 
Q 2625 197 2315 61 
Q 2006 -75 1616 -75 
Q 969 -75 630 194 
Q 291 463 197 991 
z
" transform="scale(0.015625)"/>
       <path id="ArialMT-46" d="M 525 0 
L 525 4581 
L 3616 4581 
L 3616 4041 
L 1131 4041 
L 1131 2622 
L 3281 2622 
L 3281 2081 
L 1131 2081 
L 1131 0 
L 525 0 
z
" transform="scale(0.015625)"/>
       <path id="ArialMT-29" d="M 791 -1347 
L 388 -1347 
Q 1322 153 1322 1656 
Q 1322 2244 1188 2822 
Q 1081 3291 891 3722 
Q 769 4003 388 4659 
L 791 4659 
Q 1378 3875 1659 3084 
Q 1900 2403 1900 1659 
Q 1900 816 1576 28 
Q 1253 -759 791 -1347 
z
" transform="scale(0.015625)"/>
      </defs>
      <use xlink:href="#ArialMT-55"/>
      <use xlink:href="#ArialMT-6e" x="72.216797"/>
      <use xlink:href="#ArialMT-69" x="127.832031"/>
      <use xlink:href="#ArialMT-74" x="150.048828"/>
      <use xlink:href="#ArialMT-20" x="177.832031"/>
      <use xlink:href="#ArialMT-74" x="205.615234"/>
      <use xlink:href="#ArialMT-65" x="233.398438"/>
      <use xlink:href="#ArialMT-6d" x="289.013672"/>
      <use xlink:href="#ArialMT-70" x="372.314453"/>
      <use xlink:href="#ArialMT-65" x="427.929688"/>
      <use xlink:href="#ArialMT-72" x="483.544922"/>
      <use xlink:href="#ArialMT-61" x="516.845703"/>
      <use xlink:href="#ArialMT-74" x="572.460938"/>
      <use xlink:href="#ArialMT-75" x="600.244141"/>
      <use xlink:href="#ArialMT-72" x="655.859375"/>
      <use xlink:href="#ArialMT-65" x="689.160156"/>
      <use xlink:href="#ArialMT-20" x="744.775391"/>
      <use xlink:href="#ArialMT-28" x="772.558594"/>
      <use xlink:href="#ArialMT-64" x="805.859375"/>
      <use xlink:href="#ArialMT-65" x="861.474609"/>
      <use xlink:href="#ArialMT-67" x="917.089844"/>
      <use xlink:href="#ArialMT-72" x="972.705078"/>
      <use xlink:href="#ArialMT-65" x="1006.005859"/>
      <use xlink:href="#ArialMT-65" x="1061.621094"/>
      <use xlink:href="#ArialMT-73" x="1117.236328"/>
      <use xlink:href="#ArialMT-20" x="1167.236328"/>
      <use xlink:href="#ArialMT-46" x="1195.019531"/>
      <use xlink:href="#ArialMT-29" x="1256.103516"/>
     </g>
    </g>
   </g>
   <g id="line2d_16">
    <path d="M 56.885693 270.109959 
L 60.226543 239.084007 
L 63.567393 275.111221 
L 66.908243 190.223373 
L 70.249093 176.08269 
L 73.589943 184.415502 
L 76.930792 163.982436 
L 80.271642 134.888775 
L 83.612492 128.559165 
L 86.953342 140.797007 
L 90.294192 144.909388 
L 93.635042 140.995667 
L 96.975892 132.425121 
L 100.316741 126.019896 
L 103.657591 119.778274 
L 106.998441 123.701972 
L 110.339291 96.654023 
L 113.680141 62.974694 
L 117.020991 70.678424 
L 120.361841 47.434566 
L 123.70269 54.191741 
L 127.04354 40.347437 
L 130.38439 58.471515 
L 133.72524 64.542661 
L 137.06609 68.256014 
L 140.40694 67.138297 
L 143.74779 73.320803 
L 147.08864 64.981225 
L 150.429489 67.53699 
L 153.770339 62.936887 
L 157.111189 47.40707 
L 160.452039 50.368403 
L 163.792889 42.474263 
L 167.133739 47.871754 
L 170.474589 50.521694 
L 173.815438 35.385759 
L 177.156288 49.525647 
L 180.497138 51.340392 
L 183.837988 44.940666 
L 187.178838 19.957677 
L 190.519688 34.600744 
L 193.860538 68.291759 
L 197.201388 65.969711 
L 200.542237 72.011987 
L 203.883087 78.084622 
L 207.223937 106.502275 
L 210.564787 107.629106 
L 213.905637 120.132974 
L 217.246487 115.508791 
L 220.587337 128.010617 
L 223.928186 115.043439 
L 227.269036 137.282314 
L 230.609886 134.648184 
L 233.950736 113.982088 
L 237.291586 144.750264 
L 240.632436 174.254771 
L 243.973286 200.082877 
L 247.314136 129.795768 
L 250.654985 136.204434 
L 253.995835 120.811468 
L 257.336685 125.859784 
L 260.677535 138.60176 
L 264.018385 111.635912 
L 267.359235 107.201783 
L 270.700085 116.976334 
L 274.040934 114.37213 
L 277.381784 87.769831 
L 280.722634 90.908018 
L 340.857932 51.007775 
L 344.198782 50.876555 
L 347.539632 108.205465 
L 350.880481 167.440716 
L 354.221331 198.535455 
L 357.562181 208.414077 
L 360.903031 169.101065 
L 364.243881 118.065815 
L 367.584731 76.415969 
L 370.925581 78.153015 
L 374.26643 110.365912 
L 377.60728 110.527302 
L 380.94813 138.219932 
L 384.28898 153.620337 
" clip-path="url(#p5f99b7701e)" style="fill: none; stroke: #4c72b0; stroke-width: 1.2; stroke-linecap: round"/>
    <defs>
     <path id="m3e36ccac44" d="M 0 1.2 
C 0.318244 1.2 0.623496 1.07356 0.848528 0.848528 
C 1.07356 0.623496 1.2 0.318244 1.2 0 
C 1.2 -0.318244 1.07356 -0.623496 0.848528 -0.848528 
C 0.623496 -1.07356 0.318244 -1.2 0 -1.2 
C -0.318244 -1.2 -0.623496 -1.07356 -0.848528 -0.848528 
C -1.07356 -0.623496 -1.2 -0.318244 -1.2 0 
C -1.2 0.318244 -1.07356 0.623496 -0.848528 0.848528 
C -0.623496 1.07356 -0.318244 1.2 0 1.2 
z
" style="stroke: #4c72b0"/>
    </defs>
    <g clip-path="url(#p5f99b7701e)">
     <use xlink:href="#m3e36ccac44" x="56.885693" y="270.109959" style="fill: #4c72b0; stroke: #4c72b0"/>
     <use xlink:href="#m3e36ccac44" x="60.226543" y="239.084007" style="fill: #4c72b0; stroke: #4c72b0"/>
     <use xlink:href="#m3e36ccac44" x="63.567393" y="275.111221" style="fill: #4c72b0; stroke: #4c72b0"/>
     <use xlink:href="#m3e36ccac44" x="66.908243" y="190.223373" style="fill: #4c72b0; stroke: #4c72b0"/>
     <use xlink:href="#m3e36ccac44" x="70.249093" y="176.08269" style="fill: #4c72b0; stroke: #4c72b0"/>
     <use xlink:href="#m3e36ccac44" x="73.589943" y="184.415502" style="fill: #4c72b0; stroke: #4c72b0"/>
     <use xlink:href="#m3e36ccac44" x="76.930792" y="163.982436" style="fill: #4c72b0; stroke: #4c72b0"/>
     <use xlink:href="#m3e36ccac44" x="80.271642" y="134.888775" style="fill: #4c72b0; stroke: #4c72b0"/>
     <use xlink:href="#m3e36ccac44" x="83.612492" y="128.559165" style="fill: #4c72b0; stroke: #4c72b0"/>
     <use xlink:href="#m3e36ccac44" x="86.953342" y="140.797007" style="fill: #4c72b0; stroke: #4c72b0"/>
     <use xlink:href="#m3e36ccac44" x="90.294192" y="144.909388" style="fill: #4c72b0; stroke: #4c72b0"/>
     <use xlink:href="#m3e36ccac44" x="93.635042" y="140.995667" style="fill: #4c72b0; stroke: #4c72b0"/>
     <use xlink:href="#m3e36ccac44" x="96.975892" y="132.425121" style="fill: #4c72b0; stroke: #4c72b0"/>
     <use xlink:href="#m3e36ccac44" x="100.316741" y="126.019896" style="fill: #4c72b0; stroke: #4c72b0"/>
     <use xlink:href="#m3e36ccac44" x="103.657591" y="119.778274" style="fill: #4c72b0; stroke: #4c72b0"/>
     <use xlink:href="#m3e36ccac44" x="106.998441" y="123.701972" style="fill: #4c72b0; stroke: #4c72b0"/>
     <use xlink:href="#m3e36ccac44" x="110.339291" y="96.654023" style="fill: #4c72b0; stroke: #4c72b0"/>
     <use xlink:href="#m3e36ccac44" x="113.680141" y="62.974694" style="fill: #4c72b0; stroke: #4c72b0"/>
     <use xlink:href="#m3e36ccac44" x="117.020991" y="70.678424" style="fill: #4c72b0; stroke: #4c72b0"/>
     <use xlink:href="#m3e36ccac44" x="120.361841" y="47.434566" style="fill: #4c72b0; stroke: #4c72b0"/>
     <use xlink:href="#m3e36ccac44" x="123.70269" y="54.191741" style="fill: #4c72b0; stroke: #4c72b0"/>
     <use xlink:href="#m3e36ccac44" x="127.04354" y="40.347437" style="fill: #4c72b0; stroke: #4c72b0"/>
     <use xlink:href="#m3e36ccac44" x="130.38439" y="58.471515" style="fill: #4c72b0; stroke: #4c72b0"/>
     <use xlink:href="#m3e36ccac44" x="133.72524" y="64.542661" style="fill: #4c72b0; stroke: #4c72b0"/>
     <use xlink:href="#m3e36ccac44" x="137.06609" y="68.256014" style="fill: #4c72b0; stroke: #4c72b0"/>
     <use xlink:href="#m3e36ccac44" x="140.40694" y="67.138297" style="fill: #4c72b0; stroke: #4c72b0"/>
     <use xlink:href="#m3e36ccac44" x="143.74779" y="73.320803" style="fill: #4c72b0; stroke: #4c72b0"/>
     <use xlink:href="#m3e36ccac44" x="147.08864" y="64.981225" style="fill: #4c72b0; stroke: #4c72b0"/>
     <use xlink:href="#m3e36ccac44" x="150.429489" y="67.53699" style="fill: #4c72b0; stroke: #4c72b0"/>
     <use xlink:href="#m3e36ccac44" x="153.770339" y="62.936887" style="fill: #4c72b0; stroke: #4c72b0"/>
     <use xlink:href="#m3e36ccac44" x="157.111189" y="47.40707" style="fill: #4c72b0; stroke: #4c72b0"/>
     <use xlink:href="#m3e36ccac44" x="160.452039" y="50.368403" style="fill: #4c72b0; stroke: #4c72b0"/>
     <use xlink:href="#m3e36ccac44" x="163.792889" y="42.474263" style="fill: #4c72b0; stroke: #4c72b0"/>
     <use xlink:href="#m3e36ccac44" x="167.133739" y="47.871754" style="fill: #4c72b0; stroke: #4c72b0"/>
     <use xlink:href="#m3e36ccac44" x="170.474589" y="50.521694" style="fill: #4c72b0; stroke: #4c72b0"/>
     <use xlink:href="#m3e36ccac44" x="173.815438" y="35.385759" style="fill: #4c72b0; stroke: #4c72b0"/>
     <use xlink:href="#m3e36ccac44" x="177.156288" y="49.525647" style="fill: #4c72b0; stroke: #4c72b0"/>
     <use xlink:href="#m3e36ccac44" x="180.497138" y="51.340392" style="fill: #4c72b0; stroke: #4c72b0"/>
     <use xlink:href="#m3e36ccac44" x="183.837988" y="44.940666" style="fill: #4c72b0; stroke: #4c72b0"/>
     <use xlink:href="#m3e36ccac44" x="187.178838" y="19.957677" style="fill: #4c72b0; stroke: #4c72b0"/>
     <use xlink:href="#m3e36ccac44" x="190.519688" y="34.600744" style="fill: #4c72b0; stroke: #4c72b0"/>
     <use xlink:href="#m3e36ccac44" x="193.860538" y="68.291759" style="fill: #4c72b0; stroke: #4c72b0"/>
     <use xlink:href="#m3e36ccac44" x="197.201388" y="65.969711" style="fill: #4c72b0; stroke: #4c72b0"/>
     <use xlink:href="#m3e36ccac44" x="200.542237" y="72.011987" style="fill: #4c72b0; stroke: #4c72b0"/>
     <use xlink:href="#m3e36ccac44" x="203.883087" y="78.084622" style="fill: #4c72b0; stroke: #4c72b0"/>
     <use xlink:href="#m3e36ccac44" x="207.223937" y="106.502275" style="fill: #4c72b0; stroke: #4c72b0"/>
     <use xlink:href="#m3e36ccac44" x="210.564787" y="107.629106" style="fill: #4c72b0; stroke: #4c72b0"/>
     <use xlink:href="#m3e36ccac44" x="213.905637" y="120.132974" style="fill: #4c72b0; stroke: #4c72b0"/>
     <use xlink:href="#m3e36ccac44" x="217.246487" y="115.508791" style="fill: #4c72b0; stroke: #4c72b0"/>
     <use xlink:href="#m3e36ccac44" x="220.587337" y="128.010617" style="fill: #4c72b0; stroke: #4c72b0"/>
     <use xlink:href="#m3e36ccac44" x="223.928186" y="115.043439" style="fill: #4c72b0; stroke: #4c72b0"/>
     <use xlink:href="#m3e36ccac44" x="227.269036" y="137.282314" style="fill: #4c72b0; stroke: #4c72b0"/>
     <use xlink:href="#m3e36ccac44" x="230.609886" y="134.648184" style="fill: #4c72b0; stroke: #4c72b0"/>
     <use xlink:href="#m3e36ccac44" x="233.950736" y="113.982088" style="fill: #4c72b0; stroke: #4c72b0"/>
     <use xlink:href="#m3e36ccac44" x="237.291586" y="144.750264" style="fill: #4c72b0; stroke: #4c72b0"/>
     <use xlink:href="#m3e36ccac44" x="240.632436" y="174.254771" style="fill: #4c72b0; stroke: #4c72b0"/>
     <use xlink:href="#m3e36ccac44" x="243.973286" y="200.082877" style="fill: #4c72b0; stroke: #4c72b0"/>
     <use xlink:href="#m3e36ccac44" x="247.314136" y="129.795768" style="fill: #4c72b0; stroke: #4c72b0"/>
     <use xlink:href="#m3e36ccac44" x="250.654985" y="136.204434" style="fill: #4c72b0; stroke: #4c72b0"/>
     <use xlink:href="#m3e36ccac44" x="253.995835" y="120.811468" style="fill: #4c72b0; stroke: #4c72b0"/>
     <use xlink:href="#m3e36ccac44" x="257.336685" y="125.859784" style="fill: #4c72b0; stroke: #4c72b0"/>
     <use xlink:href="#m3e36ccac44" x="260.677535" y="138.60176" style="fill: #4c72b0; stroke: #4c72b0"/>
     <use xlink:href="#m3e36ccac44" x="264.018385" y="111.635912" style="fill: #4c72b0; stroke: #4c72b0"/>
     <use xlink:href="#m3e36ccac44" x="267.359235" y="107.201783" style="fill: #4c72b0; stroke: #4c72b0"/>
     <use xlink:href="#m3e36ccac44" x="270.700085" y="116.976334" style="fill: #4c72b0; stroke: #4c72b0"/>
     <use xlink:href="#m3e36ccac44" x="274.040934" y="114.37213" style="fill: #4c72b0; stroke: #4c72b0"/>
     <use xlink:href="#m3e36ccac44" x="277.381784" y="87.769831" style="fill: #4c72b0; stroke: #4c72b0"/>
     <use xlink:href="#m3e36ccac44" x="280.722634" y="90.908018" style="fill: #4c72b0; stroke: #4c72b0"/>
     <use xlink:href="#m3e36ccac44" x="340.857932" y="51.007775" style="fill: #4c72b0; stroke: #4c72b0"/>
     <use xlink:href="#m3e36ccac44" x="344.198782" y="50.876555" style="fill: #4c72b0; stroke: #4c72b0"/>
     <use xlink:href="#m3e36ccac44" x="347.539632" y="108.205465" style="fill: #4c72b0; stroke: #4c72b0"/>
     <use xlink:href="#m3e36ccac44" x="350.880481" y="167.440716" style="fill: #4c72b0; stroke: #4c72b0"/>
     <use xlink:href="#m3e36ccac44" x="354.221331" y="198.535455" style="fill: #4c72b0; stroke: #4c72b0"/>
     <use xlink:href="#m3e36ccac44" x="357.562181" y="208.414077" style="fill: #4c72b0; stroke: #4c72b0"/>
     <use xlink:href="#m3e36ccac44" x="360.903031" y="169.101065" style="fill: #4c72b0; stroke: #4c72b0"/>
     <use xlink:href="#m3e36ccac44" x="364.243881" y="118.065815" style="fill: #4c72b0; stroke: #4c72b0"/>
     <use xlink:href="#m3e36ccac44" x="367.584731" y="76.415969" style="fill: #4c72b0; stroke: #4c72b0"/>
     <use xlink:href="#m3e36ccac44" x="370.925581" y="78.153015" style="fill: #4c72b0; stroke: #4c72b0"/>
     <use xlink:href="#m3e36ccac44" x="374.26643" y="110.365912" style="fill: #4c72b0; stroke: #4c72b0"/>
     <use xlink:href="#m3e36ccac44" x="377.60728" y="110.527302" style="fill: #4c72b0; stroke: #4c72b0"/>
     <use xlink:href="#m3e36ccac44" x="380.94813" y="138.219932" style="fill: #4c72b0; stroke: #4c72b0"/>
     <use xlink:href="#m3e36ccac44" x="384.28898" y="153.620337" style="fill: #4c72b0; stroke: #4c72b0"/>
    </g>
   </g>
   <g id="line2d_17">
    <path d="M 56.885693 42.27652 
L 60.226543 36.73307 
L 63.567393 40.930355 
L 66.908243 50.167682 
L 70.249093 58.155309 
L 73.589943 49.065774 
L 76.930792 81.826732 
L 80.271642 95.521183 
L 83.612492 132.727579 
L 86.953342 141.742874 
L 90.294192 102.712171 
L 93.635042 86.382842 
L 96.975892 93.648696 
L 100.316741 101.209446 
L 103.657591 107.3184 
L 106.998441 134.168376 
L 110.339291 140.444369 
L 113.680141 96.652649 
L 117.020991 97.034845 
L 120.361841 88.785317 
L 123.70269 122.551259 
L 127.04354 116.144659 
L 130.38439 121.100838 
L 133.72524 146.977451 
L 137.06609 120.37219 
L 140.40694 117.054781 
L 143.74779 107.702658 
L 147.08864 86.982258 
L 150.429489 111.556929 
L 153.770339 114.516888 
L 157.111189 105.580644 
L 160.452039 102.166311 
L 163.792889 115.901318 
L 167.133739 104.244332 
L 170.474589 113.729124 
L 173.815438 151.499191 
L 177.156288 165.502973 
L 180.497138 144.203091 
L 183.837988 181.878296 
L 187.178838 141.593708 
L 190.519688 152.53167 
L 193.860538 150.64956 
L 197.201388 136.607283 
L 200.542237 181.781372 
L 203.883087 144.104438 
L 207.223937 88.990536 
L 210.564787 82.158748 
L 213.905637 105.016286 
L 217.246487 104.761288 
L 220.587337 118.202745 
L 223.928186 120.03605 
L 227.269036 104.674646 
L 230.609886 96.669146 
L 233.950736 103.260546 
L 237.291586 116.449866 
L 240.632436 70.631297 
L 243.973286 91.986838 
L 247.314136 107.818654 
L 250.654985 90.367474 
L 253.995835 119.396216 
L 257.336685 111.43619 
L 260.677535 94.497493 
L 264.018385 149.020853 
L 267.359235 143.699468 
L 270.700085 136.194946 
L 274.040934 146.28937 
L 277.381784 120.755899 
L 280.722634 133.08401 
L 284.063484 144.265787 
L 287.404334 134.927213 
L 290.745184 138.045011 
L 294.086034 156.088598 
L 297.426884 157.315605 
L 300.767733 120.698019 
L 304.108583 113.631565 
L 307.449433 134.92096 
L 310.790283 118.798036 
L 314.131133 105.72981 
L 317.471983 111.235912 
L 320.812833 97.490593 
L 324.153682 68.490293 
L 327.494532 114.310843 
L 330.835382 116.253956 
L 334.176232 129.094652 
L 337.517082 152.442995 
L 340.857932 104.756597 
L 344.198782 124.164595 
L 347.539632 146.445225 
L 350.880481 135.752841 
L 354.221331 121.863168 
L 357.562181 122.632372 
L 360.903031 153.259855 
L 364.243881 157.727065 
L 367.584731 144.835502 
L 370.925581 170.363602 
L 374.26643 145.019039 
L 377.60728 194.652163 
L 380.94813 125.84942 
L 384.28898 144.193467 
L 387.62983 157.420483 
L 390.97068 204.206304 
L 394.31153 181.855775 
L 397.652379 180.306892 
L 400.993229 152.724143 
L 404.334079 165.358618 
L 407.674929 170.337481 
L 411.015779 173.176457 
L 414.356629 134.056329 
L 417.697479 152.453994 
L 421.038329 135.411889 
L 424.379178 138.872965 
L 427.720028 198.248121 
L 428.674557 116.069145 
" clip-path="url(#p5f99b7701e)" style="fill: none; stroke-dasharray: 4.44,1.92; stroke-dashoffset: 0; stroke: #dd8452; stroke-width: 1.2"/>
    <defs>
     <path id="me242132c85" d="M -0 3.394113 
L 2.036468 0 
L 0 -3.394113 
L -2.036468 -0 
z
" style="stroke: #dd8452; stroke-linejoin: miter"/>
    </defs>
    <g clip-path="url(#p5f99b7701e)">
     <use xlink:href="#me242132c85" x="56.885693" y="42.27652" style="fill: #dd8452; stroke: #dd8452; stroke-linejoin: miter"/>
     <use xlink:href="#me242132c85" x="60.226543" y="36.73307" style="fill: #dd8452; stroke: #dd8452; stroke-linejoin: miter"/>
     <use xlink:href="#me242132c85" x="63.567393" y="40.930355" style="fill: #dd8452; stroke: #dd8452; stroke-linejoin: miter"/>
     <use xlink:href="#me242132c85" x="66.908243" y="50.167682" style="fill: #dd8452; stroke: #dd8452; stroke-linejoin: miter"/>
     <use xlink:href="#me242132c85" x="70.249093" y="58.155309" style="fill: #dd8452; stroke: #dd8452; stroke-linejoin: miter"/>
     <use xlink:href="#me242132c85" x="73.589943" y="49.065774" style="fill: #dd8452; stroke: #dd8452; stroke-linejoin: miter"/>
     <use xlink:href="#me242132c85" x="76.930792" y="81.826732" style="fill: #dd8452; stroke: #dd8452; stroke-linejoin: miter"/>
     <use xlink:href="#me242132c85" x="80.271642" y="95.521183" style="fill: #dd8452; stroke: #dd8452; stroke-linejoin: miter"/>
     <use xlink:href="#me242132c85" x="83.612492" y="132.727579" style="fill: #dd8452; stroke: #dd8452; stroke-linejoin: miter"/>
     <use xlink:href="#me242132c85" x="86.953342" y="141.742874" style="fill: #dd8452; stroke: #dd8452; stroke-linejoin: miter"/>
     <use xlink:href="#me242132c85" x="90.294192" y="102.712171" style="fill: #dd8452; stroke: #dd8452; stroke-linejoin: miter"/>
     <use xlink:href="#me242132c85" x="93.635042" y="86.382842" style="fill: #dd8452; stroke: #dd8452; stroke-linejoin: miter"/>
     <use xlink:href="#me242132c85" x="96.975892" y="93.648696" style="fill: #dd8452; stroke: #dd8452; stroke-linejoin: miter"/>
     <use xlink:href="#me242132c85" x="100.316741" y="101.209446" style="fill: #dd8452; stroke: #dd8452; stroke-linejoin: miter"/>
     <use xlink:href="#me242132c85" x="103.657591" y="107.3184" style="fill: #dd8452; stroke: #dd8452; stroke-linejoin: miter"/>
     <use xlink:href="#me242132c85" x="106.998441" y="134.168376" style="fill: #dd8452; stroke: #dd8452; stroke-linejoin: miter"/>
     <use xlink:href="#me242132c85" x="110.339291" y="140.444369" style="fill: #dd8452; stroke: #dd8452; stroke-linejoin: miter"/>
     <use xlink:href="#me242132c85" x="113.680141" y="96.652649" style="fill: #dd8452; stroke: #dd8452; stroke-linejoin: miter"/>
     <use xlink:href="#me242132c85" x="117.020991" y="97.034845" style="fill: #dd8452; stroke: #dd8452; stroke-linejoin: miter"/>
     <use xlink:href="#me242132c85" x="120.361841" y="88.785317" style="fill: #dd8452; stroke: #dd8452; stroke-linejoin: miter"/>
     <use xlink:href="#me242132c85" x="123.70269" y="122.551259" style="fill: #dd8452; stroke: #dd8452; stroke-linejoin: miter"/>
     <use xlink:href="#me242132c85" x="127.04354" y="116.144659" style="fill: #dd8452; stroke: #dd8452; stroke-linejoin: miter"/>
     <use xlink:href="#me242132c85" x="130.38439" y="121.100838" style="fill: #dd8452; stroke: #dd8452; stroke-linejoin: miter"/>
     <use xlink:href="#me242132c85" x="133.72524" y="146.977451" style="fill: #dd8452; stroke: #dd8452; stroke-linejoin: miter"/>
     <use xlink:href="#me242132c85" x="137.06609" y="120.37219" style="fill: #dd8452; stroke: #dd8452; stroke-linejoin: miter"/>
     <use xlink:href="#me242132c85" x="140.40694" y="117.054781" style="fill: #dd8452; stroke: #dd8452; stroke-linejoin: miter"/>
     <use xlink:href="#me242132c85" x="143.74779" y="107.702658" style="fill: #dd8452; stroke: #dd8452; stroke-linejoin: miter"/>
     <use xlink:href="#me242132c85" x="147.08864" y="86.982258" style="fill: #dd8452; stroke: #dd8452; stroke-linejoin: miter"/>
     <use xlink:href="#me242132c85" x="150.429489" y="111.556929" style="fill: #dd8452; stroke: #dd8452; stroke-linejoin: miter"/>
     <use xlink:href="#me242132c85" x="153.770339" y="114.516888" style="fill: #dd8452; stroke: #dd8452; stroke-linejoin: miter"/>
     <use xlink:href="#me242132c85" x="157.111189" y="105.580644" style="fill: #dd8452; stroke: #dd8452; stroke-linejoin: miter"/>
     <use xlink:href="#me242132c85" x="160.452039" y="102.166311" style="fill: #dd8452; stroke: #dd8452; stroke-linejoin: miter"/>
     <use xlink:href="#me242132c85" x="163.792889" y="115.901318" style="fill: #dd8452; stroke: #dd8452; stroke-linejoin: miter"/>
     <use xlink:href="#me242132c85" x="167.133739" y="104.244332" style="fill: #dd8452; stroke: #dd8452; stroke-linejoin: miter"/>
     <use xlink:href="#me242132c85" x="170.474589" y="113.729124" style="fill: #dd8452; stroke: #dd8452; stroke-linejoin: miter"/>
     <use xlink:href="#me242132c85" x="173.815438" y="151.499191" style="fill: #dd8452; stroke: #dd8452; stroke-linejoin: miter"/>
     <use xlink:href="#me242132c85" x="177.156288" y="165.502973" style="fill: #dd8452; stroke: #dd8452; stroke-linejoin: miter"/>
     <use xlink:href="#me242132c85" x="180.497138" y="144.203091" style="fill: #dd8452; stroke: #dd8452; stroke-linejoin: miter"/>
     <use xlink:href="#me242132c85" x="183.837988" y="181.878296" style="fill: #dd8452; stroke: #dd8452; stroke-linejoin: miter"/>
     <use xlink:href="#me242132c85" x="187.178838" y="141.593708" style="fill: #dd8452; stroke: #dd8452; stroke-linejoin: miter"/>
     <use xlink:href="#me242132c85" x="190.519688" y="152.53167" style="fill: #dd8452; stroke: #dd8452; stroke-linejoin: miter"/>
     <use xlink:href="#me242132c85" x="193.860538" y="150.64956" style="fill: #dd8452; stroke: #dd8452; stroke-linejoin: miter"/>
     <use xlink:href="#me242132c85" x="197.201388" y="136.607283" style="fill: #dd8452; stroke: #dd8452; stroke-linejoin: miter"/>
     <use xlink:href="#me242132c85" x="200.542237" y="181.781372" style="fill: #dd8452; stroke: #dd8452; stroke-linejoin: miter"/>
     <use xlink:href="#me242132c85" x="203.883087" y="144.104438" style="fill: #dd8452; stroke: #dd8452; stroke-linejoin: miter"/>
     <use xlink:href="#me242132c85" x="207.223937" y="88.990536" style="fill: #dd8452; stroke: #dd8452; stroke-linejoin: miter"/>
     <use xlink:href="#me242132c85" x="210.564787" y="82.158748" style="fill: #dd8452; stroke: #dd8452; stroke-linejoin: miter"/>
     <use xlink:href="#me242132c85" x="213.905637" y="105.016286" style="fill: #dd8452; stroke: #dd8452; stroke-linejoin: miter"/>
     <use xlink:href="#me242132c85" x="217.246487" y="104.761288" style="fill: #dd8452; stroke: #dd8452; stroke-linejoin: miter"/>
     <use xlink:href="#me242132c85" x="220.587337" y="118.202745" style="fill: #dd8452; stroke: #dd8452; stroke-linejoin: miter"/>
     <use xlink:href="#me242132c85" x="223.928186" y="120.03605" style="fill: #dd8452; stroke: #dd8452; stroke-linejoin: miter"/>
     <use xlink:href="#me242132c85" x="227.269036" y="104.674646" style="fill: #dd8452; stroke: #dd8452; stroke-linejoin: miter"/>
     <use xlink:href="#me242132c85" x="230.609886" y="96.669146" style="fill: #dd8452; stroke: #dd8452; stroke-linejoin: miter"/>
     <use xlink:href="#me242132c85" x="233.950736" y="103.260546" style="fill: #dd8452; stroke: #dd8452; stroke-linejoin: miter"/>
     <use xlink:href="#me242132c85" x="237.291586" y="116.449866" style="fill: #dd8452; stroke: #dd8452; stroke-linejoin: miter"/>
     <use xlink:href="#me242132c85" x="240.632436" y="70.631297" style="fill: #dd8452; stroke: #dd8452; stroke-linejoin: miter"/>
     <use xlink:href="#me242132c85" x="243.973286" y="91.986838" style="fill: #dd8452; stroke: #dd8452; stroke-linejoin: miter"/>
     <use xlink:href="#me242132c85" x="247.314136" y="107.818654" style="fill: #dd8452; stroke: #dd8452; stroke-linejoin: miter"/>
     <use xlink:href="#me242132c85" x="250.654985" y="90.367474" style="fill: #dd8452; stroke: #dd8452; stroke-linejoin: miter"/>
     <use xlink:href="#me242132c85" x="253.995835" y="119.396216" style="fill: #dd8452; stroke: #dd8452; stroke-linejoin: miter"/>
     <use xlink:href="#me242132c85" x="257.336685" y="111.43619" style="fill: #dd8452; stroke: #dd8452; stroke-linejoin: miter"/>
     <use xlink:href="#me242132c85" x="260.677535" y="94.497493" style="fill: #dd8452; stroke: #dd8452; stroke-linejoin: miter"/>
     <use xlink:href="#me242132c85" x="264.018385" y="149.020853" style="fill: #dd8452; stroke: #dd8452; stroke-linejoin: miter"/>
     <use xlink:href="#me242132c85" x="267.359235" y="143.699468" style="fill: #dd8452; stroke: #dd8452; stroke-linejoin: miter"/>
     <use xlink:href="#me242132c85" x="270.700085" y="136.194946" style="fill: #dd8452; stroke: #dd8452; stroke-linejoin: miter"/>
     <use xlink:href="#me242132c85" x="274.040934" y="146.28937" style="fill: #dd8452; stroke: #dd8452; stroke-linejoin: miter"/>
     <use xlink:href="#me242132c85" x="277.381784" y="120.755899" style="fill: #dd8452; stroke: #dd8452; stroke-linejoin: miter"/>
     <use xlink:href="#me242132c85" x="280.722634" y="133.08401" style="fill: #dd8452; stroke: #dd8452; stroke-linejoin: miter"/>
     <use xlink:href="#me242132c85" x="284.063484" y="144.265787" style="fill: #dd8452; stroke: #dd8452; stroke-linejoin: miter"/>
     <use xlink:href="#me242132c85" x="287.404334" y="134.927213" style="fill: #dd8452; stroke: #dd8452; stroke-linejoin: miter"/>
     <use xlink:href="#me242132c85" x="290.745184" y="138.045011" style="fill: #dd8452; stroke: #dd8452; stroke-linejoin: miter"/>
     <use xlink:href="#me242132c85" x="294.086034" y="156.088598" style="fill: #dd8452; stroke: #dd8452; stroke-linejoin: miter"/>
     <use xlink:href="#me242132c85" x="297.426884" y="157.315605" style="fill: #dd8452; stroke: #dd8452; stroke-linejoin: miter"/>
     <use xlink:href="#me242132c85" x="300.767733" y="120.698019" style="fill: #dd8452; stroke: #dd8452; stroke-linejoin: miter"/>
     <use xlink:href="#me242132c85" x="304.108583" y="113.631565" style="fill: #dd8452; stroke: #dd8452; stroke-linejoin: miter"/>
     <use xlink:href="#me242132c85" x="307.449433" y="134.92096" style="fill: #dd8452; stroke: #dd8452; stroke-linejoin: miter"/>
     <use xlink:href="#me242132c85" x="310.790283" y="118.798036" style="fill: #dd8452; stroke: #dd8452; stroke-linejoin: miter"/>
     <use xlink:href="#me242132c85" x="314.131133" y="105.72981" style="fill: #dd8452; stroke: #dd8452; stroke-linejoin: miter"/>
     <use xlink:href="#me242132c85" x="317.471983" y="111.235912" style="fill: #dd8452; stroke: #dd8452; stroke-linejoin: miter"/>
     <use xlink:href="#me242132c85" x="320.812833" y="97.490593" style="fill: #dd8452; stroke: #dd8452; stroke-linejoin: miter"/>
     <use xlink:href="#me242132c85" x="324.153682" y="68.490293" style="fill: #dd8452; stroke: #dd8452; stroke-linejoin: miter"/>
     <use xlink:href="#me242132c85" x="327.494532" y="114.310843" style="fill: #dd8452; stroke: #dd8452; stroke-linejoin: miter"/>
     <use xlink:href="#me242132c85" x="330.835382" y="116.253956" style="fill: #dd8452; stroke: #dd8452; stroke-linejoin: miter"/>
     <use xlink:href="#me242132c85" x="334.176232" y="129.094652" style="fill: #dd8452; stroke: #dd8452; stroke-linejoin: miter"/>
     <use xlink:href="#me242132c85" x="337.517082" y="152.442995" style="fill: #dd8452; stroke: #dd8452; stroke-linejoin: miter"/>
     <use xlink:href="#me242132c85" x="340.857932" y="104.756597" style="fill: #dd8452; stroke: #dd8452; stroke-linejoin: miter"/>
     <use xlink:href="#me242132c85" x="344.198782" y="124.164595" style="fill: #dd8452; stroke: #dd8452; stroke-linejoin: miter"/>
     <use xlink:href="#me242132c85" x="347.539632" y="146.445225" style="fill: #dd8452; stroke: #dd8452; stroke-linejoin: miter"/>
     <use xlink:href="#me242132c85" x="350.880481" y="135.752841" style="fill: #dd8452; stroke: #dd8452; stroke-linejoin: miter"/>
     <use xlink:href="#me242132c85" x="354.221331" y="121.863168" style="fill: #dd8452; stroke: #dd8452; stroke-linejoin: miter"/>
     <use xlink:href="#me242132c85" x="357.562181" y="122.632372" style="fill: #dd8452; stroke: #dd8452; stroke-linejoin: miter"/>
     <use xlink:href="#me242132c85" x="360.903031" y="153.259855" style="fill: #dd8452; stroke: #dd8452; stroke-linejoin: miter"/>
     <use xlink:href="#me242132c85" x="364.243881" y="157.727065" style="fill: #dd8452; stroke: #dd8452; stroke-linejoin: miter"/>
     <use xlink:href="#me242132c85" x="367.584731" y="144.835502" style="fill: #dd8452; stroke: #dd8452; stroke-linejoin: miter"/>
     <use xlink:href="#me242132c85" x="370.925581" y="170.363602" style="fill: #dd8452; stroke: #dd8452; stroke-linejoin: miter"/>
     <use xlink:href="#me242132c85" x="374.26643" y="145.019039" style="fill: #dd8452; stroke: #dd8452; stroke-linejoin: miter"/>
     <use xlink:href="#me242132c85" x="377.60728" y="194.652163" style="fill: #dd8452; stroke: #dd8452; stroke-linejoin: miter"/>
     <use xlink:href="#me242132c85" x="380.94813" y="125.84942" style="fill: #dd8452; stroke: #dd8452; stroke-linejoin: miter"/>
     <use xlink:href="#me242132c85" x="384.28898" y="144.193467" style="fill: #dd8452; stroke: #dd8452; stroke-linejoin: miter"/>
     <use xlink:href="#me242132c85" x="387.62983" y="157.420483" style="fill: #dd8452; stroke: #dd8452; stroke-linejoin: miter"/>
     <use xlink:href="#me242132c85" x="390.97068" y="204.206304" style="fill: #dd8452; stroke: #dd8452; stroke-linejoin: miter"/>
     <use xlink:href="#me242132c85" x="394.31153" y="181.855775" style="fill: #dd8452; stroke: #dd8452; stroke-linejoin: miter"/>
     <use xlink:href="#me242132c85" x="397.652379" y="180.306892" style="fill: #dd8452; stroke: #dd8452; stroke-linejoin: miter"/>
     <use xlink:href="#me242132c85" x="400.993229" y="152.724143" style="fill: #dd8452; stroke: #dd8452; stroke-linejoin: miter"/>
     <use xlink:href="#me242132c85" x="404.334079" y="165.358618" style="fill: #dd8452; stroke: #dd8452; stroke-linejoin: miter"/>
     <use xlink:href="#me242132c85" x="407.674929" y="170.337481" style="fill: #dd8452; stroke: #dd8452; stroke-linejoin: miter"/>
     <use xlink:href="#me242132c85" x="411.015779" y="173.176457" style="fill: #dd8452; stroke: #dd8452; stroke-linejoin: miter"/>
     <use xlink:href="#me242132c85" x="414.356629" y="134.056329" style="fill: #dd8452; stroke: #dd8452; stroke-linejoin: miter"/>
     <use xlink:href="#me242132c85" x="417.697479" y="152.453994" style="fill: #dd8452; stroke: #dd8452; stroke-linejoin: miter"/>
     <use xlink:href="#me242132c85" x="421.038329" y="135.411889" style="fill: #dd8452; stroke: #dd8452; stroke-linejoin: miter"/>
     <use xlink:href="#me242132c85" x="424.379178" y="138.872965" style="fill: #dd8452; stroke: #dd8452; stroke-linejoin: miter"/>
     <use xlink:href="#me242132c85" x="427.720028" y="198.248121" style="fill: #dd8452; stroke: #dd8452; stroke-linejoin: miter"/>
     <use xlink:href="#me242132c85" x="428.674557" y="116.069145" style="fill: #dd8452; stroke: #dd8452; stroke-linejoin: miter"/>
    </g>
   </g>
   <g id="patch_3">
    <path d="M 38.29625 287.868898 
L 38.29625 7.2 
" style="fill: none; stroke: #262626; stroke-linejoin: miter; stroke-linecap: square"/>
   </g>
   <g id="patch_4">
    <path d="M 447.264 287.868898 
L 447.264 7.2 
" style="fill: none; stroke: #262626; stroke-linejoin: miter; stroke-linecap: square"/>
   </g>
   <g id="patch_5">
    <path d="M 38.29625 287.868898 
L 447.264 287.868898 
" style="fill: none; stroke: #262626; stroke-linejoin: miter; stroke-linecap: square"/>
   </g>
   <g id="patch_6">
    <path d="M 38.29625 7.2 
L 447.264 7.2 
" style="fill: none; stroke: #262626; stroke-linejoin: miter; stroke-linecap: square"/>
   </g>
   <g id="legend_1">
    <g id="line2d_18">
     <path d="M 355.506125 18.338875 
L 364.306125 18.338875 
L 373.106125 18.338875 
" style="fill: none; stroke: #4c72b0; stroke-width: 1.2; stroke-linecap: round"/>
     <g>
      <use xlink:href="#m3e36ccac44" x="364.306125" y="18.338875" style="fill: #4c72b0; stroke: #4c72b0"/>
     </g>
    </g>
    <g id="text_18">
     <!-- Household a1 -->
     <g style="fill: #262626" transform="translate(380.146125 21.418875) scale(0.088 -0.088)">
      <defs>
       <path id="ArialMT-48" d="M 513 0 
L 513 4581 
L 1119 4581 
L 1119 2700 
L 3500 2700 
L 3500 4581 
L 4106 4581 
L 4106 0 
L 3500 0 
L 3500 2159 
L 1119 2159 
L 1119 0 
L 513 0 
z
" transform="scale(0.015625)"/>
       <path id="ArialMT-6f" d="M 213 1659 
Q 213 2581 725 3025 
Q 1153 3394 1769 3394 
Q 2453 3394 2887 2945 
Q 3322 2497 3322 1706 
Q 3322 1066 3130 698 
Q 2938 331 2570 128 
Q 2203 -75 1769 -75 
Q 1072 -75 642 372 
Q 213 819 213 1659 
z
M 791 1659 
Q 791 1022 1069 705 
Q 1347 388 1769 388 
Q 2188 388 2466 706 
Q 2744 1025 2744 1678 
Q 2744 2294 2464 2611 
Q 2184 2928 1769 2928 
Q 1347 2928 1069 2612 
Q 791 2297 791 1659 
z
" transform="scale(0.015625)"/>
       <path id="ArialMT-68" d="M 422 0 
L 422 4581 
L 984 4581 
L 984 2938 
Q 1378 3394 1978 3394 
Q 2347 3394 2619 3248 
Q 2891 3103 3008 2847 
Q 3125 2591 3125 2103 
L 3125 0 
L 2563 0 
L 2563 2103 
Q 2563 2525 2380 2717 
Q 2197 2909 1863 2909 
Q 1613 2909 1392 2779 
Q 1172 2650 1078 2428 
Q 984 2206 984 1816 
L 984 0 
L 422 0 
z
" transform="scale(0.015625)"/>
       <path id="ArialMT-6c" d="M 409 0 
L 409 4581 
L 972 4581 
L 972 0 
L 409 0 
z
" transform="scale(0.015625)"/>
      </defs>
      <use xlink:href="#ArialMT-48"/>
      <use xlink:href="#ArialMT-6f" x="72.216797"/>
      <use xlink:href="#ArialMT-75" x="127.832031"/>
      <use xlink:href="#ArialMT-73" x="183.447266"/>
      <use xlink:href="#ArialMT-65" x="233.447266"/>
      <use xlink:href="#ArialMT-68" x="289.0625"/>
      <use xlink:href="#ArialMT-6f" x="344.677734"/>
      <use xlink:href="#ArialMT-6c" x="400.292969"/>
      <use xlink:href="#ArialMT-64" x="422.509766"/>
      <use xlink:href="#ArialMT-20" x="478.125"/>
      <use xlink:href="#ArialMT-61" x="505.908203"/>
      <use xlink:href="#ArialMT-31" x="561.523438"/>
     </g>
    </g>
    <g id="line2d_19">
     <path d="M 355.506125 30.78675 
L 364.306125 30.78675 
L 373.106125 30.78675 
" style="fill: none; stroke-dasharray: 4.44,1.92; stroke-dashoffset: 0; stroke: #dd8452; stroke-width: 1.2"/>
     <g>
      <use xlink:href="#me242132c85" x="364.306125" y="30.78675" style="fill: #dd8452; stroke: #dd8452; stroke-linejoin: miter"/>
     </g>
    </g>
    <g id="text_19">
     <!-- Household b17 -->
     <g style="fill: #262626" transform="translate(380.146125 33.86675) scale(0.088 -0.088)">
      <defs>
       <path id="ArialMT-62" d="M 941 0 
L 419 0 
L 419 4581 
L 981 4581 
L 981 2947 
Q 1338 3394 1891 3394 
Q 2197 3394 2470 3270 
Q 2744 3147 2920 2923 
Q 3097 2700 3197 2384 
Q 3297 2069 3297 1709 
Q 3297 856 2875 390 
Q 2453 -75 1863 -75 
Q 1275 -75 941 416 
L 941 0 
z
M 934 1684 
Q 934 1088 1097 822 
Q 1363 388 1816 388 
Q 2184 388 2453 708 
Q 2722 1028 2722 1663 
Q 2722 2313 2464 2622 
Q 2206 2931 1841 2931 
Q 1472 2931 1203 2611 
Q 934 2291 934 1684 
z
" transform="scale(0.015625)"/>
      </defs>
      <use xlink:href="#ArialMT-48"/>
      <use xlink:href="#ArialMT-6f" x="72.216797"/>
      <use xlink:href="#ArialMT-75" x="127.832031"/>
      <use xlink:href="#ArialMT-73" x="183.447266"/>
      <use xlink:href="#ArialMT-65" x="233.447266"/>
      <use xlink:href="#ArialMT-68" x="289.0625"/>
      <use xlink:href="#ArialMT-6f" x="344.677734"/>
      <use xlink:href="#ArialMT-6c" x="400.292969"/>
      <use xlink:href="#ArialMT-64" x="422.509766"/>
      <use xlink:href="#ArialMT-20" x="478.125"/>
      <use xlink:href="#ArialMT-62" x="505.908203"/>
      <use xlink:href="#ArialMT-31" x="561.523438"/>
      <use xlink:href="#ArialMT-37" x="617.138672"/>
     </g>
    </g>
   </g>
  </g>
 </g>
 <defs>
  <clipPath id="p5f99b7701e">
   <rect x="38.29625" y="7.2" width="408.96775" height="280.668898"/>
  </clipPath>
 </defs>
</svg>