<?xml version="1.0" encoding="utf-8" standalone="no"?>
<!DOCTYPE svg PUBLIC "-//W3C//DTD SVG 1.1//EN"
  "http://www.w3.org/Graphics/SVG/1.1/DTD/svg11.dtd">
<svg xmlns:xlink="http://www.w3.org/1999/xlink" width="454.464pt" height="339.264pt" viewBox="0 0 454.464 339.264" xmlns="http://www.w3.org/2000/svg" version="1.1">
 <metadata>
  <rdf:RDF xmlns:dc="http://purl.org/dc/elements/1.1/" xmlns:cc="http://creativecommons.org/ns#" xmlns:rdf="http://www.w3.org/1999/02/22-rdf-syntax-ns#">
   <cc:Work>
    <dc:type rdf:resource="http://purl.org/dc/dcmitype/StillImage"/>
    <dc:date>2025-05-29T17:37:18.489592</dc:date>
    <dc:format>image/svg+xml</dc:format>
    <dc:creator>
     <cc:Agent>
      <dc:title>Matplotlib v3.9.2, https://matplotlib.org/</dc:title>
     </cc:Agent>
    </dc:creator>
   </cc:Work>
  </rdf:RDF>
 </metadata>
 <defs>
  <style type="text/css">*{stroke-linejoin: round; stroke-linecap: butt}</style>
 </defs>
 <g id="figure_1">
  <g id="patch_1">
   <path d="M 0 339.264 
L 454.464 339.264 
L 454.464 0 
L 0 0 
z
" style="fill: #ffffff"/>
  </g>
  <g id="axes_1">
   <g id="patch_2">
    <path d="M 41.044 302.936625 
L 447.264 302.936625 
L 447.264 20.0715 
L 41.044 20.0715 
z
" style="fill: #ffffff"/>
   </g>
   <g id="matplotlib.axis_1">
    <g id="xtick_1">
     <g id="line2d_1">
      <defs>
       <path id="m39a5625740" d="M 0 0 
L 0 4.8 
" style="stroke: #262626"/>
      </defs>
      <g>
       <use xlink:href="#m39a5625740" x="84.127939" y="302.936625" style="fill: #262626; stroke: #262626"/>
      </g>
     </g>
     <g id="text_1">
      <!-- −4 -->
      <g style="fill: #262626" transform="translate(79.111252 317.5355) scale(0.088 -0.088)">
       <defs>
        <path id="ArialMT-2212" d="M 3381 1997 
L 356 1997 
L 356 2522 
L 3381 2522 
L 3381 1997 
z
" transform="scale(0.015625)"/>
        <path id="ArialMT-34" d="M 2069 0 
L 2069 1097 
L 81 1097 
L 81 1613 
L 2172 4581 
L 2631 4581 
L 2631 1613 
L 3250 1613 
L 3250 1097 
L 2631 1097 
L 2631 0 
L 2069 0 
z
M 2069 1613 
L 2069 3678 
L 634 1613 
L 2069 1613 
z
" transform="scale(0.015625)"/>
       </defs>
       <use xlink:href="#ArialMT-2212"/>
       <use xlink:href="#ArialMT-34" x="58.398438"/>
      </g>
     </g>
    </g>
    <g id="xtick_2">
     <g id="line2d_2">
      <g>
       <use xlink:href="#m39a5625740" x="133.366727" y="302.936625" style="fill: #262626; stroke: #262626"/>
      </g>
     </g>
     <g id="text_2">
      <!-- −2 -->
      <g style="fill: #262626" transform="translate(128.35004 317.5355) scale(0.088 -0.088)">
       <defs>
        <path id="ArialMT-32" d="M 3222 541 
L 3222 0 
L 194 0 
Q 188 203 259 391 
Q 375 700 629 1000 
Q 884 1300 1366 1694 
Q 2113 2306 2375 2664 
Q 2638 3022 2638 3341 
Q 2638 3675 2398 3904 
Q 2159 4134 1775 4134 
Q 1369 4134 1125 3890 
Q 881 3647 878 3216 
L 300 3275 
Q 359 3922 746 4261 
Q 1134 4600 1788 4600 
Q 2447 4600 2831 4234 
Q 3216 3869 3216 3328 
Q 3216 3053 3103 2787 
Q 2991 2522 2730 2228 
Q 2469 1934 1863 1422 
Q 1356 997 1212 845 
Q 1069 694 975 541 
L 3222 541 
z
" transform="scale(0.015625)"/>
       </defs>
       <use xlink:href="#ArialMT-2212"/>
       <use xlink:href="#ArialMT-32" x="58.398438"/>
      </g>
     </g>
    </g>
    <g id="xtick_3">
     <g id="line2d_3">
      <g>
       <use xlink:href="#m39a5625740" x="182.605515" y="302.936625" style="fill: #262626; stroke: #262626"/>
      </g>
     </g>
     <g id="text_3">
      <!-- 0 -->
      <g style="fill: #262626" transform="translate(180.158703 317.5355) scale(0.088 -0.088)">
       <defs>
        <path id="ArialMT-30" d="M 266 2259 
Q 266 3072 433 3567 
Q 600 4063 929 4331 
Q 1259 4600 1759 4600 
Q 2128 4600 2406 4451 
Q 2684 4303 2865 4023 
Q 3047 3744 3150 3342 
Q 3253 2941 3253 2259 
Q 3253 1453 3087 958 
Q 2922 463 2592 192 
Q 2263 -78 1759 -78 
Q 1097 -78 719 397 
Q 266 969 266 2259 
z
M 844 2259 
Q 844 1131 1108 757 
Q 1372 384 1759 384 
Q 2147 384 2411 759 
Q 2675 1134 2675 2259 
Q 2675 3391 2411 3762 
Q 2147 4134 1753 4134 
Q 1366 4134 1134 3806 
Q 844 3388 844 2259 
z
" transform="scale(0.015625)"/>
       </defs>
       <use xlink:href="#ArialMT-30"/>
      </g>
     </g>
    </g>
    <g id="xtick_4">
     <g id="line2d_4">
      <g>
       <use xlink:href="#m39a5625740" x="231.844303" y="302.936625" style="fill: #262626; stroke: #262626"/>
      </g>
     </g>
     <g id="text_4">
      <!-- 2 -->
      <g style="fill: #262626" transform="translate(229.397491 317.5355) scale(0.088 -0.088)">
       <use xlink:href="#ArialMT-32"/>
      </g>
     </g>
    </g>
    <g id="xtick_5">
     <g id="line2d_5">
      <g>
       <use xlink:href="#m39a5625740" x="281.083091" y="302.936625" style="fill: #262626; stroke: #262626"/>
      </g>
     </g>
     <g id="text_5">
      <!-- 4 -->
      <g style="fill: #262626" transform="translate(278.636278 317.5355) scale(0.088 -0.088)">
       <use xlink:href="#ArialMT-34"/>
      </g>
     </g>
    </g>
    <g id="xtick_6">
     <g id="line2d_6">
      <g>
       <use xlink:href="#m39a5625740" x="330.321879" y="302.936625" style="fill: #262626; stroke: #262626"/>
      </g>
     </g>
     <g id="text_6">
      <!-- 6 -->
      <g style="fill: #262626" transform="translate(327.875066 317.5355) scale(0.088 -0.088)">
       <defs>
        <path id="ArialMT-36" d="M 3184 3459 
L 2625 3416 
Q 2550 3747 2413 3897 
Q 2184 4138 1850 4138 
Q 1581 4138 1378 3988 
Q 1113 3794 959 3422 
Q 806 3050 800 2363 
Q 1003 2672 1297 2822 
Q 1591 2972 1913 2972 
Q 2475 2972 2870 2558 
Q 3266 2144 3266 1488 
Q 3266 1056 3080 686 
Q 2894 316 2569 119 
Q 2244 -78 1831 -78 
Q 1128 -78 684 439 
Q 241 956 241 2144 
Q 241 3472 731 4075 
Q 1159 4600 1884 4600 
Q 2425 4600 2770 4297 
Q 3116 3994 3184 3459 
z
M 888 1484 
Q 888 1194 1011 928 
Q 1134 663 1356 523 
Q 1578 384 1822 384 
Q 2178 384 2434 671 
Q 2691 959 2691 1453 
Q 2691 1928 2437 2201 
Q 2184 2475 1800 2475 
Q 1419 2475 1153 2201 
Q 888 1928 888 1484 
z
" transform="scale(0.015625)"/>
       </defs>
       <use xlink:href="#ArialMT-36"/>
      </g>
     </g>
    </g>
    <g id="xtick_7">
     <g id="line2d_7">
      <g>
       <use xlink:href="#m39a5625740" x="379.560667" y="302.936625" style="fill: #262626; stroke: #262626"/>
      </g>
     </g>
     <g id="text_7">
      <!-- 8 -->
      <g style="fill: #262626" transform="translate(377.113854 317.5355) scale(0.088 -0.088)">
       <defs>
        <path id="ArialMT-38" d="M 1131 2484 
Q 781 2613 612 2850 
Q 444 3088 444 3419 
Q 444 3919 803 4259 
Q 1163 4600 1759 4600 
Q 2359 4600 2725 4251 
Q 3091 3903 3091 3403 
Q 3091 3084 2923 2848 
Q 2756 2613 2416 2484 
Q 2838 2347 3058 2040 
Q 3278 1734 3278 1309 
Q 3278 722 2862 322 
Q 2447 -78 1769 -78 
Q 1091 -78 675 323 
Q 259 725 259 1325 
Q 259 1772 486 2073 
Q 713 2375 1131 2484 
z
M 1019 3438 
Q 1019 3113 1228 2906 
Q 1438 2700 1772 2700 
Q 2097 2700 2305 2904 
Q 2513 3109 2513 3406 
Q 2513 3716 2298 3927 
Q 2084 4138 1766 4138 
Q 1444 4138 1231 3931 
Q 1019 3725 1019 3438 
z
M 838 1322 
Q 838 1081 952 856 
Q 1066 631 1291 507 
Q 1516 384 1775 384 
Q 2178 384 2440 643 
Q 2703 903 2703 1303 
Q 2703 1709 2433 1975 
Q 2163 2241 1756 2241 
Q 1359 2241 1098 1978 
Q 838 1716 838 1322 
z
" transform="scale(0.015625)"/>
       </defs>
       <use xlink:href="#ArialMT-38"/>
      </g>
     </g>
    </g>
    <g id="xtick_8">
     <g id="line2d_8">
      <g>
       <use xlink:href="#m39a5625740" x="428.799455" y="302.936625" style="fill: #262626; stroke: #262626"/>
      </g>
     </g>
     <g id="text_8">
      <!-- 10 -->
      <g style="fill: #262626" transform="translate(423.90583 317.5355) scale(0.088 -0.088)">
       <defs>
        <path id="ArialMT-31" d="M 2384 0 
L 1822 0 
L 1822 3584 
Q 1619 3391 1289 3197 
Q 959 3003 697 2906 
L 697 3450 
Q 1169 3672 1522 3987 
Q 1875 4303 2022 4600 
L 2384 4600 
L 2384 0 
z
" transform="scale(0.015625)"/>
       </defs>
       <use xlink:href="#ArialMT-31"/>
       <use xlink:href="#ArialMT-30" x="55.615234"/>
      </g>
     </g>
    </g>
    <g id="text_9">
     <!-- $x$ -->
     <g style="fill: #262626" transform="translate(241.274 330.156) scale(0.096 -0.096)">
      <defs>
       <path id="DejaVuSans-Oblique-78" d="M 3841 3500 
L 2234 1784 
L 3219 0 
L 2559 0 
L 1819 1388 
L 531 0 
L -166 0 
L 1556 1844 
L 641 3500 
L 1300 3500 
L 1972 2234 
L 3144 3500 
L 3841 3500 
z
" transform="scale(0.015625)"/>
      </defs>
      <use xlink:href="#DejaVuSans-Oblique-78" transform="translate(0 0.3125)"/>
     </g>
    </g>
   </g>
   <g id="matplotlib.axis_2">
    <g id="ytick_1">
     <g id="line2d_9">
      <defs>
       <path id="mc68ea3adb0" d="M 0 0 
L -4.8 0 
" style="stroke: #262626"/>
      </defs>
      <g>
       <use xlink:href="#mc68ea3adb0" x="41.044" y="302.936625" style="fill: #262626; stroke: #262626"/>
      </g>
     </g>
     <g id="text_10">
      <!-- 0.0 -->
      <g style="fill: #262626" transform="translate(20.512 306.086062) scale(0.088 -0.088)">
       <defs>
        <path id="ArialMT-2e" d="M 581 0 
L 581 641 
L 1222 641 
L 1222 0 
L 581 0 
z
" transform="scale(0.015625)"/>
       </defs>
       <use xlink:href="#ArialMT-30"/>
       <use xlink:href="#ArialMT-2e" x="55.615234"/>
       <use xlink:href="#ArialMT-30" x="83.398438"/>
      </g>
     </g>
    </g>
    <g id="ytick_2">
     <g id="line2d_10">
      <g>
       <use xlink:href="#mc68ea3adb0" x="41.044" y="252.404833" style="fill: #262626; stroke: #262626"/>
      </g>
     </g>
     <g id="text_11">
      <!-- 0.1 -->
      <g style="fill: #262626" transform="translate(20.512 255.554271) scale(0.088 -0.088)">
       <use xlink:href="#ArialMT-30"/>
       <use xlink:href="#ArialMT-2e" x="55.615234"/>
       <use xlink:href="#ArialMT-31" x="83.398438"/>
      </g>
     </g>
    </g>
    <g id="ytick_3">
     <g id="line2d_11">
      <g>
       <use xlink:href="#mc68ea3adb0" x="41.044" y="201.873041" style="fill: #262626; stroke: #262626"/>
      </g>
     </g>
     <g id="text_12">
      <!-- 0.2 -->
      <g style="fill: #262626" transform="translate(20.512 205.022479) scale(0.088 -0.088)">
       <use xlink:href="#ArialMT-30"/>
       <use xlink:href="#ArialMT-2e" x="55.615234"/>
       <use xlink:href="#ArialMT-32" x="83.398438"/>
      </g>
     </g>
    </g>
    <g id="ytick_4">
     <g id="line2d_12">
      <g>
       <use xlink:href="#mc68ea3adb0" x="41.044" y="151.341249" style="fill: #262626; stroke: #262626"/>
      </g>
     </g>
     <g id="text_13">
      <!-- 0.3 -->
      <g style="fill: #262626" transform="translate(20.512 154.490687) scale(0.088 -0.088)">
       <defs>
        <path id="ArialMT-33" d="M 269 1209 
L 831 1284 
Q 928 806 1161 595 
Q 1394 384 1728 384 
Q 2125 384 2398 659 
Q 2672 934 2672 1341 
Q 2672 1728 2419 1979 
Q 2166 2231 1775 2231 
Q 1616 2231 1378 2169 
L 1441 2663 
Q 1497 2656 1531 2656 
Q 1891 2656 2178 2843 
Q 2466 3031 2466 3422 
Q 2466 3731 2256 3934 
Q 2047 4138 1716 4138 
Q 1388 4138 1169 3931 
Q 950 3725 888 3313 
L 325 3413 
Q 428 3978 793 4289 
Q 1159 4600 1703 4600 
Q 2078 4600 2393 4439 
Q 2709 4278 2876 4000 
Q 3044 3722 3044 3409 
Q 3044 3113 2884 2869 
Q 2725 2625 2413 2481 
Q 2819 2388 3044 2092 
Q 3269 1797 3269 1353 
Q 3269 753 2831 336 
Q 2394 -81 1725 -81 
Q 1122 -81 723 278 
Q 325 638 269 1209 
z
" transform="scale(0.015625)"/>
       </defs>
       <use xlink:href="#ArialMT-30"/>
       <use xlink:href="#ArialMT-2e" x="55.615234"/>
       <use xlink:href="#ArialMT-33" x="83.398438"/>
      </g>
     </g>
    </g>
    <g id="ytick_5">
     <g id="line2d_13">
      <g>
       <use xlink:href="#mc68ea3adb0" x="41.044" y="100.809457" style="fill: #262626; stroke: #262626"/>
      </g>
     </g>
     <g id="text_14">
      <!-- 0.4 -->
      <g style="fill: #262626" transform="translate(20.512 103.958895) scale(0.088 -0.088)">
       <use xlink:href="#ArialMT-30"/>
       <use xlink:href="#ArialMT-2e" x="55.615234"/>
       <use xlink:href="#ArialMT-34" x="83.398438"/>
      </g>
     </g>
    </g>
    <g id="ytick_6">
     <g id="line2d_14">
      <g>
       <use xlink:href="#mc68ea3adb0" x="41.044" y="50.277666" style="fill: #262626; stroke: #262626"/>
      </g>
     </g>
     <g id="text_15">
      <!-- 0.5 -->
      <g style="fill: #262626" transform="translate(20.512 53.427103) scale(0.088 -0.088)">
       <defs>
        <path id="ArialMT-35" d="M 266 1200 
L 856 1250 
Q 922 819 1161 601 
Q 1400 384 1738 384 
Q 2144 384 2425 690 
Q 2706 997 2706 1503 
Q 2706 1984 2436 2262 
Q 2166 2541 1728 2541 
Q 1456 2541 1237 2417 
Q 1019 2294 894 2097 
L 366 2166 
L 809 4519 
L 3088 4519 
L 3088 3981 
L 1259 3981 
L 1013 2750 
Q 1425 3038 1878 3038 
Q 2478 3038 2890 2622 
Q 3303 2206 3303 1553 
Q 3303 931 2941 478 
Q 2500 -78 1738 -78 
Q 1113 -78 717 272 
Q 322 622 266 1200 
z
" transform="scale(0.015625)"/>
       </defs>
       <use xlink:href="#ArialMT-30"/>
       <use xlink:href="#ArialMT-2e" x="55.615234"/>
       <use xlink:href="#ArialMT-35" x="83.398438"/>
      </g>
     </g>
    </g>
    <g id="text_16">
     <!-- $p(x)$ -->
     <g style="fill: #262626" transform="translate(14.496 171.152062) rotate(-90) scale(0.096 -0.096)">
      <defs>
       <path id="DejaVuSans-Oblique-70" d="M 3175 2156 
Q 3175 2616 2975 2859 
Q 2775 3103 2400 3103 
Q 2144 3103 1911 2972 
Q 1678 2841 1497 2591 
Q 1319 2344 1212 1994 
Q 1106 1644 1106 1300 
Q 1106 863 1306 627 
Q 1506 391 1875 391 
Q 2147 391 2380 519 
Q 2613 647 2778 891 
Q 2956 1147 3065 1494 
Q 3175 1841 3175 2156 
z
M 1394 2969 
Q 1625 3272 1939 3428 
Q 2253 3584 2638 3584 
Q 3175 3584 3472 3232 
Q 3769 2881 3769 2247 
Q 3769 1728 3584 1258 
Q 3400 788 3053 416 
Q 2822 169 2531 39 
Q 2241 -91 1919 -91 
Q 1547 -91 1294 64 
Q 1041 219 916 525 
L 556 -1331 
L -19 -1331 
L 922 3500 
L 1497 3500 
L 1394 2969 
z
" transform="scale(0.015625)"/>
       <path id="DejaVuSans-28" d="M 1984 4856 
Q 1566 4138 1362 3434 
Q 1159 2731 1159 2009 
Q 1159 1288 1364 580 
Q 1569 -128 1984 -844 
L 1484 -844 
Q 1016 -109 783 600 
Q 550 1309 550 2009 
Q 550 2706 781 3412 
Q 1013 4119 1484 4856 
L 1984 4856 
z
" transform="scale(0.015625)"/>
       <path id="DejaVuSans-29" d="M 513 4856 
L 1013 4856 
Q 1481 4119 1714 3412 
Q 1947 2706 1947 2009 
Q 1947 1309 1714 600 
Q 1481 -109 1013 -844 
L 513 -844 
Q 928 -128 1133 580 
Q 1338 1288 1338 2009 
Q 1338 2731 1133 3434 
Q 928 4138 513 4856 
z
" transform="scale(0.015625)"/>
      </defs>
      <use xlink:href="#DejaVuSans-Oblique-70" transform="translate(0 0.125)"/>
      <use xlink:href="#DejaVuSans-28" transform="translate(63.476562 0.125)"/>
      <use xlink:href="#DejaVuSans-Oblique-78" transform="translate(102.490234 0.125)"/>
      <use xlink:href="#DejaVuSans-29" transform="translate(161.669922 0.125)"/>
     </g>
    </g>
   </g>
   <g id="PolyCollection_1">
    <defs>
     <path id="m157172f638" d="M 59.508545 -37.679649 
L 59.508545 -36.327375 
L 61.364279 -36.327375 
L 63.220012 -36.327375 
L 65.075745 -36.327375 
L 66.931478 -36.327375 
L 68.787212 -36.327375 
L 70.642945 -36.327375 
L 72.498678 -36.327375 
L 74.354411 -36.327375 
L 76.210144 -36.327375 
L 78.065878 -36.327375 
L 79.921611 -36.327375 
L 81.777344 -36.327375 
L 83.633077 -36.327375 
L 85.48881 -36.327375 
L 87.344544 -36.327375 
L 89.200277 -36.327375 
L 91.05601 -36.327375 
L 92.911743 -36.327375 
L 94.767476 -36.327375 
L 96.62321 -36.327375 
L 98.478943 -36.327375 
L 100.334676 -36.327375 
L 102.190409 -36.327375 
L 104.046143 -36.327375 
L 105.901876 -36.327375 
L 107.757609 -36.327375 
L 109.613342 -36.327375 
L 111.469075 -36.327375 
L 113.324809 -36.327375 
L 115.180542 -36.327375 
L 117.036275 -36.327375 
L 118.892008 -36.327375 
L 120.747741 -36.327375 
L 122.603475 -36.327375 
L 124.459208 -36.327375 
L 126.314941 -36.327375 
L 128.170674 -36.327375 
L 130.026407 -36.327375 
L 131.882141 -36.327375 
L 133.737874 -36.327375 
L 135.593607 -36.327375 
L 137.44934 -36.327375 
L 139.305074 -36.327375 
L 141.160807 -36.327375 
L 143.01654 -36.327375 
L 144.872273 -36.327375 
L 146.728006 -36.327375 
L 148.58374 -36.327375 
L 150.439473 -36.327375 
L 152.295206 -36.327375 
L 154.150939 -36.327375 
L 156.006672 -36.327375 
L 157.862406 -36.327375 
L 159.718139 -36.327375 
L 161.573872 -36.327375 
L 163.429605 -36.327375 
L 165.285339 -36.327375 
L 167.141072 -36.327375 
L 168.996805 -36.327375 
L 170.852538 -36.327375 
L 172.708271 -36.327375 
L 174.564005 -36.327375 
L 176.419738 -36.327375 
L 178.275471 -36.327375 
L 180.131204 -36.327375 
L 181.986937 -36.327375 
L 183.842671 -36.327375 
L 185.698404 -36.327375 
L 187.554137 -36.327375 
L 189.40987 -36.327375 
L 191.265603 -36.327375 
L 193.121337 -36.327375 
L 194.97707 -36.327375 
L 196.832803 -36.327375 
L 198.688536 -36.327375 
L 200.54427 -36.327375 
L 202.400003 -36.327375 
L 204.255736 -36.327375 
L 206.111469 -36.327375 
L 207.967202 -36.327375 
L 209.822936 -36.327375 
L 211.678669 -36.327375 
L 213.534402 -36.327375 
L 215.390135 -36.327375 
L 217.245868 -36.327375 
L 219.101602 -36.327375 
L 220.957335 -36.327375 
L 222.813068 -36.327375 
L 224.668801 -36.327375 
L 226.524534 -36.327375 
L 228.380268 -36.327375 
L 230.236001 -36.327375 
L 232.091734 -36.327375 
L 233.947467 -36.327375 
L 235.803201 -36.327375 
L 237.658934 -36.327375 
L 239.514667 -36.327375 
L 241.3704 -36.327375 
L 243.226133 -36.327375 
L 245.081867 -36.327375 
L 246.9376 -36.327375 
L 248.793333 -36.327375 
L 250.649066 -36.327375 
L 252.504799 -36.327375 
L 254.360533 -36.327375 
L 256.216266 -36.327375 
L 258.071999 -36.327375 
L 259.927732 -36.327375 
L 261.783466 -36.327375 
L 263.639199 -36.327375 
L 265.494932 -36.327375 
L 267.350665 -36.327375 
L 269.206398 -36.327375 
L 271.062132 -36.327375 
L 272.917865 -36.327375 
L 274.773598 -36.327375 
L 276.629331 -36.327375 
L 278.485064 -36.327375 
L 280.340798 -36.327375 
L 282.196531 -36.327375 
L 284.052264 -36.327375 
L 285.907997 -36.327375 
L 287.76373 -36.327375 
L 289.619464 -36.327375 
L 291.475197 -36.327375 
L 293.33093 -36.327375 
L 295.186663 -36.327375 
L 297.042397 -36.327375 
L 298.89813 -36.327375 
L 300.753863 -36.327375 
L 302.609596 -36.327375 
L 304.465329 -36.327375 
L 306.321063 -36.327375 
L 308.176796 -36.327375 
L 310.032529 -36.327375 
L 311.888262 -36.327375 
L 313.743995 -36.327375 
L 315.599729 -36.327375 
L 317.455462 -36.327375 
L 319.311195 -36.327375 
L 321.166928 -36.327375 
L 323.022661 -36.327375 
L 324.878395 -36.327375 
L 326.734128 -36.327375 
L 328.589861 -36.327375 
L 330.445594 -36.327375 
L 332.301328 -36.327375 
L 334.157061 -36.327375 
L 336.012794 -36.327375 
L 337.868527 -36.327375 
L 339.72426 -36.327375 
L 341.579994 -36.327375 
L 343.435727 -36.327375 
L 345.29146 -36.327375 
L 347.147193 -36.327375 
L 349.002926 -36.327375 
L 350.85866 -36.327375 
L 352.714393 -36.327375 
L 354.570126 -36.327375 
L 356.425859 -36.327375 
L 358.281593 -36.327375 
L 360.137326 -36.327375 
L 361.993059 -36.327375 
L 363.848792 -36.327375 
L 365.704525 -36.327375 
L 367.560259 -36.327375 
L 369.415992 -36.327375 
L 371.271725 -36.327375 
L 373.127458 -36.327375 
L 374.983191 -36.327375 
L 376.838925 -36.327375 
L 378.694658 -36.327375 
L 380.550391 -36.327375 
L 382.406124 -36.327375 
L 384.261857 -36.327375 
L 386.117591 -36.327375 
L 387.973324 -36.327375 
L 389.829057 -36.327375 
L 391.68479 -36.327375 
L 393.540524 -36.327375 
L 395.396257 -36.327375 
L 397.25199 -36.327375 
L 399.107723 -36.327375 
L 400.963456 -36.327375 
L 402.81919 -36.327375 
L 404.674923 -36.327375 
L 406.530656 -36.327375 
L 408.386389 -36.327375 
L 410.242122 -36.327375 
L 412.097856 -36.327375 
L 413.953589 -36.327375 
L 415.809322 -36.327375 
L 417.665055 -36.327375 
L 419.520788 -36.327375 
L 421.376522 -36.327375 
L 423.232255 -36.327375 
L 425.087988 -36.327375 
L 426.943721 -36.327375 
L 428.799455 -36.327375 
L 428.799455 -36.481831 
L 428.799455 -36.481831 
L 426.943721 -36.503493 
L 425.087988 -36.527908 
L 423.232255 -36.555384 
L 421.376522 -36.586257 
L 419.520788 -36.620894 
L 417.665055 -36.659694 
L 415.809322 -36.703091 
L 413.953589 -36.751553 
L 412.097856 -36.805587 
L 410.242122 -36.865742 
L 408.386389 -36.932606 
L 406.530656 -37.006812 
L 404.674923 -37.089037 
L 402.81919 -37.180004 
L 400.963456 -37.280486 
L 399.107723 -37.391304 
L 397.25199 -37.513327 
L 395.396257 -37.647477 
L 393.540524 -37.794725 
L 391.68479 -37.956093 
L 389.829057 -38.132655 
L 387.973324 -38.325532 
L 386.117591 -38.535894 
L 384.261857 -38.764959 
L 382.406124 -39.013987 
L 380.550391 -39.284282 
L 378.694658 -39.577184 
L 376.838925 -39.894069 
L 374.983191 -40.23634 
L 373.127458 -40.605427 
L 371.271725 -41.002777 
L 369.415992 -41.429849 
L 367.560259 -41.888106 
L 365.704525 -42.379007 
L 363.848792 -42.904001 
L 361.993059 -43.464514 
L 360.137326 -44.061942 
L 358.281593 -44.697637 
L 356.425859 -45.3729 
L 354.570126 -46.088968 
L 352.714393 -46.847002 
L 350.85866 -47.648075 
L 349.002926 -48.493157 
L 347.147193 -49.383107 
L 345.29146 -50.318658 
L 343.435727 -51.300403 
L 341.579994 -52.328784 
L 339.72426 -53.404081 
L 337.868527 -54.526398 
L 336.012794 -55.69565 
L 334.157061 -56.911559 
L 332.301328 -58.173637 
L 330.445594 -59.481181 
L 328.589861 -60.833264 
L 326.734128 -62.228729 
L 324.878395 -63.666183 
L 323.022661 -65.143994 
L 321.166928 -66.660288 
L 319.311195 -68.212948 
L 317.455462 -69.799617 
L 315.599729 -71.417697 
L 313.743995 -73.064359 
L 311.888262 -74.736544 
L 310.032529 -76.430976 
L 308.176796 -78.144171 
L 306.321063 -79.872448 
L 304.465329 -81.611945 
L 302.609596 -83.358633 
L 300.753863 -85.108335 
L 298.89813 -86.856746 
L 297.042397 -88.599452 
L 295.186663 -90.331954 
L 293.33093 -92.049688 
L 291.475197 -93.748052 
L 289.619464 -95.42243 
L 287.76373 -97.068219 
L 285.907997 -98.680853 
L 284.052264 -100.255828 
L 282.196531 -101.788732 
L 280.340798 -103.275267 
L 278.485064 -104.711275 
L 276.629331 -106.092764 
L 274.773598 -107.415927 
L 272.917865 -108.677169 
L 271.062132 -109.873123 
L 269.206398 -111.000671 
L 267.350665 -112.05696 
L 265.494932 -113.039418 
L 263.639199 -113.945766 
L 261.783466 -114.774026 
L 259.927732 -115.522533 
L 258.071999 -116.189937 
L 256.216266 -116.775211 
L 254.360533 -117.277644 
L 252.504799 -117.696847 
L 250.649066 -118.032745 
L 248.793333 -118.285568 
L 246.9376 -118.455849 
L 245.081867 -118.544405 
L 243.226133 -118.552331 
L 241.3704 -118.480983 
L 239.514667 -118.331959 
L 237.658934 -118.107084 
L 235.803201 -117.808392 
L 233.947467 -117.438105 
L 232.091734 -116.998611 
L 230.236001 -116.492446 
L 228.380268 -115.92227 
L 226.524534 -115.290847 
L 224.668801 -114.601024 
L 222.813068 -113.855711 
L 220.957335 -113.057857 
L 219.101602 -112.210437 
L 217.245868 -111.31643 
L 215.390135 -110.378799 
L 213.534402 -109.400482 
L 211.678669 -108.384374 
L 209.822936 -107.333312 
L 207.967202 -106.250066 
L 206.111469 -105.137331 
L 204.255736 -103.997713 
L 202.400003 -102.83373 
L 200.54427 -101.647799 
L 198.688536 -100.442239 
L 196.832803 -99.219265 
L 194.97707 -97.980989 
L 193.121337 -96.729422 
L 191.265603 -95.466471 
L 189.40987 -94.193947 
L 187.554137 -92.913568 
L 185.698404 -91.626959 
L 183.842671 -90.335664 
L 181.986937 -89.041148 
L 180.131204 -87.744801 
L 178.275471 -86.447951 
L 176.419738 -85.151861 
L 174.564005 -83.857746 
L 172.708271 -82.566771 
L 170.852538 -81.280059 
L 168.996805 -79.998699 
L 167.141072 -78.723749 
L 165.285339 -77.456241 
L 163.429605 -76.197183 
L 161.573872 -74.947567 
L 159.718139 -73.708366 
L 157.862406 -72.480542 
L 156.006672 -71.265041 
L 154.150939 -70.062798 
L 152.295206 -68.874737 
L 150.439473 -67.701766 
L 148.58374 -66.544782 
L 146.728006 -65.404664 
L 144.872273 -64.282273 
L 143.01654 -63.178449 
L 141.160807 -62.094009 
L 139.305074 -61.029743 
L 137.44934 -59.98641 
L 135.593607 -58.964733 
L 133.737874 -57.965401 
L 131.882141 -56.98906 
L 130.026407 -56.036309 
L 128.170674 -55.107703 
L 126.314941 -54.203743 
L 124.459208 -53.324876 
L 122.603475 -52.471494 
L 120.747741 -51.64393 
L 118.892008 -50.842455 
L 117.036275 -50.067279 
L 115.180542 -49.318549 
L 113.324809 -48.596348 
L 111.469075 -47.900698 
L 109.613342 -47.231554 
L 107.757609 -46.588813 
L 105.901876 -45.972309 
L 104.046143 -45.381816 
L 102.190409 -44.817051 
L 100.334676 -44.277679 
L 98.478943 -43.763309 
L 96.62321 -43.273504 
L 94.767476 -42.807779 
L 92.911743 -42.365607 
L 91.05601 -41.946424 
L 89.200277 -41.549629 
L 87.344544 -41.174591 
L 85.48881 -40.82065 
L 83.633077 -40.487126 
L 81.777344 -40.173317 
L 79.921611 -39.878507 
L 78.065878 -39.601966 
L 76.210144 -39.342959 
L 74.354411 -39.100744 
L 72.498678 -38.87458 
L 70.642945 -38.663725 
L 68.787212 -38.467447 
L 66.931478 -38.285016 
L 65.075745 -38.115717 
L 63.220012 -37.958846 
L 61.364279 -37.813714 
L 59.508545 -37.679649 
z
" style="stroke: #0000ff; stroke-opacity: 0.5; stroke-width: 0.8"/>
    </defs>
    <g clip-path="url(#p9d650086a1)">
     <use xlink:href="#m157172f638" x="0" y="339.264" style="fill: #0000ff; fill-opacity: 0.5; stroke: #0000ff; stroke-opacity: 0.5; stroke-width: 0.8"/>
    </g>
   </g>
   <g id="line2d_15">
    <path d="M 59.508545 301.584351 
L 66.931478 300.978984 
L 74.354411 300.163256 
L 81.777344 299.090683 
L 87.344544 298.089409 
L 92.911743 296.898393 
L 98.478943 295.500691 
L 104.046143 293.882184 
L 109.613342 292.032446 
L 115.180542 289.945451 
L 120.747741 287.62007 
L 126.314941 285.060257 
L 131.882141 282.27494 
L 137.44934 279.27759 
L 144.872273 274.981727 
L 152.295206 270.389263 
L 159.718139 265.555634 
L 168.996805 259.265301 
L 200.54427 237.616201 
L 206.111469 234.126669 
L 211.678669 230.879626 
L 217.245868 227.94757 
L 220.957335 226.206143 
L 224.668801 224.662976 
L 228.380268 223.34173 
L 232.091734 222.265389 
L 235.803201 221.455608 
L 239.514667 220.932041 
L 243.226133 220.711669 
L 246.9376 220.808151 
L 250.649066 221.231255 
L 254.360533 221.986356 
L 258.071999 223.074063 
L 261.783466 224.489974 
L 265.494932 226.224582 
L 269.206398 228.263329 
L 272.917865 230.586831 
L 276.629331 233.171236 
L 280.340798 235.988733 
L 285.907997 240.583147 
L 291.475197 245.515948 
L 300.753863 254.155665 
L 311.888262 264.527456 
L 317.455462 269.464383 
L 323.022661 274.120006 
L 328.589861 278.430736 
L 334.157061 282.352441 
L 337.868527 284.737602 
L 341.579994 286.935216 
L 345.29146 288.945342 
L 349.002926 290.770843 
L 352.714393 292.416998 
L 356.425859 293.8911 
L 361.993059 295.799486 
L 367.560259 297.375894 
L 373.127458 298.658573 
L 378.694658 299.686816 
L 384.261857 300.499041 
L 391.68479 301.307907 
L 399.107723 301.872696 
L 408.386389 302.331394 
L 419.520788 302.643106 
L 428.799455 302.782169 
L 428.799455 302.782169 
" clip-path="url(#p9d650086a1)" style="fill: none; stroke: #4c72b0; stroke-width: 1.2; stroke-linecap: round"/>
   </g>
   <g id="line2d_16">
    <defs>
     <path id="mc2f3fb5509" d="M 0 2.4 
C 0.636487 2.4 1.246992 2.147121 1.697056 1.697056 
C 2.147121 1.246992 2.4 0.636487 2.4 0 
C 2.4 -0.636487 2.147121 -1.246992 1.697056 -1.697056 
C 1.246992 -2.147121 0.636487 -2.4 0 -2.4 
C -0.636487 -2.4 -1.246992 -2.147121 -1.697056 -1.697056 
C -2.147121 -1.246992 -2.4 -0.636487 -2.4 0 
C -2.4 0.636487 -2.147121 1.246992 -1.697056 1.697056 
C -1.246992 2.147121 -0.636487 2.4 0 2.4 
z
" style="stroke: #ff0000"/>
    </defs>
    <g clip-path="url(#p9d650086a1)">
     <use xlink:href="#mc2f3fb5509" x="234.306242" y="302.936625" style="fill: #ff0000; stroke: #ff0000"/>
    </g>
   </g>
   <g id="patch_3">
    <path d="M 41.044 302.936625 
L 41.044 20.0715 
" style="fill: none; stroke: #262626; stroke-linejoin: miter; stroke-linecap: square"/>
   </g>
   <g id="patch_4">
    <path d="M 447.264 302.936625 
L 447.264 20.0715 
" style="fill: none; stroke: #262626; stroke-linejoin: miter; stroke-linecap: square"/>
   </g>
   <g id="patch_5">
    <path d="M 41.044 302.936625 
L 447.264 302.936625 
" style="fill: none; stroke: #262626; stroke-linejoin: miter; stroke-linecap: square"/>
   </g>
   <g id="patch_6">
    <path d="M 41.044 20.0715 
L 447.264 20.0715 
" style="fill: none; stroke: #262626; stroke-linejoin: miter; stroke-linecap: square"/>
   </g>
   <g id="text_17">
    <!-- $V[X]$ = 5.89 -->
    <g style="fill: #262626" transform="translate(219.002 14.0715) scale(0.096 -0.096)">
     <defs>
      <path id="DejaVuSans-Oblique-56" d="M 1319 0 
L 500 4666 
L 1119 4666 
L 1797 653 
L 4063 4666 
L 4750 4666 
L 2053 0 
L 1319 0 
z
" transform="scale(0.015625)"/>
      <path id="DejaVuSans-5b" d="M 550 4863 
L 1875 4863 
L 1875 4416 
L 1125 4416 
L 1125 -397 
L 1875 -397 
L 1875 -844 
L 550 -844 
L 550 4863 
z
" transform="scale(0.015625)"/>
      <path id="DejaVuSans-Oblique-58" d="M 878 4666 
L 1516 4666 
L 2316 2981 
L 3763 4666 
L 4500 4666 
L 2578 2438 
L 3738 0 
L 3103 0 
L 2163 1966 
L 459 0 
L -275 0 
L 1906 2509 
L 878 4666 
z
" transform="scale(0.015625)"/>
      <path id="DejaVuSans-5d" d="M 1947 4863 
L 1947 -844 
L 622 -844 
L 622 -397 
L 1369 -397 
L 1369 4416 
L 622 4416 
L 622 4863 
L 1947 4863 
z
" transform="scale(0.015625)"/>
      <path id="ArialMT-20" transform="scale(0.015625)"/>
      <path id="ArialMT-3d" d="M 3381 2694 
L 356 2694 
L 356 3219 
L 3381 3219 
L 3381 2694 
z
M 3381 1303 
L 356 1303 
L 356 1828 
L 3381 1828 
L 3381 1303 
z
" transform="scale(0.015625)"/>
      <path id="ArialMT-39" d="M 350 1059 
L 891 1109 
Q 959 728 1153 556 
Q 1347 384 1650 384 
Q 1909 384 2104 503 
Q 2300 622 2425 820 
Q 2550 1019 2634 1356 
Q 2719 1694 2719 2044 
Q 2719 2081 2716 2156 
Q 2547 1888 2255 1720 
Q 1963 1553 1622 1553 
Q 1053 1553 659 1965 
Q 266 2378 266 3053 
Q 266 3750 677 4175 
Q 1088 4600 1706 4600 
Q 2153 4600 2523 4359 
Q 2894 4119 3086 3673 
Q 3278 3228 3278 2384 
Q 3278 1506 3087 986 
Q 2897 466 2520 194 
Q 2144 -78 1638 -78 
Q 1100 -78 759 220 
Q 419 519 350 1059 
z
M 2653 3081 
Q 2653 3566 2395 3850 
Q 2138 4134 1775 4134 
Q 1400 4134 1122 3828 
Q 844 3522 844 3034 
Q 844 2597 1108 2323 
Q 1372 2050 1759 2050 
Q 2150 2050 2401 2323 
Q 2653 2597 2653 3081 
z
" transform="scale(0.015625)"/>
     </defs>
     <use xlink:href="#DejaVuSans-Oblique-56" transform="translate(0 0.015625)"/>
     <use xlink:href="#DejaVuSans-5b" transform="translate(68.408203 0.015625)"/>
     <use xlink:href="#DejaVuSans-Oblique-58" transform="translate(107.421875 0.015625)"/>
     <use xlink:href="#DejaVuSans-5d" transform="translate(175.927734 0.015625)"/>
     <use xlink:href="#ArialMT-20" transform="translate(214.941406 0.015625)"/>
     <use xlink:href="#ArialMT-3d" transform="translate(242.724609 0.015625)"/>
     <use xlink:href="#ArialMT-20" transform="translate(301.123047 0.015625)"/>
     <use xlink:href="#ArialMT-35" transform="translate(328.90625 0.015625)"/>
     <use xlink:href="#ArialMT-2e" transform="translate(384.521484 0.015625)"/>
     <use xlink:href="#ArialMT-38" transform="translate(412.304688 0.015625)"/>
     <use xlink:href="#ArialMT-39" transform="translate(467.919922 0.015625)"/>
    </g>
   </g>
  </g>
 </g>
 <defs>
  <clipPath id="p9d650086a1">
   <rect x="41.044" y="20.0715" width="406.22" height="282.865125"/>
  </clipPath>
 </defs>
</svg>