<?xml version="1.0" encoding="utf-8" standalone="no"?>
<!DOCTYPE svg PUBLIC "-//W3C//DTD SVG 1.1//EN"
  "http://www.w3.org/Graphics/SVG/1.1/DTD/svg11.dtd">
<svg xmlns:xlink="http://www.w3.org/1999/xlink" width="346.79952pt" height="217.19952pt" viewBox="0 0 346.79952 217.19952" xmlns="http://www.w3.org/2000/svg" version="1.1">
 <metadata>
  <rdf:RDF xmlns:dc="http://purl.org/dc/elements/1.1/" xmlns:cc="http://creativecommons.org/ns#" xmlns:rdf="http://www.w3.org/1999/02/22-rdf-syntax-ns#">
   <cc:Work>
    <dc:type rdf:resource="http://purl.org/dc/dcmitype/StillImage"/>
    <dc:date>2025-06-09T13:52:46.755782</dc:date>
    <dc:format>image/svg+xml</dc:format>
    <dc:creator>
     <cc:Agent>
      <dc:title>Matplotlib v3.9.2, https://matplotlib.org/</dc:title>
     </cc:Agent>
    </dc:creator>
   </cc:Work>
  </rdf:RDF>
 </metadata>
 <defs>
  <style type="text/css">*{stroke-linejoin: round; stroke-linecap: butt}</style>
 </defs>
 <g id="figure_1">
  <g id="patch_1">
   <path d="M 0 217.19952 
L 346.79952 217.19952 
L 346.79952 -0 
L 0 -0 
z
" style="fill: #ffffff"/>
  </g>
  <g id="axes_1">
   <g id="patch_2">
    <path d="M 41.669531 187.982332 
L 339.59952 187.982332 
L 339.59952 7.2 
L 41.669531 7.2 
z
" style="fill: #ffffff"/>
   </g>
   <g id="matplotlib.axis_1">
    <g id="xtick_1">
     <g id="line2d_1"/>
     <g id="text_1">
      <!-- 0 -->
      <g style="fill: #262626" transform="translate(52.984928 196.801239) scale(0.07 -0.07)">
       <defs>
        <path id="DejaVuSerif-30" d="M 2034 219 
Q 2513 219 2750 744 
Q 2988 1269 2988 2328 
Q 2988 3391 2750 3916 
Q 2513 4441 2034 4441 
Q 1556 4441 1318 3916 
Q 1081 3391 1081 2328 
Q 1081 1269 1318 744 
Q 1556 219 2034 219 
z
M 2034 -91 
Q 1275 -91 848 546 
Q 422 1184 422 2328 
Q 422 3475 848 4112 
Q 1275 4750 2034 4750 
Q 2797 4750 3222 4112 
Q 3647 3475 3647 2328 
Q 3647 1184 3222 546 
Q 2797 -91 2034 -91 
z
" transform="scale(0.015625)"/>
       </defs>
       <use xlink:href="#DejaVuSerif-30"/>
      </g>
     </g>
    </g>
    <g id="xtick_2">
     <g id="line2d_2"/>
     <g id="text_2">
      <!-- 10 -->
      <g style="fill: #262626" transform="translate(95.898961 196.801239) scale(0.07 -0.07)">
       <defs>
        <path id="DejaVuSerif-31" d="M 909 0 
L 909 331 
L 1722 331 
L 1722 4213 
L 781 3603 
L 781 4013 
L 1919 4750 
L 2350 4750 
L 2350 331 
L 3163 331 
L 3163 0 
L 909 0 
z
" transform="scale(0.015625)"/>
       </defs>
       <use xlink:href="#DejaVuSerif-31"/>
       <use xlink:href="#DejaVuSerif-30" x="63.623047"/>
      </g>
     </g>
    </g>
    <g id="xtick_3">
     <g id="line2d_3"/>
     <g id="text_3">
      <!-- 20 -->
      <g style="fill: #262626" transform="translate(141.039868 196.801239) scale(0.07 -0.07)">
       <defs>
        <path id="DejaVuSerif-32" d="M 819 3553 
L 469 3553 
L 469 4384 
Q 803 4563 1142 4656 
Q 1481 4750 1806 4750 
Q 2534 4750 2956 4397 
Q 3378 4044 3378 3438 
Q 3378 2753 2422 1800 
Q 2347 1728 2309 1691 
L 1131 513 
L 3078 513 
L 3078 1088 
L 3444 1088 
L 3444 0 
L 434 0 
L 434 341 
L 1850 1753 
Q 2319 2222 2519 2614 
Q 2719 3006 2719 3438 
Q 2719 3909 2473 4175 
Q 2228 4441 1797 4441 
Q 1350 4441 1106 4219 
Q 863 3997 819 3553 
z
" transform="scale(0.015625)"/>
       </defs>
       <use xlink:href="#DejaVuSerif-32"/>
       <use xlink:href="#DejaVuSerif-30" x="63.623047"/>
      </g>
     </g>
    </g>
    <g id="xtick_4">
     <g id="line2d_4"/>
     <g id="text_4">
      <!-- 30 -->
      <g style="fill: #262626" transform="translate(186.180776 196.801239) scale(0.07 -0.07)">
       <defs>
        <path id="DejaVuSerif-33" d="M 622 4469 
Q 988 4606 1323 4678 
Q 1659 4750 1953 4750 
Q 2638 4750 3022 4454 
Q 3406 4159 3406 3634 
Q 3406 3213 3140 2930 
Q 2875 2647 2388 2547 
Q 2963 2466 3280 2130 
Q 3597 1794 3597 1259 
Q 3597 606 3158 257 
Q 2719 -91 1894 -91 
Q 1528 -91 1179 -12 
Q 831 66 488 225 
L 488 1131 
L 838 1131 
Q 869 681 1141 450 
Q 1413 219 1906 219 
Q 2384 219 2661 495 
Q 2938 772 2938 1253 
Q 2938 1803 2653 2086 
Q 2369 2369 1819 2369 
L 1522 2369 
L 1522 2688 
L 1678 2688 
Q 2225 2688 2498 2914 
Q 2772 3141 2772 3597 
Q 2772 4006 2547 4223 
Q 2322 4441 1900 4441 
Q 1478 4441 1245 4241 
Q 1013 4041 972 3647 
L 622 3647 
L 622 4469 
z
" transform="scale(0.015625)"/>
       </defs>
       <use xlink:href="#DejaVuSerif-33"/>
       <use xlink:href="#DejaVuSerif-30" x="63.623047"/>
      </g>
     </g>
    </g>
    <g id="xtick_5">
     <g id="line2d_5"/>
     <g id="text_5">
      <!-- 40 -->
      <g style="fill: #262626" transform="translate(231.321683 196.801239) scale(0.07 -0.07)">
       <defs>
        <path id="DejaVuSerif-34" d="M 2234 1581 
L 2234 4063 
L 641 1581 
L 2234 1581 
z
M 3609 0 
L 1484 0 
L 1484 331 
L 2234 331 
L 2234 1247 
L 197 1247 
L 197 1588 
L 2241 4750 
L 2859 4750 
L 2859 1581 
L 3750 1581 
L 3750 1247 
L 2859 1247 
L 2859 331 
L 3609 331 
L 3609 0 
z
" transform="scale(0.015625)"/>
       </defs>
       <use xlink:href="#DejaVuSerif-34"/>
       <use xlink:href="#DejaVuSerif-30" x="63.623047"/>
      </g>
     </g>
    </g>
    <g id="xtick_6">
     <g id="line2d_6"/>
     <g id="text_6">
      <!-- 50 -->
      <g style="fill: #262626" transform="translate(276.46259 196.801239) scale(0.07 -0.07)">
       <defs>
        <path id="DejaVuSerif-35" d="M 3219 4666 
L 3219 4153 
L 1081 4153 
L 1081 2816 
Q 1244 2928 1461 2984 
Q 1678 3041 1947 3041 
Q 2703 3041 3140 2622 
Q 3578 2203 3578 1478 
Q 3578 738 3136 323 
Q 2694 -91 1894 -91 
Q 1572 -91 1234 -12 
Q 897 66 544 225 
L 544 1131 
L 897 1131 
Q 925 688 1179 453 
Q 1434 219 1894 219 
Q 2388 219 2653 544 
Q 2919 869 2919 1478 
Q 2919 2084 2655 2407 
Q 2391 2731 1894 2731 
Q 1613 2731 1398 2631 
Q 1184 2531 1019 2322 
L 750 2322 
L 750 4666 
L 3219 4666 
z
" transform="scale(0.015625)"/>
       </defs>
       <use xlink:href="#DejaVuSerif-35"/>
       <use xlink:href="#DejaVuSerif-30" x="63.623047"/>
      </g>
     </g>
    </g>
    <g id="xtick_7">
     <g id="line2d_7"/>
     <g id="text_7">
      <!-- 60 -->
      <g style="fill: #262626" transform="translate(321.603498 196.801239) scale(0.07 -0.07)">
       <defs>
        <path id="DejaVuSerif-36" d="M 2094 219 
Q 2534 219 2771 542 
Q 3009 866 3009 1472 
Q 3009 2078 2771 2401 
Q 2534 2725 2094 2725 
Q 1647 2725 1412 2412 
Q 1178 2100 1178 1509 
Q 1178 888 1415 553 
Q 1653 219 2094 219 
z
M 1075 2569 
Q 1288 2803 1556 2918 
Q 1825 3034 2163 3034 
Q 2859 3034 3264 2615 
Q 3669 2197 3669 1472 
Q 3669 763 3233 336 
Q 2797 -91 2069 -91 
Q 1278 -91 853 498 
Q 428 1088 428 2181 
Q 428 3406 931 4078 
Q 1434 4750 2350 4750 
Q 2597 4750 2869 4703 
Q 3141 4656 3425 4563 
L 3425 3794 
L 3072 3794 
Q 3034 4109 2831 4275 
Q 2628 4441 2284 4441 
Q 1678 4441 1381 3981 
Q 1084 3522 1075 2569 
z
" transform="scale(0.015625)"/>
       </defs>
       <use xlink:href="#DejaVuSerif-36"/>
       <use xlink:href="#DejaVuSerif-30" x="63.623047"/>
      </g>
     </g>
    </g>
    <g id="text_8">
     <!-- $x$ -->
     <g style="fill: #262626" transform="translate(188.234526 208.33577) scale(0.08 -0.08)">
      <defs>
       <path id="DejaVuSans-Oblique-78" d="M 3841 3500 
L 2234 1784 
L 3219 0 
L 2559 0 
L 1819 1388 
L 531 0 
L -166 0 
L 1556 1844 
L 641 3500 
L 1300 3500 
L 1972 2234 
L 3144 3500 
L 3841 3500 
z
" transform="scale(0.015625)"/>
      </defs>
      <use xlink:href="#DejaVuSans-Oblique-78" transform="translate(0 0.3125)"/>
     </g>
    </g>
   </g>
   <g id="matplotlib.axis_2">
    <g id="ytick_1">
     <g id="line2d_8"/>
     <g id="text_9">
      <!-- −100 -->
      <g style="fill: #262626" transform="translate(18.9425 155.959001) scale(0.07 -0.07)">
       <defs>
        <path id="DejaVuSerif-2212" d="M 678 2259 
L 4684 2259 
L 4684 1753 
L 678 1753 
L 678 2259 
z
" transform="scale(0.015625)"/>
       </defs>
       <use xlink:href="#DejaVuSerif-2212"/>
       <use xlink:href="#DejaVuSerif-31" x="83.789062"/>
       <use xlink:href="#DejaVuSerif-30" x="147.412109"/>
       <use xlink:href="#DejaVuSerif-30" x="211.035156"/>
      </g>
     </g>
    </g>
    <g id="ytick_2">
     <g id="line2d_9"/>
     <g id="text_10">
      <!-- −50 -->
      <g style="fill: #262626" transform="translate(23.39625 117.039286) scale(0.07 -0.07)">
       <use xlink:href="#DejaVuSerif-2212"/>
       <use xlink:href="#DejaVuSerif-35" x="83.789062"/>
       <use xlink:href="#DejaVuSerif-30" x="147.412109"/>
      </g>
     </g>
    </g>
    <g id="ytick_3">
     <g id="line2d_10"/>
     <g id="text_11">
      <!-- 0 -->
      <g style="fill: #262626" transform="translate(33.715781 78.119571) scale(0.07 -0.07)">
       <use xlink:href="#DejaVuSerif-30"/>
      </g>
     </g>
    </g>
    <g id="ytick_4">
     <g id="line2d_11"/>
     <g id="text_12">
      <!-- 50 -->
      <g style="fill: #262626" transform="translate(29.262031 39.199857) scale(0.07 -0.07)">
       <use xlink:href="#DejaVuSerif-35"/>
       <use xlink:href="#DejaVuSerif-30" x="63.623047"/>
      </g>
     </g>
    </g>
    <g id="text_13">
     <!-- $y$ -->
     <g style="fill: #262626" transform="translate(13.2625 99.991166) rotate(-90) scale(0.08 -0.08)">
      <defs>
       <path id="DejaVuSans-Oblique-79" d="M 1588 -325 
Q 1188 -997 936 -1164 
Q 684 -1331 294 -1331 
L -159 -1331 
L -63 -850 
L 269 -850 
Q 509 -850 678 -719 
Q 847 -588 1056 -206 
L 1234 128 
L 459 3500 
L 1069 3500 
L 1650 819 
L 3256 3500 
L 3859 3500 
L 1588 -325 
z
" transform="scale(0.015625)"/>
      </defs>
      <use xlink:href="#DejaVuSans-Oblique-79" transform="translate(0 0.3125)"/>
     </g>
    </g>
   </g>
   <g id="line2d_12">
    <defs>
     <path id="m379a5f6969" d="M -2 2 
L 2 -2 
M -2 -2 
L 2 2 
" style="stroke: #4c72b0; stroke-width: 2"/>
    </defs>
    <g clip-path="url(#p4ff3cf38f5)">
     <use xlink:href="#m379a5f6969" x="66.045621" y="75.460118" style="fill: #4c72b0; stroke: #4c72b0; stroke-width: 2"/>
     <use xlink:href="#m379a5f6969" x="66.948439" y="76.472031" style="fill: #4c72b0; stroke: #4c72b0; stroke-width: 2"/>
     <use xlink:href="#m379a5f6969" x="69.656894" y="77.561783" style="fill: #4c72b0; stroke: #4c72b0; stroke-width: 2"/>
     <use xlink:href="#m379a5f6969" x="71.46253" y="75.460118" style="fill: #4c72b0; stroke: #4c72b0; stroke-width: 2"/>
     <use xlink:href="#m379a5f6969" x="73.268166" y="77.561783" style="fill: #4c72b0; stroke: #4c72b0; stroke-width: 2"/>
     <use xlink:href="#m379a5f6969" x="83.199166" y="77.561783" style="fill: #4c72b0; stroke: #4c72b0; stroke-width: 2"/>
     <use xlink:href="#m379a5f6969" x="85.004802" y="77.561783" style="fill: #4c72b0; stroke: #4c72b0; stroke-width: 2"/>
     <use xlink:href="#m379a5f6969" x="85.90762" y="76.472031" style="fill: #4c72b0; stroke: #4c72b0; stroke-width: 2"/>
     <use xlink:href="#m379a5f6969" x="90.421711" y="77.561783" style="fill: #4c72b0; stroke: #4c72b0; stroke-width: 2"/>
     <use xlink:href="#m379a5f6969" x="92.227348" y="77.561783" style="fill: #4c72b0; stroke: #4c72b0; stroke-width: 2"/>
     <use xlink:href="#m379a5f6969" x="94.935802" y="76.472031" style="fill: #4c72b0; stroke: #4c72b0; stroke-width: 2"/>
     <use xlink:href="#m379a5f6969" x="98.547075" y="77.561783" style="fill: #4c72b0; stroke: #4c72b0; stroke-width: 2"/>
     <use xlink:href="#m379a5f6969" x="100.352711" y="77.561783" style="fill: #4c72b0; stroke: #4c72b0; stroke-width: 2"/>
     <use xlink:href="#m379a5f6969" x="101.255529" y="79.663448" style="fill: #4c72b0; stroke: #4c72b0; stroke-width: 2"/>
     <use xlink:href="#m379a5f6969" x="103.061165" y="77.561783" style="fill: #4c72b0; stroke: #4c72b0; stroke-width: 2"/>
     <use xlink:href="#m379a5f6969" x="104.866802" y="79.663448" style="fill: #4c72b0; stroke: #4c72b0; stroke-width: 2"/>
     <use xlink:href="#m379a5f6969" x="106.672438" y="75.460118" style="fill: #4c72b0; stroke: #4c72b0; stroke-width: 2"/>
     <use xlink:href="#m379a5f6969" x="114.797801" y="77.561783" style="fill: #4c72b0; stroke: #4c72b0; stroke-width: 2"/>
     <use xlink:href="#m379a5f6969" x="116.603438" y="77.561783" style="fill: #4c72b0; stroke: #4c72b0; stroke-width: 2"/>
     <use xlink:href="#m379a5f6969" x="117.506256" y="75.460118" style="fill: #4c72b0; stroke: #4c72b0; stroke-width: 2"/>
     <use xlink:href="#m379a5f6969" x="121.117528" y="85.812762" style="fill: #4c72b0; stroke: #4c72b0; stroke-width: 2"/>
     <use xlink:href="#m379a5f6969" x="122.020346" y="77.561783" style="fill: #4c72b0; stroke: #4c72b0; stroke-width: 2"/>
     <use xlink:href="#m379a5f6969" x="124.728801" y="93.207508" style="fill: #4c72b0; stroke: #4c72b0; stroke-width: 2"/>
     <use xlink:href="#m379a5f6969" x="125.631619" y="106.751569" style="fill: #4c72b0; stroke: #4c72b0; stroke-width: 2"/>
     <use xlink:href="#m379a5f6969" x="126.534437" y="92.195596" style="fill: #4c72b0; stroke: #4c72b0; stroke-width: 2"/>
     <use xlink:href="#m379a5f6969" x="127.437255" y="108.853234" style="fill: #4c72b0; stroke: #4c72b0; stroke-width: 2"/>
     <use xlink:href="#m379a5f6969" x="128.340073" y="92.195596" style="fill: #4c72b0; stroke: #4c72b0; stroke-width: 2"/>
     <use xlink:href="#m379a5f6969" x="129.242892" y="79.663448" style="fill: #4c72b0; stroke: #4c72b0; stroke-width: 2"/>
     <use xlink:href="#m379a5f6969" x="130.14571" y="121.385382" style="fill: #4c72b0; stroke: #4c72b0; stroke-width: 2"/>
     <use xlink:href="#m379a5f6969" x="131.048528" y="130.726113" style="fill: #4c72b0; stroke: #4c72b0; stroke-width: 2"/>
     <use xlink:href="#m379a5f6969" x="134.6598" y="104.649904" style="fill: #4c72b0; stroke: #4c72b0; stroke-width: 2"/>
     <use xlink:href="#m379a5f6969" x="135.562619" y="152.598993" style="fill: #4c72b0; stroke: #4c72b0; stroke-width: 2"/>
     <use xlink:href="#m379a5f6969" x="139.173891" y="163.029476" style="fill: #4c72b0; stroke: #4c72b0; stroke-width: 2"/>
     <use xlink:href="#m379a5f6969" x="141.882346" y="171.280456" style="fill: #4c72b0; stroke: #4c72b0; stroke-width: 2"/>
     <use xlink:href="#m379a5f6969" x="142.785164" y="142.09067" style="fill: #4c72b0; stroke: #4c72b0; stroke-width: 2"/>
     <use xlink:href="#m379a5f6969" x="143.687982" y="174.471873" style="fill: #4c72b0; stroke: #4c72b0; stroke-width: 2"/>
     <use xlink:href="#m379a5f6969" x="146.396436" y="171.280456" style="fill: #4c72b0; stroke: #4c72b0; stroke-width: 2"/>
     <use xlink:href="#m379a5f6969" x="147.299255" y="167.232806" style="fill: #4c72b0; stroke: #4c72b0; stroke-width: 2"/>
     <use xlink:href="#m379a5f6969" x="150.910527" y="179.764954" style="fill: #4c72b0; stroke: #4c72b0; stroke-width: 2"/>
     <use xlink:href="#m379a5f6969" x="151.813345" y="154.778497" style="fill: #4c72b0; stroke: #4c72b0; stroke-width: 2"/>
     <use xlink:href="#m379a5f6969" x="153.618982" y="159.83806" style="fill: #4c72b0; stroke: #4c72b0; stroke-width: 2"/>
     <use xlink:href="#m379a5f6969" x="154.5218" y="171.280456" style="fill: #4c72b0; stroke: #4c72b0; stroke-width: 2"/>
     <use xlink:href="#m379a5f6969" x="159.938709" y="171.280456" style="fill: #4c72b0; stroke: #4c72b0; stroke-width: 2"/>
     <use xlink:href="#m379a5f6969" x="160.841527" y="175.483785" style="fill: #4c72b0; stroke: #4c72b0; stroke-width: 2"/>
     <use xlink:href="#m379a5f6969" x="163.549981" y="163.029476" style="fill: #4c72b0; stroke: #4c72b0; stroke-width: 2"/>
     <use xlink:href="#m379a5f6969" x="164.452799" y="149.485416" style="fill: #4c72b0; stroke: #4c72b0; stroke-width: 2"/>
     <use xlink:href="#m379a5f6969" x="166.258436" y="117.104213" style="fill: #4c72b0; stroke: #4c72b0; stroke-width: 2"/>
     <use xlink:href="#m379a5f6969" x="168.064072" y="125.588711" style="fill: #4c72b0; stroke: #4c72b0; stroke-width: 2"/>
     <use xlink:href="#m379a5f6969" x="169.869708" y="131.738026" style="fill: #4c72b0; stroke: #4c72b0; stroke-width: 2"/>
     <use xlink:href="#m379a5f6969" x="170.772526" y="96.321085" style="fill: #4c72b0; stroke: #4c72b0; stroke-width: 2"/>
     <use xlink:href="#m379a5f6969" x="172.578163" y="79.663448" style="fill: #4c72b0; stroke: #4c72b0; stroke-width: 2"/>
     <use xlink:href="#m379a5f6969" x="173.480981" y="158.826147" style="fill: #4c72b0; stroke: #4c72b0; stroke-width: 2"/>
     <use xlink:href="#m379a5f6969" x="174.383799" y="126.522784" style="fill: #4c72b0; stroke: #4c72b0; stroke-width: 2"/>
     <use xlink:href="#m379a5f6969" x="177.092253" y="87.914427" style="fill: #4c72b0; stroke: #4c72b0; stroke-width: 2"/>
     <use xlink:href="#m379a5f6969" x="177.995072" y="110.954898" style="fill: #4c72b0; stroke: #4c72b0; stroke-width: 2"/>
     <use xlink:href="#m379a5f6969" x="179.800708" y="72.346541" style="fill: #4c72b0; stroke: #4c72b0; stroke-width: 2"/>
     <use xlink:href="#m379a5f6969" x="182.509162" y="66.119387" style="fill: #4c72b0; stroke: #4c72b0; stroke-width: 2"/>
     <use xlink:href="#m379a5f6969" x="183.41198" y="92.195596" style="fill: #4c72b0; stroke: #4c72b0; stroke-width: 2"/>
     <use xlink:href="#m379a5f6969" x="184.314799" y="38.953426" style="fill: #4c72b0; stroke: #4c72b0; stroke-width: 2"/>
     <use xlink:href="#m379a5f6969" x="187.926071" y="89.004179" style="fill: #4c72b0; stroke: #4c72b0; stroke-width: 2"/>
     <use xlink:href="#m379a5f6969" x="191.537344" y="47.282245" style="fill: #4c72b0; stroke: #4c72b0; stroke-width: 2"/>
     <use xlink:href="#m379a5f6969" x="195.148616" y="17.080546" style="fill: #4c72b0; stroke: #4c72b0; stroke-width: 2"/>
     <use xlink:href="#m379a5f6969" x="196.051435" y="69.155125" style="fill: #4c72b0; stroke: #4c72b0; stroke-width: 2"/>
     <use xlink:href="#m379a5f6969" x="199.662707" y="32.726272" style="fill: #4c72b0; stroke: #4c72b0; stroke-width: 2"/>
     <use xlink:href="#m379a5f6969" x="203.27398" y="38.953426" style="fill: #4c72b0; stroke: #4c72b0; stroke-width: 2"/>
     <use xlink:href="#m379a5f6969" x="205.982434" y="63.00581" style="fill: #4c72b0; stroke: #4c72b0; stroke-width: 2"/>
     <use xlink:href="#m379a5f6969" x="207.78807" y="39.965339" style="fill: #4c72b0; stroke: #4c72b0; stroke-width: 2"/>
     <use xlink:href="#m379a5f6969" x="210.496525" y="74.448206" style="fill: #4c72b0; stroke: #4c72b0; stroke-width: 2"/>
     <use xlink:href="#m379a5f6969" x="212.302161" y="17.080546" style="fill: #4c72b0; stroke: #4c72b0; stroke-width: 2"/>
     <use xlink:href="#m379a5f6969" x="214.107797" y="87.914427" style="fill: #4c72b0; stroke: #4c72b0; stroke-width: 2"/>
     <use xlink:href="#m379a5f6969" x="215.010616" y="21.283875" style="fill: #4c72b0; stroke: #4c72b0; stroke-width: 2"/>
     <use xlink:href="#m379a5f6969" x="215.913434" y="48.371997" style="fill: #4c72b0; stroke: #4c72b0; stroke-width: 2"/>
     <use xlink:href="#m379a5f6969" x="218.621888" y="104.649904" style="fill: #4c72b0; stroke: #4c72b0; stroke-width: 2"/>
     <use xlink:href="#m379a5f6969" x="226.747252" y="38.953426" style="fill: #4c72b0; stroke: #4c72b0; stroke-width: 2"/>
     <use xlink:href="#m379a5f6969" x="232.16416" y="71.256789" style="fill: #4c72b0; stroke: #4c72b0; stroke-width: 2"/>
     <use xlink:href="#m379a5f6969" x="233.066979" y="76.472031" style="fill: #4c72b0; stroke: #4c72b0; stroke-width: 2"/>
     <use xlink:href="#m379a5f6969" x="235.775433" y="92.195596" style="fill: #4c72b0; stroke: #4c72b0; stroke-width: 2"/>
     <use xlink:href="#m379a5f6969" x="237.581069" y="85.812762" style="fill: #4c72b0; stroke: #4c72b0; stroke-width: 2"/>
     <use xlink:href="#m379a5f6969" x="242.997978" y="51.485574" style="fill: #4c72b0; stroke: #4c72b0; stroke-width: 2"/>
     <use xlink:href="#m379a5f6969" x="246.609251" y="52.575326" style="fill: #4c72b0; stroke: #4c72b0; stroke-width: 2"/>
     <use xlink:href="#m379a5f6969" x="248.414887" y="75.460118" style="fill: #4c72b0; stroke: #4c72b0; stroke-width: 2"/>
     <use xlink:href="#m379a5f6969" x="249.317705" y="64.017722" style="fill: #4c72b0; stroke: #4c72b0; stroke-width: 2"/>
     <use xlink:href="#m379a5f6969" x="253.831796" y="76.472031" style="fill: #4c72b0; stroke: #4c72b0; stroke-width: 2"/>
     <use xlink:href="#m379a5f6969" x="255.637432" y="75.460118" style="fill: #4c72b0; stroke: #4c72b0; stroke-width: 2"/>
     <use xlink:href="#m379a5f6969" x="258.345887" y="67.131299" style="fill: #4c72b0; stroke: #4c72b0; stroke-width: 2"/>
     <use xlink:href="#m379a5f6969" x="265.568432" y="67.131299" style="fill: #4c72b0; stroke: #4c72b0; stroke-width: 2"/>
     <use xlink:href="#m379a5f6969" x="270.985341" y="96.321085" style="fill: #4c72b0; stroke: #4c72b0; stroke-width: 2"/>
     <use xlink:href="#m379a5f6969" x="275.499432" y="85.812762" style="fill: #4c72b0; stroke: #4c72b0; stroke-width: 2"/>
     <use xlink:href="#m379a5f6969" x="283.624795" y="75.460118" style="fill: #4c72b0; stroke: #4c72b0; stroke-width: 2"/>
     <use xlink:href="#m379a5f6969" x="289.944522" y="67.131299" style="fill: #4c72b0; stroke: #4c72b0; stroke-width: 2"/>
     <use xlink:href="#m379a5f6969" x="295.361431" y="86.902514" style="fill: #4c72b0; stroke: #4c72b0; stroke-width: 2"/>
     <use xlink:href="#m379a5f6969" x="303.486794" y="77.561783" style="fill: #4c72b0; stroke: #4c72b0; stroke-width: 2"/>
     <use xlink:href="#m379a5f6969" x="305.29243" y="77.561783" style="fill: #4c72b0; stroke: #4c72b0; stroke-width: 2"/>
     <use xlink:href="#m379a5f6969" x="315.22343" y="67.131299" style="fill: #4c72b0; stroke: #4c72b0; stroke-width: 2"/>
    </g>
   </g>
   <g id="line2d_13">
    <path d="M 55.211803 15.417379 
L 59.294901 27.083701 
L 63.377998 37.917615 
L 67.461095 47.94355 
L 71.544192 57.18594 
L 75.627289 65.669216 
L 79.710386 73.41781 
L 82.432451 78.187447 
L 85.154516 82.648655 
L 87.876581 86.808675 
L 90.598645 90.674745 
L 93.32071 94.254104 
L 96.042775 97.553992 
L 98.76484 100.581646 
L 101.486905 103.344306 
L 104.208969 105.849211 
L 106.931034 108.103601 
L 109.653099 110.114713 
L 112.375164 111.889788 
L 115.097228 113.436064 
L 117.819293 114.76078 
L 120.541358 115.871175 
L 123.263423 116.774489 
L 125.985487 117.47796 
L 128.707552 117.988827 
L 131.429617 118.314329 
L 134.151682 118.461706 
L 136.873746 118.438195 
L 139.595811 118.251038 
L 142.317876 117.907471 
L 146.400973 117.11469 
L 150.48407 116.01071 
L 154.567167 114.61996 
L 158.650265 112.966875 
L 162.733362 111.075884 
L 166.816459 108.97142 
L 172.260588 105.875626 
L 177.704718 102.50167 
L 184.50988 97.981285 
L 192.676074 92.261816 
L 213.09156 77.790315 
L 219.896722 73.303728 
L 225.340851 69.966169 
L 230.784981 66.915092 
L 234.868078 64.849625 
L 238.951175 63.002311 
L 243.034272 61.397582 
L 247.11737 60.059869 
L 251.200467 59.013605 
L 255.283564 58.28322 
L 258.005629 57.98385 
L 260.727693 57.842969 
L 263.449758 57.867816 
L 266.171823 58.065629 
L 268.893888 58.443647 
L 271.615952 59.009111 
L 274.338017 59.769258 
L 277.060082 60.731327 
L 279.782147 61.902558 
L 282.504212 63.29019 
L 285.226276 64.901461 
L 287.948341 66.743612 
L 290.670406 68.823879 
L 293.392471 71.149504 
L 296.114535 73.727724 
L 298.8366 76.565779 
L 301.558665 79.670908 
L 304.28073 83.05035 
L 307.002794 86.711343 
L 309.724859 90.661128 
L 312.446924 94.906942 
L 315.168989 99.456025 
L 317.891053 104.315615 
L 320.613118 109.492953 
L 324.696215 117.87057 
L 326.057248 120.829825 
L 326.057248 120.829825 
" clip-path="url(#p4ff3cf38f5)" style="fill: none; stroke: #dd8452; stroke-linecap: round"/>
   </g>
   <g id="patch_3">
    <path d="M 41.669531 187.982332 
L 41.669531 7.2 
" style="fill: none; stroke: #262626; stroke-width: 0.5; stroke-linejoin: miter; stroke-linecap: square"/>
   </g>
   <g id="patch_4">
    <path d="M 41.669531 187.982332 
L 339.59952 187.982332 
" style="fill: none; stroke: #262626; stroke-width: 0.5; stroke-linejoin: miter; stroke-linecap: square"/>
   </g>
   <g id="legend_1">
    <g id="line2d_14">
     <g>
      <use xlink:href="#m379a5f6969" x="204.916239" y="167.402332" style="fill: #4c72b0; stroke: #4c72b0; stroke-width: 2"/>
     </g>
    </g>
    <g id="text_14">
     <!-- Observations -->
     <g style="fill: #262626" transform="translate(217.516239 169.852332) scale(0.07 -0.07)">
      <defs>
       <path id="DejaVuSerif-4f" d="M 2625 244 
Q 3391 244 3781 770 
Q 4172 1297 4172 2328 
Q 4172 3363 3781 3889 
Q 3391 4416 2625 4416 
Q 1856 4416 1465 3889 
Q 1075 3363 1075 2328 
Q 1075 1297 1465 770 
Q 1856 244 2625 244 
z
M 2625 -91 
Q 2150 -91 1751 65 
Q 1353 222 1050 525 
Q 700 875 529 1319 
Q 359 1763 359 2328 
Q 359 2894 529 3339 
Q 700 3784 1050 4134 
Q 1356 4441 1750 4595 
Q 2144 4750 2625 4750 
Q 3641 4750 4266 4084 
Q 4891 3419 4891 2328 
Q 4891 1769 4719 1320 
Q 4547 872 4197 525 
Q 3891 219 3497 64 
Q 3103 -91 2625 -91 
z
" transform="scale(0.015625)"/>
       <path id="DejaVuSerif-62" d="M 738 331 
L 738 4531 
L 184 4531 
L 184 4863 
L 1313 4863 
L 1313 2803 
Q 1481 3116 1742 3264 
Q 2003 3413 2388 3413 
Q 3000 3413 3387 2928 
Q 3775 2444 3775 1663 
Q 3775 881 3387 395 
Q 3000 -91 2388 -91 
Q 2003 -91 1742 57 
Q 1481 206 1313 519 
L 1313 0 
L 184 0 
L 184 331 
L 738 331 
z
M 1313 1497 
Q 1313 897 1542 583 
Q 1772 269 2209 269 
Q 2650 269 2876 622 
Q 3103 975 3103 1663 
Q 3103 2353 2876 2703 
Q 2650 3053 2209 3053 
Q 1772 3053 1542 2737 
Q 1313 2422 1313 1825 
L 1313 1497 
z
" transform="scale(0.015625)"/>
       <path id="DejaVuSerif-73" d="M 359 184 
L 359 959 
L 691 959 
Q 703 588 923 403 
Q 1144 219 1575 219 
Q 1963 219 2166 364 
Q 2369 509 2369 788 
Q 2369 1006 2220 1140 
Q 2072 1275 1594 1428 
L 1178 1569 
Q 750 1706 558 1912 
Q 366 2119 366 2438 
Q 366 2894 700 3153 
Q 1034 3413 1625 3413 
Q 1888 3413 2178 3344 
Q 2469 3275 2778 3144 
L 2778 2419 
L 2447 2419 
Q 2434 2741 2221 2922 
Q 2009 3103 1644 3103 
Q 1281 3103 1095 2975 
Q 909 2847 909 2591 
Q 909 2381 1050 2254 
Q 1191 2128 1613 1997 
L 2069 1856 
Q 2541 1709 2748 1489 
Q 2956 1269 2956 922 
Q 2956 450 2595 179 
Q 2234 -91 1600 -91 
Q 1278 -91 972 -22 
Q 666 47 359 184 
z
" transform="scale(0.015625)"/>
       <path id="DejaVuSerif-65" d="M 3469 1600 
L 991 1600 
L 991 1575 
Q 991 903 1244 561 
Q 1497 219 1991 219 
Q 2369 219 2611 417 
Q 2853 616 2950 1006 
L 3413 1006 
Q 3275 459 2904 184 
Q 2534 -91 1931 -91 
Q 1203 -91 761 389 
Q 319 869 319 1663 
Q 319 2450 753 2931 
Q 1188 3413 1894 3413 
Q 2647 3413 3050 2948 
Q 3453 2484 3469 1600 
z
M 2791 1931 
Q 2772 2513 2545 2808 
Q 2319 3103 1894 3103 
Q 1497 3103 1269 2806 
Q 1041 2509 991 1931 
L 2791 1931 
z
" transform="scale(0.015625)"/>
       <path id="DejaVuSerif-72" d="M 3059 3328 
L 3059 2497 
L 2728 2497 
Q 2713 2744 2591 2866 
Q 2469 2988 2234 2988 
Q 1809 2988 1582 2694 
Q 1356 2400 1356 1850 
L 1356 331 
L 2022 331 
L 2022 0 
L 263 0 
L 263 331 
L 781 331 
L 781 2994 
L 231 2994 
L 231 3322 
L 1356 3322 
L 1356 2731 
Q 1525 3078 1790 3245 
Q 2056 3413 2438 3413 
Q 2578 3413 2733 3391 
Q 2888 3369 3059 3328 
z
" transform="scale(0.015625)"/>
       <path id="DejaVuSerif-76" d="M 1581 0 
L 359 2988 
L -19 2988 
L -19 3322 
L 1509 3322 
L 1509 2988 
L 978 2988 
L 1913 703 
L 2847 2988 
L 2350 2988 
L 2350 3322 
L 3597 3322 
L 3597 2988 
L 3225 2988 
L 2003 0 
L 1581 0 
z
" transform="scale(0.015625)"/>
       <path id="DejaVuSerif-61" d="M 2547 1044 
L 2547 1747 
L 1806 1747 
Q 1378 1747 1168 1562 
Q 959 1378 959 997 
Q 959 650 1171 447 
Q 1384 244 1747 244 
Q 2106 244 2326 466 
Q 2547 688 2547 1044 
z
M 3122 2075 
L 3122 331 
L 3634 331 
L 3634 0 
L 2547 0 
L 2547 359 
Q 2356 128 2106 18 
Q 1856 -91 1522 -91 
Q 969 -91 644 203 
Q 319 497 319 997 
Q 319 1513 691 1797 
Q 1063 2081 1741 2081 
L 2547 2081 
L 2547 2309 
Q 2547 2688 2317 2895 
Q 2088 3103 1672 3103 
Q 1328 3103 1125 2947 
Q 922 2791 872 2484 
L 575 2484 
L 575 3156 
Q 875 3284 1158 3348 
Q 1441 3413 1709 3413 
Q 2400 3413 2761 3070 
Q 3122 2728 3122 2075 
z
" transform="scale(0.015625)"/>
       <path id="DejaVuSerif-74" d="M 691 2988 
L 184 2988 
L 184 3322 
L 691 3322 
L 691 4353 
L 1269 4353 
L 1269 3322 
L 2350 3322 
L 2350 2988 
L 1269 2988 
L 1269 878 
Q 1269 456 1350 337 
Q 1431 219 1650 219 
Q 1875 219 1978 351 
Q 2081 484 2088 781 
L 2522 781 
Q 2497 328 2275 118 
Q 2053 -91 1600 -91 
Q 1103 -91 897 129 
Q 691 350 691 878 
L 691 2988 
z
" transform="scale(0.015625)"/>
       <path id="DejaVuSerif-69" d="M 622 4353 
Q 622 4497 726 4603 
Q 831 4709 978 4709 
Q 1122 4709 1226 4603 
Q 1331 4497 1331 4353 
Q 1331 4206 1228 4103 
Q 1125 4000 978 4000 
Q 831 4000 726 4103 
Q 622 4206 622 4353 
z
M 1356 331 
L 1900 331 
L 1900 0 
L 231 0 
L 231 331 
L 781 331 
L 781 2988 
L 231 2988 
L 231 3322 
L 1356 3322 
L 1356 331 
z
" transform="scale(0.015625)"/>
       <path id="DejaVuSerif-6f" d="M 1925 219 
Q 2388 219 2623 584 
Q 2859 950 2859 1663 
Q 2859 2375 2623 2739 
Q 2388 3103 1925 3103 
Q 1463 3103 1227 2739 
Q 991 2375 991 1663 
Q 991 950 1228 584 
Q 1466 219 1925 219 
z
M 1925 -91 
Q 1200 -91 759 389 
Q 319 869 319 1663 
Q 319 2456 758 2934 
Q 1197 3413 1925 3413 
Q 2653 3413 3092 2934 
Q 3531 2456 3531 1663 
Q 3531 869 3092 389 
Q 2653 -91 1925 -91 
z
" transform="scale(0.015625)"/>
       <path id="DejaVuSerif-6e" d="M 263 0 
L 263 331 
L 781 331 
L 781 2988 
L 231 2988 
L 231 3322 
L 1356 3322 
L 1356 2731 
Q 1516 3069 1770 3241 
Q 2025 3413 2363 3413 
Q 2913 3413 3172 3097 
Q 3431 2781 3431 2113 
L 3431 331 
L 3944 331 
L 3944 0 
L 2356 0 
L 2356 331 
L 2853 331 
L 2853 1931 
Q 2853 2541 2703 2767 
Q 2553 2994 2175 2994 
Q 1775 2994 1565 2701 
Q 1356 2409 1356 1850 
L 1356 331 
L 1856 331 
L 1856 0 
L 263 0 
z
" transform="scale(0.015625)"/>
      </defs>
      <use xlink:href="#DejaVuSerif-4f"/>
      <use xlink:href="#DejaVuSerif-62" x="81.982422"/>
      <use xlink:href="#DejaVuSerif-73" x="145.996094"/>
      <use xlink:href="#DejaVuSerif-65" x="197.314453"/>
      <use xlink:href="#DejaVuSerif-72" x="256.494141"/>
      <use xlink:href="#DejaVuSerif-76" x="304.296875"/>
      <use xlink:href="#DejaVuSerif-61" x="360.791016"/>
      <use xlink:href="#DejaVuSerif-74" x="420.410156"/>
      <use xlink:href="#DejaVuSerif-69" x="460.595703"/>
      <use xlink:href="#DejaVuSerif-6f" x="492.578125"/>
      <use xlink:href="#DejaVuSerif-6e" x="552.783203"/>
      <use xlink:href="#DejaVuSerif-73" x="617.1875"/>
     </g>
    </g>
    <g id="line2d_15">
     <path d="M 197.916239 177.67702 
L 204.916239 177.67702 
L 211.916239 177.67702 
" style="fill: none; stroke: #dd8452; stroke-linecap: round"/>
    </g>
    <g id="text_15">
     <!-- LS Prediction (Polynomial Basis) -->
     <g style="fill: #262626" transform="translate(217.516239 180.12702) scale(0.07 -0.07)">
      <defs>
       <path id="DejaVuSerif-4c" d="M 353 0 
L 353 331 
L 947 331 
L 947 4331 
L 353 4331 
L 353 4666 
L 2175 4666 
L 2175 4331 
L 1581 4331 
L 1581 384 
L 3713 384 
L 3713 1166 
L 4097 1166 
L 4097 0 
L 353 0 
z
" transform="scale(0.015625)"/>
       <path id="DejaVuSerif-53" d="M 594 225 
L 594 1288 
L 953 1284 
Q 969 753 1261 498 
Q 1553 244 2150 244 
Q 2706 244 2998 464 
Q 3291 684 3291 1106 
Q 3291 1444 3114 1625 
Q 2938 1806 2369 1978 
L 1753 2163 
Q 1084 2366 811 2669 
Q 538 2972 538 3500 
Q 538 4094 959 4422 
Q 1381 4750 2144 4750 
Q 2469 4750 2856 4679 
Q 3244 4609 3681 4475 
L 3681 3481 
L 3328 3481 
Q 3275 3975 2998 4195 
Q 2722 4416 2156 4416 
Q 1663 4416 1405 4214 
Q 1147 4013 1147 3628 
Q 1147 3294 1340 3103 
Q 1534 2913 2163 2725 
L 2741 2553 
Q 3375 2363 3645 2067 
Q 3916 1772 3916 1275 
Q 3916 597 3481 253 
Q 3047 -91 2188 -91 
Q 1803 -91 1404 -12 
Q 1006 66 594 225 
z
" transform="scale(0.015625)"/>
       <path id="DejaVuSerif-20" transform="scale(0.015625)"/>
       <path id="DejaVuSerif-50" d="M 1581 2375 
L 2406 2375 
Q 2872 2375 3115 2626 
Q 3359 2878 3359 3353 
Q 3359 3831 3115 4081 
Q 2872 4331 2406 4331 
L 1581 4331 
L 1581 2375 
z
M 353 0 
L 353 331 
L 947 331 
L 947 4331 
L 353 4331 
L 353 4666 
L 2559 4666 
Q 3259 4666 3668 4311 
Q 4078 3956 4078 3353 
Q 4078 2753 3668 2397 
Q 3259 2041 2559 2041 
L 1581 2041 
L 1581 331 
L 2303 331 
L 2303 0 
L 353 0 
z
" transform="scale(0.015625)"/>
       <path id="DejaVuSerif-64" d="M 3359 331 
L 3909 331 
L 3909 0 
L 2784 0 
L 2784 519 
Q 2616 206 2355 57 
Q 2094 -91 1709 -91 
Q 1097 -91 708 395 
Q 319 881 319 1663 
Q 319 2444 706 2928 
Q 1094 3413 1709 3413 
Q 2094 3413 2355 3264 
Q 2616 3116 2784 2803 
L 2784 4531 
L 2241 4531 
L 2241 4863 
L 3359 4863 
L 3359 331 
z
M 2784 1497 
L 2784 1825 
Q 2784 2422 2554 2737 
Q 2325 3053 1888 3053 
Q 1444 3053 1217 2703 
Q 991 2353 991 1663 
Q 991 975 1217 622 
Q 1444 269 1888 269 
Q 2325 269 2554 583 
Q 2784 897 2784 1497 
z
" transform="scale(0.015625)"/>
       <path id="DejaVuSerif-63" d="M 3291 997 
Q 3169 466 2822 187 
Q 2475 -91 1925 -91 
Q 1200 -91 759 389 
Q 319 869 319 1663 
Q 319 2459 759 2936 
Q 1200 3413 1925 3413 
Q 2241 3413 2553 3339 
Q 2866 3266 3181 3116 
L 3181 2266 
L 2847 2266 
Q 2781 2703 2561 2903 
Q 2341 3103 1931 3103 
Q 1466 3103 1228 2742 
Q 991 2381 991 1663 
Q 991 944 1227 581 
Q 1463 219 1931 219 
Q 2303 219 2525 412 
Q 2747 606 2828 997 
L 3291 997 
z
" transform="scale(0.015625)"/>
       <path id="DejaVuSerif-28" d="M 2041 -997 
Q 1281 -656 893 83 
Q 506 822 506 1931 
Q 506 3044 893 3783 
Q 1281 4522 2041 4863 
L 2041 4556 
Q 1559 4225 1350 3623 
Q 1141 3022 1141 1931 
Q 1141 844 1350 242 
Q 1559 -359 2041 -691 
L 2041 -997 
z
" transform="scale(0.015625)"/>
       <path id="DejaVuSerif-6c" d="M 1313 331 
L 1856 331 
L 1856 0 
L 184 0 
L 184 331 
L 738 331 
L 738 4531 
L 184 4531 
L 184 4863 
L 1313 4863 
L 1313 331 
z
" transform="scale(0.015625)"/>
       <path id="DejaVuSerif-79" d="M 1381 -609 
L 1600 -56 
L 359 2988 
L -19 2988 
L -19 3322 
L 1509 3322 
L 1509 2988 
L 978 2988 
L 1913 703 
L 2847 2988 
L 2350 2988 
L 2350 3322 
L 3597 3322 
L 3597 2988 
L 3225 2988 
L 1703 -750 
Q 1547 -1138 1356 -1280 
Q 1166 -1422 819 -1422 
Q 672 -1422 517 -1397 
Q 363 -1372 206 -1325 
L 206 -691 
L 500 -691 
Q 519 -903 608 -995 
Q 697 -1088 884 -1088 
Q 1056 -1088 1161 -992 
Q 1266 -897 1381 -609 
z
" transform="scale(0.015625)"/>
       <path id="DejaVuSerif-6d" d="M 3316 2675 
Q 3481 3041 3739 3227 
Q 3997 3413 4341 3413 
Q 4863 3413 5119 3089 
Q 5375 2766 5375 2113 
L 5375 331 
L 5894 331 
L 5894 0 
L 4300 0 
L 4300 331 
L 4800 331 
L 4800 2047 
Q 4800 2556 4650 2772 
Q 4500 2988 4153 2988 
Q 3769 2988 3567 2697 
Q 3366 2406 3366 1850 
L 3366 331 
L 3866 331 
L 3866 0 
L 2291 0 
L 2291 331 
L 2791 331 
L 2791 2069 
Q 2791 2566 2641 2777 
Q 2491 2988 2144 2988 
Q 1759 2988 1557 2697 
Q 1356 2406 1356 1850 
L 1356 331 
L 1856 331 
L 1856 0 
L 263 0 
L 263 331 
L 781 331 
L 781 2994 
L 231 2994 
L 231 3322 
L 1356 3322 
L 1356 2731 
Q 1516 3063 1762 3238 
Q 2009 3413 2322 3413 
Q 2709 3413 2968 3220 
Q 3228 3028 3316 2675 
z
" transform="scale(0.015625)"/>
       <path id="DejaVuSerif-42" d="M 1581 331 
L 2516 331 
Q 3078 331 3337 575 
Q 3597 819 3597 1350 
Q 3597 1878 3339 2120 
Q 3081 2363 2516 2363 
L 1581 2363 
L 1581 331 
z
M 1581 2694 
L 2375 2694 
Q 2888 2694 3123 2891 
Q 3359 3088 3359 3513 
Q 3359 3941 3123 4136 
Q 2888 4331 2375 4331 
L 1581 4331 
L 1581 2694 
z
M 353 0 
L 353 331 
L 947 331 
L 947 4331 
L 353 4331 
L 353 4666 
L 2656 4666 
Q 3363 4666 3720 4377 
Q 4078 4088 4078 3513 
Q 4078 3097 3829 2850 
Q 3581 2603 3103 2547 
Q 3697 2472 4005 2167 
Q 4313 1863 4313 1350 
Q 4313 656 3875 328 
Q 3438 0 2509 0 
L 353 0 
z
" transform="scale(0.015625)"/>
       <path id="DejaVuSerif-29" d="M 453 -997 
L 453 -691 
Q 934 -359 1145 242 
Q 1356 844 1356 1931 
Q 1356 3022 1145 3623 
Q 934 4225 453 4556 
L 453 4863 
Q 1216 4522 1603 3783 
Q 1991 3044 1991 1931 
Q 1991 822 1603 83 
Q 1216 -656 453 -997 
z
" transform="scale(0.015625)"/>
      </defs>
      <use xlink:href="#DejaVuSerif-4c"/>
      <use xlink:href="#DejaVuSerif-53" x="66.40625"/>
      <use xlink:href="#DejaVuSerif-20" x="134.912109"/>
      <use xlink:href="#DejaVuSerif-50" x="166.699219"/>
      <use xlink:href="#DejaVuSerif-72" x="233.984375"/>
      <use xlink:href="#DejaVuSerif-65" x="281.787109"/>
      <use xlink:href="#DejaVuSerif-64" x="340.966797"/>
      <use xlink:href="#DejaVuSerif-69" x="404.980469"/>
      <use xlink:href="#DejaVuSerif-63" x="436.962891"/>
      <use xlink:href="#DejaVuSerif-74" x="492.96875"/>
      <use xlink:href="#DejaVuSerif-69" x="533.154297"/>
      <use xlink:href="#DejaVuSerif-6f" x="565.136719"/>
      <use xlink:href="#DejaVuSerif-6e" x="625.341797"/>
      <use xlink:href="#DejaVuSerif-20" x="689.746094"/>
      <use xlink:href="#DejaVuSerif-28" x="721.533203"/>
      <use xlink:href="#DejaVuSerif-50" x="760.546875"/>
      <use xlink:href="#DejaVuSerif-6f" x="823.832031"/>
      <use xlink:href="#DejaVuSerif-6c" x="884.037109"/>
      <use xlink:href="#DejaVuSerif-79" x="916.019531"/>
      <use xlink:href="#DejaVuSerif-6e" x="972.513672"/>
      <use xlink:href="#DejaVuSerif-6f" x="1036.917969"/>
      <use xlink:href="#DejaVuSerif-6d" x="1097.123047"/>
      <use xlink:href="#DejaVuSerif-69" x="1191.947266"/>
      <use xlink:href="#DejaVuSerif-61" x="1223.929688"/>
      <use xlink:href="#DejaVuSerif-6c" x="1283.548828"/>
      <use xlink:href="#DejaVuSerif-20" x="1315.53125"/>
      <use xlink:href="#DejaVuSerif-42" x="1347.318359"/>
      <use xlink:href="#DejaVuSerif-61" x="1420.804688"/>
      <use xlink:href="#DejaVuSerif-73" x="1480.423828"/>
      <use xlink:href="#DejaVuSerif-69" x="1531.742188"/>
      <use xlink:href="#DejaVuSerif-73" x="1563.724609"/>
      <use xlink:href="#DejaVuSerif-29" x="1615.042969"/>
     </g>
    </g>
   </g>
  </g>
 </g>
 <defs>
  <clipPath id="p4ff3cf38f5">
   <rect x="41.669531" y="7.2" width="297.929989" height="180.782332"/>
  </clipPath>
 </defs>
</svg>