<?xml version="1.0" encoding="utf-8" standalone="no"?>
<!DOCTYPE svg PUBLIC "-//W3C//DTD SVG 1.1//EN"
  "http://www.w3.org/Graphics/SVG/1.1/DTD/svg11.dtd">
<svg xmlns:xlink="http://www.w3.org/1999/xlink" width="454.464pt" height="339.264pt" viewBox="0 0 454.464 339.264" xmlns="http://www.w3.org/2000/svg" version="1.1">
 <metadata>
  <rdf:RDF xmlns:dc="http://purl.org/dc/elements/1.1/" xmlns:cc="http://creativecommons.org/ns#" xmlns:rdf="http://www.w3.org/1999/02/22-rdf-syntax-ns#">
   <cc:Work>
    <dc:type rdf:resource="http://purl.org/dc/dcmitype/StillImage"/>
    <dc:date>2025-03-29T21:14:24.262477</dc:date>
    <dc:format>image/svg+xml</dc:format>
    <dc:creator>
     <cc:Agent>
      <dc:title>Matplotlib v3.9.2, https://matplotlib.org/</dc:title>
     </cc:Agent>
    </dc:creator>
   </cc:Work>
  </rdf:RDF>
 </metadata>
 <defs>
  <style type="text/css">*{stroke-linejoin: round; stroke-linecap: butt}</style>
 </defs>
 <g id="figure_1">
  <g id="patch_1">
   <path d="M 0 339.264 
L 454.464 339.264 
L 454.464 0 
L 0 0 
z
" style="fill: #ffffff"/>
  </g>
  <g id="axes_1">
   <g id="patch_2">
    <path d="M 25.28725 287.868898 
L 447.264 287.868898 
L 447.264 7.2 
L 25.28725 7.2 
z
" style="fill: #ffffff"/>
   </g>
   <g id="matplotlib.axis_1">
    <g id="xtick_1">
     <g id="line2d_1">
      <defs>
       <path id="m97c5d20067" d="M 0 0 
L 0 4.8 
" style="stroke: #262626"/>
      </defs>
      <g>
       <use xlink:href="#m97c5d20067" x="41.112776" y="287.868898" style="fill: #262626; stroke: #262626"/>
      </g>
     </g>
     <g id="text_1">
      <!-- 2018-01 -->
      <g style="fill: #262626" transform="translate(12.272692 317.769822) rotate(-30) scale(0.088 -0.088)">
       <defs>
        <path id="ArialMT-32" d="M 3222 541 
L 3222 0 
L 194 0 
Q 188 203 259 391 
Q 375 700 629 1000 
Q 884 1300 1366 1694 
Q 2113 2306 2375 2664 
Q 2638 3022 2638 3341 
Q 2638 3675 2398 3904 
Q 2159 4134 1775 4134 
Q 1369 4134 1125 3890 
Q 881 3647 878 3216 
L 300 3275 
Q 359 3922 746 4261 
Q 1134 4600 1788 4600 
Q 2447 4600 2831 4234 
Q 3216 3869 3216 3328 
Q 3216 3053 3103 2787 
Q 2991 2522 2730 2228 
Q 2469 1934 1863 1422 
Q 1356 997 1212 845 
Q 1069 694 975 541 
L 3222 541 
z
" transform="scale(0.015625)"/>
        <path id="ArialMT-30" d="M 266 2259 
Q 266 3072 433 3567 
Q 600 4063 929 4331 
Q 1259 4600 1759 4600 
Q 2128 4600 2406 4451 
Q 2684 4303 2865 4023 
Q 3047 3744 3150 3342 
Q 3253 2941 3253 2259 
Q 3253 1453 3087 958 
Q 2922 463 2592 192 
Q 2263 -78 1759 -78 
Q 1097 -78 719 397 
Q 266 969 266 2259 
z
M 844 2259 
Q 844 1131 1108 757 
Q 1372 384 1759 384 
Q 2147 384 2411 759 
Q 2675 1134 2675 2259 
Q 2675 3391 2411 3762 
Q 2147 4134 1753 4134 
Q 1366 4134 1134 3806 
Q 844 3388 844 2259 
z
" transform="scale(0.015625)"/>
        <path id="ArialMT-31" d="M 2384 0 
L 1822 0 
L 1822 3584 
Q 1619 3391 1289 3197 
Q 959 3003 697 2906 
L 697 3450 
Q 1169 3672 1522 3987 
Q 1875 4303 2022 4600 
L 2384 4600 
L 2384 0 
z
" transform="scale(0.015625)"/>
        <path id="ArialMT-38" d="M 1131 2484 
Q 781 2613 612 2850 
Q 444 3088 444 3419 
Q 444 3919 803 4259 
Q 1163 4600 1759 4600 
Q 2359 4600 2725 4251 
Q 3091 3903 3091 3403 
Q 3091 3084 2923 2848 
Q 2756 2613 2416 2484 
Q 2838 2347 3058 2040 
Q 3278 1734 3278 1309 
Q 3278 722 2862 322 
Q 2447 -78 1769 -78 
Q 1091 -78 675 323 
Q 259 725 259 1325 
Q 259 1772 486 2073 
Q 713 2375 1131 2484 
z
M 1019 3438 
Q 1019 3113 1228 2906 
Q 1438 2700 1772 2700 
Q 2097 2700 2305 2904 
Q 2513 3109 2513 3406 
Q 2513 3716 2298 3927 
Q 2084 4138 1766 4138 
Q 1444 4138 1231 3931 
Q 1019 3725 1019 3438 
z
M 838 1322 
Q 838 1081 952 856 
Q 1066 631 1291 507 
Q 1516 384 1775 384 
Q 2178 384 2440 643 
Q 2703 903 2703 1303 
Q 2703 1709 2433 1975 
Q 2163 2241 1756 2241 
Q 1359 2241 1098 1978 
Q 838 1716 838 1322 
z
" transform="scale(0.015625)"/>
        <path id="ArialMT-2d" d="M 203 1375 
L 203 1941 
L 1931 1941 
L 1931 1375 
L 203 1375 
z
" transform="scale(0.015625)"/>
       </defs>
       <use xlink:href="#ArialMT-32"/>
       <use xlink:href="#ArialMT-30" x="55.615234"/>
       <use xlink:href="#ArialMT-31" x="111.230469"/>
       <use xlink:href="#ArialMT-38" x="166.845703"/>
       <use xlink:href="#ArialMT-2d" x="222.460938"/>
       <use xlink:href="#ArialMT-30" x="255.761719"/>
       <use xlink:href="#ArialMT-31" x="311.376953"/>
      </g>
     </g>
    </g>
    <g id="xtick_2">
     <g id="line2d_2">
      <g>
       <use xlink:href="#m97c5d20067" x="91.441304" y="287.868898" style="fill: #262626; stroke: #262626"/>
      </g>
     </g>
     <g id="text_2">
      <!-- 2018-04 -->
      <g style="fill: #262626" transform="translate(62.60122 317.769822) rotate(-30) scale(0.088 -0.088)">
       <defs>
        <path id="ArialMT-34" d="M 2069 0 
L 2069 1097 
L 81 1097 
L 81 1613 
L 2172 4581 
L 2631 4581 
L 2631 1613 
L 3250 1613 
L 3250 1097 
L 2631 1097 
L 2631 0 
L 2069 0 
z
M 2069 1613 
L 2069 3678 
L 634 1613 
L 2069 1613 
z
" transform="scale(0.015625)"/>
       </defs>
       <use xlink:href="#ArialMT-32"/>
       <use xlink:href="#ArialMT-30" x="55.615234"/>
       <use xlink:href="#ArialMT-31" x="111.230469"/>
       <use xlink:href="#ArialMT-38" x="166.845703"/>
       <use xlink:href="#ArialMT-2d" x="222.460938"/>
       <use xlink:href="#ArialMT-30" x="255.761719"/>
       <use xlink:href="#ArialMT-34" x="311.376953"/>
      </g>
     </g>
    </g>
    <g id="xtick_3">
     <g id="line2d_3">
      <g>
       <use xlink:href="#m97c5d20067" x="142.329039" y="287.868898" style="fill: #262626; stroke: #262626"/>
      </g>
     </g>
     <g id="text_3">
      <!-- 2018-07 -->
      <g style="fill: #262626" transform="translate(113.488955 317.769822) rotate(-30) scale(0.088 -0.088)">
       <defs>
        <path id="ArialMT-37" d="M 303 3981 
L 303 4522 
L 3269 4522 
L 3269 4084 
Q 2831 3619 2401 2847 
Q 1972 2075 1738 1259 
Q 1569 684 1522 0 
L 944 0 
Q 953 541 1156 1306 
Q 1359 2072 1739 2783 
Q 2119 3494 2547 3981 
L 303 3981 
z
" transform="scale(0.015625)"/>
       </defs>
       <use xlink:href="#ArialMT-32"/>
       <use xlink:href="#ArialMT-30" x="55.615234"/>
       <use xlink:href="#ArialMT-31" x="111.230469"/>
       <use xlink:href="#ArialMT-38" x="166.845703"/>
       <use xlink:href="#ArialMT-2d" x="222.460938"/>
       <use xlink:href="#ArialMT-30" x="255.761719"/>
       <use xlink:href="#ArialMT-37" x="311.376953"/>
      </g>
     </g>
    </g>
    <g id="xtick_4">
     <g id="line2d_4">
      <g>
       <use xlink:href="#m97c5d20067" x="193.775979" y="287.868898" style="fill: #262626; stroke: #262626"/>
      </g>
     </g>
     <g id="text_4">
      <!-- 2018-10 -->
      <g style="fill: #262626" transform="translate(164.935895 317.769822) rotate(-30) scale(0.088 -0.088)">
       <use xlink:href="#ArialMT-32"/>
       <use xlink:href="#ArialMT-30" x="55.615234"/>
       <use xlink:href="#ArialMT-31" x="111.230469"/>
       <use xlink:href="#ArialMT-38" x="166.845703"/>
       <use xlink:href="#ArialMT-2d" x="222.460938"/>
       <use xlink:href="#ArialMT-31" x="255.761719"/>
       <use xlink:href="#ArialMT-30" x="311.376953"/>
      </g>
     </g>
    </g>
    <g id="xtick_5">
     <g id="line2d_5">
      <g>
       <use xlink:href="#m97c5d20067" x="245.222919" y="287.868898" style="fill: #262626; stroke: #262626"/>
      </g>
     </g>
     <g id="text_5">
      <!-- 2019-01 -->
      <g style="fill: #262626" transform="translate(216.382835 317.769822) rotate(-30) scale(0.088 -0.088)">
       <defs>
        <path id="ArialMT-39" d="M 350 1059 
L 891 1109 
Q 959 728 1153 556 
Q 1347 384 1650 384 
Q 1909 384 2104 503 
Q 2300 622 2425 820 
Q 2550 1019 2634 1356 
Q 2719 1694 2719 2044 
Q 2719 2081 2716 2156 
Q 2547 1888 2255 1720 
Q 1963 1553 1622 1553 
Q 1053 1553 659 1965 
Q 266 2378 266 3053 
Q 266 3750 677 4175 
Q 1088 4600 1706 4600 
Q 2153 4600 2523 4359 
Q 2894 4119 3086 3673 
Q 3278 3228 3278 2384 
Q 3278 1506 3087 986 
Q 2897 466 2520 194 
Q 2144 -78 1638 -78 
Q 1100 -78 759 220 
Q 419 519 350 1059 
z
M 2653 3081 
Q 2653 3566 2395 3850 
Q 2138 4134 1775 4134 
Q 1400 4134 1122 3828 
Q 844 3522 844 3034 
Q 844 2597 1108 2323 
Q 1372 2050 1759 2050 
Q 2150 2050 2401 2323 
Q 2653 2597 2653 3081 
z
" transform="scale(0.015625)"/>
       </defs>
       <use xlink:href="#ArialMT-32"/>
       <use xlink:href="#ArialMT-30" x="55.615234"/>
       <use xlink:href="#ArialMT-31" x="111.230469"/>
       <use xlink:href="#ArialMT-39" x="166.845703"/>
       <use xlink:href="#ArialMT-2d" x="222.460938"/>
       <use xlink:href="#ArialMT-30" x="255.761719"/>
       <use xlink:href="#ArialMT-31" x="311.376953"/>
      </g>
     </g>
    </g>
    <g id="xtick_6">
     <g id="line2d_6">
      <g>
       <use xlink:href="#m97c5d20067" x="295.551447" y="287.868898" style="fill: #262626; stroke: #262626"/>
      </g>
     </g>
     <g id="text_6">
      <!-- 2019-04 -->
      <g style="fill: #262626" transform="translate(266.711363 317.769822) rotate(-30) scale(0.088 -0.088)">
       <use xlink:href="#ArialMT-32"/>
       <use xlink:href="#ArialMT-30" x="55.615234"/>
       <use xlink:href="#ArialMT-31" x="111.230469"/>
       <use xlink:href="#ArialMT-39" x="166.845703"/>
       <use xlink:href="#ArialMT-2d" x="222.460938"/>
       <use xlink:href="#ArialMT-30" x="255.761719"/>
       <use xlink:href="#ArialMT-34" x="311.376953"/>
      </g>
     </g>
    </g>
    <g id="xtick_7">
     <g id="line2d_7">
      <g>
       <use xlink:href="#m97c5d20067" x="346.439182" y="287.868898" style="fill: #262626; stroke: #262626"/>
      </g>
     </g>
     <g id="text_7">
      <!-- 2019-07 -->
      <g style="fill: #262626" transform="translate(317.599097 317.769822) rotate(-30) scale(0.088 -0.088)">
       <use xlink:href="#ArialMT-32"/>
       <use xlink:href="#ArialMT-30" x="55.615234"/>
       <use xlink:href="#ArialMT-31" x="111.230469"/>
       <use xlink:href="#ArialMT-39" x="166.845703"/>
       <use xlink:href="#ArialMT-2d" x="222.460938"/>
       <use xlink:href="#ArialMT-30" x="255.761719"/>
       <use xlink:href="#ArialMT-37" x="311.376953"/>
      </g>
     </g>
    </g>
    <g id="xtick_8">
     <g id="line2d_8">
      <g>
       <use xlink:href="#m97c5d20067" x="397.886122" y="287.868898" style="fill: #262626; stroke: #262626"/>
      </g>
     </g>
     <g id="text_8">
      <!-- 2019-10 -->
      <g style="fill: #262626" transform="translate(369.046038 317.769822) rotate(-30) scale(0.088 -0.088)">
       <use xlink:href="#ArialMT-32"/>
       <use xlink:href="#ArialMT-30" x="55.615234"/>
       <use xlink:href="#ArialMT-31" x="111.230469"/>
       <use xlink:href="#ArialMT-39" x="166.845703"/>
       <use xlink:href="#ArialMT-2d" x="222.460938"/>
       <use xlink:href="#ArialMT-31" x="255.761719"/>
       <use xlink:href="#ArialMT-30" x="311.376953"/>
      </g>
     </g>
    </g>
    <g id="text_9">
     <!-- date -->
     <g style="fill: #262626" transform="translate(226.934375 330.156) scale(0.096 -0.096)">
      <defs>
       <path id="ArialMT-64" d="M 2575 0 
L 2575 419 
Q 2259 -75 1647 -75 
Q 1250 -75 917 144 
Q 584 363 401 755 
Q 219 1147 219 1656 
Q 219 2153 384 2558 
Q 550 2963 881 3178 
Q 1213 3394 1622 3394 
Q 1922 3394 2156 3267 
Q 2391 3141 2538 2938 
L 2538 4581 
L 3097 4581 
L 3097 0 
L 2575 0 
z
M 797 1656 
Q 797 1019 1065 703 
Q 1334 388 1700 388 
Q 2069 388 2326 689 
Q 2584 991 2584 1609 
Q 2584 2291 2321 2609 
Q 2059 2928 1675 2928 
Q 1300 2928 1048 2622 
Q 797 2316 797 1656 
z
" transform="scale(0.015625)"/>
       <path id="ArialMT-61" d="M 2588 409 
Q 2275 144 1986 34 
Q 1697 -75 1366 -75 
Q 819 -75 525 192 
Q 231 459 231 875 
Q 231 1119 342 1320 
Q 453 1522 633 1644 
Q 813 1766 1038 1828 
Q 1203 1872 1538 1913 
Q 2219 1994 2541 2106 
Q 2544 2222 2544 2253 
Q 2544 2597 2384 2738 
Q 2169 2928 1744 2928 
Q 1347 2928 1158 2789 
Q 969 2650 878 2297 
L 328 2372 
Q 403 2725 575 2942 
Q 747 3159 1072 3276 
Q 1397 3394 1825 3394 
Q 2250 3394 2515 3294 
Q 2781 3194 2906 3042 
Q 3031 2891 3081 2659 
Q 3109 2516 3109 2141 
L 3109 1391 
Q 3109 606 3145 398 
Q 3181 191 3288 0 
L 2700 0 
Q 2613 175 2588 409 
z
M 2541 1666 
Q 2234 1541 1622 1453 
Q 1275 1403 1131 1340 
Q 988 1278 909 1158 
Q 831 1038 831 891 
Q 831 666 1001 516 
Q 1172 366 1500 366 
Q 1825 366 2078 508 
Q 2331 650 2450 897 
Q 2541 1088 2541 1459 
L 2541 1666 
z
" transform="scale(0.015625)"/>
       <path id="ArialMT-74" d="M 1650 503 
L 1731 6 
Q 1494 -44 1306 -44 
Q 1000 -44 831 53 
Q 663 150 594 308 
Q 525 466 525 972 
L 525 2881 
L 113 2881 
L 113 3319 
L 525 3319 
L 525 4141 
L 1084 4478 
L 1084 3319 
L 1650 3319 
L 1650 2881 
L 1084 2881 
L 1084 941 
Q 1084 700 1114 631 
Q 1144 563 1211 522 
Q 1278 481 1403 481 
Q 1497 481 1650 503 
z
" transform="scale(0.015625)"/>
       <path id="ArialMT-65" d="M 2694 1069 
L 3275 997 
Q 3138 488 2766 206 
Q 2394 -75 1816 -75 
Q 1088 -75 661 373 
Q 234 822 234 1631 
Q 234 2469 665 2931 
Q 1097 3394 1784 3394 
Q 2450 3394 2872 2941 
Q 3294 2488 3294 1666 
Q 3294 1616 3291 1516 
L 816 1516 
Q 847 969 1125 678 
Q 1403 388 1819 388 
Q 2128 388 2347 550 
Q 2566 713 2694 1069 
z
M 847 1978 
L 2700 1978 
Q 2663 2397 2488 2606 
Q 2219 2931 1791 2931 
Q 1403 2931 1139 2672 
Q 875 2413 847 1978 
z
" transform="scale(0.015625)"/>
      </defs>
      <use xlink:href="#ArialMT-64"/>
      <use xlink:href="#ArialMT-61" x="55.615234"/>
      <use xlink:href="#ArialMT-74" x="111.230469"/>
      <use xlink:href="#ArialMT-65" x="139.013672"/>
     </g>
    </g>
   </g>
   <g id="matplotlib.axis_2">
    <g id="ytick_1">
     <g id="line2d_9">
      <defs>
       <path id="m9880f36b83" d="M 0 0 
L -4.8 0 
" style="stroke: #262626"/>
      </defs>
      <g>
       <use xlink:href="#m9880f36b83" x="25.28725" y="233.891361" style="fill: #262626; stroke: #262626"/>
      </g>
     </g>
     <g id="text_10">
      <!-- 68 -->
      <g style="fill: #262626" transform="translate(7.2 237.040799) scale(0.088 -0.088)">
       <defs>
        <path id="ArialMT-36" d="M 3184 3459 
L 2625 3416 
Q 2550 3747 2413 3897 
Q 2184 4138 1850 4138 
Q 1581 4138 1378 3988 
Q 1113 3794 959 3422 
Q 806 3050 800 2363 
Q 1003 2672 1297 2822 
Q 1591 2972 1913 2972 
Q 2475 2972 2870 2558 
Q 3266 2144 3266 1488 
Q 3266 1056 3080 686 
Q 2894 316 2569 119 
Q 2244 -78 1831 -78 
Q 1128 -78 684 439 
Q 241 956 241 2144 
Q 241 3472 731 4075 
Q 1159 4600 1884 4600 
Q 2425 4600 2770 4297 
Q 3116 3994 3184 3459 
z
M 888 1484 
Q 888 1194 1011 928 
Q 1134 663 1356 523 
Q 1578 384 1822 384 
Q 2178 384 2434 671 
Q 2691 959 2691 1453 
Q 2691 1928 2437 2201 
Q 2184 2475 1800 2475 
Q 1419 2475 1153 2201 
Q 888 1928 888 1484 
z
" transform="scale(0.015625)"/>
       </defs>
       <use xlink:href="#ArialMT-36"/>
       <use xlink:href="#ArialMT-38" x="55.615234"/>
      </g>
     </g>
    </g>
    <g id="ytick_2">
     <g id="line2d_10">
      <g>
       <use xlink:href="#m9880f36b83" x="25.28725" y="178.459152" style="fill: #262626; stroke: #262626"/>
      </g>
     </g>
     <g id="text_11">
      <!-- 70 -->
      <g style="fill: #262626" transform="translate(7.2 181.608589) scale(0.088 -0.088)">
       <use xlink:href="#ArialMT-37"/>
       <use xlink:href="#ArialMT-30" x="55.615234"/>
      </g>
     </g>
    </g>
    <g id="ytick_3">
     <g id="line2d_11">
      <g>
       <use xlink:href="#m9880f36b83" x="25.28725" y="123.026942" style="fill: #262626; stroke: #262626"/>
      </g>
     </g>
     <g id="text_12">
      <!-- 72 -->
      <g style="fill: #262626" transform="translate(7.2 126.17638) scale(0.088 -0.088)">
       <use xlink:href="#ArialMT-37"/>
       <use xlink:href="#ArialMT-32" x="55.615234"/>
      </g>
     </g>
    </g>
    <g id="ytick_4">
     <g id="line2d_12">
      <g>
       <use xlink:href="#m9880f36b83" x="25.28725" y="67.594732" style="fill: #262626; stroke: #262626"/>
      </g>
     </g>
     <g id="text_13">
      <!-- 74 -->
      <g style="fill: #262626" transform="translate(7.2 70.74417) scale(0.088 -0.088)">
       <use xlink:href="#ArialMT-37"/>
       <use xlink:href="#ArialMT-34" x="55.615234"/>
      </g>
     </g>
    </g>
    <g id="ytick_5">
     <g id="line2d_13">
      <g>
       <use xlink:href="#m9880f36b83" x="25.28725" y="12.162523" style="fill: #262626; stroke: #262626"/>
      </g>
     </g>
     <g id="text_14">
      <!-- 76 -->
      <g style="fill: #262626" transform="translate(7.2 15.31196) scale(0.088 -0.088)">
       <use xlink:href="#ArialMT-37"/>
       <use xlink:href="#ArialMT-36" x="55.615234"/>
      </g>
     </g>
    </g>
   </g>
   <g id="line2d_14">
    <path d="M 44.468011 270.109959 
L 48.382452 239.084007 
L 52.296894 275.111221 
L 56.211335 190.223373 
L 60.125776 176.08269 
L 64.040217 184.415502 
L 67.954658 163.982436 
L 71.869099 134.888775 
L 75.78354 128.559165 
L 79.697981 140.797007 
L 83.612422 144.909388 
L 87.526863 140.995667 
L 91.441304 132.425121 
L 95.355746 126.019896 
L 99.270187 119.778274 
L 103.184628 123.701972 
L 107.099069 96.654023 
L 111.01351 62.974694 
L 114.927951 70.678424 
L 118.842392 47.434566 
L 122.756833 54.191741 
L 126.671274 40.347437 
L 130.585715 58.471515 
L 134.500157 64.542661 
L 138.414598 68.256014 
L 142.329039 67.138297 
L 146.24348 73.320803 
L 150.157921 64.981225 
L 154.072362 67.53699 
L 157.986803 62.936887 
L 161.901244 47.40707 
L 165.815685 50.368403 
L 169.730126 42.474263 
L 173.644567 47.871754 
L 177.559009 50.521694 
L 181.47345 35.385759 
L 185.387891 49.525647 
L 189.302332 51.340392 
L 193.216773 44.940666 
L 197.131214 19.957677 
L 201.045655 34.600744 
L 204.960096 68.291759 
L 208.874537 65.969711 
L 212.788978 72.011987 
L 216.70342 78.084622 
L 220.617861 106.502275 
L 224.532302 107.629106 
L 228.446743 120.132974 
L 232.361184 115.508791 
L 236.275625 128.010617 
L 240.190066 115.043439 
L 244.104507 137.282314 
L 248.018948 134.648184 
L 251.933389 113.982088 
L 255.84783 144.750264 
L 259.762272 174.254771 
L 263.676713 200.082877 
L 267.591154 129.795768 
L 271.505595 136.204434 
L 275.420036 120.811468 
L 279.334477 125.859784 
L 283.248918 138.60176 
L 287.163359 111.635912 
L 291.0778 107.201783 
L 294.992241 116.976334 
L 298.906683 114.37213 
L 302.821124 87.769831 
L 306.735565 90.908018 
L 377.195504 51.007775 
L 381.109946 50.876555 
L 385.024387 108.205465 
L 388.938828 167.440716 
L 392.853269 198.535455 
L 396.76771 208.414077 
L 400.682151 169.101065 
L 404.596592 118.065815 
L 408.511033 76.415969 
L 412.425474 78.153015 
L 416.339915 110.365912 
L 420.254356 110.527302 
L 424.168798 138.219932 
L 428.083239 153.620337 
" clip-path="url(#pd44c7f0189)" style="fill: none; stroke: #4c72b0; stroke-width: 1.2; stroke-linecap: round"/>
    <defs>
     <path id="md3905db0ee" d="M 0 1.2 
C 0.318244 1.2 0.623496 1.07356 0.848528 0.848528 
C 1.07356 0.623496 1.2 0.318244 1.2 0 
C 1.2 -0.318244 1.07356 -0.623496 0.848528 -0.848528 
C 0.623496 -1.07356 0.318244 -1.2 0 -1.2 
C -0.318244 -1.2 -0.623496 -1.07356 -0.848528 -0.848528 
C -1.07356 -0.623496 -1.2 -0.318244 -1.2 0 
C -1.2 0.318244 -1.07356 0.623496 -0.848528 0.848528 
C -0.623496 1.07356 -0.318244 1.2 0 1.2 
z
" style="stroke: #4c72b0"/>
    </defs>
    <g clip-path="url(#pd44c7f0189)">
     <use xlink:href="#md3905db0ee" x="44.468011" y="270.109959" style="fill: #4c72b0; stroke: #4c72b0"/>
     <use xlink:href="#md3905db0ee" x="48.382452" y="239.084007" style="fill: #4c72b0; stroke: #4c72b0"/>
     <use xlink:href="#md3905db0ee" x="52.296894" y="275.111221" style="fill: #4c72b0; stroke: #4c72b0"/>
     <use xlink:href="#md3905db0ee" x="56.211335" y="190.223373" style="fill: #4c72b0; stroke: #4c72b0"/>
     <use xlink:href="#md3905db0ee" x="60.125776" y="176.08269" style="fill: #4c72b0; stroke: #4c72b0"/>
     <use xlink:href="#md3905db0ee" x="64.040217" y="184.415502" style="fill: #4c72b0; stroke: #4c72b0"/>
     <use xlink:href="#md3905db0ee" x="67.954658" y="163.982436" style="fill: #4c72b0; stroke: #4c72b0"/>
     <use xlink:href="#md3905db0ee" x="71.869099" y="134.888775" style="fill: #4c72b0; stroke: #4c72b0"/>
     <use xlink:href="#md3905db0ee" x="75.78354" y="128.559165" style="fill: #4c72b0; stroke: #4c72b0"/>
     <use xlink:href="#md3905db0ee" x="79.697981" y="140.797007" style="fill: #4c72b0; stroke: #4c72b0"/>
     <use xlink:href="#md3905db0ee" x="83.612422" y="144.909388" style="fill: #4c72b0; stroke: #4c72b0"/>
     <use xlink:href="#md3905db0ee" x="87.526863" y="140.995667" style="fill: #4c72b0; stroke: #4c72b0"/>
     <use xlink:href="#md3905db0ee" x="91.441304" y="132.425121" style="fill: #4c72b0; stroke: #4c72b0"/>
     <use xlink:href="#md3905db0ee" x="95.355746" y="126.019896" style="fill: #4c72b0; stroke: #4c72b0"/>
     <use xlink:href="#md3905db0ee" x="99.270187" y="119.778274" style="fill: #4c72b0; stroke: #4c72b0"/>
     <use xlink:href="#md3905db0ee" x="103.184628" y="123.701972" style="fill: #4c72b0; stroke: #4c72b0"/>
     <use xlink:href="#md3905db0ee" x="107.099069" y="96.654023" style="fill: #4c72b0; stroke: #4c72b0"/>
     <use xlink:href="#md3905db0ee" x="111.01351" y="62.974694" style="fill: #4c72b0; stroke: #4c72b0"/>
     <use xlink:href="#md3905db0ee" x="114.927951" y="70.678424" style="fill: #4c72b0; stroke: #4c72b0"/>
     <use xlink:href="#md3905db0ee" x="118.842392" y="47.434566" style="fill: #4c72b0; stroke: #4c72b0"/>
     <use xlink:href="#md3905db0ee" x="122.756833" y="54.191741" style="fill: #4c72b0; stroke: #4c72b0"/>
     <use xlink:href="#md3905db0ee" x="126.671274" y="40.347437" style="fill: #4c72b0; stroke: #4c72b0"/>
     <use xlink:href="#md3905db0ee" x="130.585715" y="58.471515" style="fill: #4c72b0; stroke: #4c72b0"/>
     <use xlink:href="#md3905db0ee" x="134.500157" y="64.542661" style="fill: #4c72b0; stroke: #4c72b0"/>
     <use xlink:href="#md3905db0ee" x="138.414598" y="68.256014" style="fill: #4c72b0; stroke: #4c72b0"/>
     <use xlink:href="#md3905db0ee" x="142.329039" y="67.138297" style="fill: #4c72b0; stroke: #4c72b0"/>
     <use xlink:href="#md3905db0ee" x="146.24348" y="73.320803" style="fill: #4c72b0; stroke: #4c72b0"/>
     <use xlink:href="#md3905db0ee" x="150.157921" y="64.981225" style="fill: #4c72b0; stroke: #4c72b0"/>
     <use xlink:href="#md3905db0ee" x="154.072362" y="67.53699" style="fill: #4c72b0; stroke: #4c72b0"/>
     <use xlink:href="#md3905db0ee" x="157.986803" y="62.936887" style="fill: #4c72b0; stroke: #4c72b0"/>
     <use xlink:href="#md3905db0ee" x="161.901244" y="47.40707" style="fill: #4c72b0; stroke: #4c72b0"/>
     <use xlink:href="#md3905db0ee" x="165.815685" y="50.368403" style="fill: #4c72b0; stroke: #4c72b0"/>
     <use xlink:href="#md3905db0ee" x="169.730126" y="42.474263" style="fill: #4c72b0; stroke: #4c72b0"/>
     <use xlink:href="#md3905db0ee" x="173.644567" y="47.871754" style="fill: #4c72b0; stroke: #4c72b0"/>
     <use xlink:href="#md3905db0ee" x="177.559009" y="50.521694" style="fill: #4c72b0; stroke: #4c72b0"/>
     <use xlink:href="#md3905db0ee" x="181.47345" y="35.385759" style="fill: #4c72b0; stroke: #4c72b0"/>
     <use xlink:href="#md3905db0ee" x="185.387891" y="49.525647" style="fill: #4c72b0; stroke: #4c72b0"/>
     <use xlink:href="#md3905db0ee" x="189.302332" y="51.340392" style="fill: #4c72b0; stroke: #4c72b0"/>
     <use xlink:href="#md3905db0ee" x="193.216773" y="44.940666" style="fill: #4c72b0; stroke: #4c72b0"/>
     <use xlink:href="#md3905db0ee" x="197.131214" y="19.957677" style="fill: #4c72b0; stroke: #4c72b0"/>
     <use xlink:href="#md3905db0ee" x="201.045655" y="34.600744" style="fill: #4c72b0; stroke: #4c72b0"/>
     <use xlink:href="#md3905db0ee" x="204.960096" y="68.291759" style="fill: #4c72b0; stroke: #4c72b0"/>
     <use xlink:href="#md3905db0ee" x="208.874537" y="65.969711" style="fill: #4c72b0; stroke: #4c72b0"/>
     <use xlink:href="#md3905db0ee" x="212.788978" y="72.011987" style="fill: #4c72b0; stroke: #4c72b0"/>
     <use xlink:href="#md3905db0ee" x="216.70342" y="78.084622" style="fill: #4c72b0; stroke: #4c72b0"/>
     <use xlink:href="#md3905db0ee" x="220.617861" y="106.502275" style="fill: #4c72b0; stroke: #4c72b0"/>
     <use xlink:href="#md3905db0ee" x="224.532302" y="107.629106" style="fill: #4c72b0; stroke: #4c72b0"/>
     <use xlink:href="#md3905db0ee" x="228.446743" y="120.132974" style="fill: #4c72b0; stroke: #4c72b0"/>
     <use xlink:href="#md3905db0ee" x="232.361184" y="115.508791" style="fill: #4c72b0; stroke: #4c72b0"/>
     <use xlink:href="#md3905db0ee" x="236.275625" y="128.010617" style="fill: #4c72b0; stroke: #4c72b0"/>
     <use xlink:href="#md3905db0ee" x="240.190066" y="115.043439" style="fill: #4c72b0; stroke: #4c72b0"/>
     <use xlink:href="#md3905db0ee" x="244.104507" y="137.282314" style="fill: #4c72b0; stroke: #4c72b0"/>
     <use xlink:href="#md3905db0ee" x="248.018948" y="134.648184" style="fill: #4c72b0; stroke: #4c72b0"/>
     <use xlink:href="#md3905db0ee" x="251.933389" y="113.982088" style="fill: #4c72b0; stroke: #4c72b0"/>
     <use xlink:href="#md3905db0ee" x="255.84783" y="144.750264" style="fill: #4c72b0; stroke: #4c72b0"/>
     <use xlink:href="#md3905db0ee" x="259.762272" y="174.254771" style="fill: #4c72b0; stroke: #4c72b0"/>
     <use xlink:href="#md3905db0ee" x="263.676713" y="200.082877" style="fill: #4c72b0; stroke: #4c72b0"/>
     <use xlink:href="#md3905db0ee" x="267.591154" y="129.795768" style="fill: #4c72b0; stroke: #4c72b0"/>
     <use xlink:href="#md3905db0ee" x="271.505595" y="136.204434" style="fill: #4c72b0; stroke: #4c72b0"/>
     <use xlink:href="#md3905db0ee" x="275.420036" y="120.811468" style="fill: #4c72b0; stroke: #4c72b0"/>
     <use xlink:href="#md3905db0ee" x="279.334477" y="125.859784" style="fill: #4c72b0; stroke: #4c72b0"/>
     <use xlink:href="#md3905db0ee" x="283.248918" y="138.60176" style="fill: #4c72b0; stroke: #4c72b0"/>
     <use xlink:href="#md3905db0ee" x="287.163359" y="111.635912" style="fill: #4c72b0; stroke: #4c72b0"/>
     <use xlink:href="#md3905db0ee" x="291.0778" y="107.201783" style="fill: #4c72b0; stroke: #4c72b0"/>
     <use xlink:href="#md3905db0ee" x="294.992241" y="116.976334" style="fill: #4c72b0; stroke: #4c72b0"/>
     <use xlink:href="#md3905db0ee" x="298.906683" y="114.37213" style="fill: #4c72b0; stroke: #4c72b0"/>
     <use xlink:href="#md3905db0ee" x="302.821124" y="87.769831" style="fill: #4c72b0; stroke: #4c72b0"/>
     <use xlink:href="#md3905db0ee" x="306.735565" y="90.908018" style="fill: #4c72b0; stroke: #4c72b0"/>
     <use xlink:href="#md3905db0ee" x="377.195504" y="51.007775" style="fill: #4c72b0; stroke: #4c72b0"/>
     <use xlink:href="#md3905db0ee" x="381.109946" y="50.876555" style="fill: #4c72b0; stroke: #4c72b0"/>
     <use xlink:href="#md3905db0ee" x="385.024387" y="108.205465" style="fill: #4c72b0; stroke: #4c72b0"/>
     <use xlink:href="#md3905db0ee" x="388.938828" y="167.440716" style="fill: #4c72b0; stroke: #4c72b0"/>
     <use xlink:href="#md3905db0ee" x="392.853269" y="198.535455" style="fill: #4c72b0; stroke: #4c72b0"/>
     <use xlink:href="#md3905db0ee" x="396.76771" y="208.414077" style="fill: #4c72b0; stroke: #4c72b0"/>
     <use xlink:href="#md3905db0ee" x="400.682151" y="169.101065" style="fill: #4c72b0; stroke: #4c72b0"/>
     <use xlink:href="#md3905db0ee" x="404.596592" y="118.065815" style="fill: #4c72b0; stroke: #4c72b0"/>
     <use xlink:href="#md3905db0ee" x="408.511033" y="76.415969" style="fill: #4c72b0; stroke: #4c72b0"/>
     <use xlink:href="#md3905db0ee" x="412.425474" y="78.153015" style="fill: #4c72b0; stroke: #4c72b0"/>
     <use xlink:href="#md3905db0ee" x="416.339915" y="110.365912" style="fill: #4c72b0; stroke: #4c72b0"/>
     <use xlink:href="#md3905db0ee" x="420.254356" y="110.527302" style="fill: #4c72b0; stroke: #4c72b0"/>
     <use xlink:href="#md3905db0ee" x="424.168798" y="138.219932" style="fill: #4c72b0; stroke: #4c72b0"/>
     <use xlink:href="#md3905db0ee" x="428.083239" y="153.620337" style="fill: #4c72b0; stroke: #4c72b0"/>
    </g>
   </g>
   <g id="patch_3">
    <path d="M 25.28725 287.868898 
L 25.28725 7.2 
" style="fill: none; stroke: #262626; stroke-linejoin: miter; stroke-linecap: square"/>
   </g>
   <g id="patch_4">
    <path d="M 447.264 287.868898 
L 447.264 7.2 
" style="fill: none; stroke: #262626; stroke-linejoin: miter; stroke-linecap: square"/>
   </g>
   <g id="patch_5">
    <path d="M 25.28725 287.868898 
L 447.264 287.868898 
" style="fill: none; stroke: #262626; stroke-linejoin: miter; stroke-linecap: square"/>
   </g>
   <g id="patch_6">
    <path d="M 25.28725 7.2 
L 447.264 7.2 
" style="fill: none; stroke: #262626; stroke-linejoin: miter; stroke-linecap: square"/>
   </g>
   <g id="legend_1">
    <g id="line2d_15">
     <path d="M 360.39975 18.338875 
L 369.19975 18.338875 
L 377.99975 18.338875 
" style="fill: none; stroke: #4c72b0; stroke-width: 1.2; stroke-linecap: round"/>
     <g>
      <use xlink:href="#md3905db0ee" x="369.19975" y="18.338875" style="fill: #4c72b0; stroke: #4c72b0"/>
     </g>
    </g>
    <g id="text_15">
     <!-- Household a1 -->
     <g style="fill: #262626" transform="translate(385.03975 21.418875) scale(0.088 -0.088)">
      <defs>
       <path id="ArialMT-48" d="M 513 0 
L 513 4581 
L 1119 4581 
L 1119 2700 
L 3500 2700 
L 3500 4581 
L 4106 4581 
L 4106 0 
L 3500 0 
L 3500 2159 
L 1119 2159 
L 1119 0 
L 513 0 
z
" transform="scale(0.015625)"/>
       <path id="ArialMT-6f" d="M 213 1659 
Q 213 2581 725 3025 
Q 1153 3394 1769 3394 
Q 2453 3394 2887 2945 
Q 3322 2497 3322 1706 
Q 3322 1066 3130 698 
Q 2938 331 2570 128 
Q 2203 -75 1769 -75 
Q 1072 -75 642 372 
Q 213 819 213 1659 
z
M 791 1659 
Q 791 1022 1069 705 
Q 1347 388 1769 388 
Q 2188 388 2466 706 
Q 2744 1025 2744 1678 
Q 2744 2294 2464 2611 
Q 2184 2928 1769 2928 
Q 1347 2928 1069 2612 
Q 791 2297 791 1659 
z
" transform="scale(0.015625)"/>
       <path id="ArialMT-75" d="M 2597 0 
L 2597 488 
Q 2209 -75 1544 -75 
Q 1250 -75 995 37 
Q 741 150 617 320 
Q 494 491 444 738 
Q 409 903 409 1263 
L 409 3319 
L 972 3319 
L 972 1478 
Q 972 1038 1006 884 
Q 1059 663 1231 536 
Q 1403 409 1656 409 
Q 1909 409 2131 539 
Q 2353 669 2445 892 
Q 2538 1116 2538 1541 
L 2538 3319 
L 3100 3319 
L 3100 0 
L 2597 0 
z
" transform="scale(0.015625)"/>
       <path id="ArialMT-73" d="M 197 991 
L 753 1078 
Q 800 744 1014 566 
Q 1228 388 1613 388 
Q 2000 388 2187 545 
Q 2375 703 2375 916 
Q 2375 1106 2209 1216 
Q 2094 1291 1634 1406 
Q 1016 1563 777 1677 
Q 538 1791 414 1992 
Q 291 2194 291 2438 
Q 291 2659 392 2848 
Q 494 3038 669 3163 
Q 800 3259 1026 3326 
Q 1253 3394 1513 3394 
Q 1903 3394 2198 3281 
Q 2494 3169 2634 2976 
Q 2775 2784 2828 2463 
L 2278 2388 
Q 2241 2644 2061 2787 
Q 1881 2931 1553 2931 
Q 1166 2931 1000 2803 
Q 834 2675 834 2503 
Q 834 2394 903 2306 
Q 972 2216 1119 2156 
Q 1203 2125 1616 2013 
Q 2213 1853 2448 1751 
Q 2684 1650 2818 1456 
Q 2953 1263 2953 975 
Q 2953 694 2789 445 
Q 2625 197 2315 61 
Q 2006 -75 1616 -75 
Q 969 -75 630 194 
Q 291 463 197 991 
z
" transform="scale(0.015625)"/>
       <path id="ArialMT-68" d="M 422 0 
L 422 4581 
L 984 4581 
L 984 2938 
Q 1378 3394 1978 3394 
Q 2347 3394 2619 3248 
Q 2891 3103 3008 2847 
Q 3125 2591 3125 2103 
L 3125 0 
L 2563 0 
L 2563 2103 
Q 2563 2525 2380 2717 
Q 2197 2909 1863 2909 
Q 1613 2909 1392 2779 
Q 1172 2650 1078 2428 
Q 984 2206 984 1816 
L 984 0 
L 422 0 
z
" transform="scale(0.015625)"/>
       <path id="ArialMT-6c" d="M 409 0 
L 409 4581 
L 972 4581 
L 972 0 
L 409 0 
z
" transform="scale(0.015625)"/>
       <path id="ArialMT-20" transform="scale(0.015625)"/>
      </defs>
      <use xlink:href="#ArialMT-48"/>
      <use xlink:href="#ArialMT-6f" x="72.216797"/>
      <use xlink:href="#ArialMT-75" x="127.832031"/>
      <use xlink:href="#ArialMT-73" x="183.447266"/>
      <use xlink:href="#ArialMT-65" x="233.447266"/>
      <use xlink:href="#ArialMT-68" x="289.0625"/>
      <use xlink:href="#ArialMT-6f" x="344.677734"/>
      <use xlink:href="#ArialMT-6c" x="400.292969"/>
      <use xlink:href="#ArialMT-64" x="422.509766"/>
      <use xlink:href="#ArialMT-20" x="478.125"/>
      <use xlink:href="#ArialMT-61" x="505.908203"/>
      <use xlink:href="#ArialMT-31" x="561.523438"/>
     </g>
    </g>
   </g>
  </g>
 </g>
 <defs>
  <clipPath id="pd44c7f0189">
   <rect x="25.28725" y="7.2" width="421.97675" height="280.668898"/>
  </clipPath>
 </defs>
</svg>