<?xml version="1.0" encoding="utf-8" standalone="no"?>
<!DOCTYPE svg PUBLIC "-//W3C//DTD SVG 1.1//EN"
  "http://www.w3.org/Graphics/SVG/1.1/DTD/svg11.dtd">
<svg xmlns:xlink="http://www.w3.org/1999/xlink" width="346.79952pt" height="217.19952pt" viewBox="0 0 346.79952 217.19952" xmlns="http://www.w3.org/2000/svg" version="1.1">
 <metadata>
  <rdf:RDF xmlns:dc="http://purl.org/dc/elements/1.1/" xmlns:cc="http://creativecommons.org/ns#" xmlns:rdf="http://www.w3.org/1999/02/22-rdf-syntax-ns#">
   <cc:Work>
    <dc:type rdf:resource="http://purl.org/dc/dcmitype/StillImage"/>
    <dc:date>2025-06-09T13:55:38.982843</dc:date>
    <dc:format>image/svg+xml</dc:format>
    <dc:creator>
     <cc:Agent>
      <dc:title>Matplotlib v3.9.2, https://matplotlib.org/</dc:title>
     </cc:Agent>
    </dc:creator>
   </cc:Work>
  </rdf:RDF>
 </metadata>
 <defs>
  <style type="text/css">*{stroke-linejoin: round; stroke-linecap: butt}</style>
 </defs>
 <g id="figure_1">
  <g id="patch_1">
   <path d="M 0 217.19952 
L 346.79952 217.19952 
L 346.79952 -0 
L 0 -0 
z
" style="fill: #ffffff"/>
  </g>
  <g id="axes_1">
   <g id="patch_2">
    <path d="M 43.911719 187.982332 
L 339.59952 187.982332 
L 339.59952 7.2 
L 43.911719 7.2 
z
" style="fill: #ffffff"/>
   </g>
   <g id="matplotlib.axis_1">
    <g id="xtick_1">
     <g id="line2d_1"/>
     <g id="text_1">
      <!-- 0 -->
      <g style="fill: #262626" transform="translate(55.125198 196.801239) scale(0.07 -0.07)">
       <defs>
        <path id="DejaVuSerif-30" d="M 2034 219 
Q 2513 219 2750 744 
Q 2988 1269 2988 2328 
Q 2988 3391 2750 3916 
Q 2513 4441 2034 4441 
Q 1556 4441 1318 3916 
Q 1081 3391 1081 2328 
Q 1081 1269 1318 744 
Q 1556 219 2034 219 
z
M 2034 -91 
Q 1275 -91 848 546 
Q 422 1184 422 2328 
Q 422 3475 848 4112 
Q 1275 4750 2034 4750 
Q 2797 4750 3222 4112 
Q 3647 3475 3647 2328 
Q 3647 1184 3222 546 
Q 2797 -91 2034 -91 
z
" transform="scale(0.015625)"/>
       </defs>
       <use xlink:href="#DejaVuSerif-30"/>
      </g>
     </g>
    </g>
    <g id="xtick_2">
     <g id="line2d_2"/>
     <g id="text_2">
      <!-- 10 -->
      <g style="fill: #262626" transform="translate(97.699505 196.801239) scale(0.07 -0.07)">
       <defs>
        <path id="DejaVuSerif-31" d="M 909 0 
L 909 331 
L 1722 331 
L 1722 4213 
L 781 3603 
L 781 4013 
L 1919 4750 
L 2350 4750 
L 2350 331 
L 3163 331 
L 3163 0 
L 909 0 
z
" transform="scale(0.015625)"/>
       </defs>
       <use xlink:href="#DejaVuSerif-31"/>
       <use xlink:href="#DejaVuSerif-30" x="63.623047"/>
      </g>
     </g>
    </g>
    <g id="xtick_3">
     <g id="line2d_3"/>
     <g id="text_3">
      <!-- 20 -->
      <g style="fill: #262626" transform="translate(142.500687 196.801239) scale(0.07 -0.07)">
       <defs>
        <path id="DejaVuSerif-32" d="M 819 3553 
L 469 3553 
L 469 4384 
Q 803 4563 1142 4656 
Q 1481 4750 1806 4750 
Q 2534 4750 2956 4397 
Q 3378 4044 3378 3438 
Q 3378 2753 2422 1800 
Q 2347 1728 2309 1691 
L 1131 513 
L 3078 513 
L 3078 1088 
L 3444 1088 
L 3444 0 
L 434 0 
L 434 341 
L 1850 1753 
Q 2319 2222 2519 2614 
Q 2719 3006 2719 3438 
Q 2719 3909 2473 4175 
Q 2228 4441 1797 4441 
Q 1350 4441 1106 4219 
Q 863 3997 819 3553 
z
" transform="scale(0.015625)"/>
       </defs>
       <use xlink:href="#DejaVuSerif-32"/>
       <use xlink:href="#DejaVuSerif-30" x="63.623047"/>
      </g>
     </g>
    </g>
    <g id="xtick_4">
     <g id="line2d_4"/>
     <g id="text_4">
      <!-- 30 -->
      <g style="fill: #262626" transform="translate(187.301869 196.801239) scale(0.07 -0.07)">
       <defs>
        <path id="DejaVuSerif-33" d="M 622 4469 
Q 988 4606 1323 4678 
Q 1659 4750 1953 4750 
Q 2638 4750 3022 4454 
Q 3406 4159 3406 3634 
Q 3406 3213 3140 2930 
Q 2875 2647 2388 2547 
Q 2963 2466 3280 2130 
Q 3597 1794 3597 1259 
Q 3597 606 3158 257 
Q 2719 -91 1894 -91 
Q 1528 -91 1179 -12 
Q 831 66 488 225 
L 488 1131 
L 838 1131 
Q 869 681 1141 450 
Q 1413 219 1906 219 
Q 2384 219 2661 495 
Q 2938 772 2938 1253 
Q 2938 1803 2653 2086 
Q 2369 2369 1819 2369 
L 1522 2369 
L 1522 2688 
L 1678 2688 
Q 2225 2688 2498 2914 
Q 2772 3141 2772 3597 
Q 2772 4006 2547 4223 
Q 2322 4441 1900 4441 
Q 1478 4441 1245 4241 
Q 1013 4041 972 3647 
L 622 3647 
L 622 4469 
z
" transform="scale(0.015625)"/>
       </defs>
       <use xlink:href="#DejaVuSerif-33"/>
       <use xlink:href="#DejaVuSerif-30" x="63.623047"/>
      </g>
     </g>
    </g>
    <g id="xtick_5">
     <g id="line2d_5"/>
     <g id="text_5">
      <!-- 40 -->
      <g style="fill: #262626" transform="translate(232.103051 196.801239) scale(0.07 -0.07)">
       <defs>
        <path id="DejaVuSerif-34" d="M 2234 1581 
L 2234 4063 
L 641 1581 
L 2234 1581 
z
M 3609 0 
L 1484 0 
L 1484 331 
L 2234 331 
L 2234 1247 
L 197 1247 
L 197 1588 
L 2241 4750 
L 2859 4750 
L 2859 1581 
L 3750 1581 
L 3750 1247 
L 2859 1247 
L 2859 331 
L 3609 331 
L 3609 0 
z
" transform="scale(0.015625)"/>
       </defs>
       <use xlink:href="#DejaVuSerif-34"/>
       <use xlink:href="#DejaVuSerif-30" x="63.623047"/>
      </g>
     </g>
    </g>
    <g id="xtick_6">
     <g id="line2d_6"/>
     <g id="text_6">
      <!-- 50 -->
      <g style="fill: #262626" transform="translate(276.904233 196.801239) scale(0.07 -0.07)">
       <defs>
        <path id="DejaVuSerif-35" d="M 3219 4666 
L 3219 4153 
L 1081 4153 
L 1081 2816 
Q 1244 2928 1461 2984 
Q 1678 3041 1947 3041 
Q 2703 3041 3140 2622 
Q 3578 2203 3578 1478 
Q 3578 738 3136 323 
Q 2694 -91 1894 -91 
Q 1572 -91 1234 -12 
Q 897 66 544 225 
L 544 1131 
L 897 1131 
Q 925 688 1179 453 
Q 1434 219 1894 219 
Q 2388 219 2653 544 
Q 2919 869 2919 1478 
Q 2919 2084 2655 2407 
Q 2391 2731 1894 2731 
Q 1613 2731 1398 2631 
Q 1184 2531 1019 2322 
L 750 2322 
L 750 4666 
L 3219 4666 
z
" transform="scale(0.015625)"/>
       </defs>
       <use xlink:href="#DejaVuSerif-35"/>
       <use xlink:href="#DejaVuSerif-30" x="63.623047"/>
      </g>
     </g>
    </g>
    <g id="xtick_7">
     <g id="line2d_7"/>
     <g id="text_7">
      <!-- 60 -->
      <g style="fill: #262626" transform="translate(321.705415 196.801239) scale(0.07 -0.07)">
       <defs>
        <path id="DejaVuSerif-36" d="M 2094 219 
Q 2534 219 2771 542 
Q 3009 866 3009 1472 
Q 3009 2078 2771 2401 
Q 2534 2725 2094 2725 
Q 1647 2725 1412 2412 
Q 1178 2100 1178 1509 
Q 1178 888 1415 553 
Q 1653 219 2094 219 
z
M 1075 2569 
Q 1288 2803 1556 2918 
Q 1825 3034 2163 3034 
Q 2859 3034 3264 2615 
Q 3669 2197 3669 1472 
Q 3669 763 3233 336 
Q 2797 -91 2069 -91 
Q 1278 -91 853 498 
Q 428 1088 428 2181 
Q 428 3406 931 4078 
Q 1434 4750 2350 4750 
Q 2597 4750 2869 4703 
Q 3141 4656 3425 4563 
L 3425 3794 
L 3072 3794 
Q 3034 4109 2831 4275 
Q 2628 4441 2284 4441 
Q 1678 4441 1381 3981 
Q 1084 3522 1075 2569 
z
" transform="scale(0.015625)"/>
       </defs>
       <use xlink:href="#DejaVuSerif-36"/>
       <use xlink:href="#DejaVuSerif-30" x="63.623047"/>
      </g>
     </g>
    </g>
    <g id="text_8">
     <!-- $x$ -->
     <g style="fill: #262626" transform="translate(189.355619 208.33577) scale(0.08 -0.08)">
      <defs>
       <path id="DejaVuSans-Oblique-78" d="M 3841 3500 
L 2234 1784 
L 3219 0 
L 2559 0 
L 1819 1388 
L 531 0 
L -166 0 
L 1556 1844 
L 641 3500 
L 1300 3500 
L 1972 2234 
L 3144 3500 
L 3841 3500 
z
" transform="scale(0.015625)"/>
      </defs>
      <use xlink:href="#DejaVuSans-Oblique-78" transform="translate(0 0.3125)"/>
     </g>
    </g>
   </g>
   <g id="matplotlib.axis_2">
    <g id="ytick_1">
     <g id="line2d_8"/>
     <g id="text_9">
      <!-- −1.00 -->
      <g style="fill: #262626" transform="translate(18.96 182.426967) scale(0.07 -0.07)">
       <defs>
        <path id="DejaVuSerif-2212" d="M 678 2259 
L 4684 2259 
L 4684 1753 
L 678 1753 
L 678 2259 
z
" transform="scale(0.015625)"/>
        <path id="DejaVuSerif-2e" d="M 603 325 
Q 603 500 722 622 
Q 841 744 1019 744 
Q 1191 744 1312 622 
Q 1434 500 1434 325 
Q 1434 153 1312 31 
Q 1191 -91 1019 -91 
Q 841 -91 722 29 
Q 603 150 603 325 
z
" transform="scale(0.015625)"/>
       </defs>
       <use xlink:href="#DejaVuSerif-2212"/>
       <use xlink:href="#DejaVuSerif-31" x="83.789062"/>
       <use xlink:href="#DejaVuSerif-2e" x="147.412109"/>
       <use xlink:href="#DejaVuSerif-30" x="179.199219"/>
       <use xlink:href="#DejaVuSerif-30" x="242.822266"/>
      </g>
     </g>
    </g>
    <g id="ytick_2">
     <g id="line2d_9"/>
     <g id="text_10">
      <!-- −0.75 -->
      <g style="fill: #262626" transform="translate(18.96 161.8832) scale(0.07 -0.07)">
       <defs>
        <path id="DejaVuSerif-37" d="M 3609 4347 
L 1784 0 
L 1319 0 
L 3059 4153 
L 903 4153 
L 903 3578 
L 538 3578 
L 538 4666 
L 3609 4666 
L 3609 4347 
z
" transform="scale(0.015625)"/>
       </defs>
       <use xlink:href="#DejaVuSerif-2212"/>
       <use xlink:href="#DejaVuSerif-30" x="83.789062"/>
       <use xlink:href="#DejaVuSerif-2e" x="147.412109"/>
       <use xlink:href="#DejaVuSerif-37" x="179.199219"/>
       <use xlink:href="#DejaVuSerif-35" x="242.822266"/>
      </g>
     </g>
    </g>
    <g id="ytick_3">
     <g id="line2d_10"/>
     <g id="text_11">
      <!-- −0.50 -->
      <g style="fill: #262626" transform="translate(18.96 141.339433) scale(0.07 -0.07)">
       <use xlink:href="#DejaVuSerif-2212"/>
       <use xlink:href="#DejaVuSerif-30" x="83.789062"/>
       <use xlink:href="#DejaVuSerif-2e" x="147.412109"/>
       <use xlink:href="#DejaVuSerif-35" x="179.199219"/>
       <use xlink:href="#DejaVuSerif-30" x="242.822266"/>
      </g>
     </g>
    </g>
    <g id="ytick_4">
     <g id="line2d_11"/>
     <g id="text_12">
      <!-- −0.25 -->
      <g style="fill: #262626" transform="translate(18.96 120.795666) scale(0.07 -0.07)">
       <use xlink:href="#DejaVuSerif-2212"/>
       <use xlink:href="#DejaVuSerif-30" x="83.789062"/>
       <use xlink:href="#DejaVuSerif-2e" x="147.412109"/>
       <use xlink:href="#DejaVuSerif-32" x="179.199219"/>
       <use xlink:href="#DejaVuSerif-35" x="242.822266"/>
      </g>
     </g>
    </g>
    <g id="ytick_5">
     <g id="line2d_12"/>
     <g id="text_13">
      <!-- 0.00 -->
      <g style="fill: #262626" transform="translate(24.825781 100.251899) scale(0.07 -0.07)">
       <use xlink:href="#DejaVuSerif-30"/>
       <use xlink:href="#DejaVuSerif-2e" x="63.623047"/>
       <use xlink:href="#DejaVuSerif-30" x="95.410156"/>
       <use xlink:href="#DejaVuSerif-30" x="159.033203"/>
      </g>
     </g>
    </g>
    <g id="ytick_6">
     <g id="line2d_13"/>
     <g id="text_14">
      <!-- 0.25 -->
      <g style="fill: #262626" transform="translate(24.825781 79.708133) scale(0.07 -0.07)">
       <use xlink:href="#DejaVuSerif-30"/>
       <use xlink:href="#DejaVuSerif-2e" x="63.623047"/>
       <use xlink:href="#DejaVuSerif-32" x="95.410156"/>
       <use xlink:href="#DejaVuSerif-35" x="159.033203"/>
      </g>
     </g>
    </g>
    <g id="ytick_7">
     <g id="line2d_14"/>
     <g id="text_15">
      <!-- 0.50 -->
      <g style="fill: #262626" transform="translate(24.825781 59.164366) scale(0.07 -0.07)">
       <use xlink:href="#DejaVuSerif-30"/>
       <use xlink:href="#DejaVuSerif-2e" x="63.623047"/>
       <use xlink:href="#DejaVuSerif-35" x="95.410156"/>
       <use xlink:href="#DejaVuSerif-30" x="159.033203"/>
      </g>
     </g>
    </g>
    <g id="ytick_8">
     <g id="line2d_15"/>
     <g id="text_16">
      <!-- 0.75 -->
      <g style="fill: #262626" transform="translate(24.825781 38.620599) scale(0.07 -0.07)">
       <use xlink:href="#DejaVuSerif-30"/>
       <use xlink:href="#DejaVuSerif-2e" x="63.623047"/>
       <use xlink:href="#DejaVuSerif-37" x="95.410156"/>
       <use xlink:href="#DejaVuSerif-35" x="159.033203"/>
      </g>
     </g>
    </g>
    <g id="ytick_9">
     <g id="line2d_16"/>
     <g id="text_17">
      <!-- 1.00 -->
      <g style="fill: #262626" transform="translate(24.825781 18.076832) scale(0.07 -0.07)">
       <use xlink:href="#DejaVuSerif-31"/>
       <use xlink:href="#DejaVuSerif-2e" x="63.623047"/>
       <use xlink:href="#DejaVuSerif-30" x="95.410156"/>
       <use xlink:href="#DejaVuSerif-30" x="159.033203"/>
      </g>
     </g>
    </g>
    <g id="text_18">
     <!-- $\phi_i(x)$ -->
     <g style="fill: #262626" transform="translate(13.28 106.631166) rotate(-90) scale(0.08 -0.08)">
      <defs>
       <path id="DejaVuSans-Oblique-3d5" d="M 2991 4863 
L 2738 3572 
Q 3363 3572 3684 3094 
Q 4016 2606 3850 1747 
Q 3681 888 3159 400 
Q 2653 -78 2028 -78 
L 1784 -1331 
L 1213 -1331 
L 1456 -78 
Q 834 -78 509 400 
Q 178 888 347 1747 
Q 513 2606 1034 3094 
Q 1544 3572 2166 3572 
L 2419 4863 
L 2991 4863 
z
M 2128 434 
Q 2481 434 2784 756 
Q 3116 1116 3244 1747 
Q 3369 2372 3169 2738 
Q 2991 3059 2638 3059 
L 2128 434 
z
M 1556 434 
L 2066 3059 
Q 1716 3059 1413 2738 
Q 1072 2372 953 1747 
Q 834 1116 1028 756 
Q 1203 434 1556 434 
z
" transform="scale(0.015625)"/>
       <path id="DejaVuSans-Oblique-69" d="M 1172 4863 
L 1747 4863 
L 1606 4134 
L 1031 4134 
L 1172 4863 
z
M 909 3500 
L 1484 3500 
L 800 0 
L 225 0 
L 909 3500 
z
" transform="scale(0.015625)"/>
       <path id="DejaVuSans-28" d="M 1984 4856 
Q 1566 4138 1362 3434 
Q 1159 2731 1159 2009 
Q 1159 1288 1364 580 
Q 1569 -128 1984 -844 
L 1484 -844 
Q 1016 -109 783 600 
Q 550 1309 550 2009 
Q 550 2706 781 3412 
Q 1013 4119 1484 4856 
L 1984 4856 
z
" transform="scale(0.015625)"/>
       <path id="DejaVuSans-29" d="M 513 4856 
L 1013 4856 
Q 1481 4119 1714 3412 
Q 1947 2706 1947 2009 
Q 1947 1309 1714 600 
Q 1481 -109 1013 -844 
L 513 -844 
Q 928 -128 1133 580 
Q 1338 1288 1338 2009 
Q 1338 2731 1133 3434 
Q 928 4138 513 4856 
z
" transform="scale(0.015625)"/>
      </defs>
      <use xlink:href="#DejaVuSans-Oblique-3d5" transform="translate(0 0.015625)"/>
      <use xlink:href="#DejaVuSans-Oblique-69" transform="translate(65.966797 -16.390625) scale(0.7)"/>
      <use xlink:href="#DejaVuSans-28" transform="translate(88.149414 0.015625)"/>
      <use xlink:href="#DejaVuSans-Oblique-78" transform="translate(127.163086 0.015625)"/>
      <use xlink:href="#DejaVuSans-29" transform="translate(186.342773 0.015625)"/>
     </g>
    </g>
   </g>
   <g id="line2d_17">
    <path d="M 57.352073 15.417379 
L 326.159165 15.417379 
L 326.159165 15.417379 
" clip-path="url(#p56d57a9b0f)" style="fill: none; stroke: #4c72b0; stroke-linecap: round"/>
   </g>
   <g id="line2d_18">
    <path d="M 57.352073 15.417379 
L 60.053652 15.581166 
L 62.755231 16.071874 
L 65.45681 16.887547 
L 68.158389 18.024933 
L 70.859967 19.479499 
L 73.561546 21.245446 
L 76.263125 23.315734 
L 78.964704 25.682111 
L 81.666283 28.335144 
L 84.367861 31.264257 
L 87.06944 34.457773 
L 89.771019 37.902963 
L 93.823387 43.512332 
L 97.875756 49.606553 
L 101.928124 56.130988 
L 105.980492 63.027143 
L 111.38365 72.692975 
L 118.137597 85.314346 
L 138.399438 123.725066 
L 143.802595 133.330336 
L 147.854964 140.168748 
L 151.907332 146.625445 
L 155.9597 152.64254 
L 160.012068 158.166087 
L 162.713647 161.549608 
L 165.415226 164.678176 
L 168.116805 167.539322 
L 170.818384 170.121638 
L 173.519962 172.414832 
L 176.221541 174.409762 
L 178.92312 176.098475 
L 181.624699 177.474241 
L 184.326278 178.531574 
L 187.027856 179.26626 
L 189.729435 179.67537 
L 192.431014 179.757274 
L 195.132593 179.511644 
L 197.834172 178.939461 
L 200.535751 178.043005 
L 203.237329 176.825849 
L 205.938908 175.292845 
L 208.640487 173.450105 
L 211.342066 171.304974 
L 214.043645 168.866003 
L 216.745223 166.142915 
L 219.446802 163.146565 
L 222.148381 159.888897 
L 226.200749 154.541102 
L 230.253117 148.682738 
L 234.305486 142.366327 
L 238.357854 135.6485 
L 243.761012 126.171518 
L 249.164169 116.239293 
L 257.268906 100.834828 
L 269.42601 77.684527 
L 274.829168 67.80068 
L 280.232326 58.391394 
L 284.284694 51.736377 
L 288.337062 45.49248 
L 292.38943 39.715681 
L 296.441798 34.457773 
L 299.143377 31.264257 
L 301.844956 28.335144 
L 304.546535 25.682111 
L 307.248114 23.315734 
L 309.949693 21.245446 
L 312.651271 19.479499 
L 315.35285 18.024933 
L 318.054429 16.887547 
L 320.756008 16.071874 
L 323.457587 15.581166 
L 326.159165 15.417379 
L 326.159165 15.417379 
" clip-path="url(#p56d57a9b0f)" style="fill: none; stroke: #dd8452; stroke-linecap: round"/>
   </g>
   <g id="line2d_19">
    <path d="M 57.352073 97.592446 
L 68.158389 77.055832 
L 73.561546 67.197098 
L 78.964704 57.82254 
L 83.017072 51.199552 
L 87.06944 44.992496 
L 91.121809 39.257021 
L 95.174177 34.044549 
L 97.875756 30.883408 
L 100.577334 27.988189 
L 103.278913 25.370433 
L 105.980492 23.040575 
L 108.682071 21.007902 
L 111.38365 19.280518 
L 114.085228 17.865309 
L 116.786807 16.767915 
L 119.488386 15.992711 
L 122.189965 15.542788 
L 124.891544 15.419939 
L 127.593123 15.624653 
L 130.294701 16.156116 
L 132.99628 17.012207 
L 135.697859 18.189515 
L 138.399438 19.683346 
L 141.101017 21.487746 
L 143.802595 23.595521 
L 146.504174 25.99827 
L 149.205753 28.686414 
L 151.907332 31.649238 
L 154.608911 34.874931 
L 157.310489 38.350634 
L 161.362858 44.002391 
L 165.415226 50.134607 
L 169.467594 56.692302 
L 173.519962 63.616685 
L 178.92312 73.311896 
L 185.677067 85.956085 
L 205.938908 124.339217 
L 211.342066 133.913308 
L 215.394434 140.722208 
L 219.446802 147.144432 
L 223.49917 153.1224 
L 227.551539 158.602518 
L 230.253117 161.954887 
L 232.954696 165.050688 
L 235.656275 167.877581 
L 238.357854 170.424297 
L 241.059433 172.680684 
L 243.761012 174.637747 
L 246.46259 176.287685 
L 249.164169 177.62392 
L 251.865748 178.641127 
L 254.567327 179.33525 
L 257.268906 179.703522 
L 259.970484 179.744475 
L 262.672063 179.457946 
L 265.373642 178.845077 
L 268.075221 177.908311 
L 270.7768 176.651383 
L 273.478379 175.079302 
L 276.179957 173.198337 
L 278.881536 171.015984 
L 281.583115 168.540943 
L 284.284694 165.783081 
L 286.986273 162.753391 
L 289.687851 159.46395 
L 293.74022 154.071711 
L 297.792588 148.17311 
L 301.844956 141.821032 
L 305.897324 135.072425 
L 311.300482 125.562481 
L 318.054429 113.06697 
L 326.159165 97.592446 
L 326.159165 97.592446 
" clip-path="url(#p56d57a9b0f)" style="fill: none; stroke: #55a868; stroke-linecap: round"/>
   </g>
   <g id="line2d_20">
    <path d="M 57.352073 15.417379 
L 58.702863 15.581166 
L 60.053652 16.071874 
L 61.404442 16.887547 
L 62.755231 18.024933 
L 64.10602 19.479499 
L 65.45681 21.245446 
L 66.807599 23.315734 
L 68.158389 25.682111 
L 69.509178 28.335144 
L 72.210757 34.457773 
L 74.912336 41.586092 
L 77.613914 49.606553 
L 80.315493 58.391394 
L 84.367861 72.692975 
L 89.771019 93.054243 
L 96.524966 118.756477 
L 100.577334 133.330336 
L 103.278913 142.366327 
L 105.980492 150.689103 
L 108.682071 158.166087 
L 111.38365 164.678176 
L 112.734439 167.539322 
L 114.085228 170.121638 
L 115.436018 172.414832 
L 116.786807 174.409762 
L 118.137597 176.098475 
L 119.488386 177.474241 
L 120.839175 178.531574 
L 122.189965 179.26626 
L 123.540754 179.67537 
L 124.891544 179.757274 
L 126.242333 179.511644 
L 127.593123 178.939461 
L 128.943912 178.043005 
L 130.294701 176.825849 
L 131.645491 175.292845 
L 132.99628 173.450105 
L 134.34707 171.304974 
L 135.697859 168.866003 
L 137.048648 166.142915 
L 139.750227 159.888897 
L 142.451806 152.64254 
L 145.153385 144.519275 
L 147.854964 135.6485 
L 151.907332 121.252564 
L 157.310489 100.834828 
L 164.064437 75.177579 
L 168.116805 60.690876 
L 170.818384 51.736377 
L 173.519962 43.512332 
L 176.221541 36.149744 
L 178.92312 29.765895 
L 180.273909 26.97343 
L 181.624699 24.462474 
L 182.975488 22.243035 
L 184.326278 20.323961 
L 185.677067 18.712901 
L 187.027856 17.416279 
L 188.378646 16.439263 
L 189.729435 15.785746 
L 191.080225 15.458336 
L 192.431014 15.458336 
L 193.781803 15.785746 
L 195.132593 16.439263 
L 196.483382 17.416279 
L 197.834172 18.712901 
L 199.184961 20.323961 
L 200.535751 22.243035 
L 201.88654 24.462474 
L 203.237329 26.97343 
L 204.588119 29.765895 
L 207.289698 36.149744 
L 209.991276 43.512332 
L 212.692855 51.736377 
L 215.394434 60.690876 
L 219.446802 75.177579 
L 224.84996 95.646694 
L 231.603907 121.252564 
L 235.656275 135.6485 
L 238.357854 144.519275 
L 241.059433 152.64254 
L 243.761012 159.888897 
L 246.46259 166.142915 
L 247.81338 168.866003 
L 249.164169 171.304974 
L 250.514959 173.450105 
L 251.865748 175.292845 
L 253.216537 176.825849 
L 254.567327 178.043005 
L 255.918116 178.939461 
L 257.268906 179.511644 
L 258.619695 179.757274 
L 259.970484 179.67537 
L 261.321274 179.26626 
L 262.672063 178.531574 
L 264.022853 177.474241 
L 265.373642 176.098475 
L 266.724431 174.409762 
L 268.075221 172.414832 
L 269.42601 170.121638 
L 270.7768 167.539322 
L 272.127589 164.678176 
L 274.829168 158.166087 
L 277.530747 150.689103 
L 280.232326 142.366327 
L 282.933904 133.330336 
L 286.986273 118.756477 
L 292.38943 98.241084 
L 299.143377 72.692975 
L 303.195745 58.391394 
L 305.897324 49.606553 
L 308.598903 41.586092 
L 311.300482 34.457773 
L 314.002061 28.335144 
L 315.35285 25.682111 
L 316.70364 23.315734 
L 318.054429 21.245446 
L 319.405218 19.479499 
L 320.756008 18.024933 
L 322.106797 16.887547 
L 323.457587 16.071874 
L 324.808376 15.581166 
L 326.159165 15.417379 
L 326.159165 15.417379 
" clip-path="url(#p56d57a9b0f)" style="fill: none; stroke: #c44e52; stroke-linecap: round"/>
   </g>
   <g id="line2d_21">
    <path d="M 57.352073 97.592446 
L 64.10602 72.075606 
L 68.158389 57.82254 
L 70.859967 49.081489 
L 73.561546 41.113182 
L 76.263125 34.044549 
L 78.964704 27.988189 
L 80.315493 25.370433 
L 81.666283 23.040575 
L 83.017072 21.007902 
L 84.367861 19.280518 
L 85.718651 17.865309 
L 87.06944 16.767915 
L 88.42023 15.992711 
L 89.771019 15.542788 
L 91.121809 15.419939 
L 92.472598 15.624653 
L 93.823387 16.156116 
L 95.174177 17.012207 
L 96.524966 18.189515 
L 97.875756 19.683346 
L 99.226545 21.487746 
L 100.577334 23.595521 
L 101.928124 25.99827 
L 103.278913 28.686414 
L 105.980492 34.874931 
L 108.682071 42.062492 
L 111.38365 50.134607 
L 114.085228 58.96269 
L 118.137597 73.311896 
L 123.540754 93.702033 
L 130.294701 119.382574 
L 134.34707 133.913308 
L 137.048648 142.908833 
L 139.750227 151.182501 
L 142.451806 158.602518 
L 145.153385 165.050688 
L 146.504174 167.877581 
L 147.854964 170.424297 
L 149.205753 172.680684 
L 150.556542 174.637747 
L 151.907332 176.287685 
L 153.258121 177.62392 
L 154.608911 178.641127 
L 155.9597 179.33525 
L 157.310489 179.703522 
L 158.661279 179.744475 
L 160.012068 179.457946 
L 161.362858 178.845077 
L 162.713647 177.908311 
L 164.064437 176.651383 
L 165.415226 175.079302 
L 166.766015 173.198337 
L 168.116805 171.015984 
L 169.467594 168.540943 
L 170.818384 165.783081 
L 173.519962 159.46395 
L 176.221541 152.15925 
L 178.92312 143.985341 
L 181.624699 135.072425 
L 185.677067 120.630656 
L 191.080225 100.186594 
L 197.834172 74.554236 
L 201.88654 60.112467 
L 204.588119 51.199552 
L 207.289698 43.025642 
L 209.991276 35.720943 
L 212.692855 29.401812 
L 214.043645 26.643949 
L 215.394434 24.168909 
L 216.745223 21.986556 
L 218.096013 20.10559 
L 219.446802 18.53351 
L 220.797592 17.276581 
L 222.148381 16.339816 
L 223.49917 15.726947 
L 224.84996 15.440418 
L 226.200749 15.481371 
L 227.551539 15.849643 
L 228.902328 16.543766 
L 230.253117 17.560972 
L 231.603907 18.897208 
L 232.954696 20.547146 
L 234.305486 22.504208 
L 235.656275 24.760595 
L 237.007065 27.307311 
L 238.357854 30.134204 
L 241.059433 36.582374 
L 243.761012 44.002391 
L 246.46259 52.276059 
L 249.164169 61.271585 
L 253.216537 75.802319 
L 258.619695 96.295211 
L 265.373642 121.872997 
L 269.42601 136.222202 
L 272.127589 145.050286 
L 274.829168 153.1224 
L 277.530747 160.309962 
L 280.232326 166.498478 
L 281.583115 169.186623 
L 282.933904 171.589372 
L 284.284694 173.697147 
L 285.635483 175.501547 
L 286.986273 176.995378 
L 288.337062 178.172686 
L 289.687851 179.028777 
L 291.038641 179.560239 
L 292.38943 179.764954 
L 293.74022 179.642105 
L 295.091009 179.192181 
L 296.441798 178.416978 
L 297.792588 177.319584 
L 299.143377 175.904374 
L 300.494167 174.17699 
L 301.844956 172.144318 
L 303.195745 169.81446 
L 304.546535 167.196703 
L 305.897324 164.301484 
L 308.598903 157.725882 
L 311.300482 150.192397 
L 314.002061 141.821032 
L 316.70364 132.745138 
L 320.756008 118.129061 
L 326.159165 97.592446 
L 326.159165 97.592446 
" clip-path="url(#p56d57a9b0f)" style="fill: none; stroke: #8172b3; stroke-linecap: round"/>
   </g>
   <g id="patch_3">
    <path d="M 43.911719 187.982332 
L 43.911719 7.2 
" style="fill: none; stroke: #262626; stroke-width: 0.5; stroke-linejoin: miter; stroke-linecap: square"/>
   </g>
   <g id="patch_4">
    <path d="M 43.911719 187.982332 
L 339.59952 187.982332 
" style="fill: none; stroke: #262626; stroke-width: 0.5; stroke-linejoin: miter; stroke-linecap: square"/>
   </g>
  </g>
 </g>
 <defs>
  <clipPath id="p56d57a9b0f">
   <rect x="43.911719" y="7.2" width="295.687801" height="180.782332"/>
  </clipPath>
 </defs>
</svg>