<?xml version="1.0" encoding="utf-8" standalone="no"?>
<!DOCTYPE svg PUBLIC "-//W3C//DTD SVG 1.1//EN"
  "http://www.w3.org/Graphics/SVG/1.1/DTD/svg11.dtd">
<svg xmlns:xlink="http://www.w3.org/1999/xlink" width="454.464pt" height="339.264pt" viewBox="0 0 454.464 339.264" xmlns="http://www.w3.org/2000/svg" version="1.1">
 <metadata>
  <rdf:RDF xmlns:dc="http://purl.org/dc/elements/1.1/" xmlns:cc="http://creativecommons.org/ns#" xmlns:rdf="http://www.w3.org/1999/02/22-rdf-syntax-ns#">
   <cc:Work>
    <dc:type rdf:resource="http://purl.org/dc/dcmitype/StillImage"/>
    <dc:date>2025-05-29T17:37:17.847481</dc:date>
    <dc:format>image/svg+xml</dc:format>
    <dc:creator>
     <cc:Agent>
      <dc:title>Matplotlib v3.9.2, https://matplotlib.org/</dc:title>
     </cc:Agent>
    </dc:creator>
   </cc:Work>
  </rdf:RDF>
 </metadata>
 <defs>
  <style type="text/css">*{stroke-linejoin: round; stroke-linecap: butt}</style>
 </defs>
 <g id="figure_1">
  <g id="patch_1">
   <path d="M 0 339.264 
L 454.464 339.264 
L 454.464 0 
L 0 0 
z
" style="fill: #ffffff"/>
  </g>
  <g id="axes_1">
   <g id="patch_2">
    <path d="M 45.937625 302.936625 
L 442.370375 302.936625 
L 442.370375 7.2 
L 45.937625 7.2 
z
" style="fill: #ffffff"/>
   </g>
   <g id="matplotlib.axis_1">
    <g id="xtick_1">
     <g id="line2d_1">
      <defs>
       <path id="m2b2e97ef6c" d="M 0 0 
L 0 4.8 
" style="stroke: #262626"/>
      </defs>
      <g>
       <use xlink:href="#m2b2e97ef6c" x="72.366475" y="302.936625" style="fill: #262626; stroke: #262626"/>
      </g>
     </g>
     <g id="text_1">
      <!-- −4 -->
      <g style="fill: #262626" transform="translate(67.349788 317.5355) scale(0.088 -0.088)">
       <defs>
        <path id="ArialMT-2212" d="M 3381 1997 
L 356 1997 
L 356 2522 
L 3381 2522 
L 3381 1997 
z
" transform="scale(0.015625)"/>
        <path id="ArialMT-34" d="M 2069 0 
L 2069 1097 
L 81 1097 
L 81 1613 
L 2172 4581 
L 2631 4581 
L 2631 1613 
L 3250 1613 
L 3250 1097 
L 2631 1097 
L 2631 0 
L 2069 0 
z
M 2069 1613 
L 2069 3678 
L 634 1613 
L 2069 1613 
z
" transform="scale(0.015625)"/>
       </defs>
       <use xlink:href="#ArialMT-2212"/>
       <use xlink:href="#ArialMT-34" x="58.398438"/>
      </g>
     </g>
    </g>
    <g id="xtick_2">
     <g id="line2d_2">
      <g>
       <use xlink:href="#m2b2e97ef6c" x="125.224175" y="302.936625" style="fill: #262626; stroke: #262626"/>
      </g>
     </g>
     <g id="text_2">
      <!-- −2 -->
      <g style="fill: #262626" transform="translate(120.207488 317.5355) scale(0.088 -0.088)">
       <defs>
        <path id="ArialMT-32" d="M 3222 541 
L 3222 0 
L 194 0 
Q 188 203 259 391 
Q 375 700 629 1000 
Q 884 1300 1366 1694 
Q 2113 2306 2375 2664 
Q 2638 3022 2638 3341 
Q 2638 3675 2398 3904 
Q 2159 4134 1775 4134 
Q 1369 4134 1125 3890 
Q 881 3647 878 3216 
L 300 3275 
Q 359 3922 746 4261 
Q 1134 4600 1788 4600 
Q 2447 4600 2831 4234 
Q 3216 3869 3216 3328 
Q 3216 3053 3103 2787 
Q 2991 2522 2730 2228 
Q 2469 1934 1863 1422 
Q 1356 997 1212 845 
Q 1069 694 975 541 
L 3222 541 
z
" transform="scale(0.015625)"/>
       </defs>
       <use xlink:href="#ArialMT-2212"/>
       <use xlink:href="#ArialMT-32" x="58.398438"/>
      </g>
     </g>
    </g>
    <g id="xtick_3">
     <g id="line2d_3">
      <g>
       <use xlink:href="#m2b2e97ef6c" x="178.081875" y="302.936625" style="fill: #262626; stroke: #262626"/>
      </g>
     </g>
     <g id="text_3">
      <!-- 0 -->
      <g style="fill: #262626" transform="translate(175.635063 317.5355) scale(0.088 -0.088)">
       <defs>
        <path id="ArialMT-30" d="M 266 2259 
Q 266 3072 433 3567 
Q 600 4063 929 4331 
Q 1259 4600 1759 4600 
Q 2128 4600 2406 4451 
Q 2684 4303 2865 4023 
Q 3047 3744 3150 3342 
Q 3253 2941 3253 2259 
Q 3253 1453 3087 958 
Q 2922 463 2592 192 
Q 2263 -78 1759 -78 
Q 1097 -78 719 397 
Q 266 969 266 2259 
z
M 844 2259 
Q 844 1131 1108 757 
Q 1372 384 1759 384 
Q 2147 384 2411 759 
Q 2675 1134 2675 2259 
Q 2675 3391 2411 3762 
Q 2147 4134 1753 4134 
Q 1366 4134 1134 3806 
Q 844 3388 844 2259 
z
" transform="scale(0.015625)"/>
       </defs>
       <use xlink:href="#ArialMT-30"/>
      </g>
     </g>
    </g>
    <g id="xtick_4">
     <g id="line2d_4">
      <g>
       <use xlink:href="#m2b2e97ef6c" x="230.939575" y="302.936625" style="fill: #262626; stroke: #262626"/>
      </g>
     </g>
     <g id="text_4">
      <!-- 2 -->
      <g style="fill: #262626" transform="translate(228.492763 317.5355) scale(0.088 -0.088)">
       <use xlink:href="#ArialMT-32"/>
      </g>
     </g>
    </g>
    <g id="xtick_5">
     <g id="line2d_5">
      <g>
       <use xlink:href="#m2b2e97ef6c" x="283.797275" y="302.936625" style="fill: #262626; stroke: #262626"/>
      </g>
     </g>
     <g id="text_5">
      <!-- 4 -->
      <g style="fill: #262626" transform="translate(281.350462 317.5355) scale(0.088 -0.088)">
       <use xlink:href="#ArialMT-34"/>
      </g>
     </g>
    </g>
    <g id="xtick_6">
     <g id="line2d_6">
      <g>
       <use xlink:href="#m2b2e97ef6c" x="336.654975" y="302.936625" style="fill: #262626; stroke: #262626"/>
      </g>
     </g>
     <g id="text_6">
      <!-- 6 -->
      <g style="fill: #262626" transform="translate(334.208163 317.5355) scale(0.088 -0.088)">
       <defs>
        <path id="ArialMT-36" d="M 3184 3459 
L 2625 3416 
Q 2550 3747 2413 3897 
Q 2184 4138 1850 4138 
Q 1581 4138 1378 3988 
Q 1113 3794 959 3422 
Q 806 3050 800 2363 
Q 1003 2672 1297 2822 
Q 1591 2972 1913 2972 
Q 2475 2972 2870 2558 
Q 3266 2144 3266 1488 
Q 3266 1056 3080 686 
Q 2894 316 2569 119 
Q 2244 -78 1831 -78 
Q 1128 -78 684 439 
Q 241 956 241 2144 
Q 241 3472 731 4075 
Q 1159 4600 1884 4600 
Q 2425 4600 2770 4297 
Q 3116 3994 3184 3459 
z
M 888 1484 
Q 888 1194 1011 928 
Q 1134 663 1356 523 
Q 1578 384 1822 384 
Q 2178 384 2434 671 
Q 2691 959 2691 1453 
Q 2691 1928 2437 2201 
Q 2184 2475 1800 2475 
Q 1419 2475 1153 2201 
Q 888 1928 888 1484 
z
" transform="scale(0.015625)"/>
       </defs>
       <use xlink:href="#ArialMT-36"/>
      </g>
     </g>
    </g>
    <g id="xtick_7">
     <g id="line2d_7">
      <g>
       <use xlink:href="#m2b2e97ef6c" x="389.512675" y="302.936625" style="fill: #262626; stroke: #262626"/>
      </g>
     </g>
     <g id="text_7">
      <!-- 8 -->
      <g style="fill: #262626" transform="translate(387.065863 317.5355) scale(0.088 -0.088)">
       <defs>
        <path id="ArialMT-38" d="M 1131 2484 
Q 781 2613 612 2850 
Q 444 3088 444 3419 
Q 444 3919 803 4259 
Q 1163 4600 1759 4600 
Q 2359 4600 2725 4251 
Q 3091 3903 3091 3403 
Q 3091 3084 2923 2848 
Q 2756 2613 2416 2484 
Q 2838 2347 3058 2040 
Q 3278 1734 3278 1309 
Q 3278 722 2862 322 
Q 2447 -78 1769 -78 
Q 1091 -78 675 323 
Q 259 725 259 1325 
Q 259 1772 486 2073 
Q 713 2375 1131 2484 
z
M 1019 3438 
Q 1019 3113 1228 2906 
Q 1438 2700 1772 2700 
Q 2097 2700 2305 2904 
Q 2513 3109 2513 3406 
Q 2513 3716 2298 3927 
Q 2084 4138 1766 4138 
Q 1444 4138 1231 3931 
Q 1019 3725 1019 3438 
z
M 838 1322 
Q 838 1081 952 856 
Q 1066 631 1291 507 
Q 1516 384 1775 384 
Q 2178 384 2440 643 
Q 2703 903 2703 1303 
Q 2703 1709 2433 1975 
Q 2163 2241 1756 2241 
Q 1359 2241 1098 1978 
Q 838 1716 838 1322 
z
" transform="scale(0.015625)"/>
       </defs>
       <use xlink:href="#ArialMT-38"/>
      </g>
     </g>
    </g>
    <g id="xtick_8">
     <g id="line2d_8">
      <g>
       <use xlink:href="#m2b2e97ef6c" x="442.370375" y="302.936625" style="fill: #262626; stroke: #262626"/>
      </g>
     </g>
     <g id="text_8">
      <!-- 10 -->
      <g style="fill: #262626" transform="translate(437.47675 317.5355) scale(0.088 -0.088)">
       <defs>
        <path id="ArialMT-31" d="M 2384 0 
L 1822 0 
L 1822 3584 
Q 1619 3391 1289 3197 
Q 959 3003 697 2906 
L 697 3450 
Q 1169 3672 1522 3987 
Q 1875 4303 2022 4600 
L 2384 4600 
L 2384 0 
z
" transform="scale(0.015625)"/>
       </defs>
       <use xlink:href="#ArialMT-31"/>
       <use xlink:href="#ArialMT-30" x="55.615234"/>
      </g>
     </g>
    </g>
    <g id="text_9">
     <!-- $x$ -->
     <g style="fill: #262626" transform="translate(241.274 330.156) scale(0.096 -0.096)">
      <defs>
       <path id="DejaVuSans-Oblique-78" d="M 3841 3500 
L 2234 1784 
L 3219 0 
L 2559 0 
L 1819 1388 
L 531 0 
L -166 0 
L 1556 1844 
L 641 3500 
L 1300 3500 
L 1972 2234 
L 3144 3500 
L 3841 3500 
z
" transform="scale(0.015625)"/>
      </defs>
      <use xlink:href="#DejaVuSans-Oblique-78" transform="translate(0 0.3125)"/>
     </g>
    </g>
   </g>
   <g id="matplotlib.axis_2">
    <g id="ytick_1">
     <g id="line2d_9">
      <defs>
       <path id="me544025b74" d="M 0 0 
L -4.8 0 
" style="stroke: #262626"/>
      </defs>
      <g>
       <use xlink:href="#me544025b74" x="45.937625" y="289.494051" style="fill: #262626; stroke: #262626"/>
      </g>
     </g>
     <g id="text_10">
      <!-- 0.00 -->
      <g style="fill: #262626" transform="translate(20.512 292.643489) scale(0.088 -0.088)">
       <defs>
        <path id="ArialMT-2e" d="M 581 0 
L 581 641 
L 1222 641 
L 1222 0 
L 581 0 
z
" transform="scale(0.015625)"/>
       </defs>
       <use xlink:href="#ArialMT-30"/>
       <use xlink:href="#ArialMT-2e" x="55.615234"/>
       <use xlink:href="#ArialMT-30" x="83.398438"/>
       <use xlink:href="#ArialMT-30" x="139.013672"/>
      </g>
     </g>
    </g>
    <g id="ytick_2">
     <g id="line2d_10">
      <g>
       <use xlink:href="#me544025b74" x="45.937625" y="241.590192" style="fill: #262626; stroke: #262626"/>
      </g>
     </g>
     <g id="text_11">
      <!-- 0.05 -->
      <g style="fill: #262626" transform="translate(20.512 244.739629) scale(0.088 -0.088)">
       <defs>
        <path id="ArialMT-35" d="M 266 1200 
L 856 1250 
Q 922 819 1161 601 
Q 1400 384 1738 384 
Q 2144 384 2425 690 
Q 2706 997 2706 1503 
Q 2706 1984 2436 2262 
Q 2166 2541 1728 2541 
Q 1456 2541 1237 2417 
Q 1019 2294 894 2097 
L 366 2166 
L 809 4519 
L 3088 4519 
L 3088 3981 
L 1259 3981 
L 1013 2750 
Q 1425 3038 1878 3038 
Q 2478 3038 2890 2622 
Q 3303 2206 3303 1553 
Q 3303 931 2941 478 
Q 2500 -78 1738 -78 
Q 1113 -78 717 272 
Q 322 622 266 1200 
z
" transform="scale(0.015625)"/>
       </defs>
       <use xlink:href="#ArialMT-30"/>
       <use xlink:href="#ArialMT-2e" x="55.615234"/>
       <use xlink:href="#ArialMT-30" x="83.398438"/>
       <use xlink:href="#ArialMT-35" x="139.013672"/>
      </g>
     </g>
    </g>
    <g id="ytick_3">
     <g id="line2d_11">
      <g>
       <use xlink:href="#me544025b74" x="45.937625" y="193.686332" style="fill: #262626; stroke: #262626"/>
      </g>
     </g>
     <g id="text_12">
      <!-- 0.10 -->
      <g style="fill: #262626" transform="translate(20.512 196.83577) scale(0.088 -0.088)">
       <use xlink:href="#ArialMT-30"/>
       <use xlink:href="#ArialMT-2e" x="55.615234"/>
       <use xlink:href="#ArialMT-31" x="83.398438"/>
       <use xlink:href="#ArialMT-30" x="139.013672"/>
      </g>
     </g>
    </g>
    <g id="ytick_4">
     <g id="line2d_12">
      <g>
       <use xlink:href="#me544025b74" x="45.937625" y="145.782473" style="fill: #262626; stroke: #262626"/>
      </g>
     </g>
     <g id="text_13">
      <!-- 0.15 -->
      <g style="fill: #262626" transform="translate(20.512 148.931911) scale(0.088 -0.088)">
       <use xlink:href="#ArialMT-30"/>
       <use xlink:href="#ArialMT-2e" x="55.615234"/>
       <use xlink:href="#ArialMT-31" x="83.398438"/>
       <use xlink:href="#ArialMT-35" x="139.013672"/>
      </g>
     </g>
    </g>
    <g id="ytick_5">
     <g id="line2d_13">
      <g>
       <use xlink:href="#me544025b74" x="45.937625" y="97.878614" style="fill: #262626; stroke: #262626"/>
      </g>
     </g>
     <g id="text_14">
      <!-- 0.20 -->
      <g style="fill: #262626" transform="translate(20.512 101.028051) scale(0.088 -0.088)">
       <use xlink:href="#ArialMT-30"/>
       <use xlink:href="#ArialMT-2e" x="55.615234"/>
       <use xlink:href="#ArialMT-32" x="83.398438"/>
       <use xlink:href="#ArialMT-30" x="139.013672"/>
      </g>
     </g>
    </g>
    <g id="ytick_6">
     <g id="line2d_14">
      <g>
       <use xlink:href="#me544025b74" x="45.937625" y="49.974754" style="fill: #262626; stroke: #262626"/>
      </g>
     </g>
     <g id="text_15">
      <!-- 0.25 -->
      <g style="fill: #262626" transform="translate(20.512 53.124192) scale(0.088 -0.088)">
       <use xlink:href="#ArialMT-30"/>
       <use xlink:href="#ArialMT-2e" x="55.615234"/>
       <use xlink:href="#ArialMT-32" x="83.398438"/>
       <use xlink:href="#ArialMT-35" x="139.013672"/>
      </g>
     </g>
    </g>
    <g id="text_16">
     <!-- $p(x)$ -->
     <g style="fill: #262626" transform="translate(14.496 164.716312) rotate(-90) scale(0.096 -0.096)">
      <defs>
       <path id="DejaVuSans-Oblique-70" d="M 3175 2156 
Q 3175 2616 2975 2859 
Q 2775 3103 2400 3103 
Q 2144 3103 1911 2972 
Q 1678 2841 1497 2591 
Q 1319 2344 1212 1994 
Q 1106 1644 1106 1300 
Q 1106 863 1306 627 
Q 1506 391 1875 391 
Q 2147 391 2380 519 
Q 2613 647 2778 891 
Q 2956 1147 3065 1494 
Q 3175 1841 3175 2156 
z
M 1394 2969 
Q 1625 3272 1939 3428 
Q 2253 3584 2638 3584 
Q 3175 3584 3472 3232 
Q 3769 2881 3769 2247 
Q 3769 1728 3584 1258 
Q 3400 788 3053 416 
Q 2822 169 2531 39 
Q 2241 -91 1919 -91 
Q 1547 -91 1294 64 
Q 1041 219 916 525 
L 556 -1331 
L -19 -1331 
L 922 3500 
L 1497 3500 
L 1394 2969 
z
" transform="scale(0.015625)"/>
       <path id="DejaVuSans-28" d="M 1984 4856 
Q 1566 4138 1362 3434 
Q 1159 2731 1159 2009 
Q 1159 1288 1364 580 
Q 1569 -128 1984 -844 
L 1484 -844 
Q 1016 -109 783 600 
Q 550 1309 550 2009 
Q 550 2706 781 3412 
Q 1013 4119 1484 4856 
L 1984 4856 
z
" transform="scale(0.015625)"/>
       <path id="DejaVuSans-29" d="M 513 4856 
L 1013 4856 
Q 1481 4119 1714 3412 
Q 1947 2706 1947 2009 
Q 1947 1309 1714 600 
Q 1481 -109 1013 -844 
L 513 -844 
Q 928 -128 1133 580 
Q 1338 1288 1338 2009 
Q 1338 2731 1133 3434 
Q 928 4138 513 4856 
z
" transform="scale(0.015625)"/>
      </defs>
      <use xlink:href="#DejaVuSans-Oblique-70" transform="translate(0 0.125)"/>
      <use xlink:href="#DejaVuSans-28" transform="translate(63.476562 0.125)"/>
      <use xlink:href="#DejaVuSans-Oblique-78" transform="translate(102.490234 0.125)"/>
      <use xlink:href="#DejaVuSans-29" transform="translate(161.669922 0.125)"/>
     </g>
    </g>
   </g>
   <g id="PolyCollection_1">
    <defs>
     <path id="m1532ac1f7b" d="M 45.937625 -49.770376 
L 45.937625 -49.769949 
L 47.929749 -49.769949 
L 49.921874 -49.769949 
L 51.913998 -49.769949 
L 53.906122 -49.769949 
L 55.898247 -49.769949 
L 57.890371 -49.769949 
L 59.882496 -49.769949 
L 61.87462 -49.769949 
L 63.866744 -49.769949 
L 65.858869 -49.769949 
L 67.850993 -49.769949 
L 69.843117 -49.769949 
L 71.835242 -49.769949 
L 73.827366 -49.769949 
L 75.819491 -49.769949 
L 77.811615 -49.769949 
L 79.803739 -49.769949 
L 81.795864 -49.769949 
L 83.787988 -49.769949 
L 85.780112 -49.769949 
L 87.772237 -49.769949 
L 89.764361 -49.769949 
L 91.756486 -49.769949 
L 93.74861 -49.769949 
L 95.740734 -49.769949 
L 97.732859 -49.769949 
L 99.724983 -49.769949 
L 101.717107 -49.769949 
L 103.709232 -49.769949 
L 105.701356 -49.769949 
L 107.693481 -49.769949 
L 109.685605 -49.769949 
L 111.677729 -49.769949 
L 113.669854 -49.769949 
L 115.661978 -49.769949 
L 117.654102 -49.769949 
L 119.646227 -49.769949 
L 121.638351 -49.769949 
L 123.630476 -49.769949 
L 125.6226 -49.769949 
L 127.614724 -49.769949 
L 129.606849 -49.769949 
L 131.598973 -49.769949 
L 133.591097 -49.769949 
L 135.583222 -49.769949 
L 137.575346 -49.769949 
L 139.56747 -49.769949 
L 141.559595 -49.769949 
L 143.551719 -49.769949 
L 145.543844 -49.769949 
L 147.535968 -49.769949 
L 149.528092 -49.769949 
L 151.520217 -49.769949 
L 153.512341 -49.769949 
L 155.504465 -49.769949 
L 157.49659 -49.769949 
L 159.488714 -49.769949 
L 161.480839 -49.769949 
L 163.472963 -49.769949 
L 165.465087 -49.769949 
L 167.457212 -49.769949 
L 169.449336 -49.769949 
L 171.44146 -49.769949 
L 173.433585 -49.769949 
L 175.425709 -49.769949 
L 177.417834 -49.769949 
L 179.409958 -49.769949 
L 181.402082 -49.769949 
L 183.394207 -49.769949 
L 185.386331 -49.769949 
L 187.378455 -49.769949 
L 189.37058 -49.769949 
L 191.362704 -49.769949 
L 193.354829 -49.769949 
L 195.346953 -49.769949 
L 197.339077 -49.769949 
L 199.331202 -49.769949 
L 201.323326 -49.769949 
L 203.31545 -49.769949 
L 205.307575 -49.769949 
L 207.299699 -49.769949 
L 209.291823 -49.769949 
L 211.283948 -49.769949 
L 213.276072 -49.769949 
L 215.268197 -49.769949 
L 217.260321 -49.769949 
L 219.252445 -49.769949 
L 221.24457 -49.769949 
L 223.236694 -49.769949 
L 225.228818 -49.769949 
L 227.220943 -49.769949 
L 229.213067 -49.769949 
L 231.205192 -49.769949 
L 233.197316 -49.769949 
L 235.18944 -49.769949 
L 237.181565 -49.769949 
L 239.173689 -49.769949 
L 241.165813 -49.769949 
L 243.157938 -49.769949 
L 245.150062 -49.769949 
L 247.142187 -49.769949 
L 249.134311 -49.769949 
L 251.126435 -49.769949 
L 253.11856 -49.769949 
L 255.110684 -49.769949 
L 257.102808 -49.769949 
L 259.094933 -49.769949 
L 261.087057 -49.769949 
L 263.079182 -49.769949 
L 265.071306 -49.769949 
L 267.06343 -49.769949 
L 269.055555 -49.769949 
L 271.047679 -49.769949 
L 273.039803 -49.769949 
L 275.031928 -49.769949 
L 277.024052 -49.769949 
L 279.016177 -49.769949 
L 281.008301 -49.769949 
L 283.000425 -49.769949 
L 284.99255 -49.769949 
L 286.984674 -49.769949 
L 288.976798 -49.769949 
L 290.968923 -49.769949 
L 292.961047 -49.769949 
L 294.953171 -49.769949 
L 296.945296 -49.769949 
L 298.93742 -49.769949 
L 300.929545 -49.769949 
L 302.921669 -49.769949 
L 304.913793 -49.769949 
L 306.905918 -49.769949 
L 308.898042 -49.769949 
L 310.890166 -49.769949 
L 312.882291 -49.769949 
L 314.874415 -49.769949 
L 316.86654 -49.769949 
L 318.858664 -49.769949 
L 320.850788 -49.769949 
L 322.842913 -49.769949 
L 324.835037 -49.769949 
L 326.827161 -49.769949 
L 328.819286 -49.769949 
L 330.81141 -49.769949 
L 332.803535 -49.769949 
L 334.795659 -49.769949 
L 336.787783 -49.769949 
L 338.779908 -49.769949 
L 340.772032 -49.769949 
L 342.764156 -49.769949 
L 344.756281 -49.769949 
L 346.748405 -49.769949 
L 348.74053 -49.769949 
L 350.732654 -49.769949 
L 352.724778 -49.769949 
L 354.716903 -49.769949 
L 356.709027 -49.769949 
L 358.701151 -49.769949 
L 360.693276 -49.769949 
L 362.6854 -49.769949 
L 364.677524 -49.769949 
L 366.669649 -49.769949 
L 368.661773 -49.769949 
L 370.653898 -49.769949 
L 372.646022 -49.769949 
L 374.638146 -49.769949 
L 376.630271 -49.769949 
L 378.622395 -49.769949 
L 380.614519 -49.769949 
L 382.606644 -49.769949 
L 384.598768 -49.769949 
L 386.590893 -49.769949 
L 388.583017 -49.769949 
L 390.575141 -49.769949 
L 392.567266 -49.769949 
L 394.55939 -49.769949 
L 396.551514 -49.769949 
L 398.543639 -49.769949 
L 400.535763 -49.769949 
L 402.527888 -49.769949 
L 404.520012 -49.769949 
L 406.512136 -49.769949 
L 408.504261 -49.769949 
L 410.496385 -49.769949 
L 412.488509 -49.769949 
L 414.480634 -49.769949 
L 416.472758 -49.769949 
L 418.464883 -49.769949 
L 420.457007 -49.769949 
L 422.449131 -49.769949 
L 424.441256 -49.769949 
L 426.43338 -49.769949 
L 428.425504 -49.769949 
L 430.417629 -49.769949 
L 432.409753 -49.769949 
L 434.401878 -49.769949 
L 436.394002 -49.769949 
L 438.386126 -49.769949 
L 440.378251 -49.769949 
L 442.370375 -49.769949 
L 442.370375 -49.769949 
L 442.370375 -49.769949 
L 440.378251 -49.769949 
L 438.386126 -49.769949 
L 436.394002 -49.769949 
L 434.401878 -49.769949 
L 432.409753 -49.769949 
L 430.417629 -49.769949 
L 428.425504 -49.769949 
L 426.43338 -49.769949 
L 424.441256 -49.769949 
L 422.449131 -49.76995 
L 420.457007 -49.76995 
L 418.464883 -49.769951 
L 416.472758 -49.769952 
L 414.480634 -49.769955 
L 412.488509 -49.769958 
L 410.496385 -49.769963 
L 408.504261 -49.76997 
L 406.512136 -49.769981 
L 404.520012 -49.769998 
L 402.527888 -49.770024 
L 400.535763 -49.770062 
L 398.543639 -49.770119 
L 396.551514 -49.770203 
L 394.55939 -49.770326 
L 392.567266 -49.770505 
L 390.575141 -49.770764 
L 388.583017 -49.771137 
L 386.590893 -49.771671 
L 384.598768 -49.772432 
L 382.606644 -49.773508 
L 380.614519 -49.775021 
L 378.622395 -49.777137 
L 376.630271 -49.780078 
L 374.638146 -49.784142 
L 372.646022 -49.789723 
L 370.653898 -49.797343 
L 368.661773 -49.807683 
L 366.669649 -49.821633 
L 364.677524 -49.840338 
L 362.6854 -49.865271 
L 360.693276 -49.898302 
L 358.701151 -49.941801 
L 356.709027 -49.998739 
L 354.716903 -50.072815 
L 352.724778 -50.168603 
L 350.732654 -50.291713 
L 348.74053 -50.448972 
L 346.748405 -50.648623 
L 344.756281 -50.900535 
L 342.764156 -51.216426 
L 340.772032 -51.610095 
L 338.779908 -52.09764 
L 336.787783 -52.697679 
L 334.795659 -53.431534 
L 332.803535 -54.32339 
L 330.81141 -55.400395 
L 328.819286 -56.692696 
L 326.827161 -58.233382 
L 324.835037 -60.058334 
L 322.842913 -62.205939 
L 320.850788 -64.716675 
L 318.858664 -67.632535 
L 316.86654 -70.996292 
L 314.874415 -74.850589 
L 312.882291 -79.236866 
L 310.890166 -84.194118 
L 308.898042 -89.757513 
L 306.905918 -95.956892 
L 304.913793 -102.815181 
L 302.921669 -110.346765 
L 300.929545 -118.55588 
L 298.93742 -127.435072 
L 296.945296 -136.963803 
L 294.953171 -147.107268 
L 292.961047 -157.815493 
L 290.968923 -169.022777 
L 288.976798 -180.647553 
L 286.984674 -192.592702 
L 284.99255 -204.746369 
L 283.000425 -216.983297 
L 281.008301 -229.16668 
L 279.016177 -241.150516 
L 277.024052 -252.782421 
L 275.031928 -263.906831 
L 273.039803 -274.36852 
L 271.047679 -284.016324 
L 269.055555 -292.706957 
L 267.06343 -300.30879 
L 265.071306 -306.705467 
L 263.079182 -311.799225 
L 261.087057 -315.513798 
L 259.094933 -317.796788 
L 257.102808 -318.621426 
L 255.110684 -317.987629 
L 253.11856 -315.922334 
L 251.126435 -312.479074 
L 249.134311 -307.736818 
L 247.142187 -301.798096 
L 245.150062 -294.786503 
L 243.157938 -286.843634 
L 241.165813 -278.125577 
L 239.173689 -268.799071 
L 237.181565 -259.037459 
L 235.18944 -249.016557 
L 233.197316 -238.910566 
L 231.205192 -228.888152 
L 229.213067 -219.108781 
L 227.220943 -209.719421 
L 225.228818 -200.851671 
L 223.236694 -192.61938 
L 221.24457 -185.116792 
L 219.252445 -178.417235 
L 217.260321 -172.572371 
L 215.268197 -167.611975 
L 213.276072 -163.544237 
L 211.283948 -160.356548 
L 209.291823 -158.016725 
L 207.299699 -156.47462 
L 205.307575 -155.664076 
L 203.31545 -155.505153 
L 201.323326 -155.906572 
L 199.331202 -156.768317 
L 197.339077 -157.984331 
L 195.346953 -159.44524 
L 193.354829 -161.041053 
L 191.362704 -162.663773 
L 189.37058 -164.209855 
L 187.378455 -165.582479 
L 185.386331 -166.693568 
L 183.394207 -167.465514 
L 181.402082 -167.832591 
L 179.409958 -167.742004 
L 177.417834 -167.154575 
L 175.425709 -166.04505 
L 173.433585 -164.402037 
L 171.44146 -162.227576 
L 169.449336 -159.536383 
L 167.457212 -156.354793 
L 165.465087 -152.719443 
L 163.472963 -148.675757 
L 161.480839 -144.276271 
L 159.488714 -139.578883 
L 157.49659 -134.64505 
L 155.504465 -129.538029 
L 153.512341 -124.321183 
L 151.520217 -119.05642 
L 149.528092 -113.802796 
L 147.535968 -108.615309 
L 145.543844 -103.543922 
L 143.551719 -98.632808 
L 141.559595 -93.919833 
L 139.56747 -89.436267 
L 137.575346 -85.206706 
L 135.583222 -81.249198 
L 133.591097 -77.575524 
L 131.598973 -74.191631 
L 129.606849 -71.098174 
L 127.614724 -68.29113 
L 125.6226 -65.762473 
L 123.630476 -63.500859 
L 121.638351 -61.492315 
L 119.646227 -59.720903 
L 117.654102 -58.169331 
L 115.661978 -56.819527 
L 113.669854 -55.653124 
L 111.677729 -54.6519 
L 109.685605 -53.798118 
L 107.693481 -53.074822 
L 105.701356 -52.46604 
L 103.709232 -51.95694 
L 101.717107 -51.533922 
L 99.724983 -51.184666 
L 97.732859 -50.898132 
L 95.740734 -50.664536 
L 93.74861 -50.475287 
L 91.756486 -50.322924 
L 89.764361 -50.201017 
L 87.772237 -50.104081 
L 85.780112 -50.027476 
L 83.787988 -49.96731 
L 81.795864 -49.920343 
L 79.803739 -49.883904 
L 77.811615 -49.855805 
L 75.819491 -49.834268 
L 73.827366 -49.81786 
L 71.835242 -49.805436 
L 69.843117 -49.796085 
L 67.850993 -49.789088 
L 65.858869 -49.783886 
L 63.866744 -49.78004 
L 61.87462 -49.777214 
L 59.882496 -49.775149 
L 57.890371 -49.773651 
L 55.898247 -49.772569 
L 53.906122 -49.771793 
L 51.913998 -49.771239 
L 49.921874 -49.770847 
L 47.929749 -49.77057 
L 45.937625 -49.770376 
z
" style="stroke: #0000ff; stroke-opacity: 0.5; stroke-width: 0.8"/>
    </defs>
    <g clip-path="url(#pd229b49dd0)">
     <use xlink:href="#m1532ac1f7b" x="0" y="339.264" style="fill: #0000ff; fill-opacity: 0.5; stroke: #0000ff; stroke-opacity: 0.5; stroke-width: 0.8"/>
    </g>
   </g>
   <g id="line2d_15">
    <path d="M 45.937625 289.493624 
L 79.803739 289.380096 
L 87.772237 289.159919 
L 93.74861 288.788713 
L 97.732859 288.365868 
L 101.717107 287.730078 
L 105.701356 286.79796 
L 109.685605 285.465882 
L 111.677729 284.6121 
L 113.669854 283.610876 
L 115.661978 282.444473 
L 117.654102 281.094669 
L 119.646227 279.543097 
L 121.638351 277.771685 
L 123.630476 275.763141 
L 125.6226 273.501527 
L 127.614724 270.97287 
L 129.606849 268.165826 
L 131.598973 265.072369 
L 133.591097 261.688476 
L 135.583222 258.014802 
L 137.575346 254.057294 
L 141.559595 245.344167 
L 145.543844 235.720078 
L 151.520217 220.20758 
L 157.49659 204.61895 
L 161.480839 194.987729 
L 163.472963 190.588243 
L 165.465087 186.544557 
L 167.457212 182.909207 
L 169.449336 179.727617 
L 171.44146 177.036424 
L 173.433585 174.861963 
L 175.425709 173.21895 
L 177.417834 172.109425 
L 179.409958 171.521996 
L 181.402082 171.431409 
L 183.394207 171.798486 
L 185.386331 172.570432 
L 187.378455 173.681521 
L 189.37058 175.054145 
L 197.339077 181.279669 
L 199.331202 182.495683 
L 201.323326 183.357428 
L 203.31545 183.758847 
L 205.307575 183.599924 
L 207.299699 182.78938 
L 209.291823 181.247275 
L 211.283948 178.907452 
L 213.276072 175.719763 
L 215.268197 171.652025 
L 217.260321 166.691629 
L 219.252445 160.846765 
L 221.24457 154.147208 
L 223.236694 146.64462 
L 225.228818 138.412329 
L 227.220943 129.544579 
L 231.205192 110.375848 
L 239.173689 70.464929 
L 241.165813 61.138423 
L 243.157938 52.420366 
L 245.150062 44.477497 
L 247.142187 37.465904 
L 249.134311 31.527182 
L 251.126435 26.784926 
L 253.11856 23.341666 
L 255.110684 21.276371 
L 257.102808 20.642574 
L 259.094933 21.467212 
L 261.087057 23.750202 
L 263.079182 27.464775 
L 265.071306 32.558533 
L 267.06343 38.95521 
L 269.055555 46.557043 
L 271.047679 55.247676 
L 273.039803 64.89548 
L 275.031928 75.357169 
L 279.016177 98.113484 
L 292.961047 181.448507 
L 296.945296 202.300197 
L 298.93742 211.828928 
L 300.929545 220.70812 
L 302.921669 228.917235 
L 304.913793 236.448819 
L 306.905918 243.307108 
L 308.898042 249.506487 
L 310.890166 255.069882 
L 312.882291 260.027134 
L 314.874415 264.413411 
L 316.86654 268.267708 
L 318.858664 271.631465 
L 320.850788 274.547325 
L 322.842913 277.058061 
L 324.835037 279.205666 
L 326.827161 281.030618 
L 328.819286 282.571304 
L 330.81141 283.863605 
L 332.803535 284.94061 
L 334.795659 285.832466 
L 336.787783 286.566321 
L 340.772032 287.653905 
L 344.756281 288.363465 
L 348.74053 288.815028 
L 354.716903 289.191185 
L 362.6854 289.398729 
L 376.630271 289.483922 
L 442.370375 289.494051 
L 442.370375 289.494051 
" clip-path="url(#pd229b49dd0)" style="fill: none; stroke: #4c72b0; stroke-width: 1.2; stroke-linecap: round"/>
   </g>
   <g id="line2d_16">
    <defs>
     <path id="mf4c5d3f77e" d="M 0 2.4 
C 0.636487 2.4 1.246992 2.147121 1.697056 1.697056 
C 2.147121 1.246992 2.4 0.636487 2.4 0 
C 2.4 -0.636487 2.147121 -1.246992 1.697056 -1.697056 
C 1.246992 -2.147121 0.636487 -2.4 0 -2.4 
C -0.636487 -2.4 -1.246992 -2.147121 -1.697056 -1.697056 
C -2.147121 -1.246992 -2.4 -0.636487 -2.4 0 
C -2.4 0.636487 -2.147121 1.246992 -1.697056 1.697056 
C -1.246992 2.147121 -0.636487 2.4 0 2.4 
z
" style="stroke: #ff0000"/>
    </defs>
    <g clip-path="url(#pd229b49dd0)">
     <use xlink:href="#mf4c5d3f77e" x="233.58246" y="289.494051" style="fill: #ff0000; stroke: #ff0000"/>
    </g>
   </g>
   <g id="patch_3">
    <path d="M 45.937625 302.936625 
L 45.937625 7.2 
" style="fill: none; stroke: #262626; stroke-linejoin: miter; stroke-linecap: square"/>
   </g>
   <g id="patch_4">
    <path d="M 442.370375 302.936625 
L 442.370375 7.2 
" style="fill: none; stroke: #262626; stroke-linejoin: miter; stroke-linecap: square"/>
   </g>
   <g id="patch_5">
    <path d="M 45.937625 302.936625 
L 442.370375 302.936625 
" style="fill: none; stroke: #262626; stroke-linejoin: miter; stroke-linecap: square"/>
   </g>
   <g id="patch_6">
    <path d="M 45.937625 7.2 
L 442.370375 7.2 
" style="fill: none; stroke: #262626; stroke-linejoin: miter; stroke-linecap: square"/>
   </g>
   <g id="legend_1">
    <g id="line2d_17">
     <path d="M 372.938375 18.338875 
L 381.738375 18.338875 
L 390.538375 18.338875 
" style="fill: none; stroke: #4c72b0; stroke-width: 1.2; stroke-linecap: round"/>
    </g>
    <g id="text_17">
     <!-- PMF of $X$ -->
     <g style="fill: #262626" transform="translate(397.578375 21.418875) scale(0.088 -0.088)">
      <defs>
       <path id="ArialMT-50" d="M 494 0 
L 494 4581 
L 2222 4581 
Q 2678 4581 2919 4538 
Q 3256 4481 3484 4323 
Q 3713 4166 3852 3881 
Q 3991 3597 3991 3256 
Q 3991 2672 3619 2267 
Q 3247 1863 2275 1863 
L 1100 1863 
L 1100 0 
L 494 0 
z
M 1100 2403 
L 2284 2403 
Q 2872 2403 3119 2622 
Q 3366 2841 3366 3238 
Q 3366 3525 3220 3729 
Q 3075 3934 2838 4000 
Q 2684 4041 2272 4041 
L 1100 4041 
L 1100 2403 
z
" transform="scale(0.015625)"/>
       <path id="ArialMT-4d" d="M 475 0 
L 475 4581 
L 1388 4581 
L 2472 1338 
Q 2622 884 2691 659 
Q 2769 909 2934 1394 
L 4031 4581 
L 4847 4581 
L 4847 0 
L 4263 0 
L 4263 3834 
L 2931 0 
L 2384 0 
L 1059 3900 
L 1059 0 
L 475 0 
z
" transform="scale(0.015625)"/>
       <path id="ArialMT-46" d="M 525 0 
L 525 4581 
L 3616 4581 
L 3616 4041 
L 1131 4041 
L 1131 2622 
L 3281 2622 
L 3281 2081 
L 1131 2081 
L 1131 0 
L 525 0 
z
" transform="scale(0.015625)"/>
       <path id="ArialMT-20" transform="scale(0.015625)"/>
       <path id="ArialMT-6f" d="M 213 1659 
Q 213 2581 725 3025 
Q 1153 3394 1769 3394 
Q 2453 3394 2887 2945 
Q 3322 2497 3322 1706 
Q 3322 1066 3130 698 
Q 2938 331 2570 128 
Q 2203 -75 1769 -75 
Q 1072 -75 642 372 
Q 213 819 213 1659 
z
M 791 1659 
Q 791 1022 1069 705 
Q 1347 388 1769 388 
Q 2188 388 2466 706 
Q 2744 1025 2744 1678 
Q 2744 2294 2464 2611 
Q 2184 2928 1769 2928 
Q 1347 2928 1069 2612 
Q 791 2297 791 1659 
z
" transform="scale(0.015625)"/>
       <path id="ArialMT-66" d="M 556 0 
L 556 2881 
L 59 2881 
L 59 3319 
L 556 3319 
L 556 3672 
Q 556 4006 616 4169 
Q 697 4388 901 4523 
Q 1106 4659 1475 4659 
Q 1713 4659 2000 4603 
L 1916 4113 
Q 1741 4144 1584 4144 
Q 1328 4144 1222 4034 
Q 1116 3925 1116 3625 
L 1116 3319 
L 1763 3319 
L 1763 2881 
L 1116 2881 
L 1116 0 
L 556 0 
z
" transform="scale(0.015625)"/>
       <path id="DejaVuSans-Oblique-58" d="M 878 4666 
L 1516 4666 
L 2316 2981 
L 3763 4666 
L 4500 4666 
L 2578 2438 
L 3738 0 
L 3103 0 
L 2163 1966 
L 459 0 
L -275 0 
L 1906 2509 
L 878 4666 
z
" transform="scale(0.015625)"/>
      </defs>
      <use xlink:href="#ArialMT-50" transform="translate(0 0.09375)"/>
      <use xlink:href="#ArialMT-4d" transform="translate(66.699219 0.09375)"/>
      <use xlink:href="#ArialMT-46" transform="translate(150 0.09375)"/>
      <use xlink:href="#ArialMT-20" transform="translate(211.083984 0.09375)"/>
      <use xlink:href="#ArialMT-6f" transform="translate(238.867188 0.09375)"/>
      <use xlink:href="#ArialMT-66" transform="translate(294.482422 0.09375)"/>
      <use xlink:href="#ArialMT-20" transform="translate(322.265625 0.09375)"/>
      <use xlink:href="#DejaVuSans-Oblique-58" transform="translate(350.048828 0.09375)"/>
     </g>
    </g>
    <g id="line2d_18">
     <g>
      <use xlink:href="#mf4c5d3f77e" x="381.738375" y="30.78675" style="fill: #ff0000; stroke: #ff0000"/>
     </g>
    </g>
    <g id="text_18">
     <!-- $\mathbb{E}[X]$ -->
     <g style="fill: #262626" transform="translate(397.578375 33.86675) scale(0.088 -0.088)">
      <defs>
       <path id="STIXNonUnicode-Italic-e156" d="M 4250 4179 
L 4192 3942 
L 2150 3942 
L 1709 2266 
L 3514 2266 
L 3443 2029 
L 1645 2029 
L 1165 237 
L 3443 237 
L 3392 0 
L 109 0 
L 1229 4179 
L 4250 4179 
z
M 1914 3942 
L 1414 3942 
L 416 237 
L 928 237 
L 1914 3942 
z
" transform="scale(0.015625)"/>
       <path id="DejaVuSans-5b" d="M 550 4863 
L 1875 4863 
L 1875 4416 
L 1125 4416 
L 1125 -397 
L 1875 -397 
L 1875 -844 
L 550 -844 
L 550 4863 
z
" transform="scale(0.015625)"/>
       <path id="DejaVuSans-5d" d="M 1947 4863 
L 1947 -844 
L 622 -844 
L 622 -397 
L 1369 -397 
L 1369 4416 
L 622 4416 
L 622 4863 
L 1947 4863 
z
" transform="scale(0.015625)"/>
      </defs>
      <use xlink:href="#STIXNonUnicode-Italic-e156" transform="translate(0 0.015625)"/>
      <use xlink:href="#DejaVuSans-5b" transform="translate(63.899994 0.015625)"/>
      <use xlink:href="#DejaVuSans-Oblique-58" transform="translate(102.913666 0.015625)"/>
      <use xlink:href="#DejaVuSans-5d" transform="translate(171.419525 0.015625)"/>
     </g>
    </g>
   </g>
  </g>
 </g>
 <defs>
  <clipPath id="pd229b49dd0">
   <rect x="45.937625" y="7.2" width="396.43275" height="295.736625"/>
  </clipPath>
 </defs>
</svg>