<?xml version="1.0" encoding="utf-8" standalone="no"?>
<!DOCTYPE svg PUBLIC "-//W3C//DTD SVG 1.1//EN"
  "http://www.w3.org/Graphics/SVG/1.1/DTD/svg11.dtd">
<svg xmlns:xlink="http://www.w3.org/1999/xlink" width="454.464pt" height="339.264pt" viewBox="0 0 454.464 339.264" xmlns="http://www.w3.org/2000/svg" version="1.1">
 <metadata>
  <rdf:RDF xmlns:dc="http://purl.org/dc/elements/1.1/" xmlns:cc="http://creativecommons.org/ns#" xmlns:rdf="http://www.w3.org/1999/02/22-rdf-syntax-ns#">
   <cc:Work>
    <dc:type rdf:resource="http://purl.org/dc/dcmitype/StillImage"/>
    <dc:date>2025-06-09T16:57:54.114132</dc:date>
    <dc:format>image/svg+xml</dc:format>
    <dc:creator>
     <cc:Agent>
      <dc:title>Matplotlib v3.9.2, https://matplotlib.org/</dc:title>
     </cc:Agent>
    </dc:creator>
   </cc:Work>
  </rdf:RDF>
 </metadata>
 <defs>
  <style type="text/css">*{stroke-linejoin: round; stroke-linecap: butt}</style>
 </defs>
 <g id="figure_1">
  <g id="patch_1">
   <path d="M 0 339.264 
L 454.464 339.264 
L 454.464 0 
L 0 0 
z
" style="fill: #ffffff"/>
  </g>
  <g id="axes_1">
   <g id="patch_2">
    <path d="M 38.312875 302.936625 
L 447.264 302.936625 
L 447.264 7.2 
L 38.312875 7.2 
z
" style="fill: #ffffff"/>
   </g>
   <g id="matplotlib.axis_1">
    <g id="xtick_1">
     <g id="line2d_1">
      <defs>
       <path id="m42cb54745a" d="M 0 0 
L 0 4.8 
" style="stroke: #262626"/>
      </defs>
      <g>
       <use xlink:href="#m42cb54745a" x="56.901562" y="302.936625" style="fill: #262626; stroke: #262626"/>
      </g>
     </g>
     <g id="text_1">
      <!-- −1.00 -->
      <g style="fill: #262626" transform="translate(45.768875 317.5355) scale(0.088 -0.088)">
       <defs>
        <path id="ArialMT-2212" d="M 3381 1997 
L 356 1997 
L 356 2522 
L 3381 2522 
L 3381 1997 
z
" transform="scale(0.015625)"/>
        <path id="ArialMT-31" d="M 2384 0 
L 1822 0 
L 1822 3584 
Q 1619 3391 1289 3197 
Q 959 3003 697 2906 
L 697 3450 
Q 1169 3672 1522 3987 
Q 1875 4303 2022 4600 
L 2384 4600 
L 2384 0 
z
" transform="scale(0.015625)"/>
        <path id="ArialMT-2e" d="M 581 0 
L 581 641 
L 1222 641 
L 1222 0 
L 581 0 
z
" transform="scale(0.015625)"/>
        <path id="ArialMT-30" d="M 266 2259 
Q 266 3072 433 3567 
Q 600 4063 929 4331 
Q 1259 4600 1759 4600 
Q 2128 4600 2406 4451 
Q 2684 4303 2865 4023 
Q 3047 3744 3150 3342 
Q 3253 2941 3253 2259 
Q 3253 1453 3087 958 
Q 2922 463 2592 192 
Q 2263 -78 1759 -78 
Q 1097 -78 719 397 
Q 266 969 266 2259 
z
M 844 2259 
Q 844 1131 1108 757 
Q 1372 384 1759 384 
Q 2147 384 2411 759 
Q 2675 1134 2675 2259 
Q 2675 3391 2411 3762 
Q 2147 4134 1753 4134 
Q 1366 4134 1134 3806 
Q 844 3388 844 2259 
z
" transform="scale(0.015625)"/>
       </defs>
       <use xlink:href="#ArialMT-2212"/>
       <use xlink:href="#ArialMT-31" x="58.398438"/>
       <use xlink:href="#ArialMT-2e" x="114.013672"/>
       <use xlink:href="#ArialMT-30" x="141.796875"/>
       <use xlink:href="#ArialMT-30" x="197.412109"/>
      </g>
     </g>
    </g>
    <g id="xtick_2">
     <g id="line2d_2">
      <g>
       <use xlink:href="#m42cb54745a" x="103.373281" y="302.936625" style="fill: #262626; stroke: #262626"/>
      </g>
     </g>
     <g id="text_2">
      <!-- −0.75 -->
      <g style="fill: #262626" transform="translate(92.240594 317.5355) scale(0.088 -0.088)">
       <defs>
        <path id="ArialMT-37" d="M 303 3981 
L 303 4522 
L 3269 4522 
L 3269 4084 
Q 2831 3619 2401 2847 
Q 1972 2075 1738 1259 
Q 1569 684 1522 0 
L 944 0 
Q 953 541 1156 1306 
Q 1359 2072 1739 2783 
Q 2119 3494 2547 3981 
L 303 3981 
z
" transform="scale(0.015625)"/>
        <path id="ArialMT-35" d="M 266 1200 
L 856 1250 
Q 922 819 1161 601 
Q 1400 384 1738 384 
Q 2144 384 2425 690 
Q 2706 997 2706 1503 
Q 2706 1984 2436 2262 
Q 2166 2541 1728 2541 
Q 1456 2541 1237 2417 
Q 1019 2294 894 2097 
L 366 2166 
L 809 4519 
L 3088 4519 
L 3088 3981 
L 1259 3981 
L 1013 2750 
Q 1425 3038 1878 3038 
Q 2478 3038 2890 2622 
Q 3303 2206 3303 1553 
Q 3303 931 2941 478 
Q 2500 -78 1738 -78 
Q 1113 -78 717 272 
Q 322 622 266 1200 
z
" transform="scale(0.015625)"/>
       </defs>
       <use xlink:href="#ArialMT-2212"/>
       <use xlink:href="#ArialMT-30" x="58.398438"/>
       <use xlink:href="#ArialMT-2e" x="114.013672"/>
       <use xlink:href="#ArialMT-37" x="141.796875"/>
       <use xlink:href="#ArialMT-35" x="197.412109"/>
      </g>
     </g>
    </g>
    <g id="xtick_3">
     <g id="line2d_3">
      <g>
       <use xlink:href="#m42cb54745a" x="149.845" y="302.936625" style="fill: #262626; stroke: #262626"/>
      </g>
     </g>
     <g id="text_3">
      <!-- −0.50 -->
      <g style="fill: #262626" transform="translate(138.712312 317.5355) scale(0.088 -0.088)">
       <use xlink:href="#ArialMT-2212"/>
       <use xlink:href="#ArialMT-30" x="58.398438"/>
       <use xlink:href="#ArialMT-2e" x="114.013672"/>
       <use xlink:href="#ArialMT-35" x="141.796875"/>
       <use xlink:href="#ArialMT-30" x="197.412109"/>
      </g>
     </g>
    </g>
    <g id="xtick_4">
     <g id="line2d_4">
      <g>
       <use xlink:href="#m42cb54745a" x="196.316719" y="302.936625" style="fill: #262626; stroke: #262626"/>
      </g>
     </g>
     <g id="text_4">
      <!-- −0.25 -->
      <g style="fill: #262626" transform="translate(185.184031 317.5355) scale(0.088 -0.088)">
       <defs>
        <path id="ArialMT-32" d="M 3222 541 
L 3222 0 
L 194 0 
Q 188 203 259 391 
Q 375 700 629 1000 
Q 884 1300 1366 1694 
Q 2113 2306 2375 2664 
Q 2638 3022 2638 3341 
Q 2638 3675 2398 3904 
Q 2159 4134 1775 4134 
Q 1369 4134 1125 3890 
Q 881 3647 878 3216 
L 300 3275 
Q 359 3922 746 4261 
Q 1134 4600 1788 4600 
Q 2447 4600 2831 4234 
Q 3216 3869 3216 3328 
Q 3216 3053 3103 2787 
Q 2991 2522 2730 2228 
Q 2469 1934 1863 1422 
Q 1356 997 1212 845 
Q 1069 694 975 541 
L 3222 541 
z
" transform="scale(0.015625)"/>
       </defs>
       <use xlink:href="#ArialMT-2212"/>
       <use xlink:href="#ArialMT-30" x="58.398438"/>
       <use xlink:href="#ArialMT-2e" x="114.013672"/>
       <use xlink:href="#ArialMT-32" x="141.796875"/>
       <use xlink:href="#ArialMT-35" x="197.412109"/>
      </g>
     </g>
    </g>
    <g id="xtick_5">
     <g id="line2d_5">
      <g>
       <use xlink:href="#m42cb54745a" x="242.788437" y="302.936625" style="fill: #262626; stroke: #262626"/>
      </g>
     </g>
     <g id="text_5">
      <!-- 0.00 -->
      <g style="fill: #262626" transform="translate(234.225625 317.5355) scale(0.088 -0.088)">
       <use xlink:href="#ArialMT-30"/>
       <use xlink:href="#ArialMT-2e" x="55.615234"/>
       <use xlink:href="#ArialMT-30" x="83.398438"/>
       <use xlink:href="#ArialMT-30" x="139.013672"/>
      </g>
     </g>
    </g>
    <g id="xtick_6">
     <g id="line2d_6">
      <g>
       <use xlink:href="#m42cb54745a" x="289.260156" y="302.936625" style="fill: #262626; stroke: #262626"/>
      </g>
     </g>
     <g id="text_6">
      <!-- 0.25 -->
      <g style="fill: #262626" transform="translate(280.697344 317.5355) scale(0.088 -0.088)">
       <use xlink:href="#ArialMT-30"/>
       <use xlink:href="#ArialMT-2e" x="55.615234"/>
       <use xlink:href="#ArialMT-32" x="83.398438"/>
       <use xlink:href="#ArialMT-35" x="139.013672"/>
      </g>
     </g>
    </g>
    <g id="xtick_7">
     <g id="line2d_7">
      <g>
       <use xlink:href="#m42cb54745a" x="335.731875" y="302.936625" style="fill: #262626; stroke: #262626"/>
      </g>
     </g>
     <g id="text_7">
      <!-- 0.50 -->
      <g style="fill: #262626" transform="translate(327.169062 317.5355) scale(0.088 -0.088)">
       <use xlink:href="#ArialMT-30"/>
       <use xlink:href="#ArialMT-2e" x="55.615234"/>
       <use xlink:href="#ArialMT-35" x="83.398438"/>
       <use xlink:href="#ArialMT-30" x="139.013672"/>
      </g>
     </g>
    </g>
    <g id="xtick_8">
     <g id="line2d_8">
      <g>
       <use xlink:href="#m42cb54745a" x="382.203594" y="302.936625" style="fill: #262626; stroke: #262626"/>
      </g>
     </g>
     <g id="text_8">
      <!-- 0.75 -->
      <g style="fill: #262626" transform="translate(373.640781 317.5355) scale(0.088 -0.088)">
       <use xlink:href="#ArialMT-30"/>
       <use xlink:href="#ArialMT-2e" x="55.615234"/>
       <use xlink:href="#ArialMT-37" x="83.398438"/>
       <use xlink:href="#ArialMT-35" x="139.013672"/>
      </g>
     </g>
    </g>
    <g id="xtick_9">
     <g id="line2d_9">
      <g>
       <use xlink:href="#m42cb54745a" x="428.675313" y="302.936625" style="fill: #262626; stroke: #262626"/>
      </g>
     </g>
     <g id="text_9">
      <!-- 1.00 -->
      <g style="fill: #262626" transform="translate(420.1125 317.5355) scale(0.088 -0.088)">
       <use xlink:href="#ArialMT-31"/>
       <use xlink:href="#ArialMT-2e" x="55.615234"/>
       <use xlink:href="#ArialMT-30" x="83.398438"/>
       <use xlink:href="#ArialMT-30" x="139.013672"/>
      </g>
     </g>
    </g>
    <g id="text_10">
     <!-- $x$ -->
     <g style="fill: #262626" transform="translate(239.908437 330.156) scale(0.096 -0.096)">
      <defs>
       <path id="DejaVuSans-Oblique-78" d="M 3841 3500 
L 2234 1784 
L 3219 0 
L 2559 0 
L 1819 1388 
L 531 0 
L -166 0 
L 1556 1844 
L 641 3500 
L 1300 3500 
L 1972 2234 
L 3144 3500 
L 3841 3500 
z
" transform="scale(0.015625)"/>
      </defs>
      <use xlink:href="#DejaVuSans-Oblique-78" transform="translate(0 0.3125)"/>
     </g>
    </g>
   </g>
   <g id="matplotlib.axis_2">
    <g id="ytick_1">
     <g id="line2d_10">
      <defs>
       <path id="m8c183db84f" d="M 0 0 
L -4.8 0 
" style="stroke: #262626"/>
      </defs>
      <g>
       <use xlink:href="#m8c183db84f" x="38.312875" y="274.72348" style="fill: #262626; stroke: #262626"/>
      </g>
     </g>
     <g id="text_11">
      <!-- −1 -->
      <g style="fill: #262626" transform="translate(19.9795 277.872917) scale(0.088 -0.088)">
       <use xlink:href="#ArialMT-2212"/>
       <use xlink:href="#ArialMT-31" x="58.398438"/>
      </g>
     </g>
    </g>
    <g id="ytick_2">
     <g id="line2d_11">
      <g>
       <use xlink:href="#m8c183db84f" x="38.312875" y="221.933279" style="fill: #262626; stroke: #262626"/>
      </g>
     </g>
     <g id="text_12">
      <!-- 0 -->
      <g style="fill: #262626" transform="translate(25.11925 225.082717) scale(0.088 -0.088)">
       <use xlink:href="#ArialMT-30"/>
      </g>
     </g>
    </g>
    <g id="ytick_3">
     <g id="line2d_12">
      <g>
       <use xlink:href="#m8c183db84f" x="38.312875" y="169.143079" style="fill: #262626; stroke: #262626"/>
      </g>
     </g>
     <g id="text_13">
      <!-- 1 -->
      <g style="fill: #262626" transform="translate(25.11925 172.292516) scale(0.088 -0.088)">
       <use xlink:href="#ArialMT-31"/>
      </g>
     </g>
    </g>
    <g id="ytick_4">
     <g id="line2d_13">
      <g>
       <use xlink:href="#m8c183db84f" x="38.312875" y="116.352878" style="fill: #262626; stroke: #262626"/>
      </g>
     </g>
     <g id="text_14">
      <!-- 2 -->
      <g style="fill: #262626" transform="translate(25.11925 119.502316) scale(0.088 -0.088)">
       <use xlink:href="#ArialMT-32"/>
      </g>
     </g>
    </g>
    <g id="ytick_5">
     <g id="line2d_14">
      <g>
       <use xlink:href="#m8c183db84f" x="38.312875" y="63.562678" style="fill: #262626; stroke: #262626"/>
      </g>
     </g>
     <g id="text_15">
      <!-- 3 -->
      <g style="fill: #262626" transform="translate(25.11925 66.712116) scale(0.088 -0.088)">
       <defs>
        <path id="ArialMT-33" d="M 269 1209 
L 831 1284 
Q 928 806 1161 595 
Q 1394 384 1728 384 
Q 2125 384 2398 659 
Q 2672 934 2672 1341 
Q 2672 1728 2419 1979 
Q 2166 2231 1775 2231 
Q 1616 2231 1378 2169 
L 1441 2663 
Q 1497 2656 1531 2656 
Q 1891 2656 2178 2843 
Q 2466 3031 2466 3422 
Q 2466 3731 2256 3934 
Q 2047 4138 1716 4138 
Q 1388 4138 1169 3931 
Q 950 3725 888 3313 
L 325 3413 
Q 428 3978 793 4289 
Q 1159 4600 1703 4600 
Q 2078 4600 2393 4439 
Q 2709 4278 2876 4000 
Q 3044 3722 3044 3409 
Q 3044 3113 2884 2869 
Q 2725 2625 2413 2481 
Q 2819 2388 3044 2092 
Q 3269 1797 3269 1353 
Q 3269 753 2831 336 
Q 2394 -81 1725 -81 
Q 1122 -81 723 278 
Q 325 638 269 1209 
z
" transform="scale(0.015625)"/>
       </defs>
       <use xlink:href="#ArialMT-33"/>
      </g>
     </g>
    </g>
    <g id="ytick_6">
     <g id="line2d_15">
      <g>
       <use xlink:href="#m8c183db84f" x="38.312875" y="10.772478" style="fill: #262626; stroke: #262626"/>
      </g>
     </g>
     <g id="text_16">
      <!-- 4 -->
      <g style="fill: #262626" transform="translate(25.11925 13.921915) scale(0.088 -0.088)">
       <defs>
        <path id="ArialMT-34" d="M 2069 0 
L 2069 1097 
L 81 1097 
L 81 1613 
L 2172 4581 
L 2631 4581 
L 2631 1613 
L 3250 1613 
L 3250 1097 
L 2631 1097 
L 2631 0 
L 2069 0 
z
M 2069 1613 
L 2069 3678 
L 634 1613 
L 2069 1613 
z
" transform="scale(0.015625)"/>
       </defs>
       <use xlink:href="#ArialMT-34"/>
      </g>
     </g>
    </g>
    <g id="text_17">
     <!-- $y$ -->
     <g style="fill: #262626" transform="translate(13.9635 157.948313) rotate(-90) scale(0.096 -0.096)">
      <defs>
       <path id="DejaVuSans-Oblique-79" d="M 1588 -325 
Q 1188 -997 936 -1164 
Q 684 -1331 294 -1331 
L -159 -1331 
L -63 -850 
L 269 -850 
Q 509 -850 678 -719 
Q 847 -588 1056 -206 
L 1234 128 
L 459 3500 
L 1069 3500 
L 1650 819 
L 3256 3500 
L 3859 3500 
L 1588 -325 
z
" transform="scale(0.015625)"/>
      </defs>
      <use xlink:href="#DejaVuSans-Oblique-79" transform="translate(0 0.3125)"/>
     </g>
    </g>
   </g>
   <g id="PolyCollection_1">
    <defs>
     <path id="meb04d05c80" d="M 56.901562 -97.358949 
L 56.901562 -79.085549 
L 60.656853 -76.807758 
L 64.412143 -74.622064 
L 68.167434 -72.528468 
L 71.922724 -70.526968 
L 75.678015 -68.617566 
L 79.433305 -66.800261 
L 83.188595 -65.075054 
L 86.943886 -63.441944 
L 90.699176 -61.900931 
L 94.454467 -60.452015 
L 98.209757 -59.095196 
L 101.965047 -57.830475 
L 105.720338 -56.657851 
L 109.475628 -55.577324 
L 113.230919 -54.588895 
L 116.986209 -53.692562 
L 120.741499 -52.888327 
L 124.49679 -52.17619 
L 128.25208 -51.556149 
L 132.007371 -51.028206 
L 135.762661 -50.59236 
L 139.517951 -50.248611 
L 143.273242 -49.99696 
L 147.028532 -49.837406 
L 150.783823 -49.769949 
L 154.539113 -49.794589 
L 158.294403 -49.911327 
L 162.049694 -50.120162 
L 165.804984 -50.421094 
L 169.560275 -50.814123 
L 173.315565 -51.29925 
L 177.070855 -51.876474 
L 180.826146 -52.545795 
L 184.581436 -53.307213 
L 188.336727 -54.160729 
L 192.092017 -55.106342 
L 195.847307 -56.144052 
L 199.602598 -57.273859 
L 203.357888 -58.495764 
L 207.113179 -59.809766 
L 210.868469 -61.215865 
L 214.623759 -62.714062 
L 218.37905 -64.304355 
L 222.13434 -65.986746 
L 225.889631 -67.761234 
L 229.644921 -69.62782 
L 233.400211 -71.586503 
L 237.155502 -73.637283 
L 240.910792 -75.78016 
L 244.666083 -78.015134 
L 248.421373 -80.342206 
L 252.176664 -82.761375 
L 255.931954 -85.272642 
L 259.687244 -87.876005 
L 263.442535 -90.571466 
L 267.197825 -93.359024 
L 270.953116 -96.238679 
L 274.708406 -99.210432 
L 278.463696 -102.274282 
L 282.218987 -105.430229 
L 285.974277 -108.678273 
L 289.729568 -112.018415 
L 293.484858 -115.450654 
L 297.240148 -118.97499 
L 300.995439 -122.591423 
L 304.750729 -126.299954 
L 308.50602 -130.100582 
L 312.26131 -133.993307 
L 316.0166 -137.978129 
L 319.771891 -142.055049 
L 323.527181 -146.224066 
L 327.282472 -150.48518 
L 331.037762 -154.838391 
L 334.793052 -159.2837 
L 338.548343 -163.821106 
L 342.303633 -168.450609 
L 346.058924 -173.17221 
L 349.814214 -177.985908 
L 353.569504 -182.891703 
L 357.324795 -187.889595 
L 361.080085 -192.979584 
L 364.835376 -198.161671 
L 368.590666 -203.435855 
L 372.345956 -208.802136 
L 376.101247 -214.260515 
L 379.856537 -219.810991 
L 383.611828 -225.453564 
L 387.367118 -231.188234 
L 391.122408 -237.015002 
L 394.877699 -242.933866 
L 398.632989 -248.944829 
L 402.38828 -255.047888 
L 406.14357 -261.243044 
L 409.89886 -267.530298 
L 413.654151 -273.909649 
L 417.409441 -280.381098 
L 421.164732 -286.944643 
L 424.920022 -293.600286 
L 428.675313 -300.348026 
L 428.675313 -318.621426 
L 428.675313 -318.621426 
L 424.920022 -311.873686 
L 421.164732 -305.218043 
L 417.409441 -298.654497 
L 413.654151 -292.183049 
L 409.89886 -285.803698 
L 406.14357 -279.516444 
L 402.38828 -273.321288 
L 398.632989 -267.218228 
L 394.877699 -261.207266 
L 391.122408 -255.288401 
L 387.367118 -249.461634 
L 383.611828 -243.726963 
L 379.856537 -238.08439 
L 376.101247 -232.533915 
L 372.345956 -227.075536 
L 368.590666 -221.709255 
L 364.835376 -216.435071 
L 361.080085 -211.252984 
L 357.324795 -206.162994 
L 353.569504 -201.165102 
L 349.814214 -196.259307 
L 346.058924 -191.44561 
L 342.303633 -186.724009 
L 338.548343 -182.094506 
L 334.793052 -177.5571 
L 331.037762 -173.111791 
L 327.282472 -168.75858 
L 323.527181 -164.497466 
L 319.771891 -160.328449 
L 316.0166 -156.251529 
L 312.26131 -152.266707 
L 308.50602 -148.373981 
L 304.750729 -144.573353 
L 300.995439 -140.864823 
L 297.240148 -137.248389 
L 293.484858 -133.724053 
L 289.729568 -130.291814 
L 285.974277 -126.951673 
L 282.218987 -123.703629 
L 278.463696 -120.547681 
L 274.708406 -117.483832 
L 270.953116 -114.512079 
L 267.197825 -111.632424 
L 263.442535 -108.844866 
L 259.687244 -106.149405 
L 255.931954 -103.546041 
L 252.176664 -101.034775 
L 248.421373 -98.615606 
L 244.666083 -96.288534 
L 240.910792 -94.05356 
L 237.155502 -91.910682 
L 233.400211 -89.859902 
L 229.644921 -87.90122 
L 225.889631 -86.034634 
L 222.13434 -84.260146 
L 218.37905 -82.577755 
L 214.623759 -80.987461 
L 210.868469 -79.489265 
L 207.113179 -78.083166 
L 203.357888 -76.769164 
L 199.602598 -75.547259 
L 195.847307 -74.417452 
L 192.092017 -73.379741 
L 188.336727 -72.434128 
L 184.581436 -71.580613 
L 180.826146 -70.819194 
L 177.070855 -70.149873 
L 173.315565 -69.572649 
L 169.560275 -69.087523 
L 165.804984 -68.694493 
L 162.049694 -68.393561 
L 158.294403 -68.184726 
L 154.539113 -68.067989 
L 150.783823 -68.043349 
L 147.028532 -68.110805 
L 143.273242 -68.27036 
L 139.517951 -68.522011 
L 135.762661 -68.86576 
L 132.007371 -69.301606 
L 128.25208 -69.829549 
L 124.49679 -70.449589 
L 120.741499 -71.161727 
L 116.986209 -71.965962 
L 113.230919 -72.862294 
L 109.475628 -73.850724 
L 105.720338 -74.931251 
L 101.965047 -76.103875 
L 98.209757 -77.368596 
L 94.454467 -78.725414 
L 90.699176 -80.17433 
L 86.943886 -81.715343 
L 83.188595 -83.348454 
L 79.433305 -85.073661 
L 75.678015 -86.890966 
L 71.922724 -88.800368 
L 68.167434 -90.801867 
L 64.412143 -92.895464 
L 60.656853 -95.081158 
L 56.901562 -97.358949 
z
" style="stroke: #ffffff; stroke-opacity: 0.25; stroke-width: 0.8"/>
    </defs>
    <g clip-path="url(#p66b65854ba)">
     <use xlink:href="#meb04d05c80" x="0" y="339.264" style="fill: #4c72b0; fill-opacity: 0.25; stroke: #ffffff; stroke-opacity: 0.25; stroke-width: 0.8"/>
    </g>
   </g>
   <g id="line2d_16">
    <path d="M 56.901562 251.041751 
L 60.656853 253.319542 
L 64.412143 255.505236 
L 68.167434 257.598832 
L 71.922724 259.600332 
L 75.678015 261.509734 
L 79.433305 263.327039 
L 83.188595 265.052246 
L 86.943886 266.685357 
L 90.699176 268.22637 
L 94.454467 269.675285 
L 98.209757 271.032104 
L 101.965047 272.296825 
L 105.720338 273.469449 
L 109.475628 274.549976 
L 113.230919 275.538405 
L 116.986209 276.434738 
L 120.741499 277.238973 
L 124.49679 277.95111 
L 128.25208 278.571151 
L 132.007371 279.099094 
L 135.762661 279.53494 
L 139.517951 279.878689 
L 143.273242 280.13034 
L 147.028532 280.289894 
L 150.783823 280.357351 
L 154.539113 280.332711 
L 158.294403 280.215973 
L 162.049694 280.007139 
L 165.804984 279.706206 
L 169.560275 279.313177 
L 173.315565 278.82805 
L 177.070855 278.250827 
L 180.826146 277.581505 
L 184.581436 276.820087 
L 188.336727 275.966571 
L 192.092017 275.020958 
L 195.847307 273.983248 
L 199.602598 272.853441 
L 203.357888 271.631536 
L 207.113179 270.317534 
L 210.868469 268.911435 
L 214.623759 267.413239 
L 218.37905 265.822945 
L 222.13434 264.140554 
L 225.889631 262.366066 
L 229.644921 260.49948 
L 233.400211 258.540797 
L 237.155502 256.490017 
L 240.910792 254.34714 
L 244.666083 252.112166 
L 248.421373 249.785094 
L 252.176664 247.365925 
L 255.931954 244.854659 
L 259.687244 242.251295 
L 263.442535 239.555834 
L 267.197825 236.768276 
L 270.953116 233.888621 
L 274.708406 230.916868 
L 278.463696 227.853018 
L 282.218987 224.697071 
L 285.974277 221.449027 
L 289.729568 218.108885 
L 293.484858 214.676647 
L 297.240148 211.15231 
L 300.995439 207.535877 
L 304.750729 203.827346 
L 308.50602 200.026718 
L 312.26131 196.133993 
L 316.0166 192.149171 
L 319.771891 188.072251 
L 323.527181 183.903234 
L 327.282472 179.64212 
L 331.037762 175.288909 
L 334.793052 170.8436 
L 338.548343 166.306194 
L 342.303633 161.676691 
L 346.058924 156.95509 
L 349.814214 152.141393 
L 353.569504 147.235598 
L 357.324795 142.237705 
L 361.080085 137.147716 
L 364.835376 131.965629 
L 368.590666 126.691445 
L 372.345956 121.325164 
L 376.101247 115.866785 
L 379.856537 110.316309 
L 383.611828 104.673736 
L 387.367118 98.939066 
L 391.122408 93.112299 
L 394.877699 87.193434 
L 398.632989 81.182472 
L 402.38828 75.079412 
L 406.14357 68.884256 
L 409.89886 62.597002 
L 413.654151 56.217651 
L 417.409441 49.746202 
L 421.164732 43.182657 
L 424.920022 36.527014 
L 428.675313 29.779274 
" clip-path="url(#p66b65854ba)" style="fill: none; stroke-dasharray: 4.44,1.92; stroke-dashoffset: 0; stroke: #4c72b0; stroke-width: 1.2"/>
   </g>
   <g id="line2d_17">
    <defs>
     <path id="mb0781383d0" d="M -2.4 2.4 
L 2.4 -2.4 
M -2.4 -2.4 
L 2.4 2.4 
" style="stroke: #000000"/>
    </defs>
    <g clip-path="url(#p66b65854ba)">
     <use xlink:href="#mb0781383d0" x="168.108398" y="273.495725" style="stroke: #000000"/>
     <use xlink:href="#mb0781383d0" x="66.724163" y="256.264232" style="stroke: #000000"/>
     <use xlink:href="#mb0781383d0" x="112.096237" y="279.319744" style="stroke: #000000"/>
     <use xlink:href="#mb0781383d0" x="138.86878" y="276.345154" style="stroke: #000000"/>
     <use xlink:href="#mb0781383d0" x="359.225132" y="139.746312" style="stroke: #000000"/>
     <use xlink:href="#mb0781383d0" x="184.762395" y="283.180482" style="stroke: #000000"/>
     <use xlink:href="#mb0781383d0" x="285.436102" y="228.596456" style="stroke: #000000"/>
     <use xlink:href="#mb0781383d0" x="270.240523" y="228.781941" style="stroke: #000000"/>
     <use xlink:href="#mb0781383d0" x="326.724271" y="183.051097" style="stroke: #000000"/>
     <use xlink:href="#mb0781383d0" x="328.43957" y="173.984079" style="stroke: #000000"/>
    </g>
   </g>
   <g id="line2d_18">
    <path d="M 56.901562 248.328379 
L 60.656853 250.418227 
L 64.412143 252.421896 
L 68.167434 254.339385 
L 71.922724 256.170695 
L 75.678015 257.915825 
L 79.433305 259.574776 
L 83.188595 261.147548 
L 86.943886 262.634141 
L 90.699176 264.034555 
L 94.454467 265.348789 
L 98.209757 266.576844 
L 101.965047 267.718719 
L 105.720338 268.774416 
L 109.475628 269.743932 
L 113.230919 270.62727 
L 116.986209 271.424429 
L 120.741499 272.135408 
L 124.49679 272.760208 
L 128.25208 273.298828 
L 132.007371 273.751269 
L 135.762661 274.117531 
L 139.517951 274.397614 
L 143.273242 274.591517 
L 147.028532 274.699242 
L 150.783823 274.720786 
L 154.539113 274.656152 
L 158.294403 274.505338 
L 162.049694 274.268345 
L 165.804984 273.945173 
L 169.560275 273.535821 
L 173.315565 273.04029 
L 177.070855 272.45858 
L 180.826146 271.790691 
L 184.581436 271.036622 
L 188.336727 270.196374 
L 192.092017 269.269946 
L 195.847307 268.25734 
L 199.602598 267.158554 
L 203.357888 265.973589 
L 207.113179 264.702444 
L 210.868469 263.34512 
L 214.623759 261.901617 
L 218.37905 260.371935 
L 222.13434 258.756073 
L 225.889631 257.054032 
L 229.644921 255.265812 
L 233.400211 253.391413 
L 237.155502 251.430834 
L 240.910792 249.384076 
L 244.666083 247.251138 
L 248.421373 245.032022 
L 252.176664 242.726726 
L 255.931954 240.33525 
L 259.687244 237.857596 
L 263.442535 235.293762 
L 267.197825 232.643749 
L 270.953116 229.907556 
L 274.708406 227.085185 
L 278.463696 224.176634 
L 282.218987 221.181903 
L 285.974277 218.100994 
L 289.729568 214.933905 
L 293.484858 211.680637 
L 297.240148 208.341189 
L 300.995439 204.915563 
L 304.750729 201.403757 
L 308.50602 197.805771 
L 312.26131 194.121607 
L 316.0166 190.351263 
L 319.771891 186.49474 
L 323.527181 182.552037 
L 327.282472 178.523156 
L 331.037762 174.408095 
L 334.793052 170.206854 
L 338.548343 165.919435 
L 342.303633 161.545836 
L 346.058924 157.086058 
L 349.814214 152.5401 
L 353.569504 147.907963 
L 357.324795 143.189647 
L 361.080085 138.385152 
L 364.835376 133.494477 
L 368.590666 128.517624 
L 372.345956 123.45459 
L 376.101247 118.305378 
L 379.856537 113.069986 
L 383.611828 107.748415 
L 387.367118 102.340665 
L 391.122408 96.846735 
L 394.877699 91.266626 
L 398.632989 85.600338 
L 402.38828 79.84787 
L 406.14357 74.009224 
L 409.89886 68.084398 
L 413.654151 62.073392 
L 417.409441 55.976208 
L 421.164732 49.792844 
L 424.920022 43.5233 
L 428.675313 37.167578 
" clip-path="url(#p66b65854ba)" style="fill: none; stroke: #dd8452; stroke-width: 1.2; stroke-linecap: round"/>
   </g>
   <g id="patch_3">
    <path d="M 38.312875 302.936625 
L 38.312875 7.2 
" style="fill: none; stroke: #262626; stroke-linejoin: miter; stroke-linecap: square"/>
   </g>
   <g id="patch_4">
    <path d="M 447.264 302.936625 
L 447.264 7.2 
" style="fill: none; stroke: #262626; stroke-linejoin: miter; stroke-linecap: square"/>
   </g>
   <g id="patch_5">
    <path d="M 38.312875 302.936625 
L 447.264 302.936625 
" style="fill: none; stroke: #262626; stroke-linejoin: miter; stroke-linecap: square"/>
   </g>
   <g id="patch_6">
    <path d="M 38.312875 7.2 
L 447.264 7.2 
" style="fill: none; stroke: #262626; stroke-linejoin: miter; stroke-linecap: square"/>
   </g>
   <g id="legend_1">
    <g id="line2d_19">
     <path d="M 46.232875 18.338875 
L 55.032875 18.338875 
L 63.832875 18.338875 
" style="fill: none; stroke-dasharray: 4.44,1.92; stroke-dashoffset: 0; stroke: #4c72b0; stroke-width: 1.2"/>
    </g>
    <g id="text_18">
     <!-- Mean prediction -->
     <g style="fill: #262626" transform="translate(70.872875 21.418875) scale(0.088 -0.088)">
      <defs>
       <path id="ArialMT-4d" d="M 475 0 
L 475 4581 
L 1388 4581 
L 2472 1338 
Q 2622 884 2691 659 
Q 2769 909 2934 1394 
L 4031 4581 
L 4847 4581 
L 4847 0 
L 4263 0 
L 4263 3834 
L 2931 0 
L 2384 0 
L 1059 3900 
L 1059 0 
L 475 0 
z
" transform="scale(0.015625)"/>
       <path id="ArialMT-65" d="M 2694 1069 
L 3275 997 
Q 3138 488 2766 206 
Q 2394 -75 1816 -75 
Q 1088 -75 661 373 
Q 234 822 234 1631 
Q 234 2469 665 2931 
Q 1097 3394 1784 3394 
Q 2450 3394 2872 2941 
Q 3294 2488 3294 1666 
Q 3294 1616 3291 1516 
L 816 1516 
Q 847 969 1125 678 
Q 1403 388 1819 388 
Q 2128 388 2347 550 
Q 2566 713 2694 1069 
z
M 847 1978 
L 2700 1978 
Q 2663 2397 2488 2606 
Q 2219 2931 1791 2931 
Q 1403 2931 1139 2672 
Q 875 2413 847 1978 
z
" transform="scale(0.015625)"/>
       <path id="ArialMT-61" d="M 2588 409 
Q 2275 144 1986 34 
Q 1697 -75 1366 -75 
Q 819 -75 525 192 
Q 231 459 231 875 
Q 231 1119 342 1320 
Q 453 1522 633 1644 
Q 813 1766 1038 1828 
Q 1203 1872 1538 1913 
Q 2219 1994 2541 2106 
Q 2544 2222 2544 2253 
Q 2544 2597 2384 2738 
Q 2169 2928 1744 2928 
Q 1347 2928 1158 2789 
Q 969 2650 878 2297 
L 328 2372 
Q 403 2725 575 2942 
Q 747 3159 1072 3276 
Q 1397 3394 1825 3394 
Q 2250 3394 2515 3294 
Q 2781 3194 2906 3042 
Q 3031 2891 3081 2659 
Q 3109 2516 3109 2141 
L 3109 1391 
Q 3109 606 3145 398 
Q 3181 191 3288 0 
L 2700 0 
Q 2613 175 2588 409 
z
M 2541 1666 
Q 2234 1541 1622 1453 
Q 1275 1403 1131 1340 
Q 988 1278 909 1158 
Q 831 1038 831 891 
Q 831 666 1001 516 
Q 1172 366 1500 366 
Q 1825 366 2078 508 
Q 2331 650 2450 897 
Q 2541 1088 2541 1459 
L 2541 1666 
z
" transform="scale(0.015625)"/>
       <path id="ArialMT-6e" d="M 422 0 
L 422 3319 
L 928 3319 
L 928 2847 
Q 1294 3394 1984 3394 
Q 2284 3394 2536 3286 
Q 2788 3178 2913 3003 
Q 3038 2828 3088 2588 
Q 3119 2431 3119 2041 
L 3119 0 
L 2556 0 
L 2556 2019 
Q 2556 2363 2490 2533 
Q 2425 2703 2258 2804 
Q 2091 2906 1866 2906 
Q 1506 2906 1245 2678 
Q 984 2450 984 1813 
L 984 0 
L 422 0 
z
" transform="scale(0.015625)"/>
       <path id="ArialMT-20" transform="scale(0.015625)"/>
       <path id="ArialMT-70" d="M 422 -1272 
L 422 3319 
L 934 3319 
L 934 2888 
Q 1116 3141 1344 3267 
Q 1572 3394 1897 3394 
Q 2322 3394 2647 3175 
Q 2972 2956 3137 2557 
Q 3303 2159 3303 1684 
Q 3303 1175 3120 767 
Q 2938 359 2589 142 
Q 2241 -75 1856 -75 
Q 1575 -75 1351 44 
Q 1128 163 984 344 
L 984 -1272 
L 422 -1272 
z
M 931 1641 
Q 931 1000 1190 694 
Q 1450 388 1819 388 
Q 2194 388 2461 705 
Q 2728 1022 2728 1688 
Q 2728 2322 2467 2637 
Q 2206 2953 1844 2953 
Q 1484 2953 1207 2617 
Q 931 2281 931 1641 
z
" transform="scale(0.015625)"/>
       <path id="ArialMT-72" d="M 416 0 
L 416 3319 
L 922 3319 
L 922 2816 
Q 1116 3169 1280 3281 
Q 1444 3394 1641 3394 
Q 1925 3394 2219 3213 
L 2025 2691 
Q 1819 2813 1613 2813 
Q 1428 2813 1281 2702 
Q 1134 2591 1072 2394 
Q 978 2094 978 1738 
L 978 0 
L 416 0 
z
" transform="scale(0.015625)"/>
       <path id="ArialMT-64" d="M 2575 0 
L 2575 419 
Q 2259 -75 1647 -75 
Q 1250 -75 917 144 
Q 584 363 401 755 
Q 219 1147 219 1656 
Q 219 2153 384 2558 
Q 550 2963 881 3178 
Q 1213 3394 1622 3394 
Q 1922 3394 2156 3267 
Q 2391 3141 2538 2938 
L 2538 4581 
L 3097 4581 
L 3097 0 
L 2575 0 
z
M 797 1656 
Q 797 1019 1065 703 
Q 1334 388 1700 388 
Q 2069 388 2326 689 
Q 2584 991 2584 1609 
Q 2584 2291 2321 2609 
Q 2059 2928 1675 2928 
Q 1300 2928 1048 2622 
Q 797 2316 797 1656 
z
" transform="scale(0.015625)"/>
       <path id="ArialMT-69" d="M 425 3934 
L 425 4581 
L 988 4581 
L 988 3934 
L 425 3934 
z
M 425 0 
L 425 3319 
L 988 3319 
L 988 0 
L 425 0 
z
" transform="scale(0.015625)"/>
       <path id="ArialMT-63" d="M 2588 1216 
L 3141 1144 
Q 3050 572 2676 248 
Q 2303 -75 1759 -75 
Q 1078 -75 664 370 
Q 250 816 250 1647 
Q 250 2184 428 2587 
Q 606 2991 970 3192 
Q 1334 3394 1763 3394 
Q 2303 3394 2647 3120 
Q 2991 2847 3088 2344 
L 2541 2259 
Q 2463 2594 2264 2762 
Q 2066 2931 1784 2931 
Q 1359 2931 1093 2626 
Q 828 2322 828 1663 
Q 828 994 1084 691 
Q 1341 388 1753 388 
Q 2084 388 2306 591 
Q 2528 794 2588 1216 
z
" transform="scale(0.015625)"/>
       <path id="ArialMT-74" d="M 1650 503 
L 1731 6 
Q 1494 -44 1306 -44 
Q 1000 -44 831 53 
Q 663 150 594 308 
Q 525 466 525 972 
L 525 2881 
L 113 2881 
L 113 3319 
L 525 3319 
L 525 4141 
L 1084 4478 
L 1084 3319 
L 1650 3319 
L 1650 2881 
L 1084 2881 
L 1084 941 
Q 1084 700 1114 631 
Q 1144 563 1211 522 
Q 1278 481 1403 481 
Q 1497 481 1650 503 
z
" transform="scale(0.015625)"/>
       <path id="ArialMT-6f" d="M 213 1659 
Q 213 2581 725 3025 
Q 1153 3394 1769 3394 
Q 2453 3394 2887 2945 
Q 3322 2497 3322 1706 
Q 3322 1066 3130 698 
Q 2938 331 2570 128 
Q 2203 -75 1769 -75 
Q 1072 -75 642 372 
Q 213 819 213 1659 
z
M 791 1659 
Q 791 1022 1069 705 
Q 1347 388 1769 388 
Q 2188 388 2466 706 
Q 2744 1025 2744 1678 
Q 2744 2294 2464 2611 
Q 2184 2928 1769 2928 
Q 1347 2928 1069 2612 
Q 791 2297 791 1659 
z
" transform="scale(0.015625)"/>
      </defs>
      <use xlink:href="#ArialMT-4d"/>
      <use xlink:href="#ArialMT-65" x="83.300781"/>
      <use xlink:href="#ArialMT-61" x="138.916016"/>
      <use xlink:href="#ArialMT-6e" x="194.53125"/>
      <use xlink:href="#ArialMT-20" x="250.146484"/>
      <use xlink:href="#ArialMT-70" x="277.929688"/>
      <use xlink:href="#ArialMT-72" x="333.544922"/>
      <use xlink:href="#ArialMT-65" x="366.845703"/>
      <use xlink:href="#ArialMT-64" x="422.460938"/>
      <use xlink:href="#ArialMT-69" x="478.076172"/>
      <use xlink:href="#ArialMT-63" x="500.292969"/>
      <use xlink:href="#ArialMT-74" x="550.292969"/>
      <use xlink:href="#ArialMT-69" x="578.076172"/>
      <use xlink:href="#ArialMT-6f" x="600.292969"/>
      <use xlink:href="#ArialMT-6e" x="655.908203"/>
     </g>
    </g>
    <g id="patch_7">
     <path d="M 46.232875 33.86675 
L 63.832875 33.86675 
L 63.832875 27.70675 
L 46.232875 27.70675 
z
" style="fill: #4c72b0; fill-opacity: 0.25; stroke: #ffffff; stroke-opacity: 0.25; stroke-width: 0.8; stroke-linejoin: miter"/>
    </g>
    <g id="text_19">
     <!-- 95% credible interval -->
     <g style="fill: #262626" transform="translate(70.872875 33.86675) scale(0.088 -0.088)">
      <defs>
       <path id="ArialMT-39" d="M 350 1059 
L 891 1109 
Q 959 728 1153 556 
Q 1347 384 1650 384 
Q 1909 384 2104 503 
Q 2300 622 2425 820 
Q 2550 1019 2634 1356 
Q 2719 1694 2719 2044 
Q 2719 2081 2716 2156 
Q 2547 1888 2255 1720 
Q 1963 1553 1622 1553 
Q 1053 1553 659 1965 
Q 266 2378 266 3053 
Q 266 3750 677 4175 
Q 1088 4600 1706 4600 
Q 2153 4600 2523 4359 
Q 2894 4119 3086 3673 
Q 3278 3228 3278 2384 
Q 3278 1506 3087 986 
Q 2897 466 2520 194 
Q 2144 -78 1638 -78 
Q 1100 -78 759 220 
Q 419 519 350 1059 
z
M 2653 3081 
Q 2653 3566 2395 3850 
Q 2138 4134 1775 4134 
Q 1400 4134 1122 3828 
Q 844 3522 844 3034 
Q 844 2597 1108 2323 
Q 1372 2050 1759 2050 
Q 2150 2050 2401 2323 
Q 2653 2597 2653 3081 
z
" transform="scale(0.015625)"/>
       <path id="ArialMT-25" d="M 372 3481 
Q 372 3972 619 4315 
Q 866 4659 1334 4659 
Q 1766 4659 2048 4351 
Q 2331 4044 2331 3447 
Q 2331 2866 2045 2552 
Q 1759 2238 1341 2238 
Q 925 2238 648 2547 
Q 372 2856 372 3481 
z
M 1350 4272 
Q 1141 4272 1002 4090 
Q 863 3909 863 3425 
Q 863 2984 1003 2804 
Q 1144 2625 1350 2625 
Q 1563 2625 1702 2806 
Q 1841 2988 1841 3469 
Q 1841 3913 1700 4092 
Q 1559 4272 1350 4272 
z
M 1353 -169 
L 3859 4659 
L 4316 4659 
L 1819 -169 
L 1353 -169 
z
M 3334 1075 
Q 3334 1569 3581 1911 
Q 3828 2253 4300 2253 
Q 4731 2253 5014 1945 
Q 5297 1638 5297 1041 
Q 5297 459 5011 145 
Q 4725 -169 4303 -169 
Q 3888 -169 3611 142 
Q 3334 453 3334 1075 
z
M 4316 1866 
Q 4103 1866 3964 1684 
Q 3825 1503 3825 1019 
Q 3825 581 3965 400 
Q 4106 219 4313 219 
Q 4528 219 4667 400 
Q 4806 581 4806 1063 
Q 4806 1506 4665 1686 
Q 4525 1866 4316 1866 
z
" transform="scale(0.015625)"/>
       <path id="ArialMT-62" d="M 941 0 
L 419 0 
L 419 4581 
L 981 4581 
L 981 2947 
Q 1338 3394 1891 3394 
Q 2197 3394 2470 3270 
Q 2744 3147 2920 2923 
Q 3097 2700 3197 2384 
Q 3297 2069 3297 1709 
Q 3297 856 2875 390 
Q 2453 -75 1863 -75 
Q 1275 -75 941 416 
L 941 0 
z
M 934 1684 
Q 934 1088 1097 822 
Q 1363 388 1816 388 
Q 2184 388 2453 708 
Q 2722 1028 2722 1663 
Q 2722 2313 2464 2622 
Q 2206 2931 1841 2931 
Q 1472 2931 1203 2611 
Q 934 2291 934 1684 
z
" transform="scale(0.015625)"/>
       <path id="ArialMT-6c" d="M 409 0 
L 409 4581 
L 972 4581 
L 972 0 
L 409 0 
z
" transform="scale(0.015625)"/>
       <path id="ArialMT-76" d="M 1344 0 
L 81 3319 
L 675 3319 
L 1388 1331 
Q 1503 1009 1600 663 
Q 1675 925 1809 1294 
L 2547 3319 
L 3125 3319 
L 1869 0 
L 1344 0 
z
" transform="scale(0.015625)"/>
      </defs>
      <use xlink:href="#ArialMT-39"/>
      <use xlink:href="#ArialMT-35" x="55.615234"/>
      <use xlink:href="#ArialMT-25" x="111.230469"/>
      <use xlink:href="#ArialMT-20" x="200.146484"/>
      <use xlink:href="#ArialMT-63" x="227.929688"/>
      <use xlink:href="#ArialMT-72" x="277.929688"/>
      <use xlink:href="#ArialMT-65" x="311.230469"/>
      <use xlink:href="#ArialMT-64" x="366.845703"/>
      <use xlink:href="#ArialMT-69" x="422.460938"/>
      <use xlink:href="#ArialMT-62" x="444.677734"/>
      <use xlink:href="#ArialMT-6c" x="500.292969"/>
      <use xlink:href="#ArialMT-65" x="522.509766"/>
      <use xlink:href="#ArialMT-20" x="578.125"/>
      <use xlink:href="#ArialMT-69" x="605.908203"/>
      <use xlink:href="#ArialMT-6e" x="628.125"/>
      <use xlink:href="#ArialMT-74" x="683.740234"/>
      <use xlink:href="#ArialMT-65" x="711.523438"/>
      <use xlink:href="#ArialMT-72" x="767.138672"/>
      <use xlink:href="#ArialMT-76" x="800.439453"/>
      <use xlink:href="#ArialMT-61" x="850.439453"/>
      <use xlink:href="#ArialMT-6c" x="906.054688"/>
     </g>
    </g>
    <g id="line2d_20">
     <g>
      <use xlink:href="#mb0781383d0" x="55.032875" y="43.234625" style="stroke: #000000"/>
     </g>
    </g>
    <g id="text_20">
     <!-- Observed data -->
     <g style="fill: #262626" transform="translate(70.872875 46.314625) scale(0.088 -0.088)">
      <defs>
       <path id="ArialMT-4f" d="M 309 2231 
Q 309 3372 921 4017 
Q 1534 4663 2503 4663 
Q 3138 4663 3647 4359 
Q 4156 4056 4423 3514 
Q 4691 2972 4691 2284 
Q 4691 1588 4409 1038 
Q 4128 488 3612 205 
Q 3097 -78 2500 -78 
Q 1853 -78 1343 234 
Q 834 547 571 1087 
Q 309 1628 309 2231 
z
M 934 2222 
Q 934 1394 1379 917 
Q 1825 441 2497 441 
Q 3181 441 3623 922 
Q 4066 1403 4066 2288 
Q 4066 2847 3877 3264 
Q 3688 3681 3323 3911 
Q 2959 4141 2506 4141 
Q 1863 4141 1398 3698 
Q 934 3256 934 2222 
z
" transform="scale(0.015625)"/>
       <path id="ArialMT-73" d="M 197 991 
L 753 1078 
Q 800 744 1014 566 
Q 1228 388 1613 388 
Q 2000 388 2187 545 
Q 2375 703 2375 916 
Q 2375 1106 2209 1216 
Q 2094 1291 1634 1406 
Q 1016 1563 777 1677 
Q 538 1791 414 1992 
Q 291 2194 291 2438 
Q 291 2659 392 2848 
Q 494 3038 669 3163 
Q 800 3259 1026 3326 
Q 1253 3394 1513 3394 
Q 1903 3394 2198 3281 
Q 2494 3169 2634 2976 
Q 2775 2784 2828 2463 
L 2278 2388 
Q 2241 2644 2061 2787 
Q 1881 2931 1553 2931 
Q 1166 2931 1000 2803 
Q 834 2675 834 2503 
Q 834 2394 903 2306 
Q 972 2216 1119 2156 
Q 1203 2125 1616 2013 
Q 2213 1853 2448 1751 
Q 2684 1650 2818 1456 
Q 2953 1263 2953 975 
Q 2953 694 2789 445 
Q 2625 197 2315 61 
Q 2006 -75 1616 -75 
Q 969 -75 630 194 
Q 291 463 197 991 
z
" transform="scale(0.015625)"/>
      </defs>
      <use xlink:href="#ArialMT-4f"/>
      <use xlink:href="#ArialMT-62" x="77.783203"/>
      <use xlink:href="#ArialMT-73" x="133.398438"/>
      <use xlink:href="#ArialMT-65" x="183.398438"/>
      <use xlink:href="#ArialMT-72" x="239.013672"/>
      <use xlink:href="#ArialMT-76" x="272.314453"/>
      <use xlink:href="#ArialMT-65" x="322.314453"/>
      <use xlink:href="#ArialMT-64" x="377.929688"/>
      <use xlink:href="#ArialMT-20" x="433.544922"/>
      <use xlink:href="#ArialMT-64" x="461.328125"/>
      <use xlink:href="#ArialMT-61" x="516.943359"/>
      <use xlink:href="#ArialMT-74" x="572.558594"/>
      <use xlink:href="#ArialMT-61" x="600.341797"/>
     </g>
    </g>
    <g id="line2d_21">
     <path d="M 46.232875 55.78975 
L 55.032875 55.78975 
L 63.832875 55.78975 
" style="fill: none; stroke: #dd8452; stroke-width: 1.2; stroke-linecap: round"/>
    </g>
    <g id="text_21">
     <!-- True response surface -->
     <g style="fill: #262626" transform="translate(70.872875 58.86975) scale(0.088 -0.088)">
      <defs>
       <path id="ArialMT-54" d="M 1659 0 
L 1659 4041 
L 150 4041 
L 150 4581 
L 3781 4581 
L 3781 4041 
L 2266 4041 
L 2266 0 
L 1659 0 
z
" transform="scale(0.015625)"/>
       <path id="ArialMT-75" d="M 2597 0 
L 2597 488 
Q 2209 -75 1544 -75 
Q 1250 -75 995 37 
Q 741 150 617 320 
Q 494 491 444 738 
Q 409 903 409 1263 
L 409 3319 
L 972 3319 
L 972 1478 
Q 972 1038 1006 884 
Q 1059 663 1231 536 
Q 1403 409 1656 409 
Q 1909 409 2131 539 
Q 2353 669 2445 892 
Q 2538 1116 2538 1541 
L 2538 3319 
L 3100 3319 
L 3100 0 
L 2597 0 
z
" transform="scale(0.015625)"/>
       <path id="ArialMT-66" d="M 556 0 
L 556 2881 
L 59 2881 
L 59 3319 
L 556 3319 
L 556 3672 
Q 556 4006 616 4169 
Q 697 4388 901 4523 
Q 1106 4659 1475 4659 
Q 1713 4659 2000 4603 
L 1916 4113 
Q 1741 4144 1584 4144 
Q 1328 4144 1222 4034 
Q 1116 3925 1116 3625 
L 1116 3319 
L 1763 3319 
L 1763 2881 
L 1116 2881 
L 1116 0 
L 556 0 
z
" transform="scale(0.015625)"/>
      </defs>
      <use xlink:href="#ArialMT-54"/>
      <use xlink:href="#ArialMT-72" x="57.333984"/>
      <use xlink:href="#ArialMT-75" x="90.634766"/>
      <use xlink:href="#ArialMT-65" x="146.25"/>
      <use xlink:href="#ArialMT-20" x="201.865234"/>
      <use xlink:href="#ArialMT-72" x="229.648438"/>
      <use xlink:href="#ArialMT-65" x="262.949219"/>
      <use xlink:href="#ArialMT-73" x="318.564453"/>
      <use xlink:href="#ArialMT-70" x="368.564453"/>
      <use xlink:href="#ArialMT-6f" x="424.179688"/>
      <use xlink:href="#ArialMT-6e" x="479.794922"/>
      <use xlink:href="#ArialMT-73" x="535.410156"/>
      <use xlink:href="#ArialMT-65" x="585.410156"/>
      <use xlink:href="#ArialMT-20" x="641.025391"/>
      <use xlink:href="#ArialMT-73" x="668.808594"/>
      <use xlink:href="#ArialMT-75" x="718.808594"/>
      <use xlink:href="#ArialMT-72" x="774.423828"/>
      <use xlink:href="#ArialMT-66" x="807.724609"/>
      <use xlink:href="#ArialMT-61" x="835.507812"/>
      <use xlink:href="#ArialMT-63" x="891.123047"/>
      <use xlink:href="#ArialMT-65" x="941.123047"/>
     </g>
    </g>
   </g>
  </g>
 </g>
 <defs>
  <clipPath id="p66b65854ba">
   <rect x="38.312875" y="7.2" width="408.951125" height="295.736625"/>
  </clipPath>
 </defs>
</svg>